<svg width="45" height="39" viewBox="0 0 45 39" fill="none" xmlns="http://www.w3.org/2000/svg">
<path fill-rule="evenodd" clip-rule="evenodd" d="M20.7422 28.2891C20.6836 27.9961 20.625 27.7031 20.5664 27.4101C19.1865 27.4759 18.0023 27.5402 17.5781 26.6191C17.3063 26.1464 17.4023 25.1601 17.4023 24.4219C17.4037 21.4951 18.3252 22.2577 20.6543 21.6973C20.7083 21.1795 21.709 19.0605 21.709 19.0605C21.3231 18.3327 20.2567 18.0742 20.0391 17.1269C19.7366 15.8105 22.7243 13.4658 23.8184 13.5234L25.6641 15.1055L26.2793 14.8418C25.4702 11.9641 22.0693 11.9051 19.7754 10.4473C19.7461 10.3008 19.7168 10.1543 19.6875 10.0078L19.9512 9.56835C22.6542 9.06078 26.7797 12.3731 27.5098 14.2266L28.3887 14.0508C28.3297 12.8519 28.2553 11.5703 29.0039 11.1504C29.535 10.6978 30.1667 11.1298 30.9375 10.7988L32.7832 8.77733L29.7949 5.70116H29.4434C28.6984 6.68584 27.7739 7.52082 26.7188 8.1621C25.9453 7.90801 21.5166 6.11891 21.2695 5.61327C21.2109 4.49999 21.1523 3.38671 21.0938 2.27343L20.918 2.00976C19.6478 1.98585 17.5575 1.7474 16.6113 2.18554C16.4278 3.27661 16.6445 5.0041 16.3477 5.96483C14.6843 6.82968 12.6785 7.56743 10.9863 8.1621L8.17383 5.70116C7.29 5.97081 5.20585 8.01436 5.00977 8.95311C5.86661 9.83852 6.75791 10.6447 7.4707 11.6777C7.28394 12.2885 5.41626 16.8588 5.09766 17.0391C4.30339 17.5904 2.13311 17.0459 1.31836 17.4785L1.40625 21.6094L1.58203 21.873L5.00977 21.9609C5.5125 22.3629 7.40215 27.0632 7.38281 27.6738L5.00977 30.2226V30.5742L8.08594 33.5625L10.459 31.1894L11.3379 31.0137C12.0752 31.3507 16.1873 32.97 16.4355 33.4746C16.4941 34.6465 16.5527 35.8183 16.6113 36.9902L17.8418 37.3418V38.2207L17.5781 38.3086C15.134 39.3863 15.1117 36.0492 15.2051 34.0898C14.3713 33.8914 11.3658 32.3688 11.0742 32.4199C9.90773 32.6243 9.62473 35.3482 7.73438 34.8808C6.97746 34.6937 3.36683 31.1367 3.69141 29.8711C3.96923 28.7877 5.33918 28.0508 5.97656 27.2344C5.37012 25.9483 4.87063 24.6416 4.30664 23.1914C0.886113 23.2631 0 23.2016 0 19.7637L0.0878906 16.9512C0.990176 14.925 3.33984 16.6673 4.39453 15.8965L5.97656 11.7656C5.28513 11.2711 3.89962 10.1214 3.69141 9.21679C3.36384 7.79375 7.10297 4.03414 8.52539 4.3828C9.61646 4.65025 10.351 6.02636 11.1621 6.66796C12.503 6.20653 13.5599 5.31022 15.2051 5.08593C15.0884 1.37932 15.4052 0.691396 19.0723 0.691396C20.0162 0.691396 21.2221 0.564218 21.7969 0.955068C22.8741 1.68755 22.2341 3.6106 22.5879 5.08593C25.7871 5.61564 26.1568 7.84763 28.3887 4.82226C28.8094 4.62934 29.275 4.18232 30.0586 4.3828C30.8591 4.58759 34.1676 7.86397 34.1016 8.86522C34.0392 9.81031 33.2413 10.2243 32.7832 10.7988V10.8867C35.0675 11.3501 33.2979 13.207 34.0137 14.0508L34.8926 14.2266C36.5905 14.91 36.9856 15.2565 38.1445 13.6992C38.6272 13.56 38.8498 13.5 39.375 13.5234C40.4345 14.0557 42.2559 15.5983 42.3633 17.0391C42.0157 17.9031 41.3882 18.5514 40.6934 19.0605L41.8359 21.7851C45.2881 21.6474 45.7015 23.5842 44.8242 26.7949C44.0733 27.3625 43.2882 27.4446 41.8359 27.4101C41.2183 29.625 40.2577 30.2103 42.1875 31.6289C42.2461 31.9512 42.3047 32.2734 42.3633 32.5957C41.8892 33.7843 40.2568 35.8178 38.6719 35.8476L36.7383 34.1777L34.0137 35.2324C34.032 36.1418 34.008 37.1151 33.8379 37.7812C32.9099 38.5085 29.2043 38.9827 28.5645 37.6055C28.2846 37.1089 28.3681 36.0031 28.3887 35.2324L25.5762 34.1777C24.9472 35.0918 23.8401 36.3245 22.5 35.4961C22.5683 36.8848 22.4416 37.8111 21.5332 38.2207C20.7576 38.7225 19.9321 38.3646 19.6875 37.6933C20.1111 37.1543 20.5067 37.203 21.1816 36.9023V34.0898C20.9149 33.4625 19.7567 33.2885 20.0391 32.0683C20.2569 31.1279 21.5062 30.8144 21.6211 29.959L21.2695 29.5195C14.429 30.1283 9.96987 27.1904 8.78906 21.4336C7.73657 16.3025 10.7032 12.7434 13.4473 10.9746C14.2471 10.459 16.2292 9.1499 17.4902 9.56835L17.9297 9.83202C17.9186 10.3583 17.8475 10.4214 17.666 10.7109C6.48475 13.0914 7.67558 29.0998 20.7422 28.2891ZM18.7207 26.0918C19.5255 26.0742 20.9362 25.915 21.4453 26.2676L23.1152 30.3984C21.3017 33.6615 20.8301 31.2678 23.3789 34.5293L25.1367 32.7715L25.4883 32.6836C26.5715 32.8268 29.0014 33.8953 29.707 34.6172V37.0781H32.6953C32.7246 36.1992 32.7539 35.3203 32.7832 34.4414C33.7747 33.7998 35.7726 32.8275 37.002 32.6836L38.9355 34.4414H39.1113L41.0449 32.4199C40.4576 31.6722 39.3926 31.2422 39.2871 30.0469L41.0449 26.1797L43.6816 26.0918C43.6523 25.0957 43.623 24.0996 43.5938 23.1035L40.957 23.0156C40.7269 22.8666 39.2979 18.9183 39.375 18.709L41.0449 16.8633L39.0234 14.8418H38.8477C38.3227 15.5475 37.6514 16.0981 36.9141 16.5996C36.3555 16.4144 32.8114 14.9979 32.6953 14.666C32.666 13.8164 32.6367 12.9668 32.6074 12.1172L29.707 12.2051C29.7422 13.3287 29.7465 14.4517 29.3555 15.1055C27.8629 15.4553 26.7985 16.0913 25.4883 16.5996L23.4668 14.8418H23.291L21.3574 16.8633L23.0273 18.5332L23.1152 18.709C23.0781 19.9698 22.0544 22.019 21.4453 23.0156L18.7207 23.1914V26.0918ZM30.1465 17.1269C40.7144 16.9062 41.3577 30.1506 32.6953 32.0683C27.2367 33.2768 22.3212 27.8358 23.9062 22.5762C24.9216 19.2067 27.0275 18.458 30.1465 17.1269ZM30.3223 18.4453L28.6523 18.9726C28.7289 19.3242 28.6295 19.4462 28.4766 19.7637C27.8502 19.8051 27.6383 19.5823 27.334 19.8516L26.1914 20.9941C26.4247 21.4121 26.4106 21.4374 26.2793 21.9609C26.0488 22.0488 25.6529 22.1416 25.4883 22.3125C24.6744 23.671 25.6973 24.0104 25.4883 24.8613C25.3044 25.2129 25.1801 25.133 25.0488 25.5644C25.1953 26.0918 25.3418 26.6191 25.4883 27.1465C25.9858 27.1649 26.0784 27.2417 26.3672 27.4101C26.3002 28.2531 26.1279 28.3228 26.6309 28.7285L27.5098 29.6074C28.1753 29.3735 28.8659 29.4828 28.6523 30.3105H28.8281L30.5859 30.8379C30.6862 30.4843 30.7067 30.5015 30.9375 30.3105C31.6684 30.3319 31.6326 30.5039 31.9922 30.8379L33.6621 30.3984C33.7588 30.0359 33.6862 29.7648 34.1016 29.5195C34.4578 29.3851 34.6229 29.5195 34.9805 29.6074L36.2109 28.2891C36.0522 27.9726 36.0385 27.7353 36.123 27.3223C36.3535 27.2344 36.7494 27.1416 36.9141 26.9707C37.2041 26.5234 37.3321 25.9307 37.3535 25.2129C36.9507 25.0881 36.7963 24.864 36.9141 24.5098C37.0793 24.0187 37.2535 24.1395 37.3535 23.543C37.207 23.1328 37.0605 22.7226 36.9141 22.3125L36.0352 21.7851C36.1186 20.4209 35.6791 20.4174 34.8926 19.5879L34.1895 19.8516C33.8725 19.5048 33.7708 19.1038 33.4863 18.8848L31.8164 18.4453C31.6812 18.9063 31.5879 18.9472 31.0254 18.9726L30.3223 18.4453ZM31.0254 19.3242C31.5392 19.3824 31.6393 19.4662 31.8164 19.8516C31.8457 20.8769 31.875 21.9023 31.9043 22.9277C32.5181 23.1538 32.6426 23.5735 33.0469 23.9824C34.0218 23.9449 34.8091 23.9743 35.332 24.334V24.4219L35.0684 25.2129C34.4333 25.2769 33.2764 25.2449 32.7832 25.4766C32.1732 27.4063 29.2398 26.4299 29.3555 24.2461C29.6734 23.5544 29.9557 23.2153 30.5859 22.8398C30.5561 21.7264 30.433 20.1114 30.8496 19.4121L31.0254 19.3242ZM31.0254 24.0703L30.7617 24.4219L30.6738 24.8613L31.2012 25.2129L31.7285 24.8613C31.7096 24.4647 31.6663 24.3875 31.5527 24.1582L31.0254 24.0703Z" fill="url(#paint0_linear_1472_2823)"/>
<defs>
<linearGradient id="paint0_linear_1472_2823" x1="45" y1="20" x2="-8.95983e-08" y2="20" gradientUnits="userSpaceOnUse">
<stop stop-color="#3F66F9"/>
<stop offset="1" stop-color="#4DB2FF"/>
</linearGradient>
</defs>
</svg>
