<svg width="45" height="38" viewBox="0 0 45 38" fill="none" xmlns="http://www.w3.org/2000/svg">
<path fill-rule="evenodd" clip-rule="evenodd" d="M22.2573 0C23.2338 0.0399039 27.8732 1.84037 28.198 2.39423V3.10363L27.9359 3.19231C26.0635 3.8235 24.1983 1.12414 22.3447 1.4188L2.77554 9.13355H2.95027L10.5508 12.0598L22.6068 16.7596L27.8485 14.6314L31.8672 13.0353C30.2684 12.5564 22.5041 9.06066 21.8205 8.06945C21.8788 7.8921 21.937 7.71475 21.9952 7.5374L22.3447 7.36005C23.725 7.51221 24.8851 8.45253 26.0139 8.9562L33.6144 12.4145L42.2633 9.13355L39.3803 7.98077C37.2383 7.11823 30.7509 5.14645 29.421 3.81304V3.36966L29.8578 2.92628C31.1484 3.01984 32.2174 3.74875 33.265 4.16774L41.3023 7.27137L44.7968 8.69018C45.1075 9.19509 45.0489 12.337 44.7094 12.6806L37.7204 15.3408C37.6913 19.0057 37.6622 22.671 37.6331 26.3366C37.215 27.1677 35.205 28.2868 34.3133 28.6421C34.3424 29.8244 34.3716 31.0068 34.4007 32.1891C37.1236 32.7305 36.456 37.9729 33.1776 37.1549C31.8018 36.8117 30.3811 34.8534 31.5177 33.1646L33.0029 32.0118C32.9738 31.1546 32.9446 30.2974 32.9155 29.4402C26.114 32.6693 17.0477 32.493 10.9002 28.7308C9.91601 28.1284 7.91594 27.3652 7.40574 26.3366C6.9864 25.4911 7.28344 20.8032 7.4931 19.9519L8.192 19.7746L8.45409 19.8633C9.06772 21.3542 8.18501 24.5846 8.97826 25.9819L11.6865 27.7554L16.7535 29.7949C23.232 31.7705 28.2409 29.5178 33.0029 27.9327V17.203L22.8689 21.1934C21.6838 21.5006 19.9024 20.2163 19.0249 19.8633L8.71618 15.9615C8.84163 17.4989 8.65852 18.9487 7.40574 18.0898L7.31838 15.3408C6.43646 15.1712 0.330885 12.8191 0.154675 12.4145C-0.19853 11.6038 0.110994 8.68353 0.504124 8.42415L22.2573 0ZM1.46511 10.109V11.7051L21.8205 19.5086V17.9124L1.46511 10.109ZM43.3116 10.109C41.7059 11.046 33.3563 12.7849 34.4007 15.2521L43.5737 11.7051V10.109H43.3116ZM32.7408 14.188L23.2183 17.9124V19.5086L33.0029 15.7842V14.188H32.7408ZM36.1479 15.9615L34.3133 16.6709C34.3424 20.1289 34.3716 23.5873 34.4007 27.046L36.3226 25.7158C36.3426 24.2411 36.661 16.5525 36.1479 15.9615ZM33.6144 33.3419L32.6534 33.874C32.5952 34.1991 32.537 34.5242 32.4787 34.8494C32.756 35.4534 33.031 35.7841 33.8765 35.8248C34.3295 35.5982 34.5237 35.3765 34.8375 35.0267C34.8084 34.7016 34.7792 34.3764 34.7501 34.0513C34.4356 33.6214 34.1877 33.5298 33.6144 33.3419Z" fill="url(#paint0_linear_1528_3025)"/>
<defs>
<linearGradient id="paint0_linear_1528_3025" x1="45" y1="10.5" x2="-2" y2="11.5" gradientUnits="userSpaceOnUse">
<stop stop-color="#3D58F9"/>
<stop offset="1" stop-color="#4DB2FF"/>
</linearGradient>
</defs>
</svg>
