<svg id="Illustration" xmlns="http://www.w3.org/2000/svg" xmlns:xlink="http://www.w3.org/1999/xlink" viewBox="0 0 375 428"><defs><style>.cls-1{fill:#25b5df;opacity:0.5;}.cls-2{fill:url(#_24);}.cls-3{fill:url(#Безымянный_градиент_45);}</style><linearGradient id="_24" x1="183.81" y1="549.79" x2="181.6" y2="-255.51" gradientUnits="userSpaceOnUse"><stop offset="0" stop-color="#53d8ff"/><stop offset="0.75" stop-color="#3840f7"/></linearGradient><linearGradient id="Безымянный_градиент_45" x1="183.89" y1="1495.29" x2="181.36" y2="577.69" gradientTransform="matrix(1, 0, 0, -0.81, 0, 1096.35)" gradientUnits="userSpaceOnUse"><stop offset="0" stop-color="#444b8c"/><stop offset="1" stop-color="#26264f"/></linearGradient></defs><path class="cls-1" d="M-223.6,18.13s26.85-21.48,111.74-.66c48.34,11.86,106.7-19.1,141-15.15C56.6,5.5,82.13,28,130.52,34.59c26.24,3.59,90-11.26,115.26-17.12,22.09-5.12,61.91-7.24,92.37-8.56C387.46,6.78,421.63-6.37,450-12.17c31.51-6.45,69.82-8.37,100.11,6.59l40.84,21.73c2,.62-1.13,10-1.13,13.17l.85,378.9c0,2.61-1,5-2.52,6.08h0c-32.21,23-57.66-17.3-97.75-12.84-30.87,3.42-57.93,18.75-87.8,6.19l-53.2-22.37c-17.8-7.48-36.63-6.46-54.05,2.93l-4.55,2.45c-40,21.58-83.42,23.1-124,4.35l-4.59-2.12c-30.71-14.18-63.45-13.79-94,1.12L8.27,423.21c-21.36,10.41-44.07,12.68-66,6A150.14,150.14,0,0,1-91,414.16c-15.17-9.07-40-7.18-62.71-4.62-22.18,2.5-43.9-10.67-59.12-35.86l-10.38-16.35C-225.55,357.3-225.35,19.05-223.6,18.13Z"/><path class="cls-2" d="M-222.54,335.38l66.77,33.14c33.88,12.15,75.86-27.87,148.08-4,27.49,9.09,55.89,9.32,83.36.08l38-12.79a195.83,195.83,0,0,1,114.83-3.18l69,19.08c49.44,13.66,90.51,7.12,140.68-3.21,0,0,156.44,1.93,152.63-24.68L590,49.18a4.56,4.56,0,0,0-2.51-4.12h0A182.62,182.62,0,0,0,457.63,33.69l-108.91,31a87.41,87.41,0,0,1-54.05-2l-4.54-1.66a192.78,192.78,0,0,0-124-2.95l-4.6,1.44a153.13,153.13,0,0,1-94-.77L7.63,39C-13.73,32-28.65,29.26-50.62,33.77c-12.51,2.57-34.14,22.52-43.67,26.38-15.18,6.15-37.29-10.13-60-11.87a71.82,71.82,0,0,0-59.11,24.3l-10.39,11.08C-226.18,83.68-224.29,334.75-222.54,335.38Z"/><path class="cls-3" d="M-223.82,99.41l61.69-29.74c39.84-16.06,84.37-20.24,135.29-1.87,7.67,2.77,15.22,5.74,22.55,8.5a74.66,74.66,0,0,0,44.51,2.84l19.59-4.76c36.68-8.92,74.19-6.52,110.25,6.89,18.92,7,37.9,11.82,57.18,7.58l69-15.17c47.88-10.53,33.83-48.46,147-9.07,40.19,14,64.68,1.71,86.06,2.53C557.71,68.24,590,91.82,590,91.82l.42,225.84c0,1-46.95,27.95-87.16,43.89a95.24,95.24,0,0,1-65.05,2.36l-89.06-28.42a108.69,108.69,0,0,0-54,1.58l-4.55,1.32a240,240,0,0,1-124,2.34l-4.59-1.14a190.86,190.86,0,0,0-94,.61L8.05,355.93a159.58,159.58,0,0,1-66,3.25,227.47,227.47,0,0,1-33.2-8.12c-15.18-4.89-40-3.87-62.71-2.49-22.18,1.34-43.9-5.75-59.12-19.33l-10.38-8.82C-225.76,320.4-225.56,99.91-223.82,99.41Z"/></svg>