<svg xmlns="http://www.w3.org/2000/svg" xmlns:xlink="http://www.w3.org/1999/xlink" viewBox="0 0 1927 1056.78"><defs><style>.cls-1{fill:#25b5df;opacity:0.5;}.cls-2{fill:url(#_24);}.cls-3{fill:url(#Безымянный_градиент_45);}</style><linearGradient id="_24" x1="964.9" y1="1331.05" x2="959.69" y2="-560.11" gradientUnits="userSpaceOnUse"><stop offset="0" stop-color="#53d8ff"/><stop offset="0.75" stop-color="#3840f7"/></linearGradient><linearGradient id="Безымянный_градиент_45" x1="965.06" y1="1574.86" x2="959.12" y2="-580.02" gradientTransform="matrix(1, 0, 0, -0.81, 0, 1047.5)" gradientUnits="userSpaceOnUse"><stop offset="0" stop-color="#444b8c"/><stop offset="1" stop-color="#26264f"/></linearGradient></defs><g id="Слой_2" data-name="Слой 2"><g id="Illustration"><path class="cls-1" d="M3.64,82.5S67,32.06,267.29,81C381.35,108.79,519,36.09,599.84,45.38c64.91,7.45,125.14,60.28,239.32,75.79,61.91,8.41,212.26-26.45,271.95-40.22,52.12-12,146.07-17,217.94-20.11,116.35-5,197-35.88,263.8-49.49,74.34-15.15,164.74-19.66,236.2,15.46l96.35,51.05c4.77,1.44-2.66,23.4-2.66,30.92l2,889.8c0,6.14-2.31,11.72-5.93,14.28h0c-76,53.94-136-40.61-230.64-30.16-72.83,8-136.67,44-207.15,14.55l-125.53-52.54c-42-17.57-86.43-15.18-127.52,6.88l-10.73,5.75c-94.46,50.69-196.82,54.26-292.66,10.22l-10.84-5c-72.46-33.3-149.7-32.38-221.83,2.64l-141.19,68.56c-50.39,24.47-104,29.79-155.8,14.15-29.51-8.9-55.84-22-78.34-35.4-35.81-21.3-94.33-16.85-148-10.84C116.28,1007.55,65,976.64,29.14,917.47l-24.5-38.4C-.95,879-.47,84.66,3.64,82.5Z"/><path class="cls-2" d="M6.14,827.53l157.55,77.84c79.94,28.53,179-65.45,349.38-9.37,64.86,21.35,131.86,21.89,196.68.19l89.67-30a464,464,0,0,1,270.94-7.46l162.86,44.8c116.65,32.09,213.54,16.71,331.91-7.54,0,0,369.11,4.54,360.11-58l-2-682.59a10.71,10.71,0,0,0-5.93-9.69h0A432.73,432.73,0,0,0,1611,119l-257,72.88a207.15,207.15,0,0,1-127.52-4.66l-10.73-3.9a456.89,456.89,0,0,0-292.66-6.92l-10.84,3.37A363,363,0,0,1,690.41,178L549.22,131.56C498.83,115,463.6,108.63,411.77,119.23c-29.52,6-80.54,52.89-103,62-35.82,14.44-88-23.8-141.63-27.87-52.33-4-103.58,17-139.47,57.06l-24.5,26C-2.45,236.45,2,826.06,6.14,827.53Z"/><path class="cls-3" d="M3.14,273.39l145.55-69.85c94-37.72,199.06-47.54,319.2-4.39,18.1,6.5,35.91,13.47,53.2,19.95,34.33,12.87,70.07,15.14,105,6.68l46.24-11.19c86.54-21,175-15.3,260.12,16.18,44.62,16.52,89.42,27.77,134.9,17.82L1230.22,213c113-24.72,79.8-113.81,346.91-21.29,94.83,32.85,152.62,4,203.06,5.94,66.88,2.57,143,57.94,143,57.94l1,530.38c0,2.46-110.79,65.63-205.66,103.08-50.14,19.79-102.73,21.63-153.47,5.52L1355,827.79a257.67,257.67,0,0,0-127.52,3.7l-10.73,3.1a568.63,568.63,0,0,1-292.66,5.51l-10.84-2.68a452.16,452.16,0,0,0-221.83,1.42l-141.19,37a378.43,378.43,0,0,1-155.8,7.63,540.58,540.58,0,0,1-78.34-19.09c-35.81-11.48-94.33-9.08-148-5.84C115.78,861.66,64.53,845,28.64,813.1L4.14,792.4C-1.45,792.36-1,274.55,3.14,273.39Z"/></g></g></svg>