<svg xmlns="http://www.w3.org/2000/svg" xmlns:xlink="http://www.w3.org/1999/xlink" width="512" height="512" viewBox="0 0 512 512">
  <defs>
    <style>
      .cls-1 {
        fill: #4e4e4e;
        fill-rule: evenodd;
        filter: url(#filter);
      }
    </style>
    <filter id="filter" x="-1.781" y="47" width="515.125" height="419.969" filterUnits="userSpaceOnUse">
      <feFlood result="flood" flood-color="#fff"/>
      <feComposite result="composite" operator="in" in2="SourceGraphic"/>
      <feBlend result="blend" in2="SourceGraphic"/>
    </filter>
  </defs>
  <path id="my_vector_mask_shape" class="cls-1" d="M253,47c11.177,0.45,64.283,20.754,68,27v8l-3,1c-21.432,7.118-42.783-23.323-64-20L30,150h2l87,33,138,53,60-24,46-18c-18.3-5.4-107.175-44.822-115-56q1-3,2-6l4-2c15.8,1.716,29.079,12.32,42,18l87,39,99-37-33-13c-24.519-9.727-98.777-31.963-114-47V85l5-5c14.772,1.055,27.009,9.275,39,14l92,35,40,16c3.557,5.694,2.886,41.126-1,45l-80,30q-0.5,61.994-1,124c-4.786,9.373-27.793,21.993-38,26q0.5,20,1,40c31.168,6.105,23.526,65.224-14,56-15.748-3.871-32.01-25.955-19-45l17-13q-0.5-14.5-1-29c-77.854,36.415-181.633,34.427-252-8-11.266-6.793-34.16-15.4-40-27-4.8-9.534-1.4-62.4,1-72l8-2,3,1c7.024,16.814-3.08,53.243,6,69l31,20,58,23c74.157,22.279,131.492-3.125,186-21V241L260,286c-13.565,3.464-33.956-11.019-44-15L98,227c1.436,17.337-.66,33.686-15,24l-1-31c-10.095-1.913-79.983-28.438-82-33-4.043-9.143-.5-42.075,4-45ZM15,161v18l233,88V249Zm479,0c-18.38,10.567-113.954,30.177-102,58l105-40V161h-3ZM373,207L264,249v18l112-42V207h-3Zm39,20-21,8q0.5,58.494,1,117l22-15C414.228,320.369,417.873,233.664,412,227ZM383,423l-11,6q-1,5.5-2,11c3.174,6.812,6.322,10.541,16,11,5.185-2.555,7.408-5.056,11-9q-0.5-5.5-1-11C392.4,426.152,389.562,425.119,383,423Z"/>
</svg>
