<svg width="32" height="32" viewBox="0 0 32 32" fill="none" xmlns="http://www.w3.org/2000/svg">
<path d="M31.9851 16.0044C31.9853 19.6298 30.7558 23.1456 28.5019 25.9646C27.4789 27.2424 26.2731 28.3586 24.9243 29.2763C22.5252 30.8941 19.7392 31.8275 16.8597 31.9783C13.9802 32.1291 11.1137 31.4916 8.56234 30.133C6.01094 28.7744 3.86899 26.745 2.36212 24.2585C0.855248 21.772 0.0392234 18.9205 0 16.0044C0.0431102 12.6671 1.10325 9.4245 3.03575 6.71917C4.96825 4.01385 7.67896 1.97754 10.798 0.888148C13.917 -0.201248 17.2924 -0.29067 20.4635 0.632086C23.6346 1.55484 26.447 3.44483 28.5169 6.04412C30.7718 8.86253 32.0014 12.3787 32 16.0044H31.9851Z" fill="url(#paint0_linear_116_2)"/>
<path d="M24.9387 2.73047V9.77662C24.2233 8.97225 23.3495 8.32796 22.3735 7.88507C21.3976 7.44218 20.3408 7.21047 19.2711 7.20478C14.8376 7.20478 11.25 11.1506 11.25 16.0125C11.25 20.8743 14.8376 24.8101 19.2711 24.8101C20.3401 24.806 21.3965 24.576 22.3725 24.1348C23.3485 23.6937 24.2226 23.0511 24.9387 22.2483V29.2945C26.2875 28.3768 27.4934 27.2606 28.5164 25.9828V6.04216C27.4959 4.7619 26.2897 3.64534 24.9387 2.73047V2.73047ZM24.9387 17.4368C24.5874 18.7486 23.7562 19.8762 22.6135 20.5911C21.4709 21.306 20.1022 21.5548 18.7849 21.2869C17.4676 21.019 16.3003 20.2546 15.5196 19.1485C14.7389 18.0425 14.4031 16.6775 14.5804 15.3304C14.7576 13.9832 15.4347 12.7546 16.4742 11.8936C17.5138 11.0326 18.8381 10.6036 20.1788 10.6935C21.5195 10.7835 22.7762 11.3857 23.6943 12.378C24.6123 13.3703 25.123 14.6786 25.1228 16.0376C25.1235 16.5185 25.0616 16.9974 24.9387 17.462V17.4368Z" fill="white"/>
<defs>
<linearGradient id="paint0_linear_116_2" x1="2.18939" y1="7.91638" x2="29.5869" y2="23.555" gradientUnits="userSpaceOnUse">
<stop stop-color="#07D9EF"/>
<stop offset="1" stop-color="#0280EC"/>
</linearGradient>
</defs>
</svg>
