<svg xmlns="http://www.w3.org/2000/svg" xmlns:xlink="http://www.w3.org/1999/xlink" width="400" height="400" viewBox="0 0 400 400">
  <defs>
    <style>
      .cls-1 {
        fill: url(#Безымянный_градиент_78);
      }

      .cls-2 {
        fill: url(#Безымянный_градиент_78-2);
      }

      .cls-3, .cls-5 {
        fill: #25b5df;
      }

      .cls-3, .cls-33, .cls-41, .cls-43, .cls-5, .cls-65, .cls-68 {
        mix-blend-mode: multiply;
      }

      .cls-4 {
        isolation: isolate;
      }

      .cls-27, .cls-33, .cls-41, .cls-43, .cls-5, .cls-65, .cls-68 {
        opacity: 0.3;
      }

      .cls-5 {
        filter: url(#filter);
      }

      .cls-6 {
        clip-path: url(#clip-path);
      }

      .cls-10, .cls-21, .cls-23, .cls-24, .cls-25, .cls-26, .cls-27, .cls-7 {
        mix-blend-mode: soft-light;
      }

      .cls-7 {
        opacity: 0.7;
      }

      .cls-8 {
        fill: #fcfdfe;
      }

      .cls-9 {
        clip-path: url(#clip-path-2);
      }

      .cls-11 {
        fill: url(#Безымянный_градиент_78-5);
      }

      .cls-12 {
        fill: url(#Безымянный_градиент_78-6);
      }

      .cls-13 {
        fill: url(#Безымянный_градиент_78-7);
      }

      .cls-14 {
        fill: url(#Безымянный_градиент_78-8);
      }

      .cls-15 {
        clip-path: url(#clip-path-3);
      }

      .cls-16 {
        fill: #beb8f2;
      }

      .cls-17 {
        fill: url(#linear-gradient);
      }

      .cls-18 {
        fill: url(#linear-gradient-2);
      }

      .cls-19 {
        fill: url(#linear-gradient-3);
      }

      .cls-20 {
        fill: url(#linear-gradient-4);
      }

      .cls-21 {
        opacity: 0.6;
      }

      .cls-22, .cls-23, .cls-25, .cls-27 {
        fill: #fff;
      }

      .cls-23, .cls-26 {
        opacity: 0.8;
      }

      .cls-24, .cls-25, .cls-69 {
        opacity: 0.5;
      }

      .cls-28 {
        fill: url(#linear-gradient-5);
      }

      .cls-29 {
        fill: url(#linear-gradient-6);
      }

      .cls-30 {
        fill: url(#linear-gradient-7);
      }

      .cls-31 {
        fill: url(#linear-gradient-8);
      }

      .cls-32 {
        fill: url(#linear-gradient-9);
      }

      .cls-33 {
        fill: url(#linear-gradient-10);
      }

      .cls-34 {
        fill: url(#linear-gradient-11);
      }

      .cls-35 {
        fill: url(#linear-gradient-12);
      }

      .cls-36 {
        fill: url(#linear-gradient-13);
      }

      .cls-37 {
        fill: url(#linear-gradient-14);
      }

      .cls-38 {
        fill: url(#linear-gradient-15);
      }

      .cls-39 {
        fill: url(#linear-gradient-16);
      }

      .cls-40 {
        fill: url(#linear-gradient-17);
      }

      .cls-41 {
        fill: url(#linear-gradient-18);
      }

      .cls-42 {
        fill: url(#linear-gradient-19);
      }

      .cls-43 {
        fill: url(#linear-gradient-20);
      }

      .cls-44 {
        fill: url(#linear-gradient-21);
      }

      .cls-45 {
        fill: url(#linear-gradient-22);
      }

      .cls-46 {
        fill: url(#linear-gradient-23);
      }

      .cls-47 {
        fill: url(#linear-gradient-24);
      }

      .cls-48 {
        fill: url(#linear-gradient-25);
      }

      .cls-49 {
        fill: url(#linear-gradient-26);
      }

      .cls-50 {
        fill: url(#linear-gradient-27);
      }

      .cls-51 {
        fill: url(#linear-gradient-28);
      }

      .cls-52 {
        fill: url(#linear-gradient-29);
      }

      .cls-53 {
        fill: url(#linear-gradient-30);
      }

      .cls-54 {
        fill: url(#linear-gradient-31);
      }

      .cls-55 {
        fill: url(#linear-gradient-32);
      }

      .cls-56 {
        fill: url(#linear-gradient-33);
      }

      .cls-57 {
        fill: url(#linear-gradient-34);
      }

      .cls-58 {
        fill: url(#linear-gradient-35);
      }

      .cls-59 {
        fill: url(#linear-gradient-36);
      }

      .cls-60 {
        fill: url(#linear-gradient-37);
      }

      .cls-61 {
        fill: url(#linear-gradient-38);
      }

      .cls-62 {
        fill: url(#linear-gradient-39);
      }

      .cls-63 {
        fill: url(#linear-gradient-40);
      }

      .cls-64 {
        fill: url(#linear-gradient-41);
      }

      .cls-65 {
        fill: url(#linear-gradient-42);
      }

      .cls-66 {
        fill: url(#linear-gradient-43);
      }

      .cls-67 {
        fill: url(#linear-gradient-44);
      }

      .cls-68 {
        fill: url(#linear-gradient-45);
      }
    </style>
    <linearGradient id="Безымянный_градиент_78" data-name="Безымянный градиент 78" x1="19570.54" y1="159.86" x2="19683.42" y2="159.86" gradientTransform="matrix(-1, 0, 0, 1, 19858.95, 0)" gradientUnits="userSpaceOnUse">
      <stop offset="0" stop-color="#3cc"/>
      <stop offset="0.41" stop-color="#f2bfff"/>
      <stop offset="0.98" stop-color="#f2bfff"/>
    </linearGradient>
    <linearGradient id="Безымянный_градиент_78-2" x1="98.61" y1="148.64" x2="222.05" y2="148.64" gradientTransform="matrix(1, 0, 0, 1, 0, 0)" xlink:href="#Безымянный_градиент_78"/>
    <filter id="filter" x="28.94" y="256.16" width="362.16" height="129.84" filterUnits="userSpaceOnUse">
      <feOffset dx="10" dy="10" input="SourceAlpha"/>
      <feGaussianBlur stdDeviation="7" result="blur"/>
      <feFlood/>
      <feComposite operator="in" in2="blur"/>
      <feComposite in="SourceGraphic"/>
    </filter>
    <clipPath id="clip-path">
      <path class="cls-1" d="M186.71,236.26c-3.73,4.59-7.32,7.94-11.17,12.26,23.85,7.26,45.5,18.64,69.67,26-5.28-32.15-15.3-49.13,6.61-79.91,10.28-14.45,34.77-39.91,34.12-57.95-.74-20.56-15.17-20.76-5.85-35.47,14.57-23,12.32-53.84-25.48-56-37.32-2.18-69.85,89.23-60,121.13C197.58,195.14,206.22,212.28,186.71,236.26Z"/>
    </clipPath>
    <clipPath id="clip-path-2">
      <path class="cls-2" d="M178.85,134c-1.77,32.75,17.93,30.72,43.2,29.21-11.61,28.27-21.87,56.21-32.18,84.61-16.93.76-29.06,1-33.23-19.16-4.72-22.78-6.68-36.08-29.69-47.35s-36.78-33.9-22.59-55.22c14.94-22.43,2-60,27.25-72.64C175.7,31.51,180.69,99.9,178.85,134Z"/>
    </clipPath>
    <linearGradient id="Безымянный_градиент_78-5" x1="52.06" y1="127.01" x2="52.15" y2="127.01" gradientTransform="matrix(1, 0, 0, 1, 0, 0)" xlink:href="#Безымянный_градиент_78"/>
    <linearGradient id="Безымянный_градиент_78-6" x1="52.06" y1="233.02" x2="52.15" y2="233.02" gradientTransform="matrix(1, 0, 0, 1, 0, 0)" xlink:href="#Безымянный_градиент_78"/>
    <linearGradient id="Безымянный_градиент_78-7" x1="52.06" y1="155.58" x2="52.15" y2="155.58" gradientTransform="matrix(1, 0, 0, 1, 0, 0)" xlink:href="#Безымянный_градиент_78"/>
    <linearGradient id="Безымянный_градиент_78-8" x1="52.06" y1="76.14" x2="52.15" y2="76.14" gradientTransform="matrix(1, 0, 0, 1, 0, 0)" xlink:href="#Безымянный_градиент_78"/>
    <clipPath id="clip-path-3">
      <path class="cls-3" d="M202.39,301.66q-14.53-7.31-28.83-15.19c-.21.07,3-19.42,16.9-25.26,27.33-11.15,19.36-32.84,18.91-44.15-1.32-16.18,7.38-30.07,24.53-24.17,19.14,6.24,31.87-18.55,36.9-43.45,1.47-12.5,19.59-21.79,33.83-20.3,14.63,1.25,25.37,13.3,21.23,37.77-3.33,28.87-32.49,36.53-45.93,46.77-13.22,10,2.83,27.79-17.29,33.67-17.13,5.5-36.72,6.84-35.16,22C229.27,284.49,224,294.42,202.39,301.66Z"/>
    </clipPath>
    <linearGradient id="linear-gradient" x1="22037.92" y1="-105.51" x2="22177.09" y2="-105.51" gradientTransform="matrix(-1, 0.02, 0.02, 1, 22317.85, -140.35)" gradientUnits="userSpaceOnUse">
      <stop offset="0" stop-color="#444b8c"/>
      <stop offset="1" stop-color="#26264f"/>
    </linearGradient>
    <linearGradient id="linear-gradient-2" x1="19582.87" y1="193.18" x2="19718.48" y2="193.18" gradientTransform="matrix(-1, 0, 0, 1, 19858.95, 0)" xlink:href="#linear-gradient"/>
    <linearGradient id="linear-gradient-3" x1="227.35" y1="73.58" x2="177.69" y2="377.54" gradientUnits="userSpaceOnUse">
      <stop offset="0" stop-color="#53d8ff"/>
      <stop offset="1" stop-color="#3840f7"/>
    </linearGradient>
    <linearGradient id="linear-gradient-4" x1="19640.27" y1="87.53" x2="19644.15" y2="87.53" gradientTransform="matrix(-1, 0, 0, 1, 19858.95, 0)" xlink:href="#linear-gradient-3"/>
    <linearGradient id="linear-gradient-5" x1="24125.73" y1="298.9" x2="24127.95" y2="327.1" gradientTransform="matrix(-1, 0, 0, 1, 24267.55, 0)" gradientUnits="userSpaceOnUse">
      <stop offset="0" stop-color="#aa80f9"/>
      <stop offset="1" stop-color="#6165d7"/>
    </linearGradient>
    <linearGradient id="linear-gradient-6" x1="24130.99" y1="314.64" x2="24130.59" y2="285.52" gradientTransform="matrix(-1, 0, 0, 1, 24267.55, 0)" gradientUnits="userSpaceOnUse">
      <stop offset="0" stop-color="#893976"/>
      <stop offset="1" stop-color="#311944"/>
    </linearGradient>
    <linearGradient id="linear-gradient-7" x1="24163.03" y1="295.61" x2="24165.26" y2="323.87" xlink:href="#linear-gradient-5"/>
    <linearGradient id="linear-gradient-8" x1="24165.2" y1="314.11" x2="24164.8" y2="284.99" xlink:href="#linear-gradient-6"/>
    <linearGradient id="linear-gradient-9" x1="23498.51" y1="267.48" x2="23517.76" y2="267.48" gradientTransform="matrix(-1, 0, 0, 1, 23641.28, 0)" gradientUnits="userSpaceOnUse">
      <stop offset="0" stop-color="#ab316d"/>
      <stop offset="1" stop-color="#792d3d"/>
    </linearGradient>
    <linearGradient id="linear-gradient-10" x1="23499.84" y1="267.48" x2="23517.76" y2="267.48" xlink:href="#linear-gradient-9"/>
    <linearGradient id="linear-gradient-11" x1="23503.85" y1="265.36" x2="23542.6" y2="265.36" xlink:href="#linear-gradient-9"/>
    <linearGradient id="linear-gradient-12" x1="23531.51" y1="166.56" x2="23568.54" y2="200.46" gradientTransform="matrix(-1, 0, 0, 1, 23641.28, 0)" gradientUnits="userSpaceOnUse">
      <stop offset="0" stop-color="#26264f"/>
      <stop offset="1" stop-color="#444b8c"/>
    </linearGradient>
    <linearGradient id="linear-gradient-13" x1="23439.66" y1="156.9" x2="23446.55" y2="156.9" gradientTransform="matrix(-1, 0, 0, 1, 23641.28, 0)" gradientUnits="userSpaceOnUse">
      <stop offset="0" stop-color="#311944"/>
      <stop offset="1" stop-color="#893976"/>
    </linearGradient>
    <linearGradient id="linear-gradient-14" x1="19679.37" y1="206" x2="19661.16" y2="292.35" gradientTransform="matrix(-1, 0, 0, 1, 19858.95, 0)" gradientUnits="userSpaceOnUse">
      <stop offset="0" stop-color="#ffc444"/>
      <stop offset="1" stop-color="#f36f56"/>
    </linearGradient>
    <linearGradient id="linear-gradient-15" x1="19733.12" y1="217.33" x2="19714.91" y2="303.69" xlink:href="#linear-gradient-14"/>
    <linearGradient id="linear-gradient-16" x1="23490.18" y1="200.12" x2="23478.12" y2="220.11" gradientTransform="matrix(-1, 0, 0, 1, 23641.28, 0)" gradientUnits="userSpaceOnUse">
      <stop offset="0" stop-color="#6165d7"/>
      <stop offset="1" stop-color="#aa80f9"/>
    </linearGradient>
    <linearGradient id="linear-gradient-17" x1="23484.8" y1="179.16" x2="23481.25" y2="190.76" xlink:href="#linear-gradient-12"/>
    <linearGradient id="linear-gradient-18" x1="23497.23" y1="197.48" x2="23467.5" y2="213.31" gradientTransform="matrix(-1, 0, 0, 1, 23641.28, 0)" gradientUnits="userSpaceOnUse">
      <stop offset="0" stop-color="#ff9085"/>
      <stop offset="1" stop-color="#fb6fbb"/>
    </linearGradient>
    <linearGradient id="linear-gradient-19" x1="19726.9" y1="223.86" x2="19712.06" y2="202.95" gradientTransform="matrix(-1, 0, 0, 1, 19858.95, 0)" xlink:href="#linear-gradient-13"/>
    <linearGradient id="linear-gradient-20" x1="23488.46" y1="209.73" x2="23559.11" y2="209.73" gradientTransform="matrix(-1, 0, 0, 1, 23641.28, 0)" xlink:href="#linear-gradient-14"/>
    <linearGradient id="linear-gradient-21" x1="19731.28" y1="216.95" x2="19713.07" y2="303.3" xlink:href="#linear-gradient-14"/>
    <linearGradient id="linear-gradient-22" x1="19721.75" y1="152.6" x2="19709.44" y2="176.72" gradientTransform="matrix(-1, 0, 0, 1, 19858.95, 0)" xlink:href="#linear-gradient-13"/>
    <linearGradient id="linear-gradient-23" x1="19731.29" y1="138.58" x2="19716.45" y2="154.09" gradientTransform="matrix(-1, 0, 0, 1, 19858.95, 0)" xlink:href="#linear-gradient-13"/>
    <linearGradient id="linear-gradient-24" x1="7018.84" y1="15659.37" x2="7018.15" y2="15599.23" gradientTransform="matrix(0, -1, -1, 0, 15927.26, 7327.72)" xlink:href="#linear-gradient-14"/>
    <linearGradient id="linear-gradient-25" x1="7041.25" y1="15658.87" x2="7040.56" y2="15599.07" gradientTransform="matrix(0, -1, -1, 0, 15927.26, 7327.72)" xlink:href="#linear-gradient-14"/>
    <linearGradient id="linear-gradient-26" x1="7062.32" y1="15659.59" x2="7061.61" y2="15598.52" gradientTransform="matrix(0, -1, -1, 0, 15927.26, 7327.72)" xlink:href="#linear-gradient-14"/>
    <linearGradient id="linear-gradient-27" x1="7065.83" y1="15658.04" x2="7065.15" y2="15599.25" gradientTransform="matrix(0, -1, -1, 0, 15927.26, 7327.72)" xlink:href="#linear-gradient-14"/>
    <linearGradient id="linear-gradient-28" x1="7026.23" y1="15658.24" x2="7025.56" y2="15599.65" gradientTransform="matrix(0, -1, -1, 0, 15927.26, 7327.72)" xlink:href="#linear-gradient-14"/>
    <linearGradient id="linear-gradient-29" x1="7042.95" y1="15658.02" x2="7042.28" y2="15599.67" gradientTransform="matrix(0, -1, -1, 0, 15927.26, 7327.72)" xlink:href="#linear-gradient-14"/>
    <linearGradient id="linear-gradient-30" x1="7058.66" y1="15657.87" x2="7057.98" y2="15598.91" gradientTransform="matrix(0, -1, -1, 0, 15927.26, 7327.72)" xlink:href="#linear-gradient-14"/>
    <linearGradient id="linear-gradient-31" x1="7066.38" y1="15657.71" x2="7065.71" y2="15599.85" gradientTransform="matrix(0, -1, -1, 0, 15927.26, 7327.72)" xlink:href="#linear-gradient-14"/>
    <linearGradient id="linear-gradient-32" x1="4160.19" y1="-12402.63" x2="4159.62" y2="-12451.91" gradientTransform="matrix(0, 1, 1, 0, 12603.99, -3915.03)" xlink:href="#linear-gradient-14"/>
    <linearGradient id="linear-gradient-33" x1="4180.43" y1="-12402.69" x2="4179.86" y2="-12452.22" gradientTransform="matrix(0, 1, 1, 0, 12603.99, -3915.03)" xlink:href="#linear-gradient-14"/>
    <linearGradient id="linear-gradient-34" x1="4199.4" y1="-12403.61" x2="4198.83" y2="-12452.21" gradientTransform="matrix(0, 1, 1, 0, 12603.99, -3915.03)" xlink:href="#linear-gradient-14"/>
    <linearGradient id="linear-gradient-35" x1="4203.02" y1="-12402.52" x2="4202.44" y2="-12452.85" gradientTransform="matrix(0, 1, 1, 0, 12603.99, -3915.03)" xlink:href="#linear-gradient-14"/>
    <linearGradient id="linear-gradient-36" x1="4166.44" y1="-12401.89" x2="4165.86" y2="-12452.37" gradientTransform="matrix(0, 1, 1, 0, 12603.99, -3915.03)" xlink:href="#linear-gradient-14"/>
    <linearGradient id="linear-gradient-37" x1="4181.83" y1="-12402.05" x2="4181.25" y2="-12452.73" gradientTransform="matrix(0, 1, 1, 0, 12603.99, -3915.03)" xlink:href="#linear-gradient-14"/>
    <linearGradient id="linear-gradient-38" x1="4196.3" y1="-12402.24" x2="4195.72" y2="-12452.44" gradientTransform="matrix(0, 1, 1, 0, 12603.99, -3915.03)" xlink:href="#linear-gradient-14"/>
    <linearGradient id="linear-gradient-39" x1="4203.76" y1="-12402.27" x2="4203.17" y2="-12453.34" gradientTransform="matrix(0, 1, 1, 0, 12603.99, -3915.03)" xlink:href="#linear-gradient-14"/>
    <linearGradient id="linear-gradient-40" x1="19580.15" y1="274.34" x2="19661.98" y2="274.34" gradientTransform="matrix(-1, 0, 0, 1, 19858.95, 0)" xlink:href="#linear-gradient-13"/>
    <linearGradient id="linear-gradient-41" x1="19582.05" y1="276.31" x2="19663.77" y2="276.31" gradientTransform="matrix(-1, 0, 0, 1, 19858.95, 0)" xlink:href="#linear-gradient-13"/>
    <linearGradient id="linear-gradient-42" x1="19582.05" y1="278.42" x2="19663.15" y2="278.42" gradientTransform="matrix(-1, 0, 0, 1, 19858.95, 0)" xlink:href="#linear-gradient-13"/>
    <linearGradient id="linear-gradient-43" x1="19651.04" y1="317.09" x2="19630.96" y2="287.52" gradientTransform="matrix(-1, 0, 0, 1, 19858.95, 0)" xlink:href="#linear-gradient-13"/>
    <linearGradient id="linear-gradient-44" x1="19634.26" y1="252.24" x2="19580.59" y2="367.43" xlink:href="#linear-gradient-14"/>
    <linearGradient id="linear-gradient-45" x1="19625.6" y1="270.1" x2="19589.79" y2="346.95" xlink:href="#linear-gradient-14"/>
  </defs>
  <g class="cls-4">
    <g id="Illustration">
      <g>
        <path class="cls-5" d="M190.18,268.88c96.72-3.41,128.08-2.94,161.24,23,25.82,20.18-8.25,23.93-80.28,52.11-40.64,15.89-109.79,10.89-149.81,6.52C55.86,343.37,27.58,316,45.08,294.92,70.17,264.68,91.86,272.34,190.18,268.88Z"/>
        <g>
          <path class="cls-1" d="M186.71,236.26c-3.73,4.59-7.32,7.94-11.17,12.26,23.85,7.26,45.5,18.64,69.67,26-5.28-32.15-15.3-49.13,6.61-79.91,10.28-14.45,34.77-39.91,34.12-57.95-.74-20.56-15.17-20.76-5.85-35.47,14.57-23,12.32-53.84-25.48-56-37.32-2.18-69.85,89.23-60,121.13C197.58,195.14,206.22,212.28,186.71,236.26Z"/>
          <g class="cls-6">
            <g class="cls-7">
              <g>
                <path class="cls-8" d="M213.11,259.32l-.53-.08c1.39-9.09,2.09-18.4,2.76-27.4l.26-3.42c.54-7.24,1.16-13.71,1.71-19.41.31-3.2.6-6.24.86-9.17.78-9,1.32-15.29,1.58-18.42l.18-2.06c2.17-24.65,14.19-57.35,20.64-74.92.7-1.9,1.32-3.6,1.85-5.06a378.51,378.51,0,0,0,19.12-81l.53.07a378.79,378.79,0,0,1-19.14,81.11c-.53,1.47-1.16,3.17-1.85,5.07-6.45,17.54-18.45,50.2-20.61,74.78l-.18,2.06c-.27,3.13-.8,9.42-1.59,18.41-.26,2.94-.55,6-.85,9.18-.55,5.7-1.17,12.16-1.72,19.4l-.25,3.42C215.2,240.89,214.51,250.21,213.11,259.32Z"/>
                <path class="cls-8" d="M216.76,213.71l-.53-.07c2.2-16.22,11.33-34.38,26.4-52.53a205.7,205.7,0,0,1,44.77-39.93l.29.45C256.86,141.53,221.51,178.83,216.76,213.71Z"/>
                <path class="cls-8" d="M240,107.55l-.44-.3c8-11.65,17.59-22.35,26.84-32.7,6.33-7.08,12.87-14.4,18.87-22l.42.34c-6,7.57-12.56,14.9-18.89,22C257.53,85.25,248,95.93,240,107.55Z"/>
                <path class="cls-8" d="M225.33,150.92c-.8-19.66-10.78-45.62-21.36-55.56l.37-.39c10.67,10,20.73,36.15,21.53,55.93Z"/>
              </g>
            </g>
          </g>
        </g>
        <g>
          <path class="cls-2" d="M178.85,134c-1.77,32.75,17.93,30.72,43.2,29.21-11.61,28.27-21.87,56.21-32.18,84.61-16.93.76-29.06,1-33.23-19.16-4.72-22.78-6.68-36.08-29.69-47.35s-36.78-33.9-22.59-55.22c14.94-22.43,2-60,27.25-72.64C175.7,31.51,180.69,99.9,178.85,134Z"/>
          <g class="cls-9">
            <g class="cls-10">
              <g>
                <path class="cls-11" d="M197.42,210c-21-17.94-38.08-33.48-49.9-56.28-11.3-21.81-14.13-42.88-9.44-70.45,2.42-14.29,2.55-24.8,2.46-39.2h.58c.09,14.43,0,25-2.47,39.29-4.66,27.44-1.86,48.4,9.39,70.1,11.77,22.7,28.76,38.2,49.76,56.1Z"/>
                <path class="cls-12" d="M156.94,240.68l-.34-.46A87.78,87.78,0,0,1,179.36,228a57.38,57.38,0,0,1,12.75-2.67l.07.58a55.87,55.87,0,0,0-12.62,2.64A87.41,87.41,0,0,0,156.94,240.68Z"/>
                <path class="cls-13" d="M155.53,167.15c-15.87-13.58-37.88-21.59-62-22.55l0-.58c24.24,1,46.38,9,62.35,22.69Z"/>
                <path class="cls-14" d="M136.63,113.48l-.57-.08c.42-3.08,12.55-30.14,16.25-38.36,7.67-17,16.15-35.22,17.07-36.25l.43.39c-.76.86-8.53,17.39-17,36.1C145.22,92.18,137,111.1,136.63,113.48Z"/>
              </g>
            </g>
          </g>
        </g>
        <g>
          <path class="cls-3" d="M202.39,301.66q-14.53-7.31-28.83-15.19c-.21.07,3-19.42,16.9-25.26,27.33-11.15,19.36-32.84,18.91-44.15-1.32-16.18,7.38-30.07,24.53-24.17,19.14,6.24,31.87-18.55,36.9-43.45,1.47-12.5,19.59-21.79,33.83-20.3,14.63,1.25,25.37,13.3,21.23,37.77-3.33,28.87-32.49,36.53-45.93,46.77-13.22,10,2.83,27.79-17.29,33.67-17.13,5.5-36.72,6.84-35.16,22C229.27,284.49,224,294.42,202.39,301.66Z"/>
          <g class="cls-15">
            <g class="cls-10">
              <path class="cls-16" d="M187.94,297.7c.06-.16,23.5-35.18,53.6-66.66,4.47-5.24,9.16-10.45,13.7-15.5,25.27-28.1,49.14-54.64,47.77-94.18l.63,0c1.38,39.72-22.55,66.33-47.88,94.5-4.54,5.05-9.23,10.26-13.7,15.5-30.27,31.65-53.4,66.29-53.51,66.52Z"/>
              <path class="cls-16" d="M278.44,189.42l-.33-.5c15-6.37,33.94-16.29,44.11-21.62,8.23-4.31,8.25-4.3,8.55-4.14l-.14.23.07.27c-.4.09-3.8,1.87-8.11,4.13C312.42,173.12,293.48,183,278.44,189.42Z"/>
              <path class="cls-16" d="M286.81,176.25a49.16,49.16,0,0,0-4.09-28.77c-3.19-6.64-7-10.55-7.58-10.84l.11-.18-.12-.34c.18,0,.34.07.58.26,3.33,2.76,15.11,17.63,11.73,40Z"/>
              <path class="cls-16" d="M223.43,252.23l-.58-.28c11.91-22.56.38-51.72-5.12-63.22a8.68,8.68,0,0,1-.42-.91l.62-.06-.31,0,.31,0c0,.07.19.42.38.83a111.39,111.39,0,0,1,8.58,24.52C230.21,228.44,229,241.6,223.43,252.23Z"/>
              <path class="cls-16" d="M232.16,242.19l-.43-.45c18-11.92,43.92-3.93,44.33-3.74h0l.14.32-.3.17v-.27l-.11.24C275.54,238.37,249.93,230.39,232.16,242.19Zm43.72-4.25v0Z"/>
              <path class="cls-16" d="M191.88,292c1.94-4.75,2.8-13.73-4.11-29.52-.39-.89-.39-.89-.32-1l.58.28-.29-.14h.31c0,.07.15.38.31.74,7,16,6.09,25.06,4.12,29.89Z"/>
              <path class="cls-16" d="M198.3,284.08l-.53-.35c6.08-7.53,22.8-8.63,32.22-8.62h.56l.12.55h-.61C220.75,275.65,204.24,276.73,198.3,284.08Z"/>
            </g>
          </g>
        </g>
        <g>
          <g>
            <g>
              <path class="cls-17" d="M165.35,89.11,145.07,293a5.24,5.24,0,0,0,4.66,5.9l98.77,8.28c6,.21,9.27-3,9.6-6.25l22-215.81c.33-3.24-2.68-6.11-8.76-6L171.18,83.35A6.43,6.43,0,0,0,165.35,89.11Z"/>
              <path class="cls-18" d="M160.86,88.85,140.5,293.78a5.25,5.25,0,0,0,4.67,5.93l102.4,7.51a6.09,6.09,0,0,0,6.42-5.44L276.05,84.83a5,5,0,0,0-5.31-5.71l-104,3.94A6.47,6.47,0,0,0,160.86,88.85Z"/>
              <path class="cls-19" d="M163,100.16,144.13,290.1a4.91,4.91,0,0,0,4.37,5.53l96.32,6.85a5.7,5.7,0,0,0,6-5.08L271.15,97a4.71,4.71,0,0,0-4.93-5.34l-97.73,3.11A6,6,0,0,0,163,100.16Z"/>
            </g>
            <path class="cls-20" d="M214.81,87.6a1.67,1.67,0,0,0,1.73,1.92,2.32,2.32,0,0,0,2.14-2,1.67,1.67,0,0,0-1.74-1.92A2.31,2.31,0,0,0,214.81,87.6Z"/>
          </g>
          <g class="cls-21">
            <path class="cls-22" d="M224.29,187.63c10.18-30.07-7.53-45.22,2.5-73.07,5.46-15.15,16.38-26.44,28.4-34.85l15.55-.59a5,5,0,0,1,5.31,5.71L254,301.78a6.09,6.09,0,0,1-6.42,5.44l-88.41-6.48c.28-22.65,6-38.77,12.44-50.24C189.18,219,213.76,218.77,224.29,187.63Z"/>
          </g>
        </g>
        <g>
          <circle class="cls-23" cx="204.43" cy="155.22" r="31.25"/>
          <circle class="cls-22" cx="204.43" cy="155.22" r="15.44"/>
        </g>
        <g>
          <g>
            <path class="cls-23" d="M182.55,154.5c-.73,12.53,8.11,23.28,19.88,24,11.94.77,22.34-9,23.08-21.86s-8.46-23.61-20.42-24.06C193.3,132.17,183.27,142,182.55,154.5Z"/>
            <path class="cls-23" d="M193.22,155c-.36,6.23,4.05,11.54,9.89,11.88s11-4.5,11.33-10.81-4.14-11.62-10-11.88S193.58,148.81,193.22,155Z"/>
          </g>
          <path class="cls-23" d="M151.74,205.47a78.33,78.33,0,0,1-16.45-53.35,79.38,79.38,0,0,1,22.52-51.39c13.65-13.85,31.49-21.5,50.37-21.37,19.3.12,37.37,8.35,50.72,23.33,13.55,15.22,20.44,35.41,19.21,56.64a79,79,0,0,1-25.64,54.37c-15,13.55-33.92,19.91-53.12,18.09C180.56,230,163.72,220.61,151.74,205.47ZM138.5,152.28c-2.23,38.47,24.55,72.41,61.06,75.79,38.13,3.53,72.36-27.33,74.77-68.93S246.27,83.41,208,83.08C171.27,82.76,140.73,113.81,138.5,152.28Z"/>
          <g>
            <g>
              <path class="cls-23" d="M267.66,93.57a21.66,21.66,0,0,0-21.52-23.21,22.67,22.67,0,0,0-22.37,21.4,21.75,21.75,0,0,0,19.79,23.13A22.52,22.52,0,0,0,267.66,93.57Z"/>
              <g class="cls-24">
                <path class="cls-22" d="M264.07,93.42a18.2,18.2,0,0,0-18-19.5,19,19,0,0,0-18.82,18,18.27,18.27,0,0,0,16.66,19.44A18.92,18.92,0,0,0,264.07,93.42Z"/>
              </g>
              <path class="cls-25" d="M246.64,75.56a19,19,0,0,0-18,24.76,18.67,18.67,0,0,1-1.46-8.42,19,19,0,0,1,18.82-18,18.07,18.07,0,0,1,17.15,12.53A18.08,18.08,0,0,0,246.64,75.56Z"/>
              <g>
                <path class="cls-22" d="M254.83,102.07l-20.66-1.17a2.31,2.31,0,0,1-2.11-2.46l.73-12.61a2.52,2.52,0,0,1,.76-1.65,2.34,2.34,0,0,1,1.67-.66l20.69.54a2.34,2.34,0,0,1,2.27,2.5l-.76,13.17a2.49,2.49,0,0,1-.79,1.68,2.45,2.45,0,0,1-1.71.66ZM235.11,85a.94.94,0,0,0-1,.9l-.73,12.61a.94.94,0,0,0,.87,1L255,100.62a1,1,0,0,0,.76-.27.94.94,0,0,0,.3-.64l.76-13.16a1,1,0,0,0-1-1L235.11,85Z"/>
                <path class="cls-22" d="M244.84,93.77a2.79,2.79,0,0,0,1.79-.62l9.75-7.8a.75.75,0,0,0,.16-1,.67.67,0,0,0-1-.12L245.82,92a1.38,1.38,0,0,1-1.85-.09l-8.43-8.23a.66.66,0,0,0-1,.06.74.74,0,0,0,0,1L243,93A2.67,2.67,0,0,0,244.84,93.77Z"/>
              </g>
            </g>
            <g>
              <g class="cls-26">
                <path class="cls-22" d="M260.87,142.6c-9.07,8.71-9.9,23-1.86,32.24a22.79,22.79,0,0,0,32.46,1.64c10-8.87,10.83-24,1.94-33.48C284.71,133.74,270.13,133.71,260.87,142.6Z"/>
              </g>
              <g class="cls-24">
                <path class="cls-22" d="M263.83,145.81c-7.34,7-8,18.57-1.51,26a18.37,18.37,0,0,0,26.17,1.28c8-7.15,8.69-19.33,1.56-26.94A18.4,18.4,0,0,0,263.83,145.81Z"/>
              </g>
              <path class="cls-25" d="M263.83,145.81a18.4,18.4,0,0,1,26.22.36l.19.21a18.59,18.59,0,0,0-23.84,1.79,19,19,0,0,0-1.51,26.06l.06.07a18,18,0,0,1-2.63-2.47C255.82,164.38,256.49,152.83,263.83,145.81Z"/>
              <g>
                <polygon class="cls-22" points="267.86 169.5 264.48 169.35 265.59 150.22 268.97 150.29 267.86 169.5"/>
                <polygon class="cls-22" points="273.93 169.77 270.5 169.62 271.06 159.98 274.49 160.09 273.93 169.77"/>
                <polygon class="cls-22" points="280.09 170.04 276.61 169.88 277.84 148.64 281.32 148.71 280.09 170.04"/>
                <polygon class="cls-22" points="286.34 170.31 282.81 170.16 283.87 151.93 287.4 152.01 286.34 170.31"/>
              </g>
            </g>
            <g>
              <g>
                <path class="cls-23" d="M186.29,75.82c-8-8-21.27-7.18-29.55,1.38-8,8.29-8.76,21.15-1.69,29.2,7.3,8.31,20.46,8.74,29.45.45C193.8,98.26,194.61,84.13,186.29,75.82Z"/>
                <g class="cls-24">
                  <path class="cls-22" d="M184,78.14c-6.85-6.86-18.15-6.16-25.23,1.15-6.86,7.08-7.5,18.08-1.45,25,6.25,7.09,17.49,7.43,25.15.35C190.4,97.27,191.1,85.23,184,78.14Z"/>
                </g>
                <path class="cls-27" d="M184.83,79.75c-6.86-6.87-18.17-6.18-25.25,1.12a19.12,19.12,0,0,0-4.21,20.59c-3.82-6.8-2.58-16,3.42-22.17,7.08-7.31,18.38-8,25.23-1.15a16.48,16.48,0,0,1,3.43,5A16.46,16.46,0,0,0,184.83,79.75Z"/>
              </g>
              <path class="cls-22" d="M161.88,84.77a9.22,9.22,0,0,1,3.66-3.59,10.53,10.53,0,0,1,5.18-1.24,10.82,10.82,0,0,1,5.94,1.68,10.14,10.14,0,0,1,3.8,4.54,13.86,13.86,0,0,1,1.06,6.43,11.3,11.3,0,0,1-3.26,7.9,10.73,10.73,0,0,1-7.92,2.69,14.15,14.15,0,0,1-6.1-1.41l.16-2.72a18.42,18.42,0,0,0,3.18,1,15.74,15.74,0,0,0,3,.39,7.5,7.5,0,0,0,5.71-2,9,9,0,0,0,2.29-6,11.82,11.82,0,0,0-.75-5.17,7.15,7.15,0,0,0-2.8-3.44,8.31,8.31,0,0,0-4.52-1.22,7.25,7.25,0,0,0-3.66.89,6.59,6.59,0,0,0-2.59,2.64,9.09,9.09,0,0,0-1.1,4,9.67,9.67,0,0,0,.29,3.46c.27.89.69,1.34,1.24,1.35s1-.64,1.1-2l.1-6.93a12.5,12.5,0,0,1,2.25-.53,14.06,14.06,0,0,1,2.48-.21,5.72,5.72,0,0,1,4.46,1.88,6.45,6.45,0,0,1,1.48,4.87A6.29,6.29,0,0,1,175,96.24a4.76,4.76,0,0,1-3.73,1.45,4.13,4.13,0,0,1-3.48-1.89h-.21a2.94,2.94,0,0,1-1.14,1.31,3.09,3.09,0,0,1-1.72.47,3.58,3.58,0,0,1-2.47-1,6,6,0,0,1-1.52-2.68,11,11,0,0,1-.38-3.73A12.07,12.07,0,0,1,161.88,84.77Zm10.92,4.31a2.92,2.92,0,0,0-2.47-1.14,6.46,6.46,0,0,0-1.51.14v3.14a6,6,0,0,0,.57,2.94,1.93,1.93,0,0,0,1.74.93c1.49,0,2.3-1,2.42-3A4.48,4.48,0,0,0,172.8,89.08Z"/>
            </g>
            <g>
              <g>
                <path class="cls-23" d="M152.87,135.33c-7.73-8.17-20.49-7.79-28.48.36-7.74,7.89-8.47,20.53-1.66,28.7,7,8.43,19.71,9.3,28.37,1.43C160.07,157.68,160.88,143.79,152.87,135.33Z"/>
                <g class="cls-24">
                  <path class="cls-22" d="M150.68,137.54c-6.59-7-17.48-6.68-24.32.27-6.62,6.74-7.25,17.56-1.42,24.53,6,7.2,16.85,7.92,24.23,1.2C156.8,156.59,157.49,144.76,150.68,137.54Z"/>
                </g>
                <path class="cls-27" d="M151.46,139.15c-6.6-7-17.5-6.7-24.34.25A18.81,18.81,0,0,0,123,159.53a18.72,18.72,0,0,1,3.32-21.72c6.84-6.95,17.73-7.25,24.32-.27a16.93,16.93,0,0,1,3.29,5.07A16.77,16.77,0,0,0,151.46,139.15Z"/>
              </g>
              <path class="cls-22" d="M138.79,137.12c-4.87,0-9.07,4.36-9.39,9.79-.2,3.51,3,11.71,5.32,17,1,2.22,3.81,2.23,5,0,2.92-5.31,7.1-13.48,7.3-17C147.36,141.55,143.66,137.13,138.79,137.12Zm-.88,15.1c-2.61,0-4.6-2.38-4.43-5.3a5.37,5.37,0,0,1,5-5.25c2.62,0,4.6,2.38,4.43,5.29A5.36,5.36,0,0,1,137.91,152.22Z"/>
            </g>
          </g>
        </g>
        <g>
          <path class="cls-28" d="M137.81,313s7.95,4,8.08,4.68-5.11-.21-7.25-.12-3.9-.62-3.71-1.63.94-3.56.94-3.56Z"/>
          <path class="cls-29" d="M138.1,309.73l-.48,4a2.55,2.55,0,0,1-2.11-.09l-.36-4.39Z"/>
          <path class="cls-30" d="M100.66,309.82l-.92,1.66a2.22,2.22,0,0,0-.22,1.56c.33,1.38,1,4.07,1.26,4.77.38.95,5.52,1.52,5.52,1.52s.46-.72-.61-1.59-1.75-1-2.13-2.3a38.79,38.79,0,0,1-.63-4.92Z"/>
          <path class="cls-31" d="M104.51,305.61a57,57,0,0,0-2,5.9s-.54.77-1.55-.36l-.46-.51.19-5.51Z"/>
          <path class="cls-32" d="M142.48,229.32c.41,11.94.43,24.91-.18,38.77-.69,15.6-2.08,30-3.84,43.1-.65,0-1.33,0-2.05,0-.48,0-.95,0-1.4-.08-.91-2.71-2-6.27-2.95-10.53A111.35,111.35,0,0,1,130,288.25c-1.53-13.52.26-14.7-1-24.73-1.1-8.87-2.67-9.22-4.5-21.82-2-13.67-.51-15.72.21-16.46C127.81,222.08,135,224.23,142.48,229.32Z"/>
          <path class="cls-33" d="M124.74,225.24c2.93-3,9.63-1.19,16.71,3.4-8.15,9.84-9,16.22-8.06,20.36,1.11,4.67,4.46,6,4.45,11.14,0,6.28-5.09,7.95-5,14.6.08,4.4,2.31,4.35,2.83,9.79.62,6.43-2.29,8.64-1.34,13.4.4,2,1.56,4.72,4.86,7.47-.24,2-.48,3.89-.74,5.79-.65,0-1.33,0-2.05,0-.48,0-.95,0-1.4-.08-.91-2.71-2-6.27-2.95-10.53A111.35,111.35,0,0,1,130,288.25c-1.53-13.52.26-14.7-1-24.73-1.1-8.87-2.67-9.22-4.5-21.82C122.53,228,124,226,124.74,225.24Z"/>
          <path class="cls-34" d="M137.43,229.12A278.48,278.48,0,0,0,116.1,272a289.55,289.55,0,0,0-11.54,35.83,3.88,3.88,0,0,1-2.34.41,4.32,4.32,0,0,1-2.66-1.61,85.85,85.85,0,0,1-.61-19,73,73,0,0,1,2.39-14.3c1.94-7,3.27-7.38,5.79-14.76,2.62-7.66,2-9.57,4.5-19.17a137.2,137.2,0,0,1,5.6-16.81Z"/>
          <path class="cls-35" d="M139.3,179.3c7.74-5.06,11-4.48,13.3-9s2.21-11.61-1.46-15.39c-.27-.27-3.07-3.06-6.85-2.58-5.73.72-6.15,7.95-12.57,11.27-5.44,2.8-11.38.83-15.4-.51-9.67-3.22-11.1-9.3-16.12-8.33-6.28,1.21-6.84,11.32-13.1,11.94-4.18.41-5.18-4-10.68-5.18-6.46-1.42-13.55,2.77-17.53,7.88-7.27,9.34-5.36,23.27-.81,31.77,3.74,7,11.78,15,18.54,13.3,5.35-1.37,7.09-8.11,11.69-7.44,3.27.48,3.39,4,7.26,5.86,6.35,3,14.18-2.72,16.32-4.28,6.09-4.45,5.12-7.3,13-16.22A68.57,68.57,0,0,1,139.3,179.3Z"/>
          <path class="cls-36" d="M194.73,159.63s1.31-1.83,2.14-3.19a52.85,52.85,0,0,1,4.71-5.18s.29.61-.54,1.58-2.59,2.63-2.19,3.34,1.54,1.32.72,2.65-2.24.42-3,1.48-1.48,2.23-1.48,2.23Z"/>
          <path class="cls-37" d="M194.22,158.44q1.34,2.24,2.65,4.48a48,48,0,0,1-5.28,11.56,44.55,44.55,0,0,1-11.43,12.2c-8.75,6.22-24.67,12-29.34,5.4-4.16-5.91,2.56-19,3.79-21.36a30.92,30.92,0,0,0,11.91,3.46,27.86,27.86,0,0,0,11.32-1.3C187.24,169.65,192.46,161.5,194.22,158.44Z"/>
          <path class="cls-38" d="M164.82,178.44c-.44,2.21-7.32,1-8.74,5-.76,2.15.86,3.52.92,7.18.08,4.09-1.87,6.42-3.37,9.64-2.19,4.71-2.2,9.34-2.22,18.59,0,13.16,2.89,15.81.41,20.05-3.24,5.52-11,5.87-13.1,6-7.18.33-8-3.49-15.82-3.94-8.9-.52-10.16,4.31-16.53,2.25-5.81-1.88-7.76-6.9-12.29-5.86-2.83.65-3.58,3-6.25,2.71a6.69,6.69,0,0,1-5.64-5.64c-.23-3.38,3.47-7.65,9.27-7.66a16.43,16.43,0,0,0,10.38.79c7-1.91,10.59-8.53,14.61-15.88,2.78-5.09,7.9-14.44,8-26.7,0-5.06-.83-6.54.4-9.24,4-8.78,19.53-7.47,20.85-7.34C156.24,169.42,165.35,175.77,164.82,178.44Z"/>
          <g>
            <path class="cls-39" d="M168.28,189.49l-19.5.85a.53.53,0,0,0-.47.39l-9.19,28.49c-.13.41.28,1.43.67,1.39l19.28-2.93a.55.55,0,0,0,.43-.38l9.56-26.6C169.2,190.31,168.66,189.47,168.28,189.49Z"/>
            <path class="cls-22" d="M168.59,190.18l-19.51.85a.54.54,0,0,0-.47.39l-9.19,28.5a.58.58,0,0,0,.55.79l19.4-2.34a.54.54,0,0,0,.44-.37l9.29-27A.59.59,0,0,0,168.59,190.18Z"/>
            <path class="cls-40" d="M163.25,191.24,164,189a.32.32,0,0,0-.27-.42h-7.1a.3.3,0,0,0-.27.22l-.71,2.51a.31.31,0,0,0,.28.41l7.06-.24A.28.28,0,0,0,163.25,191.24Z"/>
            <path class="cls-41" d="M151.25,213.81c1.26-4.6-.82-7.59,1.31-11.16,3-5.05,9.47-2.91,11.48-7,.55-1.1.81-2.74.07-5.29l4.48-.2a.59.59,0,0,1,.51.8l-9.29,27a.52.52,0,0,1-.44.37l-11.79,1.42A13.25,13.25,0,0,0,151.25,213.81Z"/>
          </g>
          <path class="cls-42" d="M137,210.39a16,16,0,0,0,4.09-1.45c1.14-.8,2.34-2.09,4-2s3.36,1,2.58,1.24-2.22,1.94-3.32,2.62a9.81,9.81,0,0,1-4.1.7,9,9,0,0,0-2.33,1.21Z"/>
          <path class="cls-43" d="M91.46,226.77a16.43,16.43,0,0,0,10.38.79c7-1.91,10.59-8.53,14.61-15.88,2.78-5.09,7.9-14.44,8-26.7,0-5.06-.83-6.54.4-9.24a9.44,9.44,0,0,1,.68-1.21c3,2.29,4.22,4.59,4.56,6.61.84,4.92-3.11,8.94-1.06,13.19,2,4.06,6.85,2.93,7.86,6.42,1.1,3.75-4.29,6-4.53,11.83-.29,7,7.21,10.38,5.89,15-1.13,4-7.41,3.75-7.4,5.91,0,2.58-.2-2.74,7.4-5.91,2.31-1,13.15,7,14.46,5.63.29,2.27.24,3.83-.85,5.69-3.24,5.52-11,5.87-13.1,6-7.18.33-8-3.49-15.82-3.94-8.9-.52-10.16,4.31-16.53,2.25-5.81-1.88-7.76-6.9-12.29-5.86-2.83.65-3.58,3-6.25,2.71a6.69,6.69,0,0,1-5.64-5.64C82,231.05,85.66,226.78,91.46,226.77Z"/>
          <path class="cls-44" d="M137.08,209l2.72,5.41c-1.4.76-16.35,8.67-27.18.84a18.57,18.57,0,0,1-6.82-8.58c-2.11-5.55-.93-10.71-.16-14.06,1.91-8.3,7.3-17,14.94-20.51a44.33,44.33,0,0,1,9.65-2.65c2.76-.53,7.11-1.2,7.2-.73,0,.23-1,.52-1.66,1-4.31,2.72,1.16,14-3.9,19.37-4.85,5.17-11.15,4.31-12.16,9a7.67,7.67,0,0,0,.94,5C123.07,208,129.61,210.15,137.08,209Z"/>
          <path class="cls-45" d="M147.23,160.31s-1.76,5.7-3.95,6.59-5.64,1.91-6.07,2.3S148.82,174,155.58,172h0c-1.93-.94-2.44-1.24-2.44-1.24a11.75,11.75,0,0,1-2.37-1.76,10,10,0,0,1-2.3-3.6l.64-3.24Z"/>
          <path class="cls-46" d="M146.44,162.8s1,2.53,3.43,2.14c2.16-.35,2-6.43.58-7.46a2.59,2.59,0,0,0-2.22-.18,3.68,3.68,0,0,0-1.72,3.7c-.47-.28-.95-.24-1.11,0s.13.91.2,1.05A1.81,1.81,0,0,0,146.44,162.8Z"/>
        </g>
        <g>
          <g>
            <g>
              <path class="cls-47" d="M310.65,304.76a5.31,5.31,0,0,1,4.89,5.05,4.28,4.28,0,0,1-4.89,4.17,5.29,5.29,0,0,1-4.85-5A4.28,4.28,0,0,1,310.65,304.76Zm0,2a2.44,2.44,0,0,0-2.77,2.39,3,3,0,0,0,2.77,2.87,2.44,2.44,0,0,0,2.79-2.38A3,3,0,0,0,310.65,306.74Z"/>
              <path class="cls-48" d="M306.49,282.31a5.19,5.19,0,0,1,4.86,5,4.33,4.33,0,0,1-4.86,4.24,5.18,5.18,0,0,1-4.82-5A4.33,4.33,0,0,1,306.49,282.31Zm0,2a2.46,2.46,0,0,0-2.75,2.42,3,3,0,0,0,2.75,2.83,2.48,2.48,0,0,0,2.77-2.42A3,3,0,0,0,306.49,284.29Z"/>
              <path class="cls-49" d="M322.62,261.39a5.18,5.18,0,0,1,5,4.95,4.48,4.48,0,0,1-5,4.35,5.18,5.18,0,0,1-4.92-4.95A4.47,4.47,0,0,1,322.62,261.39Zm0,2a2.55,2.55,0,0,0-2.81,2.48,2.94,2.94,0,0,0,2.81,2.82,2.56,2.56,0,0,0,2.83-2.48A3,3,0,0,0,322.62,263.39Z"/>
              <path class="cls-50" d="M293.55,257.61a5,5,0,0,1,4.78,4.84,4.36,4.36,0,0,1-4.78,4.28,5,5,0,0,1-4.74-4.84A4.36,4.36,0,0,1,293.55,257.61Zm0,2a2.48,2.48,0,0,0-2.71,2.44,2.87,2.87,0,0,0,2.71,2.77,2.5,2.5,0,0,0,2.73-2.45A2.87,2.87,0,0,0,293.55,259.57Z"/>
              <g>
                <polygon class="cls-51" points="273.19 294.37 273.19 296.3 289.44 297.64 308.07 309.11 309.08 307.47 289.96 295.73 273.19 294.37"/>
                <polygon class="cls-52" points="273.19 282.92 273.19 284.85 302.7 287.05 302.7 285.08 273.19 282.92"/>
                <polygon class="cls-53" points="273.19 271.46 273.19 273.39 292.49 274.69 307.97 266.15 318.75 266.8 318.75 264.81 307.36 264.13 291.89 272.69 273.19 271.46"/>
                <polygon class="cls-54" points="273.19 260.01 273.19 261.94 290.15 262.95 290.15 261 273.19 260.01"/>
              </g>
            </g>
            <g>
              <path class="cls-55" d="M166.29,248.93a4.35,4.35,0,0,1-4-4.38,3.85,3.85,0,0,1,4-4,4.36,4.36,0,0,1,4,4.38A3.85,3.85,0,0,1,166.29,248.93Zm0-1.79a2.2,2.2,0,0,0,2.28-2.27,2.5,2.5,0,0,0-2.28-2.5,2.2,2.2,0,0,0-2.28,2.27A2.49,2.49,0,0,0,166.29,247.14Z"/>
              <path class="cls-56" d="M169.72,269.22a4.45,4.45,0,0,1-4-4.45,3.79,3.79,0,0,1,4-3.92,4.44,4.44,0,0,1,4,4.45A3.79,3.79,0,0,1,169.72,269.22Zm0-1.8a2.16,2.16,0,0,0,2.29-2.23,2.54,2.54,0,0,0-2.29-2.54,2.16,2.16,0,0,0-2.29,2.24A2.53,2.53,0,0,0,169.72,267.42Z"/>
              <path class="cls-57" d="M156.62,288a4.47,4.47,0,0,1-3.92-4.46,3.68,3.68,0,0,1,3.92-3.83,4.46,4.46,0,0,1,3.95,4.46A3.69,3.69,0,0,1,156.62,288Zm0-1.78a2.1,2.1,0,0,0,2.25-2.19,2.54,2.54,0,0,0-2.25-2.54,2.09,2.09,0,0,0-2.24,2.18A2.55,2.55,0,0,0,156.62,286.23Z"/>
              <path class="cls-58" d="M180.61,292a4.59,4.59,0,0,1-4.06-4.55,3.78,3.78,0,0,1,4.06-3.89,4.59,4.59,0,0,1,4.08,4.55A3.76,3.76,0,0,1,180.61,292Zm0-1.81a2.15,2.15,0,0,0,2.33-2.22,2.63,2.63,0,0,0-2.33-2.6,2.16,2.16,0,0,0-2.32,2.22A2.62,2.62,0,0,0,180.61,290.16Z"/>
              <g>
                <polygon class="cls-59" points="198.5 257.5 198.5 255.67 184.15 254.84 168.42 244.9 167.58 246.42 183.7 256.62 198.5 257.5"/>
                <polygon class="cls-60" points="198.5 268.38 198.5 266.54 172.87 264.86 172.87 266.66 198.5 268.38"/>
                <polygon class="cls-61" points="198.5 279.25 198.5 277.42 181.52 276.17 168.5 283.92 159.72 283.22 159.72 285 169 285.75 182.04 278.02 198.5 279.25"/>
                <polygon class="cls-62" points="198.5 290.13 198.5 288.3 183.53 287.08 183.53 288.9 198.5 290.13"/>
              </g>
            </g>
          </g>
          <g>
            <path class="cls-63" d="M209.26,311.54l56,5.47c7.43.73,13.51-4.59,13.51-11.88V247.69a14.07,14.07,0,0,0-13.51-13.76l-56-2.32a11.77,11.77,0,0,0-12.28,12v54.28A13.93,13.93,0,0,0,209.26,311.54Z"/>
            <path class="cls-64" d="M207.45,313.48l56,5.5c7.43.73,13.5-4.59,13.5-11.87v-57.4A14.06,14.06,0,0,0,263.41,236l-56-2.36a11.75,11.75,0,0,0-12.27,12V299.8A13.94,13.94,0,0,0,207.45,313.48Z"/>
            <path class="cls-65" d="M231.66,290c6.84-8.62,0-15.3,7.23-25.18,8.81-12,23.26-8.29,29-19.33a17.72,17.72,0,0,0,1.91-7.73,13.86,13.86,0,0,1,7.1,11.91v57.4c0,7.28-6.07,12.6-13.5,11.87l-56-5.5a13.94,13.94,0,0,1-11.65-9.7C205.36,293.8,222.22,302,231.66,290Z"/>
          </g>
          <g>
            <path class="cls-66" d="M217.79,299.57l37.32,3.3a7.53,7.53,0,0,0,8.39-7.57V257.16a8.91,8.91,0,0,0-8.39-8.75l-37.32-1.93a7.47,7.47,0,0,0-7.89,7.61v36.76A8.86,8.86,0,0,0,217.79,299.57Z"/>
            <path class="cls-67" d="M216.75,300.17l36.75,3.25a7.4,7.4,0,0,0,8.27-7.41V258.68a8.74,8.74,0,0,0-8.27-8.56l-36.75-1.92a7.34,7.34,0,0,0-7.77,7.45v36A8.7,8.7,0,0,0,216.75,300.17Z"/>
            <path class="cls-68" d="M231.66,290c6.84-8.62,0-15.3,7.23-25.18,5.78-7.84,14-9,20.57-11.93a8.47,8.47,0,0,1,2.31,5.75V296a7.4,7.4,0,0,1-8.27,7.41l-36.75-3.25a8.41,8.41,0,0,1-5-2.32C219,297.08,226.45,296.62,231.66,290Z"/>
          </g>
          <g class="cls-69">
            <path class="cls-22" d="M246,289.88a14.43,14.43,0,0,1-5.14-.9l-2.36,2.9h-5.77l4.19-5.26c-2.86-2.56-4.64-6.57-4.64-11.79,0-9.58,5.95-15,13.72-15s13.72,5.46,13.72,15S253.77,289.88,246,289.88Zm7.44-15.05c0-6.2-2.93-9.57-7.44-9.57s-7.44,3.37-7.44,9.57c0,3.19.79,5.64,2.15,7.26l2.17-2.79h5.26l-3.74,4.95a8.2,8.2,0,0,0,1.6.15C250.47,284.4,253.4,281,253.4,274.83Z"/>
          </g>
          <g class="cls-69">
            <path class="cls-22" d="M232.82,287.14l-5.58-.5L226,280.42l-8.88-.8-2.37,5.89-5.58-.5L220,259.21l6.7.61Zm-9.91-21.55h-.19l-3.94,9.77,6.25.57Z"/>
          </g>
        </g>
      </g>
    </g>
  </g>
</svg>
