<svg id="Слой_1" data-name="Слой 1" xmlns="http://www.w3.org/2000/svg" xmlns:xlink="http://www.w3.org/1999/xlink" viewBox="0 0 117 127"><defs><style>.cls-1{fill:url(#Безымянный_градиент_53);}.cls-2{opacity:0.5;fill:url(#Безымянный_градиент_53-2);}.cls-3{fill:#fff;fill-rule:evenodd;}</style><linearGradient id="Безымянный_градиент_53" x1="16.82" y1="123.47" x2="79.99" y2="29.98" gradientUnits="userSpaceOnUse"><stop offset="0" stop-color="#53d8ff"/><stop offset="1" stop-color="#3840f7"/></linearGradient><linearGradient id="Безымянный_градиент_53-2" x1="21.84" y1="126.87" x2="85.01" y2="33.37" xlink:href="#Безымянный_градиент_53"/></defs><path class="cls-1" d="M107.86,54.68c3.79,29.67,3.16,69.29-60,66.62-32-1.36-48.12-20.56-42.88-63.9C10.58,10.69,33.86-5.28,60,3.15,73.65,7.58,102.6,13.56,107.86,54.68Z"/><path class="cls-2" d="M111.75,59.74c3.79,29.67,3.16,69.29-60,66.62C19.67,125,3.6,105.8,8.83,62.46c5.65-46.71,28.92-62.68,55-54.24C77.54,12.64,106.5,18.62,111.75,59.74Z"/><path id="my_vector_mask_shape" data-name="my vector mask shape" class="cls-3" d="M55.65,22.73c20.79-.33,33.14,11.56,39,26.4,3.39,8.64,3.1,21.95-.8,29.95C88.44,90.09,80,97.84,67.4,101.62l-9,1.29c-6.85,1.14-13.71-2-18-3.86-15-6.63-29.9-27.89-20.77-50.4C24.13,37.46,32,30.15,42.93,25.3l7.89-2.09ZM54.84,29l-3.06.32-8.21,2.42a34.38,34.38,0,0,0-19.16,22C18.48,73.52,32.12,89,44.86,94.22c3.68,1.5,9.34,3.37,15.14,2.41,13.72-2.27,23.49-9,28.17-20.12C98.8,51.2,79.6,28.87,54.84,29Zm1.61,12.4c1.86-.06,2.86.52,3.39,1.77,2.14,4.08-1.31,14.31.64,18.67,2.52,1.08,12,8.05,12.24,10.95-.58,1-.71,1.76-1.77,2.26-2.94,1.67-6.43-2.69-8.22-4l-8.21-6.12c-1.21-1.82-.84-19.36-.16-22Z"/></svg>