<svg id="Слой_1" data-name="Слой 1" xmlns="http://www.w3.org/2000/svg" xmlns:xlink="http://www.w3.org/1999/xlink" viewBox="0 0 105 113"><defs><style>.cls-1{opacity:0.5;fill:url(#Безымянный_градиент_53);}.cls-2{fill:url(#Безымянный_градиент_53-2);}.cls-3{fill:#fff;fill-rule:evenodd;}</style><linearGradient id="Безымянный_градиент_53" x1="97.67" y1="127.11" x2="34.49" y2="27.52" gradientUnits="userSpaceOnUse"><stop offset="0" stop-color="#53d8ff"/><stop offset="1" stop-color="#3840f7"/></linearGradient><linearGradient id="Безымянный_градиент_53-2" x1="98.11" y1="126.83" x2="34.93" y2="27.24" xlink:href="#Безымянный_градиент_53"/></defs><path class="cls-1" d="M99.8,56.71c-2,25.4-5.64,62.06-46.13,55.09C28.56,107.48,3.89,93.71,7.54,56.71c2.28-23.16,23.23-48,44.8-50.95C77.58,2.27,102.46,23.19,99.8,56.71Z"/><path class="cls-2" d="M97.63,52.3c-2,25.4-5.65,62.06-46.14,55.09C26.38,103.07,1.71,89.31,5.36,52.3c2.29-23.16,23.23-48,44.81-50.95C75.4-2.14,100.28,18.78,97.63,52.3Z"/><path id="my_vector_mask_shape" data-name="my vector mask shape" class="cls-3" d="M52.79,21.85C65,21.69,79.27,29.58,82.6,37.73h.28c-.13-4.25-1.12-9.85,3.06-10,2.78,1.19,3.11,6.68,2.37,11-.79,4.65-3,7.49-7.52,8.36-1.86.35-10.08.23-11-.42-1.5-1.06-1.43-3.81.27-4.6,1.74-1,6.14-.45,8.64-.42v-.14l-.42-.41c-3.45-9.66-21.74-17-34.82-12-10.3,4-17,12.13-18.94,24.51C22.23,68.07,33.38,80,42.62,83.7A43.33,43.33,0,0,0,52,85.79c2,.3,4.34-.7,5.85.14s1.39,2.6.83,4.18C53.5,93.28,43.39,89.92,39.42,88,28,82.56,15.52,68.88,19.5,50.27c2.64-12.33,10.18-21.4,20.76-25.77l7.94-2.23Zm0,10.45,2.37.28c2.54,3.36,1.25,13.14,1.25,18.66,0,2,.37,4.9-.27,6.41L48.89,65c-1.31,1.32-4.06,6-7.1,4.74a3,3,0,0,1-1-4.32L51,55.28V34.11C51.25,33.2,52.07,32.79,52.79,32.3ZM84.13,60.72c5.46-.29,3.94,8.13-.55,7.94l-1.54-1A6.22,6.22,0,0,1,84.13,60.72Zm-5,12.11a2.84,2.84,0,0,1,2.78,1.82c1.11,3.53-5.12,8.15-6.68,4C74.35,75.72,77.32,73.74,79.12,72.83ZM68.81,81.75c5.93-.1,2.64,6.78-2.65,6.55a3.4,3.4,0,0,1-1.81-1.82C63.49,83.37,67,82.7,68.81,81.75Z"/></svg>