<svg xmlns="http://www.w3.org/2000/svg" xmlns:xlink="http://www.w3.org/1999/xlink" viewBox="0 0 20 20"><defs><style>.cls-1{fill:url(#radial-gradient);}.cls-2{fill:url(#radial-gradient-2);}.cls-3{fill:url(#radial-gradient-3);}.cls-4{fill:url(#radial-gradient-4);}.cls-5{fill:url(#radial-gradient-5);}.cls-6{fill:url(#radial-gradient-6);}.cls-7{fill:url(#radial-gradient-7);}.cls-8{fill:url(#radial-gradient-8);}.cls-9{fill:url(#radial-gradient-9);}.cls-10{fill:url(#radial-gradient-10);}.cls-11{fill:url(#radial-gradient-11);}.cls-12{fill:url(#radial-gradient-12);}.cls-13{fill:url(#radial-gradient-13);}.cls-14{fill:url(#radial-gradient-14);}.cls-15{fill:url(#radial-gradient-15);}.cls-16{fill:url(#radial-gradient-16);}.cls-17{fill:url(#radial-gradient-17);}.cls-18{fill:url(#radial-gradient-18);}.cls-19{fill:url(#radial-gradient-19);}.cls-20{fill:url(#radial-gradient-20);}.cls-21{fill:url(#radial-gradient-21);}.cls-22{fill:url(#radial-gradient-22);}.cls-23{fill:url(#radial-gradient-23);}.cls-24{fill:url(#radial-gradient-24);}.cls-25{fill:url(#radial-gradient-25);}.cls-26{fill:url(#radial-gradient-26);}.cls-27{fill:url(#radial-gradient-27);}.cls-28{fill:none;stroke:#000d20;stroke-miterlimit:10;stroke-width:0.5px;}.cls-29{fill:#fafcfb;}</style><radialGradient id="radial-gradient" cx="-105.68" cy="-404.31" r="200.56" gradientTransform="translate(23.69 50.02) scale(0.12)" gradientUnits="userSpaceOnUse"><stop offset="0.13" stop-color="#fff"/><stop offset="0.34" stop-color="#fcfcfd"/><stop offset="0.52" stop-color="#f1f5f7"/><stop offset="0.69" stop-color="#dfe7ec"/><stop offset="0.85" stop-color="#c6d5dd"/><stop offset="1" stop-color="#a8becb"/></radialGradient><radialGradient id="radial-gradient-2" cx="-105.4" cy="-398.56" r="198" xlink:href="#radial-gradient"/><radialGradient id="radial-gradient-3" cx="-105.13" cy="-393" r="195.26" xlink:href="#radial-gradient"/><radialGradient id="radial-gradient-4" cx="-104.87" cy="-387.62" r="192.36" xlink:href="#radial-gradient"/><radialGradient id="radial-gradient-5" cx="-104.61" cy="-382.41" r="189.33" xlink:href="#radial-gradient"/><radialGradient id="radial-gradient-6" cx="-104.36" cy="-377.37" r="186.17" xlink:href="#radial-gradient"/><radialGradient id="radial-gradient-7" cx="-104.12" cy="-372.5" r="182.91" xlink:href="#radial-gradient"/><radialGradient id="radial-gradient-8" cx="-103.89" cy="-367.78" r="179.58" xlink:href="#radial-gradient"/><radialGradient id="radial-gradient-9" cx="-103.66" cy="-363.21" r="176.18" xlink:href="#radial-gradient"/><radialGradient id="radial-gradient-10" cx="-103.43" cy="-358.77" r="172.73" xlink:href="#radial-gradient"/><radialGradient id="radial-gradient-11" cx="-103.21" cy="-354.48" r="169.26" xlink:href="#radial-gradient"/><radialGradient id="radial-gradient-12" cx="-102.98" cy="-350.3" r="165.78" xlink:href="#radial-gradient"/><radialGradient id="radial-gradient-13" cx="-102.76" cy="-346.24" r="162.3" xlink:href="#radial-gradient"/><radialGradient id="radial-gradient-14" cx="-102.54" cy="-342.29" r="158.84" xlink:href="#radial-gradient"/><radialGradient id="radial-gradient-15" cx="-102.31" cy="-338.43" r="155.42" xlink:href="#radial-gradient"/><radialGradient id="radial-gradient-16" cx="-102.08" cy="-334.65" r="152.04" xlink:href="#radial-gradient"/><radialGradient id="radial-gradient-17" cx="-101.85" cy="-330.95" r="148.72" xlink:href="#radial-gradient"/><radialGradient id="radial-gradient-18" cx="-101.61" cy="-327.31" r="145.47" xlink:href="#radial-gradient"/><radialGradient id="radial-gradient-19" cx="-101.36" cy="-323.72" r="142.3" xlink:href="#radial-gradient"/><radialGradient id="radial-gradient-20" cx="-101.11" cy="-320.16" r="139.23" xlink:href="#radial-gradient"/><radialGradient id="radial-gradient-21" cx="-100.84" cy="-316.63" r="136.27" xlink:href="#radial-gradient"/><radialGradient id="radial-gradient-22" cx="-100.56" cy="-313.11" r="133.43" xlink:href="#radial-gradient"/><radialGradient id="radial-gradient-23" cx="-100.27" cy="-309.59" r="130.73" xlink:href="#radial-gradient"/><radialGradient id="radial-gradient-24" cx="-99.97" cy="-306.06" r="128.19" xlink:href="#radial-gradient"/><radialGradient id="radial-gradient-25" cx="-99.65" cy="-302.5" r="125.81" xlink:href="#radial-gradient"/><radialGradient id="radial-gradient-26" cx="-99.32" cy="-298.9" r="123.63" xlink:href="#radial-gradient"/><radialGradient id="radial-gradient-27" cx="-98.97" cy="-295.24" r="121.66" xlink:href="#radial-gradient"/></defs><g id="Слой_2" data-name="Слой 2"><g id="Слой_3" data-name="Слой 3"><circle class="cls-1" cx="10" cy="10" r="10"/><path class="cls-2" d="M19.83,9.79A9.83,9.83,0,1,1,9.79.17,9.84,9.84,0,0,1,19.83,9.79Z"/><path class="cls-3" d="M19.66,9.57A9.67,9.67,0,1,1,9.57.34,9.67,9.67,0,0,1,19.66,9.57Z"/><path class="cls-4" d="M19.49,9.36A9.51,9.51,0,1,1,9.36.51,9.52,9.52,0,0,1,19.49,9.36Z"/><path class="cls-5" d="M19.32,9.14A9.36,9.36,0,1,1,9.14.68,9.37,9.37,0,0,1,19.32,9.14Z"/><path class="cls-6" d="M19.15,8.93A9.21,9.21,0,1,1,8.93.85,9.22,9.22,0,0,1,19.15,8.93Z"/><path class="cls-7" d="M19,8.71A9.07,9.07,0,1,1,8.71,1,9.08,9.08,0,0,1,19,8.71Z"/><path class="cls-8" d="M18.81,8.5A8.94,8.94,0,1,1,8.5,1.19,8.94,8.94,0,0,1,18.81,8.5Z"/><path class="cls-9" d="M18.64,8.29A8.81,8.81,0,1,1,8.29,1.36,8.82,8.82,0,0,1,18.64,8.29Z"/><path class="cls-10" d="M18.47,8.07A8.69,8.69,0,1,1,8.07,1.53,8.7,8.7,0,0,1,18.47,8.07Z"/><path class="cls-11" d="M18.3,7.86A8.57,8.57,0,1,1,7.86,1.7,8.58,8.58,0,0,1,18.3,7.86Z"/><path class="cls-12" d="M18.13,7.64A8.47,8.47,0,1,1,7.64,1.87,8.46,8.46,0,0,1,18.13,7.64Z"/><path class="cls-13" d="M18,7.43A8.36,8.36,0,1,1,7.43,2,8.36,8.36,0,0,1,18,7.43Z"/><path class="cls-14" d="M17.78,7.21a8.26,8.26,0,1,1-10.56-5A8.26,8.26,0,0,1,17.78,7.21Z"/><path class="cls-15" d="M17.61,7A8.18,8.18,0,1,1,7,2.38,8.17,8.17,0,0,1,17.61,7Z"/><path class="cls-16" d="M17.44,6.79A8.1,8.1,0,1,1,6.79,2.56,8.09,8.09,0,0,1,17.44,6.79Z"/><path class="cls-17" d="M17.27,6.57A8,8,0,1,1,6.57,2.73,8,8,0,0,1,17.27,6.57Z"/><path class="cls-18" d="M17.1,6.36A8,8,0,1,1,6.36,2.9,8,8,0,0,1,17.1,6.36Z"/><path class="cls-19" d="M16.93,6.14A7.93,7.93,0,1,1,6.14,3.07,7.93,7.93,0,0,1,16.93,6.14Z"/><path class="cls-20" d="M16.76,5.93A7.89,7.89,0,1,1,5.93,3.24,7.88,7.88,0,0,1,16.76,5.93Z"/><path class="cls-21" d="M16.59,5.71A7.86,7.86,0,1,1,5.72,3.41,7.85,7.85,0,0,1,16.59,5.71Z"/><path class="cls-22" d="M16.42,5.5A7.84,7.84,0,1,1,5.5,3.58,7.83,7.83,0,0,1,16.42,5.5Z"/><path class="cls-23" d="M16.25,5.29a7.83,7.83,0,1,1-11-1.54A7.82,7.82,0,0,1,16.25,5.29Z"/><path class="cls-24" d="M16.08,5.07a7.83,7.83,0,1,1-11-1.15A7.83,7.83,0,0,1,16.08,5.07Z"/><path class="cls-25" d="M15.91,4.86a7.83,7.83,0,1,1-11-.77A7.83,7.83,0,0,1,15.91,4.86Z"/><path class="cls-26" d="M15.74,4.64a7.85,7.85,0,1,1-11.1-.38A7.85,7.85,0,0,1,15.74,4.64Z"/><path class="cls-27" d="M15.57,4.43a7.88,7.88,0,1,1-11.14,0A7.87,7.87,0,0,1,15.57,4.43Z"/><path class="cls-28" d="M2.19,10A7.81,7.81,0,1,1,10,17.81,7.8,7.8,0,0,1,2.19,10Z"/><path d="M10,6A2.52,2.52,0,0,0,7.39,8.81c0,2.77,2.65,5.36,2.65,5.36s2.64-2.59,2.64-5.36A2.63,2.63,0,0,0,10,6Z"/><circle class="cls-29" cx="10.04" cy="8.59" r="1.19" transform="translate(1.32 18.52) rotate(-89.27)"/></g></g></svg>