<svg id="Слой_1" data-name="Слой 1" xmlns="http://www.w3.org/2000/svg" xmlns:xlink="http://www.w3.org/1999/xlink" width="513" height="64" viewBox="0 0 513 64">
  <defs>
    <style>
      .cls-1 {
        fill: url(#Безымянный_градиент_8);
      }

      .cls-2 {
        fill: url(#Безымянный_градиент_8-2);
      }

      .cls-3 {
        fill: url(#Безымянный_градиент_8-3);
      }

      .cls-4 {
        fill: url(#Безымянный_градиент_8-4);
      }

      .cls-5 {
        fill: url(#Безымянный_градиент_8-5);
      }

      .cls-6 {
        fill: url(#Безымянный_градиент_8-6);
      }

      .cls-7 {
        fill: url(#Безымянный_градиент_8-7);
      }

      .cls-8 {
        fill: url(#Безымянный_градиент_8-8);
      }

      .cls-9 {
        fill: url(#Безымянный_градиент_15);
      }

      .cls-10 {
        fill: url(#Безымянный_градиент_15-2);
      }

      .cls-11 {
        fill: url(#Безымянный_градиент_15-3);
      }

      .cls-12 {
        fill: url(#Безымянный_градиент_15-4);
      }

      .cls-13 {
        fill: url(#Безымянный_градиент_15-5);
      }

      .cls-14 {
        fill: url(#Безымянный_градиент_15-6);
      }

      .cls-15 {
        fill: url(#Безымянный_градиент_15-7);
      }

      .cls-16 {
        fill: url(#Безымянный_градиент_16);
      }

      .cls-17 {
        fill: #fff;
      }
    </style>
    <linearGradient id="Безымянный_градиент_8" data-name="Безымянный градиент 8" x1="72.38" y1="24.95" x2="312.87" y2="24.95" gradientTransform="matrix(1, 0, 0, -1, 0.14, 64.05)" gradientUnits="userSpaceOnUse">
      <stop offset="0" stop-color="#fff"/>
      <stop offset="1" stop-color="#fff"/>
    </linearGradient>
    <linearGradient id="Безымянный_градиент_8-2" x1="72.38" y1="31.23" x2="312.87" y2="31.23" xlink:href="#Безымянный_градиент_8"/>
    <linearGradient id="Безымянный_градиент_8-3" x1="72.38" y1="31.08" x2="312.87" y2="31.08" xlink:href="#Безымянный_градиент_8"/>
    <linearGradient id="Безымянный_градиент_8-4" x1="72.38" y1="32.32" x2="312.87" y2="32.32" xlink:href="#Безымянный_градиент_8"/>
    <linearGradient id="Безымянный_градиент_8-5" x1="72.38" y1="34.55" x2="312.87" y2="34.55" xlink:href="#Безымянный_градиент_8"/>
    <linearGradient id="Безымянный_градиент_8-6" x1="72.38" y1="31.06" x2="312.87" y2="31.06" xlink:href="#Безымянный_градиент_8"/>
    <linearGradient id="Безымянный_градиент_8-7" x1="72.38" y1="31.08" x2="312.87" y2="31.08" xlink:href="#Безымянный_градиент_8"/>
    <linearGradient id="Безымянный_градиент_8-8" x1="72.38" y1="34.55" x2="312.87" y2="34.55" xlink:href="#Безымянный_градиент_8"/>
    <linearGradient id="Безымянный_градиент_15" data-name="Безымянный градиент 15" x1="318.35" y1="19.62" x2="512" y2="19.62" gradientTransform="matrix(1, 0, 0, -1, 0.14, 64.05)" gradientUnits="userSpaceOnUse">
      <stop offset="0" stop-color="#04d4f1"/>
      <stop offset="1" stop-color="#0983f0"/>
    </linearGradient>
    <linearGradient id="Безымянный_градиент_15-2" x1="318.35" y1="31.08" x2="512.01" y2="31.08" xlink:href="#Безымянный_градиент_15"/>
    <linearGradient id="Безымянный_градиент_15-3" x1="318.35" y1="34.54" x2="512.01" y2="34.54" xlink:href="#Безымянный_градиент_15"/>
    <linearGradient id="Безымянный_градиент_15-4" x1="318.35" y1="30.76" x2="512.01" y2="30.76" xlink:href="#Безымянный_градиент_15"/>
    <linearGradient id="Безымянный_градиент_15-5" x1="318.35" y1="35.9" x2="512.01" y2="35.9" xlink:href="#Безымянный_градиент_15"/>
    <linearGradient id="Безымянный_градиент_15-6" x1="318.35" y1="37.37" x2="512.01" y2="37.37" xlink:href="#Безымянный_градиент_15"/>
    <linearGradient id="Безымянный_градиент_15-7" x1="318.35" y1="31.07" x2="512.01" y2="31.07" xlink:href="#Безымянный_градиент_15"/>
    <linearGradient id="Безымянный_градиент_16" data-name="Безымянный градиент 16" x1="5.26" y1="48.02" x2="60.01" y2="16.41" gradientTransform="matrix(1, 0, 0, -1, 0.14, 64.05)" gradientUnits="userSpaceOnUse">
      <stop offset="0" stop-color="#07d9ef"/>
      <stop offset="1" stop-color="#0280ec"/>
    </linearGradient>
  </defs>
  <path class="cls-1" d="M72.52,17h7.85v3.44a12.68,12.68,0,0,1,9.61-4,15,15,0,0,1,11.2,4.89,16.17,16.17,0,0,1,4.68,11.67,16.07,16.07,0,0,1-4.65,11.71A15.05,15.05,0,0,1,90,49.55a12.54,12.54,0,0,1-9.61-4V61.72H72.52Zm7.37,16a9,9,0,0,0,.7,3.59,9.14,9.14,0,0,0,2,3,9,9,0,0,0,3,2.06,9.09,9.09,0,0,0,7.14,0,9,9,0,0,0,3-2.06,9.55,9.55,0,0,0,0-13.29,9.32,9.32,0,0,0-3-2.07,9.24,9.24,0,0,0-7.15,0,9.36,9.36,0,0,0-3,2.07,9.08,9.08,0,0,0-2.06,3.06,9,9,0,0,0-.69,3.62Z"/>
  <path class="cls-2" d="M110.52,17h7.85v4.77a9.31,9.31,0,0,1,4.11-4,11.67,11.67,0,0,1,5.19-1.21,14.87,14.87,0,0,1,2.66.24v8.39a11.74,11.74,0,0,0-3.62-.6,10.84,10.84,0,0,0-5.41,1.72q-3,1.72-3,6.31V49h-7.85Z"/>
  <path class="cls-3" d="M137.39,21.3a16.76,16.76,0,0,1,5.33-3.59,16.38,16.38,0,0,1,12.6,0,16.69,16.69,0,0,1,5.34,3.59,16,16,0,0,1,4.83,11.63,16,16,0,0,1-4.83,11.68,16.32,16.32,0,0,1-23.27,0,15.92,15.92,0,0,1-3.61-5.33A16.09,16.09,0,0,1,132.56,33a15.91,15.91,0,0,1,4.83-11.66ZM139.87,33a9.17,9.17,0,0,0,.66,3.58,9.3,9.3,0,0,0,2,3,9.06,9.06,0,0,0,13,0A9.12,9.12,0,0,0,158.18,33a9.12,9.12,0,0,0-.66-3.57,9.26,9.26,0,0,0-2-3,8.61,8.61,0,0,0-3-2,8.92,8.92,0,0,0-10,2.07,9.19,9.19,0,0,0-2,3A9,9,0,0,0,139.87,33Z"/>
  <path class="cls-4" d="M171.1,35.27V28.2H193v7.07Z"/>
  <path class="cls-5" d="M196.84,19.25h5.4v-10h7.16v10h9.49v5.81h-9.51V38.58a5.25,5.25,0,0,0,1.15,3.81c.71.81,2.05,1.2,4,1.2a14.3,14.3,0,0,0,5.45-1v5.8a20.42,20.42,0,0,1-7.3,1.32q-5.19,0-7.83-2.62a9.62,9.62,0,0,1-2.62-7.16V25.09h-5.4Z"/>
  <path class="cls-6" d="M227.8,21.24a16,16,0,0,1,11.66-4.77A15.88,15.88,0,0,1,250,20.31a16,16,0,0,1,5.58,9.58,14.88,14.88,0,0,1,.37,3.26,12.41,12.41,0,0,1-.31,2.78H230.72a7.9,7.9,0,0,0,3,4.89,9.21,9.21,0,0,0,5.67,1.75,10.62,10.62,0,0,0,4.46-.79,10.81,10.81,0,0,0,3.76-2.53l6.93,1.87a13.84,13.84,0,0,1-6.19,6.1,18.76,18.76,0,0,1-8.91,2.3,15.89,15.89,0,0,1-11.69-4.87,16,16,0,0,1-3.62-5.3,16.15,16.15,0,0,1-1.24-6.29,16.12,16.12,0,0,1,4.88-11.82Zm3,8.71H248a8.55,8.55,0,0,0-3-4.66,8.64,8.64,0,0,0-5.63-1.87,8.78,8.78,0,0,0-5.64,1.87,8.31,8.31,0,0,0-3,4.66Z"/>
  <path class="cls-7" d="M260,26.26a8.33,8.33,0,0,1,3.68-7.19,16.22,16.22,0,0,1,9.55-2.6,24,24,0,0,1,12.32,3.15v7.43q-7.36-3.9-12.32-3.9a7.19,7.19,0,0,0-3.75.85,2.53,2.53,0,0,0-1,.89,2.56,2.56,0,0,0-.39,1.29,2,2,0,0,0,.4,1.23,2.89,2.89,0,0,0,1.38.87c.67.24,1.26.44,1.79.58s1.35.34,2.5.57,2,.45,2.63.61q5.37,1.39,7.82,3.83a8.08,8.08,0,0,1,2.44,6,7.85,7.85,0,0,1-3.89,7.28A17.58,17.58,0,0,1,274,49.49a24.78,24.78,0,0,1-13.05-3.87V37.7a25.57,25.57,0,0,0,5.94,3.35,18.15,18.15,0,0,0,7.1,1.6,7.88,7.88,0,0,0,3.57-.75,2.41,2.41,0,0,0,1.08-.84,2.37,2.37,0,0,0,.42-1.31c0-1-.61-1.75-1.84-2.36a26.83,26.83,0,0,0-5.94-1.75q-5.79-1.2-8.52-3.37a7.31,7.31,0,0,1-2.71-6Z"/>
  <path class="cls-8" d="M289.87,19.25h5.38v-10h7.17v10H312v5.81h-9.52V38.58a5.29,5.29,0,0,0,1.14,3.81c.72.81,2,1.2,4,1.2a14.3,14.3,0,0,0,5.45-1v5.8a20.4,20.4,0,0,1-7.29,1.32c-3.46,0-6.08-.87-7.83-2.62a9.81,9.81,0,0,1-2.06-3.31,9.7,9.7,0,0,1-.58-3.85V25.09h-5.38Z"/>
  <path class="cls-9" d="M318.48,44.45a4.86,4.86,0,0,1,.38-2A4.8,4.8,0,0,1,320,40.85a5.07,5.07,0,0,1,1.66-1.12,4.87,4.87,0,0,1,2-.36,5.1,5.1,0,0,1,2.81.85,5.18,5.18,0,0,1,1.87,2.27A5.08,5.08,0,0,1,320,48a4.79,4.79,0,0,1-1.13-1.62A5,5,0,0,1,318.48,44.45Z"/>
  <path class="cls-10" d="M332.77,26.26a8.35,8.35,0,0,1,.92-4.07,8.24,8.24,0,0,1,2.77-3.12A16.27,16.27,0,0,1,346,16.48a23.9,23.9,0,0,1,12.31,3.14v7.43q-7.4-3.9-12.35-3.9a7.21,7.21,0,0,0-3.75.85,2.5,2.5,0,0,0-1,.89,2.57,2.57,0,0,0-.4,1.29,2,2,0,0,0,.4,1.23,2.87,2.87,0,0,0,1.39.87c.66.24,1.26.44,1.78.58s1.36.34,2.51.57,2,.45,2.62.61c3.58.93,6.2,2.21,7.82,3.83a8.14,8.14,0,0,1,1.85,2.75,8.27,8.27,0,0,1,.6,3.26,7.9,7.9,0,0,1-3.89,7.28,17.6,17.6,0,0,1-9.21,2.33,24.73,24.73,0,0,1-13.05-3.87V37.7a25,25,0,0,0,5.94,3.35,18.11,18.11,0,0,0,7.1,1.6,7.81,7.81,0,0,0,3.56-.75,2.31,2.31,0,0,0,1.08-.84,2.38,2.38,0,0,0,.43-1.31c0-1-.62-1.75-1.85-2.36A26.52,26.52,0,0,0,344,35.64q-5.79-1.2-8.51-3.37a7.35,7.35,0,0,1-2.06-2.69,7.42,7.42,0,0,1-.63-3.32Z"/>
  <path class="cls-11" d="M362.59,19.25H368v-10h7.17v10h9.51v5.81h-9.51V38.58a5.25,5.25,0,0,0,1.14,3.81c.72.81,2,1.2,4,1.2a14.34,14.34,0,0,0,5.45-1v5.8a20.63,20.63,0,0,1-7.29,1.33c-3.47,0-6.08-.87-7.84-2.63a9.68,9.68,0,0,1-2.63-7.16V25.09h-5.39Z"/>
  <path class="cls-12" d="M389.52,17h7.85V34.72a7.51,7.51,0,0,0,2.05,5.47,6.86,6.86,0,0,0,5,2.08,7.36,7.36,0,0,0,3.14-.61,7.18,7.18,0,0,0,2.57-1.9,9.09,9.09,0,0,0,2.2-6.25V17h7.86V49h-7.86V45.41a12,12,0,0,1-4.28,3.14,12.21,12.21,0,0,1-5.2,1,13.68,13.68,0,0,1-9.42-3.5,11.88,11.88,0,0,1-4-9.31Z"/>
  <path class="cls-13" d="M430.36,21.24a15.13,15.13,0,0,1,11.23-4.76,12.71,12.71,0,0,1,9.6,4V6.75H459V49h-7.85V45.59a12.69,12.69,0,0,1-4.38,3,13,13,0,0,1-5.22,1,14.9,14.9,0,0,1-11.2-4.9,16.21,16.21,0,0,1-4.69-11.6,16.38,16.38,0,0,1,1.14-6.38,16.13,16.13,0,0,1,3.52-5.44Zm2.71,11.82a9.16,9.16,0,0,0,2.69,6.58A9.33,9.33,0,0,0,451,29.47a9.05,9.05,0,0,0-2-3,9.31,9.31,0,0,0-3-2.07,9.24,9.24,0,0,0-7.15,0,9.36,9.36,0,0,0-5.7,8.69Z"/>
  <path class="cls-14" d="M466.36,5.73a5.09,5.09,0,0,1,7,0,4.58,4.58,0,0,1,1.08,1.53,4.48,4.48,0,0,1,.36,1.84,4.19,4.19,0,0,1-.35,1.82,4.31,4.31,0,0,1-1.06,1.51,5.17,5.17,0,0,1-7,0,4.54,4.54,0,0,1-1.08-1.52,4.48,4.48,0,0,1-.36-1.84,4.5,4.5,0,0,1,.35-1.84,4.41,4.41,0,0,1,1.07-1.53ZM473.72,17V49h-7.85V17Z"/>
  <path class="cls-15" d="M484.05,21.31a16.46,16.46,0,0,1,5.33-3.58,16.4,16.4,0,0,1,17.93,3.58,15.86,15.86,0,0,1,3.62,5.32,16,16,0,0,1,1.22,6.31,16,16,0,0,1-1.22,6.34,15.85,15.85,0,0,1-3.62,5.34,16.31,16.31,0,0,1-23.26,0A16,16,0,0,1,479.23,33a15.85,15.85,0,0,1,4.82-11.66ZM486.54,33a9.18,9.18,0,0,0,17.68,3.58,9.18,9.18,0,0,0,.67-3.58,9.31,9.31,0,0,0-.66-3.57,9.13,9.13,0,0,0-2-3,8.67,8.67,0,0,0-3-2,8.79,8.79,0,0,0-3.54-.68,8.66,8.66,0,0,0-6.47,2.75,9.07,9.07,0,0,0-2.7,6.56Z"/>
  <path class="cls-16" d="M65.28,32.1a31.47,31.47,0,0,1-7,19.79,32.83,32.83,0,0,1-7.19,6.58A32.22,32.22,0,0,1,1,32.1,32.22,32.22,0,0,1,58.31,12.31a31.44,31.44,0,0,1,7,19.79Z"/>
  <path class="cls-17" d="M51.12,5.73v14a15.43,15.43,0,0,0-11.39-5.11c-8.91,0-16.12,7.84-16.12,17.5S30.82,49.6,39.73,49.6a15.42,15.42,0,0,0,11.39-5.09v14a32.83,32.83,0,0,0,7.19-6.58V12.31a32.36,32.36,0,0,0-7.19-6.58Zm0,29.22a10.64,10.64,0,1,1,.37-2.78A10.89,10.89,0,0,1,51.12,35Z"/>
</svg>
