<svg xmlns="http://www.w3.org/2000/svg" xmlns:xlink="http://www.w3.org/1999/xlink" viewBox="0 0 20.24 20.24"><defs><style>.cls-1{fill:#fff;}.cls-2{fill:url(#Безымянный_градиент_122);}.cls-3{fill:url(#Безымянный_градиент_121);}.cls-4{fill:url(#Безымянный_градиент_120);}.cls-5{fill:url(#Безымянный_градиент_119);}.cls-6{fill:url(#Безымянный_градиент_118);}.cls-7{fill:url(#Безымянный_градиент_117);}.cls-8{fill:url(#Безымянный_градиент_116);}.cls-9{fill:url(#Безымянный_градиент_115);}.cls-10{fill:url(#Безымянный_градиент_114);}.cls-11{fill:url(#Безымянный_градиент_113);}.cls-12{fill:url(#Безымянный_градиент_112);}.cls-13{fill:url(#Безымянный_градиент_111);}.cls-14{fill:url(#Безымянный_градиент_110);}.cls-15{fill:url(#Безымянный_градиент_109);}.cls-16{fill:url(#Безымянный_градиент_108);}.cls-17{fill:url(#Безымянный_градиент_107);}.cls-18{fill:url(#Безымянный_градиент_106);}.cls-19{fill:url(#Безымянный_градиент_105);}.cls-20{fill:url(#Безымянный_градиент_104);}.cls-21{fill:url(#Безымянный_градиент_103);}.cls-22{fill:url(#Безымянный_градиент_102);}.cls-23{fill:url(#Безымянный_градиент_101);}.cls-24{fill:url(#Безымянный_градиент_100);}.cls-25{fill:url(#Безымянный_градиент_99);}.cls-26{fill:url(#Безымянный_градиент_98);}.cls-27{fill:url(#radial-gradient);}.cls-28{fill:none;stroke:#000d20;stroke-miterlimit:10;stroke-width:0.5px;}.cls-29{fill:#030104;}</style><radialGradient id="Безымянный_градиент_122" cx="12.11" cy="15.01" r="18.82" gradientTransform="translate(19.87 -0.36) rotate(87.92)" gradientUnits="userSpaceOnUse"><stop offset="0.13" stop-color="#fff"/><stop offset="1" stop-color="#fcfcfd"/></radialGradient><radialGradient id="Безымянный_градиент_121" cx="12.08" cy="14.93" r="18.51" gradientUnits="userSpaceOnUse"><stop offset="0.13" stop-color="#fff"/><stop offset="0.76" stop-color="#fcfdfd"/><stop offset="1" stop-color="#f8fafb"/></radialGradient><radialGradient id="Безымянный_градиент_120" cx="12.05" cy="14.85" r="18.2" gradientUnits="userSpaceOnUse"><stop offset="0.13" stop-color="#fff"/><stop offset="0.67" stop-color="#fcfcfd"/><stop offset="1" stop-color="#f5f7f9"/></radialGradient><radialGradient id="Безымянный_градиент_119" cx="12.01" cy="14.77" r="17.91" gradientUnits="userSpaceOnUse"><stop offset="0.13" stop-color="#fff"/><stop offset="0.61" stop-color="#fcfcfd"/><stop offset="1" stop-color="#f2f5f7"/></radialGradient><radialGradient id="Безымянный_градиент_118" cx="11.98" cy="14.7" r="17.63" gradientUnits="userSpaceOnUse"><stop offset="0.13" stop-color="#fff"/><stop offset="0.56" stop-color="#fcfcfd"/><stop offset="0.93" stop-color="#f1f4f7"/><stop offset="1" stop-color="#eef2f5"/></radialGradient><radialGradient id="Безымянный_градиент_117" cx="11.96" cy="14.63" r="17.36" gradientUnits="userSpaceOnUse"><stop offset="0.13" stop-color="#fff"/><stop offset="0.53" stop-color="#fcfcfd"/><stop offset="0.87" stop-color="#f1f5f7"/><stop offset="1" stop-color="#ebf0f3"/></radialGradient><radialGradient id="Безымянный_градиент_116" cx="11.93" cy="14.56" r="17.1" gradientUnits="userSpaceOnUse"><stop offset="0.13" stop-color="#fff"/><stop offset="0.51" stop-color="#fcfcfd"/><stop offset="0.83" stop-color="#f1f4f7"/><stop offset="1" stop-color="#e8edf1"/></radialGradient><radialGradient id="Безымянный_градиент_115" cx="11.9" cy="14.5" r="16.86" gradientUnits="userSpaceOnUse"><stop offset="0.13" stop-color="#fff"/><stop offset="0.48" stop-color="#fcfcfd"/><stop offset="0.78" stop-color="#f1f5f7"/><stop offset="1" stop-color="#e4ebef"/></radialGradient><radialGradient id="Безымянный_градиент_114" cx="11.88" cy="14.44" r="16.62" gradientUnits="userSpaceOnUse"><stop offset="0.13" stop-color="#fff"/><stop offset="0.47" stop-color="#fcfcfd"/><stop offset="0.75" stop-color="#f1f4f7"/><stop offset="1" stop-color="#e1e8ed"/></radialGradient><radialGradient id="Безымянный_градиент_113" cx="11.85" cy="14.38" r="16.4" gradientUnits="userSpaceOnUse"><stop offset="0.13" stop-color="#fff"/><stop offset="0.45" stop-color="#fcfcfd"/><stop offset="0.73" stop-color="#f1f4f7"/><stop offset="0.98" stop-color="#dfe7ec"/><stop offset="1" stop-color="#dee6eb"/></radialGradient><radialGradient id="Безымянный_градиент_112" cx="11.83" cy="14.33" r="16.2" gradientUnits="userSpaceOnUse"><stop offset="0.13" stop-color="#fff"/><stop offset="0.44" stop-color="#fcfcfd"/><stop offset="0.7" stop-color="#f1f4f7"/><stop offset="0.94" stop-color="#dfe7ec"/><stop offset="1" stop-color="#dae3e9"/></radialGradient><radialGradient id="Безымянный_градиент_111" cx="11.81" cy="14.28" r="16.01" gradientUnits="userSpaceOnUse"><stop offset="0.13" stop-color="#fff"/><stop offset="0.43" stop-color="#fcfcfd"/><stop offset="0.68" stop-color="#f1f5f7"/><stop offset="0.92" stop-color="#dfe7ec"/><stop offset="1" stop-color="#d7e1e7"/></radialGradient><radialGradient id="Безымянный_градиент_110" cx="11.79" cy="14.23" r="15.83" gradientUnits="userSpaceOnUse"><stop offset="0.13" stop-color="#fff"/><stop offset="0.42" stop-color="#fcfcfd"/><stop offset="0.66" stop-color="#f1f5f7"/><stop offset="0.89" stop-color="#dfe7ec"/><stop offset="1" stop-color="#d4dfe5"/></radialGradient><radialGradient id="Безымянный_градиент_109" cx="11.78" cy="14.19" r="15.67" gradientUnits="userSpaceOnUse"><stop offset="0.13" stop-color="#fff"/><stop offset="0.41" stop-color="#fcfcfd"/><stop offset="0.64" stop-color="#f1f5f7"/><stop offset="0.86" stop-color="#dfe7ec"/><stop offset="1" stop-color="#d0dce3"/></radialGradient><radialGradient id="Безымянный_градиент_108" cx="11.76" cy="14.15" r="15.52" gradientUnits="userSpaceOnUse"><stop offset="0.13" stop-color="#fff"/><stop offset="0.4" stop-color="#fcfcfd"/><stop offset="0.63" stop-color="#f1f5f7"/><stop offset="0.84" stop-color="#dfe8ec"/><stop offset="1" stop-color="#cddae1"/></radialGradient><radialGradient id="Безымянный_градиент_107" cx="11.75" cy="14.12" r="15.39" gradientUnits="userSpaceOnUse"><stop offset="0.13" stop-color="#fff"/><stop offset="0.39" stop-color="#fcfcfd"/><stop offset="0.61" stop-color="#f1f5f7"/><stop offset="0.82" stop-color="#dfe8ec"/><stop offset="1" stop-color="#c9d7df"/></radialGradient><radialGradient id="Безымянный_градиент_106" cx="11.74" cy="14.09" r="15.28" gradientUnits="userSpaceOnUse"><stop offset="0.13" stop-color="#fff"/><stop offset="0.38" stop-color="#fcfcfd"/><stop offset="0.6" stop-color="#f1f5f7"/><stop offset="0.8" stop-color="#dfe8ec"/><stop offset="1" stop-color="#c7d5dd"/><stop offset="1" stop-color="#c6d5dd"/></radialGradient><radialGradient id="Безымянный_градиент_105" cx="11.73" cy="14.07" r="15.19" gradientUnits="userSpaceOnUse"><stop offset="0.13" stop-color="#fff"/><stop offset="0.38" stop-color="#fcfcfd"/><stop offset="0.59" stop-color="#f1f5f7"/><stop offset="0.79" stop-color="#dfe7ec"/><stop offset="0.98" stop-color="#c6d5dd"/><stop offset="1" stop-color="#c3d2db"/></radialGradient><radialGradient id="Безымянный_градиент_104" cx="11.72" cy="14.05" r="15.11" gradientUnits="userSpaceOnUse"><stop offset="0.13" stop-color="#fff"/><stop offset="0.37" stop-color="#fcfcfd"/><stop offset="0.58" stop-color="#f1f5f7"/><stop offset="0.77" stop-color="#dfe8ec"/><stop offset="0.95" stop-color="#c6d5dd"/><stop offset="1" stop-color="#bfd0d9"/></radialGradient><radialGradient id="Безымянный_градиент_103" cx="11.71" cy="14.03" r="15.05" gradientUnits="userSpaceOnUse"><stop offset="0.13" stop-color="#fff"/><stop offset="0.37" stop-color="#fcfcfd"/><stop offset="0.57" stop-color="#f1f5f7"/><stop offset="0.76" stop-color="#dfe7ec"/><stop offset="0.94" stop-color="#c6d5dd"/><stop offset="1" stop-color="#bccdd7"/></radialGradient><radialGradient id="Безымянный_градиент_102" cx="11.71" cy="14.02" r="15.01" gradientUnits="userSpaceOnUse"><stop offset="0.13" stop-color="#fff"/><stop offset="0.36" stop-color="#fcfcfd"/><stop offset="0.56" stop-color="#f1f5f7"/><stop offset="0.75" stop-color="#dfe7ec"/><stop offset="0.92" stop-color="#c6d5dd"/><stop offset="1" stop-color="#b9cbd5"/></radialGradient><radialGradient id="Безымянный_градиент_101" cx="11.71" cy="14.01" r="14.99" gradientUnits="userSpaceOnUse"><stop offset="0.13" stop-color="#fff"/><stop offset="0.36" stop-color="#fcfcfd"/><stop offset="0.55" stop-color="#f1f5f7"/><stop offset="0.73" stop-color="#dfe7ec"/><stop offset="0.9" stop-color="#c6d5dd"/><stop offset="1" stop-color="#b5c8d3"/></radialGradient><radialGradient id="Безымянный_градиент_100" cx="11.7" cy="14.01" r="14.98" gradientUnits="userSpaceOnUse"><stop offset="0.13" stop-color="#fff"/><stop offset="0.35" stop-color="#fcfcfd"/><stop offset="0.54" stop-color="#f1f5f7"/><stop offset="0.72" stop-color="#dfe7ec"/><stop offset="0.89" stop-color="#c6d5dd"/><stop offset="1" stop-color="#b2c6d1"/></radialGradient><radialGradient id="Безымянный_градиент_99" cx="11.71" cy="14.02" r="14.99" gradientUnits="userSpaceOnUse"><stop offset="0.13" stop-color="#fff"/><stop offset="0.35" stop-color="#fcfcfd"/><stop offset="0.54" stop-color="#f1f5f7"/><stop offset="0.71" stop-color="#dfe7ec"/><stop offset="0.88" stop-color="#c6d5dd"/><stop offset="1" stop-color="#afc3cf"/></radialGradient><radialGradient id="Безымянный_градиент_98" cx="11.71" cy="14.02" r="15.03" gradientUnits="userSpaceOnUse"><stop offset="0.13" stop-color="#fff"/><stop offset="0.35" stop-color="#fcfcfd"/><stop offset="0.53" stop-color="#f1f5f7"/><stop offset="0.7" stop-color="#dfe8ec"/><stop offset="0.86" stop-color="#c6d5dd"/><stop offset="1" stop-color="#abc1cd"/></radialGradient><radialGradient id="radial-gradient" cx="11.71" cy="14.04" r="15.08" gradientUnits="userSpaceOnUse"><stop offset="0.13" stop-color="#fff"/><stop offset="0.34" stop-color="#fcfcfd"/><stop offset="0.52" stop-color="#f1f5f7"/><stop offset="0.69" stop-color="#dfe7ec"/><stop offset="0.85" stop-color="#c6d5dd"/><stop offset="1" stop-color="#a8becb"/></radialGradient></defs><g id="Слой_2" data-name="Слой 2"><g id="Слой_3" data-name="Слой 3"><circle class="cls-1" cx="10.12" cy="10.12" r="10.12"/><circle class="cls-2" cx="10.12" cy="10.12" r="9.95" transform="translate(-0.36 19.87) rotate(-87.92)"/><path class="cls-3" d="M19.9,9.69A9.79,9.79,0,1,1,9.69.34,9.79,9.79,0,0,1,19.9,9.69Z"/><path class="cls-4" d="M19.72,9.47A9.62,9.62,0,1,1,9.47.52,9.62,9.62,0,0,1,19.72,9.47Z"/><path class="cls-5" d="M19.55,9.25A9.47,9.47,0,1,1,9.25.69,9.47,9.47,0,0,1,19.55,9.25Z"/><path class="cls-6" d="M19.38,9A9.32,9.32,0,1,1,9,.86,9.32,9.32,0,0,1,19.38,9Z"/><path class="cls-7" d="M19.21,8.82A9.18,9.18,0,1,1,8.82,1,9.19,9.19,0,0,1,19.21,8.82Z"/><path class="cls-8" d="M19,8.6A9,9,0,1,1,8.6,1.21,9,9,0,0,1,19,8.6Z"/><path class="cls-9" d="M18.86,8.39a8.91,8.91,0,1,1-10.47-7A8.91,8.91,0,0,1,18.86,8.39Z"/><path class="cls-10" d="M18.69,8.17A8.79,8.79,0,1,1,8.17,1.55,8.79,8.79,0,0,1,18.69,8.17Z"/><path class="cls-11" d="M18.52,8A8.68,8.68,0,1,1,8,1.72,8.68,8.68,0,0,1,18.52,8Z"/><path class="cls-12" d="M18.34,7.74A8.56,8.56,0,1,1,7.74,1.9,8.55,8.55,0,0,1,18.34,7.74Z"/><path class="cls-13" d="M18.17,7.52A8.46,8.46,0,1,1,7.52,2.07,8.46,8.46,0,0,1,18.17,7.52Z"/><path class="cls-14" d="M18,7.3A8.37,8.37,0,1,1,7.3,2.24,8.37,8.37,0,0,1,18,7.3Z"/><path class="cls-15" d="M17.83,7.08A8.29,8.29,0,1,1,7.09,2.41,8.3,8.3,0,0,1,17.83,7.08Z"/><path class="cls-16" d="M17.65,6.87A8.2,8.2,0,1,1,6.87,2.59,8.19,8.19,0,0,1,17.65,6.87Z"/><path class="cls-17" d="M17.48,6.65A8.14,8.14,0,1,1,6.65,2.76,8.13,8.13,0,0,1,17.48,6.65Z"/><path class="cls-18" d="M17.31,6.43A8.08,8.08,0,1,1,6.44,2.93,8.08,8.08,0,0,1,17.31,6.43Z"/><path class="cls-19" d="M17.14,6.22A8,8,0,1,1,6.22,3.1,8,8,0,0,1,17.14,6.22Z"/><path class="cls-20" d="M17,6A8,8,0,1,1,6,3.28,8,8,0,0,1,17,6Z"/><path class="cls-21" d="M16.79,5.78a8,8,0,1,1-11-2.33A8,8,0,0,1,16.79,5.78Z"/><path class="cls-22" d="M16.62,5.57a7.93,7.93,0,1,1-11-1.95A7.94,7.94,0,0,1,16.62,5.57Z"/><path class="cls-23" d="M16.45,5.35A7.93,7.93,0,1,1,5.35,3.79,7.94,7.94,0,0,1,16.45,5.35Z"/><path class="cls-24" d="M16.27,5.13A7.92,7.92,0,1,1,5.13,4,7.91,7.91,0,0,1,16.27,5.13Z"/><path class="cls-25" d="M16.1,4.92A7.92,7.92,0,1,1,4.92,4.14,7.91,7.91,0,0,1,16.1,4.92Z"/><path class="cls-26" d="M15.93,4.7A7.95,7.95,0,1,1,4.7,4.31,7.95,7.95,0,0,1,15.93,4.7Z"/><path class="cls-27" d="M15.76,4.48a8,8,0,1,1-11.28,0A8,8,0,0,1,15.76,4.48Z"/><path class="cls-28" d="M2.21,10.12A7.91,7.91,0,1,1,10.12,18,7.91,7.91,0,0,1,2.21,10.12Z"/><path class="cls-29" d="M10.12,11.33l-1-.92L6.07,13a.63.63,0,0,0,.42.17h7.26a.63.63,0,0,0,.42-.17l-3-2.57Z"/><path class="cls-29" d="M14.17,7.26a.63.63,0,0,0-.42-.17H6.49a.59.59,0,0,0-.41.17l4,3.47Z"/><polygon class="cls-29" points="5.88 7.63 5.88 12.65 8.81 10.17 5.88 7.63"/><polygon class="cls-29" points="11.43 10.17 14.36 12.65 14.36 7.62 11.43 10.17"/></g></g></svg>