<svg xmlns="http://www.w3.org/2000/svg" xmlns:xlink="http://www.w3.org/1999/xlink" viewBox="0 0 20.34 20.34"><defs><style>.cls-1{fill:url(#radial-gradient);}.cls-2{fill:url(#radial-gradient-2);}.cls-3{fill:url(#radial-gradient-3);}.cls-4{fill:url(#radial-gradient-4);}.cls-5{fill:url(#radial-gradient-5);}.cls-6{fill:url(#radial-gradient-6);}.cls-7{fill:url(#radial-gradient-7);}.cls-8{fill:url(#radial-gradient-8);}.cls-9{fill:url(#radial-gradient-9);}.cls-10{fill:url(#radial-gradient-10);}.cls-11{fill:url(#radial-gradient-11);}.cls-12{fill:url(#radial-gradient-12);}.cls-13{fill:url(#radial-gradient-13);}.cls-14{fill:url(#radial-gradient-14);}.cls-15{fill:url(#radial-gradient-15);}.cls-16{fill:url(#radial-gradient-16);}.cls-17{fill:url(#radial-gradient-17);}.cls-18{fill:url(#radial-gradient-18);}.cls-19{fill:url(#radial-gradient-19);}.cls-20{fill:url(#radial-gradient-20);}.cls-21{fill:url(#radial-gradient-21);}.cls-22{fill:url(#radial-gradient-22);}.cls-23{fill:url(#radial-gradient-23);}.cls-24{fill:url(#radial-gradient-24);}.cls-25{fill:url(#radial-gradient-25);}.cls-26{fill:url(#radial-gradient-26);}.cls-27{fill:url(#radial-gradient-27);}.cls-28{fill:none;stroke:#000d20;stroke-miterlimit:10;stroke-width:0.5px;}.cls-29{fill:#000d20;}.cls-30{fill:#fafcfb;}</style><radialGradient id="radial-gradient" cx="10.93" cy="0.52" r="24.97" gradientUnits="userSpaceOnUse"><stop offset="0.13" stop-color="#fff"/><stop offset="0.34" stop-color="#fcfcfd"/><stop offset="0.52" stop-color="#f1f5f7"/><stop offset="0.69" stop-color="#dfe7ec"/><stop offset="0.85" stop-color="#c6d5dd"/><stop offset="1" stop-color="#a8becb"/></radialGradient><radialGradient id="radial-gradient-2" cx="10.97" cy="1.24" r="24.65" xlink:href="#radial-gradient"/><radialGradient id="radial-gradient-3" cx="11" cy="1.93" r="24.31" xlink:href="#radial-gradient"/><radialGradient id="radial-gradient-4" cx="11.04" cy="2.6" r="23.95" xlink:href="#radial-gradient"/><radialGradient id="radial-gradient-5" cx="11.07" cy="3.25" r="23.57" xlink:href="#radial-gradient"/><radialGradient id="radial-gradient-6" cx="11.1" cy="3.88" r="23.18" xlink:href="#radial-gradient"/><radialGradient id="radial-gradient-7" cx="11.13" cy="4.48" r="22.77" xlink:href="#radial-gradient"/><radialGradient id="radial-gradient-8" cx="11.16" cy="5.07" r="22.36" xlink:href="#radial-gradient"/><radialGradient id="radial-gradient-9" cx="11.19" cy="5.64" r="21.94" xlink:href="#radial-gradient"/><radialGradient id="radial-gradient-10" cx="11.21" cy="6.19" r="21.51" xlink:href="#radial-gradient"/><radialGradient id="radial-gradient-11" cx="11.24" cy="6.73" r="21.07" xlink:href="#radial-gradient"/><radialGradient id="radial-gradient-12" cx="11.27" cy="7.25" r="20.64" xlink:href="#radial-gradient"/><radialGradient id="radial-gradient-13" cx="11.3" cy="7.75" r="20.21" xlink:href="#radial-gradient"/><radialGradient id="radial-gradient-14" cx="11.33" cy="8.24" r="19.78" xlink:href="#radial-gradient"/><radialGradient id="radial-gradient-15" cx="11.35" cy="8.73" r="19.35" xlink:href="#radial-gradient"/><radialGradient id="radial-gradient-16" cx="11.38" cy="9.2" r="18.93" xlink:href="#radial-gradient"/><radialGradient id="radial-gradient-17" cx="11.41" cy="9.66" r="18.52" xlink:href="#radial-gradient"/><radialGradient id="radial-gradient-18" cx="11.44" cy="10.11" r="18.11" xlink:href="#radial-gradient"/><radialGradient id="radial-gradient-19" cx="11.47" cy="10.56" r="17.72" xlink:href="#radial-gradient"/><radialGradient id="radial-gradient-20" cx="11.5" cy="11" r="17.34" xlink:href="#radial-gradient"/><radialGradient id="radial-gradient-21" cx="11.54" cy="11.44" r="16.97" xlink:href="#radial-gradient"/><radialGradient id="radial-gradient-22" cx="11.57" cy="11.88" r="16.61" xlink:href="#radial-gradient"/><radialGradient id="radial-gradient-23" cx="11.61" cy="12.32" r="16.28" xlink:href="#radial-gradient"/><radialGradient id="radial-gradient-24" cx="11.65" cy="12.76" r="15.96" xlink:href="#radial-gradient"/><radialGradient id="radial-gradient-25" cx="11.69" cy="13.2" r="15.66" xlink:href="#radial-gradient"/><radialGradient id="radial-gradient-26" cx="11.73" cy="13.65" r="15.39" xlink:href="#radial-gradient"/><radialGradient id="radial-gradient-27" cx="11.77" cy="14.1" r="15.15" xlink:href="#radial-gradient"/></defs><g id="Слой_2" data-name="Слой 2"><g id="Слой_3" data-name="Слой 3"><circle class="cls-1" cx="10.17" cy="10.17" r="10.17"/><path class="cls-2" d="M20.16,10A10,10,0,1,1,10,.17,10,10,0,0,1,20.16,10Z"/><path class="cls-3" d="M20,9.73A9.83,9.83,0,1,1,9.73.35,9.83,9.83,0,0,1,20,9.73Z"/><path class="cls-4" d="M19.82,9.51A9.67,9.67,0,1,1,9.51.52,9.68,9.68,0,0,1,19.82,9.51Z"/><path class="cls-5" d="M19.64,9.3A9.51,9.51,0,1,1,9.3.69,9.5,9.5,0,0,1,19.64,9.3Z"/><path class="cls-6" d="M19.47,9.08A9.36,9.36,0,1,1,9.08.87,9.37,9.37,0,0,1,19.47,9.08Z"/><path class="cls-7" d="M19.3,8.86A9.22,9.22,0,1,1,8.86,1,9.23,9.23,0,0,1,19.3,8.86Z"/><path class="cls-8" d="M19.12,8.64A9.08,9.08,0,1,1,8.64,1.21,9.07,9.07,0,0,1,19.12,8.64Z"/><path class="cls-9" d="M19,8.43a9,9,0,1,1-10.52-7A8.95,8.95,0,0,1,19,8.43Z"/><path class="cls-10" d="M18.78,8.21A8.83,8.83,0,1,1,8.21,1.56,8.84,8.84,0,0,1,18.78,8.21Z"/><path class="cls-11" d="M18.6,8A8.71,8.71,0,1,1,8,1.73,8.7,8.7,0,0,1,18.6,8Z"/><path class="cls-12" d="M18.43,7.77A8.6,8.6,0,1,1,7.77,1.91,8.6,8.6,0,0,1,18.43,7.77Z"/><path class="cls-13" d="M18.26,7.55A8.5,8.5,0,1,1,7.55,2.08,8.51,8.51,0,0,1,18.26,7.55Z"/><path class="cls-14" d="M18.08,7.34A8.41,8.41,0,1,1,7.34,2.25,8.39,8.39,0,0,1,18.08,7.34Z"/><path class="cls-15" d="M17.91,7.12A8.32,8.32,0,1,1,7.12,2.43,8.32,8.32,0,0,1,17.91,7.12Z"/><path class="cls-16" d="M17.74,6.9A8.25,8.25,0,1,1,6.9,2.6,8.25,8.25,0,0,1,17.74,6.9Z"/><path class="cls-17" d="M17.56,6.68A8.18,8.18,0,1,1,6.68,2.77,8.16,8.16,0,0,1,17.56,6.68Z"/><path class="cls-18" d="M17.39,6.46A8.12,8.12,0,1,1,6.47,2.94,8.11,8.11,0,0,1,17.39,6.46Z"/><path class="cls-19" d="M17.22,6.25a8.07,8.07,0,1,1-11-3.13A8.08,8.08,0,0,1,17.22,6.25Z"/><path class="cls-20" d="M17,6A8,8,0,1,1,6,3.29,8,8,0,0,1,17,6Z"/><path class="cls-21" d="M16.87,5.81A8,8,0,1,1,5.81,3.46,8,8,0,0,1,16.87,5.81Z"/><path class="cls-22" d="M16.7,5.59A8,8,0,1,1,5.59,3.64,8,8,0,0,1,16.7,5.59Z"/><path class="cls-23" d="M16.52,5.38A8,8,0,1,1,5.38,3.81,7.95,7.95,0,0,1,16.52,5.38Z"/><path class="cls-24" d="M16.35,5.16A8,8,0,1,1,5.16,4,8,8,0,0,1,16.35,5.16Z"/><path class="cls-25" d="M16.18,4.94A8,8,0,1,1,4.94,4.16,8,8,0,0,1,16.18,4.94Z"/><path class="cls-26" d="M16,4.72A8,8,0,1,1,4.72,4.33,8,8,0,0,1,16,4.72Z"/><path class="cls-27" d="M15.83,4.5a8,8,0,1,1-11.32,0A8,8,0,0,1,15.83,4.5Z"/><circle class="cls-28" cx="10.17" cy="10.17" r="7.95" transform="translate(-1.39 18.72) rotate(-81.49)"/><path class="cls-29" d="M12.53,13.65a.53.53,0,0,1-.56.5H8.47a.51.51,0,0,1-.54-.5v-7a.52.52,0,0,1,.54-.5H12a.54.54,0,0,1,.56.5Z"/><rect class="cls-30" x="8.43" y="6.81" width="3.61" height="5.85"/><circle class="cls-30" cx="10.23" cy="13.25" r="0.31"/></g></g></svg>