<svg xmlns="http://www.w3.org/2000/svg" xmlns:xlink="http://www.w3.org/1999/xlink" viewBox="0 0 787 713"><defs><style>.cls-1{opacity:0.33;fill:url(#Безымянный_градиент_134);}.cls-2{fill:url(#Безымянный_градиент_349);}.cls-3{fill:url(#Безымянный_градиент_349-2);}.cls-4{opacity:0.22;font-size:472.87px;fill:#fff;font-family:Krungthep;}</style><linearGradient id="Безымянный_градиент_134" x1="739.96" y1="214.43" x2="105.91" y2="580.5" gradientUnits="userSpaceOnUse"><stop offset="0.7" stop-color="#01caf1"/><stop offset="1" stop-color="#5791ff"/></linearGradient><linearGradient id="Безымянный_градиент_349" x1="224.08" y1="685.57" x2="569.04" y2="88.07" gradientUnits="userSpaceOnUse"><stop offset="0" stop-color="#00c2f7"/><stop offset="0.27" stop-color="#00bff7"/><stop offset="0.49" stop-color="#00b5f9"/><stop offset="0.7" stop-color="#00a3fa"/><stop offset="0.9" stop-color="#008bfd"/><stop offset="1" stop-color="#007bff"/></linearGradient><linearGradient id="Безымянный_градиент_349-2" x1="98.85" y1="149.91" x2="172.92" y2="21.63" xlink:href="#Безымянный_градиент_349"/></defs><g id="Слой_4" data-name="Слой 4"><path class="cls-1" d="M726.45,539.36C565.67,713.38,507.26,712.34,317,702-32,683.11-32,455.19,99.43,306.71,275.27,108.1,314.48,58,527.85,58,722.67,58,871.24,382.64,726.45,539.36Z"/><path class="cls-2" d="M711.08,503.89c-160.78,174-219.19,173-409.5,162.67-349-18.92-349-246.84-217.52-395.32C259.9,72.63,299.11,22.51,512.48,22.51,707.3,22.51,855.87,347.18,711.08,503.89Z"/><path class="cls-3" d="M199.44,90.61a68.1,68.1,0,0,1-136.19,0c0-37.61,58.86-84.17,96.47-84.17S199.44,53,199.44,90.61Z"/><text class="cls-4" transform="translate(76.01 418.78)">‘‘</text></g></svg>