<?xml version="1.0" standalone="no"?>
<!DOCTYPE svg PUBLIC "-//W3C//DTD SVG 20010904//EN"
 "http://www.w3.org/TR/2001/REC-SVG-20010904/DTD/svg10.dtd">
<svg version="1.0" xmlns="http://www.w3.org/2000/svg"
 width="700.000000pt" height="700.000000pt" viewBox="0 0 700.000000 700.000000"
 preserveAspectRatio="xMidYMid meet">
<metadata>
Created by potrace 1.14, written by Peter Selinger 2001-2017
</metadata>
<g transform="translate(0.000000,700.000000) scale(0.100000,-0.100000)"
fill="#000000" stroke="none">
<path d="M3205 6929 c-1034 -90 -1959 -621 -2551 -1465 -335 -478 -534 -1010
-606 -1619 -17 -144 -17 -567 0 -720 75 -671 325 -1278 748 -1810 111 -140
376 -405 519 -519 527 -420 1105 -661 1795 -748 159 -20 631 -17 795 6 496 67
937 218 1354 465 226 134 550 394 730 587 265 283 443 542 607 879 167 345
265 676 320 1080 26 184 26 656 0 840 -56 415 -154 740 -331 1100 -104 212
-196 365 -324 535 l-86 115 -5 -1738 -5 -1737 -380 -300 -380 -301 -3 301 -2
300 -92 -95 c-249 -260 -558 -405 -937 -436 -484 -41 -976 139 -1344 490 -395
377 -612 948 -567 1491 21 260 77 471 181 690 180 376 472 673 834 850 656
319 1418 198 1863 -297 l61 -68 1 778 0 778 -92 59 c-105 68 -338 189 -478
248 -287 122 -616 208 -940 248 -153 19 -535 26 -685 13z"/>
<path d="M4103 4625 c-222 -40 -433 -155 -595 -323 -102 -106 -155 -183 -219
-316 -71 -148 -100 -270 -106 -442 -7 -167 6 -269 49 -404 108 -338 362 -608
688 -729 134 -50 227 -65 395 -64 138 0 173 4 256 26 428 113 736 424 851 857
29 108 35 326 14 449 -52 296 -215 560 -461 746 -123 93 -328 180 -485 205
-88 13 -299 11 -387 -5z"/>
</g>
</svg>
