<svg xmlns="http://www.w3.org/2000/svg" xmlns:xlink="http://www.w3.org/1999/xlink" width="400" height="400" viewBox="0 0 400 400">
  <defs>
    <style>
      .cls-1 {
        isolation: isolate;
      }

      .cls-11, .cls-13, .cls-2 {
        fill: #25b5df;
      }

      .cls-10, .cls-13, .cls-2 {
        mix-blend-mode: multiply;
      }

      .cls-2 {
        opacity: 0.3;
        filter: url(#filter);
      }

      .cls-3 {
        fill: #91b3fa;
      }

      .cls-4 {
        fill: url(#linear-gradient);
      }

      .cls-5 {
        fill: url(#linear-gradient-2);
      }

      .cls-6 {
        fill: url(#linear-gradient-3);
      }

      .cls-7 {
        opacity: 0.64;
      }

      .cls-8 {
        fill: url(#Безымянный_градиент_78);
      }

      .cls-9 {
        fill: url(#Безымянный_градиент_78-2);
      }

      .cls-10, .cls-13 {
        opacity: 0.5;
      }

      .cls-12 {
        fill: #7d97f4;
      }

      .cls-14 {
        fill: #dce5fe;
      }

      .cls-15 {
        fill: url(#linear-gradient-4);
      }

      .cls-16 {
        fill: url(#linear-gradient-5);
      }

      .cls-17 {
        fill: #fff;
      }

      .cls-18 {
        fill: url(#linear-gradient-6);
      }

      .cls-19 {
        fill: url(#linear-gradient-7);
      }

      .cls-20 {
        fill: url(#linear-gradient-8);
      }

      .cls-21 {
        fill: url(#linear-gradient-9);
      }

      .cls-22 {
        fill: url(#linear-gradient-10);
      }

      .cls-23 {
        fill: url(#linear-gradient-11);
      }

      .cls-24 {
        fill: url(#linear-gradient-12);
      }

      .cls-25 {
        fill: url(#linear-gradient-13);
      }

      .cls-26 {
        fill: url(#linear-gradient-14);
      }

      .cls-27 {
        fill: url(#linear-gradient-15);
      }

      .cls-28 {
        fill: url(#linear-gradient-16);
      }

      .cls-29 {
        fill: url(#linear-gradient-17);
      }

      .cls-30 {
        fill: url(#linear-gradient-18);
      }

      .cls-31 {
        fill: url(#linear-gradient-19);
      }

      .cls-32 {
        fill: url(#linear-gradient-20);
      }

      .cls-33 {
        fill: url(#linear-gradient-21);
      }

      .cls-34 {
        fill: url(#linear-gradient-22);
      }

      .cls-35 {
        fill: url(#linear-gradient-23);
      }

      .cls-36 {
        fill: url(#linear-gradient-24);
      }

      .cls-37 {
        fill: url(#linear-gradient-25);
      }

      .cls-38 {
        fill: url(#linear-gradient-26);
      }

      .cls-39 {
        fill: url(#linear-gradient-27);
      }

      .cls-40 {
        fill: url(#linear-gradient-28);
      }

      .cls-41 {
        fill: url(#linear-gradient-29);
      }

      .cls-42 {
        fill: url(#linear-gradient-30);
      }

      .cls-43 {
        fill: url(#linear-gradient-31);
      }

      .cls-44 {
        fill: url(#linear-gradient-32);
      }

      .cls-45 {
        fill: url(#linear-gradient-33);
      }

      .cls-46 {
        fill: url(#linear-gradient-34);
      }

      .cls-47 {
        fill: url(#linear-gradient-35);
      }

      .cls-48 {
        fill: url(#linear-gradient-36);
      }

      .cls-49 {
        fill: #d8dee8;
      }

      .cls-50 {
        fill: url(#linear-gradient-37);
      }

      .cls-51 {
        fill: url(#linear-gradient-38);
      }

      .cls-52 {
        fill: url(#linear-gradient-39);
      }

      .cls-53 {
        fill: url(#linear-gradient-40);
      }

      .cls-54 {
        fill: url(#linear-gradient-41);
      }

      .cls-55 {
        fill: url(#linear-gradient-42);
      }

      .cls-56 {
        fill: url(#linear-gradient-43);
      }

      .cls-57 {
        fill: url(#linear-gradient-44);
      }

      .cls-58 {
        fill: url(#linear-gradient-45);
      }

      .cls-59 {
        fill: url(#linear-gradient-46);
      }

      .cls-60 {
        fill: url(#linear-gradient-47);
      }

      .cls-61 {
        fill: url(#linear-gradient-48);
      }

      .cls-62 {
        fill: url(#linear-gradient-49);
      }

      .cls-63 {
        fill: url(#linear-gradient-50);
      }

      .cls-64 {
        fill: url(#linear-gradient-51);
      }

      .cls-65 {
        fill: url(#linear-gradient-52);
      }

      .cls-66 {
        fill: url(#linear-gradient-53);
      }

      .cls-67 {
        fill: url(#linear-gradient-54);
      }

      .cls-68 {
        fill: url(#linear-gradient-55);
      }

      .cls-69 {
        fill: url(#linear-gradient-56);
      }

      .cls-70 {
        fill: url(#linear-gradient-57);
      }

      .cls-71 {
        fill: url(#linear-gradient-58);
      }

      .cls-72 {
        fill: url(#linear-gradient-59);
      }

      .cls-73 {
        fill: url(#linear-gradient-60);
      }

      .cls-74 {
        fill: url(#linear-gradient-61);
      }

      .cls-75 {
        fill: url(#linear-gradient-62);
      }

      .cls-76 {
        fill: url(#linear-gradient-63);
      }

      .cls-77 {
        fill: url(#linear-gradient-64);
      }

      .cls-78 {
        fill: url(#linear-gradient-65);
      }

      .cls-79 {
        fill: url(#linear-gradient-66);
      }

      .cls-80 {
        fill: url(#linear-gradient-67);
      }

      .cls-81 {
        fill: url(#linear-gradient-68);
      }

      .cls-82 {
        fill: url(#linear-gradient-69);
      }

      .cls-83 {
        fill: url(#linear-gradient-70);
      }

      .cls-84 {
        fill: #b7c0ce;
      }

      .cls-85 {
        fill: url(#linear-gradient-71);
      }

      .cls-86 {
        fill: url(#linear-gradient-72);
      }

      .cls-87 {
        fill: url(#linear-gradient-73);
      }

      .cls-88 {
        fill: url(#linear-gradient-74);
      }

      .cls-89 {
        fill: url(#linear-gradient-75);
      }

      .cls-90 {
        fill: url(#linear-gradient-76);
      }

      .cls-91 {
        fill: url(#linear-gradient-77);
      }

      .cls-92 {
        fill: url(#linear-gradient-78);
      }

      .cls-93 {
        fill: url(#linear-gradient-79);
      }

      .cls-94 {
        fill: url(#linear-gradient-80);
      }

      .cls-95 {
        fill: url(#linear-gradient-81);
      }

      .cls-96 {
        fill: url(#linear-gradient-82);
      }

      .cls-97 {
        fill: url(#linear-gradient-83);
      }

      .cls-98 {
        fill: url(#linear-gradient-84);
      }

      .cls-99 {
        fill: url(#linear-gradient-85);
      }

      .cls-100 {
        fill: url(#linear-gradient-86);
      }

      .cls-101 {
        fill: url(#linear-gradient-87);
      }

      .cls-102 {
        fill: url(#linear-gradient-88);
      }

      .cls-103 {
        fill: url(#linear-gradient-89);
      }

      .cls-104 {
        fill: url(#linear-gradient-90);
      }

      .cls-105 {
        fill: url(#linear-gradient-91);
      }

      .cls-106 {
        fill: url(#linear-gradient-92);
      }

      .cls-107 {
        fill: url(#linear-gradient-93);
      }

      .cls-108 {
        fill: url(#linear-gradient-94);
      }

      .cls-109 {
        fill: url(#linear-gradient-95);
      }

      .cls-110 {
        fill: url(#linear-gradient-96);
      }

      .cls-111 {
        fill: url(#linear-gradient-97);
      }

      .cls-112 {
        fill: url(#linear-gradient-98);
      }

      .cls-113 {
        fill: url(#linear-gradient-99);
      }

      .cls-114 {
        fill: url(#linear-gradient-100);
      }

      .cls-115 {
        fill: url(#linear-gradient-101);
      }

      .cls-116 {
        fill: url(#linear-gradient-102);
      }

      .cls-117 {
        fill: url(#linear-gradient-103);
      }

      .cls-118 {
        fill: url(#linear-gradient-104);
      }

      .cls-119 {
        fill: url(#linear-gradient-105);
      }

      .cls-120 {
        fill: url(#linear-gradient-106);
      }

      .cls-121 {
        fill: url(#linear-gradient-107);
      }

      .cls-122 {
        fill: url(#linear-gradient-108);
      }

      .cls-123 {
        fill: url(#linear-gradient-109);
      }

      .cls-124 {
        fill: url(#linear-gradient-110);
      }

      .cls-125 {
        fill: url(#linear-gradient-111);
      }

      .cls-126 {
        fill: url(#linear-gradient-112);
      }

      .cls-127 {
        fill: url(#linear-gradient-113);
      }

      .cls-128 {
        fill: url(#linear-gradient-114);
      }

      .cls-129 {
        fill: url(#linear-gradient-115);
      }

      .cls-130 {
        fill: url(#linear-gradient-116);
      }

      .cls-131 {
        fill: url(#linear-gradient-117);
      }

      .cls-132 {
        fill: url(#linear-gradient-118);
      }

      .cls-133 {
        fill: url(#linear-gradient-119);
      }

      .cls-134 {
        fill: url(#linear-gradient-120);
      }

      .cls-135 {
        fill: url(#linear-gradient-121);
      }

      .cls-136 {
        fill: url(#linear-gradient-122);
      }

      .cls-137 {
        fill: url(#linear-gradient-123);
      }

      .cls-138 {
        fill: url(#linear-gradient-124);
      }

      .cls-139 {
        fill: url(#linear-gradient-125);
      }

      .cls-140 {
        fill: url(#linear-gradient-126);
      }

      .cls-141 {
        fill: url(#linear-gradient-127);
      }

      .cls-142 {
        fill: url(#linear-gradient-128);
      }

      .cls-143 {
        fill: url(#linear-gradient-129);
      }

      .cls-144 {
        fill: url(#linear-gradient-130);
      }

      .cls-145 {
        fill: url(#linear-gradient-131);
      }

      .cls-146 {
        fill: url(#linear-gradient-132);
      }

      .cls-147 {
        fill: url(#linear-gradient-133);
      }

      .cls-148 {
        fill: url(#linear-gradient-134);
      }

      .cls-149 {
        fill: url(#linear-gradient-135);
      }

      .cls-150 {
        fill: url(#linear-gradient-136);
      }

      .cls-151 {
        fill: url(#linear-gradient-137);
      }

      .cls-152 {
        fill: url(#linear-gradient-138);
      }

      .cls-153 {
        fill: url(#linear-gradient-139);
      }

      .cls-154 {
        fill: url(#linear-gradient-140);
      }

      .cls-155 {
        fill: url(#linear-gradient-141);
      }

      .cls-156 {
        fill: url(#linear-gradient-142);
      }

      .cls-157 {
        fill: url(#linear-gradient-143);
      }

      .cls-158 {
        fill: url(#linear-gradient-144);
      }

      .cls-159 {
        fill: url(#linear-gradient-145);
      }

      .cls-160 {
        fill: url(#linear-gradient-146);
      }

      .cls-161 {
        fill: url(#linear-gradient-147);
      }

      .cls-162 {
        fill: url(#linear-gradient-148);
      }

      .cls-163 {
        fill: url(#linear-gradient-149);
      }

      .cls-164 {
        fill: url(#linear-gradient-150);
      }

      .cls-165 {
        fill: url(#linear-gradient-151);
      }

      .cls-166 {
        fill: url(#linear-gradient-152);
      }

      .cls-167 {
        fill: url(#linear-gradient-153);
      }

      .cls-168 {
        fill: url(#linear-gradient-154);
      }

      .cls-169 {
        fill: url(#linear-gradient-155);
      }

      .cls-170 {
        fill: url(#linear-gradient-156);
      }

      .cls-171 {
        fill: url(#linear-gradient-157);
      }

      .cls-172 {
        fill: url(#linear-gradient-158);
      }

      .cls-173 {
        fill: url(#linear-gradient-159);
      }

      .cls-174 {
        fill: url(#linear-gradient-160);
      }

      .cls-175 {
        fill: url(#linear-gradient-161);
      }

      .cls-176 {
        fill: url(#linear-gradient-162);
      }

      .cls-177 {
        fill: url(#linear-gradient-163);
      }

      .cls-178 {
        fill: url(#linear-gradient-164);
      }

      .cls-179 {
        fill: url(#linear-gradient-165);
      }

      .cls-180 {
        fill: url(#linear-gradient-166);
      }

      .cls-181 {
        fill: url(#linear-gradient-167);
      }

      .cls-182 {
        fill: url(#linear-gradient-168);
      }
    </style>
    <filter id="filter" x="28.8" y="206" width="362.4" height="132.72" filterUnits="userSpaceOnUse">
      <feOffset dx="10" dy="10" input="SourceAlpha"/>
      <feGaussianBlur stdDeviation="7" result="blur"/>
      <feFlood/>
      <feComposite operator="in" in2="blur"/>
      <feComposite in="SourceGraphic"/>
    </filter>
    <linearGradient id="linear-gradient" x1="286.93" y1="89.3" x2="269.01" y2="121.22" gradientUnits="userSpaceOnUse">
      <stop offset="0" stop-color="#f36f56"/>
      <stop offset="1" stop-color="#ffc444"/>
    </linearGradient>
    <linearGradient id="linear-gradient-2" x1="299.88" y1="109.69" x2="271.87" y2="153.01" xlink:href="#linear-gradient"/>
    <linearGradient id="linear-gradient-3" x1="323.72" y1="103.33" x2="307.11" y2="141.12" xlink:href="#linear-gradient"/>
    <linearGradient id="Безымянный_градиент_78" data-name="Безымянный градиент 78" x1="121.93" y1="152.87" x2="192.49" y2="269.85" gradientUnits="userSpaceOnUse">
      <stop offset="0" stop-color="#3cc"/>
      <stop offset="0.41" stop-color="#f2bfff"/>
      <stop offset="0.98" stop-color="#f2bfff"/>
    </linearGradient>
    <linearGradient id="Безымянный_градиент_78-2" x1="125.44" y1="150.76" x2="196" y2="267.74" xlink:href="#Безымянный_градиент_78"/>
    <linearGradient id="linear-gradient-4" x1="274.69" y1="116.52" x2="121.22" y2="318.09" gradientUnits="userSpaceOnUse">
      <stop offset="0" stop-color="#444b8c"/>
      <stop offset="1" stop-color="#26264f"/>
    </linearGradient>
    <linearGradient id="linear-gradient-5" x1="156.66" y1="257.44" x2="176.87" y2="257.44" gradientUnits="userSpaceOnUse">
      <stop offset="0" stop-color="#dae3fe"/>
      <stop offset="1" stop-color="#e9effd"/>
    </linearGradient>
    <linearGradient id="linear-gradient-6" x1="222.04" y1="286.97" x2="203.49" y2="96.04" gradientUnits="userSpaceOnUse">
      <stop offset="0" stop-color="#53d8ff"/>
      <stop offset="1" stop-color="#3840f7"/>
    </linearGradient>
    <linearGradient id="linear-gradient-7" x1="174.5" y1="144.26" x2="211.47" y2="144.26" xlink:href="#linear-gradient-5"/>
    <linearGradient id="linear-gradient-8" x1="198.71" y1="172.44" x2="192.08" y2="135.98" gradientTransform="translate(308.32 -68.4) rotate(82.98)" xlink:href="#linear-gradient"/>
    <linearGradient id="linear-gradient-9" x1="196.17" y1="172.91" x2="189.54" y2="136.44" xlink:href="#linear-gradient"/>
    <linearGradient id="linear-gradient-10" x1="218.22" y1="130.94" x2="255.29" y2="130.94" xlink:href="#linear-gradient-5"/>
    <linearGradient id="linear-gradient-11" x1="218.22" y1="136.36" x2="255.29" y2="136.36" xlink:href="#linear-gradient-5"/>
    <linearGradient id="linear-gradient-12" x1="218.22" y1="141.86" x2="255.29" y2="141.86" xlink:href="#linear-gradient-5"/>
    <linearGradient id="linear-gradient-13" x1="174.74" y1="168.39" x2="258.66" y2="168.39" xlink:href="#linear-gradient-5"/>
    <linearGradient id="linear-gradient-14" x1="174.74" y1="173.81" x2="258.66" y2="173.81" xlink:href="#linear-gradient-5"/>
    <linearGradient id="linear-gradient-15" x1="174.05" y1="186.53" x2="185.62" y2="186.53" xlink:href="#linear-gradient-5"/>
    <linearGradient id="linear-gradient-16" x1="188.04" y1="186.15" x2="208.92" y2="186.15" xlink:href="#linear-gradient-5"/>
    <linearGradient id="linear-gradient-17" x1="214.82" y1="186.53" x2="226.38" y2="186.53" xlink:href="#linear-gradient-5"/>
    <linearGradient id="linear-gradient-18" x1="228.8" y1="186.15" x2="249.68" y2="186.15" xlink:href="#linear-gradient-5"/>
    <linearGradient id="linear-gradient-19" x1="177.64" y1="204.84" x2="186.2" y2="204.84" xlink:href="#linear-gradient-5"/>
    <linearGradient id="linear-gradient-20" x1="191.82" y1="205.21" x2="258.72" y2="205.21" xlink:href="#linear-gradient-5"/>
    <linearGradient id="linear-gradient-21" x1="199.09" y1="173.99" x2="163.84" y2="234.17" xlink:href="#linear-gradient"/>
    <linearGradient id="linear-gradient-22" x1="177.64" y1="219.64" x2="186.2" y2="219.64" xlink:href="#linear-gradient-5"/>
    <linearGradient id="linear-gradient-23" x1="191.82" y1="220.01" x2="258.72" y2="220.01" xlink:href="#linear-gradient-5"/>
    <linearGradient id="linear-gradient-24" x1="205.55" y1="177.78" x2="170.29" y2="237.95" xlink:href="#linear-gradient"/>
    <linearGradient id="linear-gradient-25" x1="177.64" y1="234.44" x2="186.2" y2="234.44" xlink:href="#linear-gradient-5"/>
    <linearGradient id="linear-gradient-26" x1="191.82" y1="234.8" x2="258.72" y2="234.8" xlink:href="#linear-gradient-5"/>
    <linearGradient id="linear-gradient-27" x1="210.97" y1="192.61" x2="164.59" y2="257.29" xlink:href="#linear-gradient"/>
    <linearGradient id="linear-gradient-28" x1="177.64" y1="249.23" x2="186.2" y2="249.23" xlink:href="#linear-gradient-5"/>
    <linearGradient id="linear-gradient-29" x1="191.82" y1="249.6" x2="258.72" y2="249.6" xlink:href="#linear-gradient-5"/>
    <linearGradient id="linear-gradient-30" x1="218.46" y1="185.34" x2="183.2" y2="245.51" xlink:href="#linear-gradient"/>
    <linearGradient id="linear-gradient-31" x1="229.84" y1="79.96" x2="185.31" y2="138.54" gradientUnits="userSpaceOnUse">
      <stop offset="0" stop-color="#09005d"/>
      <stop offset="1" stop-color="#1a0f91"/>
    </linearGradient>
    <linearGradient id="linear-gradient-32" x1="208.66" y1="98.38" x2="215.8" y2="98.38" xlink:href="#linear-gradient-5"/>
    <linearGradient id="linear-gradient-33" x1="234.72" y1="83.68" x2="190.19" y2="142.26" xlink:href="#linear-gradient-31"/>
    <linearGradient id="linear-gradient-34" x1="204.51" y1="107.23" x2="206.54" y2="107.23" xlink:href="#linear-gradient-5"/>
    <linearGradient id="linear-gradient-35" x1="194.88" y1="109.55" x2="203.54" y2="109.55" xlink:href="#linear-gradient-5"/>
    <linearGradient id="linear-gradient-36" x1="229.11" y1="87.26" x2="198.36" y2="143.72" gradientUnits="userSpaceOnUse">
      <stop offset="0" stop-color="#444b8c"/>
      <stop offset="1" stop-color="#3e4177"/>
    </linearGradient>
    <linearGradient id="linear-gradient-37" x1="286.44" y1="262.04" x2="288.76" y2="276.24" gradientUnits="userSpaceOnUse">
      <stop offset="0" stop-color="#ff928e"/>
      <stop offset="1" stop-color="#feb3b1"/>
    </linearGradient>
    <linearGradient id="linear-gradient-38" x1="284.79" y1="263.94" x2="282.37" y2="300.95" xlink:href="#linear-gradient-31"/>
    <linearGradient id="linear-gradient-39" x1="264.4" y1="262.65" x2="285.65" y2="242.88" xlink:href="#linear-gradient-37"/>
    <linearGradient id="linear-gradient-40" x1="276.85" y1="236.3" x2="315.65" y2="236.3" xlink:href="#linear-gradient-31"/>
    <linearGradient id="linear-gradient-41" x1="261.49" y1="262.42" x2="259.08" y2="299.44" xlink:href="#linear-gradient-31"/>
    <linearGradient id="linear-gradient-42" x1="315.08" y1="185.82" x2="301.82" y2="198.8" xlink:href="#linear-gradient-31"/>
    <linearGradient id="linear-gradient-43" x1="302.22" y1="188.36" x2="298.9" y2="230.13" xlink:href="#linear-gradient"/>
    <linearGradient id="linear-gradient-44" x1="290.73" y1="189.22" x2="294.17" y2="200.54" xlink:href="#linear-gradient-37"/>
    <linearGradient id="linear-gradient-45" x1="284.33" y1="183.72" x2="294.73" y2="189.29" xlink:href="#linear-gradient-37"/>
    <linearGradient id="linear-gradient-46" x1="859.71" y1="-1174.49" x2="846.43" y2="-1161.5" gradientTransform="translate(-223.36 1529.57) rotate(-15.18)" xlink:href="#linear-gradient-31"/>
    <linearGradient id="linear-gradient-47" x1="284.82" y1="182.86" x2="295.22" y2="188.43" xlink:href="#linear-gradient-37"/>
    <linearGradient id="linear-gradient-48" x1="320.14" y1="221.08" x2="291.28" y2="226.09" xlink:href="#linear-gradient-37"/>
    <linearGradient id="linear-gradient-49" x1="113.54" y1="232.03" x2="112.22" y2="251.92" xlink:href="#linear-gradient"/>
    <linearGradient id="linear-gradient-50" x1="1582" y1="-2122.61" x2="1577.4" y2="-2109.08" gradientTransform="matrix(0.86, -0.5, 0.5, 0.86, -159.14, 2824.01)" xlink:href="#linear-gradient-37"/>
    <linearGradient id="linear-gradient-51" x1="138.98" y1="190.34" x2="124.09" y2="209.77" xlink:href="#linear-gradient-6"/>
    <linearGradient id="linear-gradient-52" x1="135" y1="276.16" x2="151.14" y2="276.16" gradientUnits="userSpaceOnUse">
      <stop offset="0" stop-color="#fe7062"/>
      <stop offset="1" stop-color="#ff928e"/>
    </linearGradient>
    <linearGradient id="linear-gradient-53" x1="147.44" y1="245.11" x2="143.03" y2="275.59" gradientUnits="userSpaceOnUse">
      <stop offset="0" stop-color="#020039"/>
      <stop offset="1" stop-color="#090056"/>
    </linearGradient>
    <linearGradient id="linear-gradient-54" x1="135.8" y1="271.29" x2="140.17" y2="271.29" xlink:href="#linear-gradient-37"/>
    <linearGradient id="linear-gradient-55" x1="160.32" y1="272.96" x2="173.36" y2="272.96" xlink:href="#linear-gradient-52"/>
    <linearGradient id="linear-gradient-56" x1="169.29" y1="248.27" x2="164.88" y2="278.75" xlink:href="#linear-gradient-53"/>
    <linearGradient id="linear-gradient-57" x1="128.94" y1="184.47" x2="128.94" y2="213.16" xlink:href="#linear-gradient-53"/>
    <linearGradient id="linear-gradient-58" x1="156.5" y1="271.66" x2="161.71" y2="271.66" xlink:href="#linear-gradient-37"/>
    <linearGradient id="linear-gradient-59" x1="95.6" y1="326.57" x2="130.13" y2="252.78" xlink:href="#linear-gradient-31"/>
    <linearGradient id="linear-gradient-60" x1="123.06" y1="197.59" x2="89.03" y2="254.59" xlink:href="#linear-gradient-6"/>
    <linearGradient id="linear-gradient-61" x1="118.54" y1="186.99" x2="113.53" y2="203" xlink:href="#linear-gradient-37"/>
    <linearGradient id="linear-gradient-62" x1="134.53" y1="209.68" x2="148.12" y2="209.68" gradientUnits="userSpaceOnUse">
      <stop offset="0" stop-color="#4042e2"/>
      <stop offset="1" stop-color="#4f52ff"/>
    </linearGradient>
    <linearGradient id="linear-gradient-63" x1="150.88" y1="184.47" x2="123.69" y2="246.13" xlink:href="#linear-gradient"/>
    <linearGradient id="linear-gradient-64" x1="895.95" y1="112.8" x2="882.64" y2="130.4" gradientTransform="translate(-753.7 383.69) rotate(-20.41)" xlink:href="#linear-gradient-37"/>
    <linearGradient id="linear-gradient-65" x1="885.79" y1="117.05" x2="901.68" y2="117.05" gradientTransform="translate(-753.7 383.69) rotate(-20.41)" xlink:href="#linear-gradient-31"/>
    <linearGradient id="linear-gradient-66" x1="876.46" y1="126.74" x2="887.13" y2="115.79" gradientTransform="translate(-753.7 383.69) rotate(-20.41)" xlink:href="#linear-gradient-37"/>
    <linearGradient id="linear-gradient-67" x1="128.59" y1="200.89" x2="94.56" y2="257.9" xlink:href="#linear-gradient-6"/>
    <linearGradient id="linear-gradient-68" x1="116.04" y1="208.79" x2="123.96" y2="208.79" xlink:href="#linear-gradient-31"/>
    <linearGradient id="linear-gradient-69" x1="107.82" y1="215.27" x2="121.09" y2="215.27" xlink:href="#linear-gradient-31"/>
    <linearGradient id="linear-gradient-70" x1="127.17" y1="223.06" x2="144.44" y2="209.14" xlink:href="#linear-gradient-37"/>
    <linearGradient id="linear-gradient-71" x1="117.09" y1="198.54" x2="118.4" y2="198.54" xlink:href="#linear-gradient-6"/>
    <linearGradient id="linear-gradient-72" x1="115.56" y1="196.36" x2="116.83" y2="196.36" xlink:href="#linear-gradient-6"/>
    <linearGradient id="linear-gradient-73" x1="114.22" y1="194.05" x2="115.46" y2="194.05" xlink:href="#linear-gradient-6"/>
    <linearGradient id="linear-gradient-74" x1="113.08" y1="191.63" x2="114.3" y2="191.63" xlink:href="#linear-gradient-6"/>
    <linearGradient id="linear-gradient-75" x1="112.15" y1="189.12" x2="113.34" y2="189.12" xlink:href="#linear-gradient-6"/>
    <linearGradient id="linear-gradient-76" x1="111.42" y1="186.55" x2="112.58" y2="186.55" xlink:href="#linear-gradient-6"/>
    <linearGradient id="linear-gradient-77" x1="110.89" y1="183.93" x2="112.02" y2="183.93" xlink:href="#linear-gradient-6"/>
    <linearGradient id="linear-gradient-78" x1="110.56" y1="181.27" x2="111.66" y2="181.27" xlink:href="#linear-gradient-6"/>
    <linearGradient id="linear-gradient-79" x1="110.41" y1="178.59" x2="111.48" y2="178.59" xlink:href="#linear-gradient-6"/>
    <linearGradient id="linear-gradient-80" x1="110.42" y1="175.91" x2="111.54" y2="175.91" xlink:href="#linear-gradient-6"/>
    <linearGradient id="linear-gradient-81" x1="110.59" y1="173.24" x2="111.79" y2="173.24" xlink:href="#linear-gradient-6"/>
    <linearGradient id="linear-gradient-82" x1="110.94" y1="170.59" x2="112.23" y2="170.59" xlink:href="#linear-gradient-6"/>
    <linearGradient id="linear-gradient-83" x1="111.47" y1="167.98" x2="112.82" y2="167.98" xlink:href="#linear-gradient-6"/>
    <linearGradient id="linear-gradient-84" x1="112.18" y1="165.4" x2="113.6" y2="165.4" xlink:href="#linear-gradient-6"/>
    <linearGradient id="linear-gradient-85" x1="113.05" y1="162.88" x2="114.54" y2="162.88" xlink:href="#linear-gradient-6"/>
    <linearGradient id="linear-gradient-86" x1="114.1" y1="160.43" x2="115.66" y2="160.43" xlink:href="#linear-gradient-6"/>
    <linearGradient id="linear-gradient-87" x1="115.32" y1="158.06" x2="116.94" y2="158.06" xlink:href="#linear-gradient-6"/>
    <linearGradient id="linear-gradient-88" x1="116.7" y1="155.78" x2="118.39" y2="155.78" xlink:href="#linear-gradient-6"/>
    <linearGradient id="linear-gradient-89" x1="118.24" y1="153.61" x2="119.99" y2="153.61" xlink:href="#linear-gradient-6"/>
    <linearGradient id="linear-gradient-90" x1="119.93" y1="151.55" x2="121.73" y2="151.55" xlink:href="#linear-gradient-6"/>
    <linearGradient id="linear-gradient-91" x1="121.75" y1="149.61" x2="123.6" y2="149.61" xlink:href="#linear-gradient-6"/>
    <linearGradient id="linear-gradient-92" x1="123.68" y1="147.78" x2="125.59" y2="147.78" xlink:href="#linear-gradient-6"/>
    <linearGradient id="linear-gradient-93" x1="125.73" y1="146.08" x2="127.68" y2="146.08" xlink:href="#linear-gradient-6"/>
    <linearGradient id="linear-gradient-94" x1="127.87" y1="144.5" x2="129.86" y2="144.5" xlink:href="#linear-gradient-6"/>
    <linearGradient id="linear-gradient-95" x1="130.1" y1="143.04" x2="132.13" y2="143.04" xlink:href="#linear-gradient-6"/>
    <linearGradient id="linear-gradient-96" x1="132.41" y1="141.72" x2="134.48" y2="141.72" xlink:href="#linear-gradient-6"/>
    <linearGradient id="linear-gradient-97" x1="134.79" y1="140.51" x2="136.88" y2="140.51" xlink:href="#linear-gradient-6"/>
    <linearGradient id="linear-gradient-98" x1="137.24" y1="139.44" x2="139.35" y2="139.44" xlink:href="#linear-gradient-6"/>
    <linearGradient id="linear-gradient-99" x1="139.73" y1="138.49" x2="141.86" y2="138.49" xlink:href="#linear-gradient-6"/>
    <linearGradient id="linear-gradient-100" x1="142.27" y1="137.67" x2="144.42" y2="137.67" xlink:href="#linear-gradient-6"/>
    <linearGradient id="linear-gradient-101" x1="144.85" y1="136.97" x2="147.02" y2="136.97" xlink:href="#linear-gradient-6"/>
    <linearGradient id="linear-gradient-102" x1="147.47" y1="136.4" x2="149.64" y2="136.4" xlink:href="#linear-gradient-6"/>
    <linearGradient id="linear-gradient-103" x1="150.11" y1="135.95" x2="152.29" y2="135.95" xlink:href="#linear-gradient-6"/>
    <linearGradient id="linear-gradient-104" x1="152.76" y1="135.64" x2="154.95" y2="135.64" xlink:href="#linear-gradient-6"/>
    <linearGradient id="linear-gradient-105" x1="155.43" y1="135.44" x2="157.63" y2="135.44" xlink:href="#linear-gradient-6"/>
    <linearGradient id="linear-gradient-106" x1="158.11" y1="135.38" x2="160.31" y2="135.38" xlink:href="#linear-gradient-6"/>
    <linearGradient id="linear-gradient-107" x1="160.79" y1="135.45" x2="162.99" y2="135.45" xlink:href="#linear-gradient-6"/>
    <linearGradient id="linear-gradient-108" x1="163.46" y1="135.63" x2="165.66" y2="135.63" xlink:href="#linear-gradient-6"/>
    <linearGradient id="linear-gradient-109" x1="166.13" y1="135.92" x2="168.33" y2="135.92" xlink:href="#linear-gradient-6"/>
    <linearGradient id="linear-gradient-110" x1="168.78" y1="136.32" x2="170.98" y2="136.32" xlink:href="#linear-gradient-6"/>
    <linearGradient id="linear-gradient-111" x1="171.41" y1="136.83" x2="173.61" y2="136.83" xlink:href="#linear-gradient-6"/>
    <linearGradient id="linear-gradient-112" x1="174.02" y1="137.44" x2="176.21" y2="137.44" xlink:href="#linear-gradient-6"/>
    <linearGradient id="linear-gradient-113" x1="176.61" y1="138.14" x2="178.8" y2="138.14" xlink:href="#linear-gradient-6"/>
    <linearGradient id="linear-gradient-114" x1="179.17" y1="138.94" x2="181.35" y2="138.94" xlink:href="#linear-gradient-6"/>
    <linearGradient id="linear-gradient-115" x1="181.7" y1="139.82" x2="183.88" y2="139.82" xlink:href="#linear-gradient-6"/>
    <linearGradient id="linear-gradient-116" x1="184.21" y1="140.79" x2="186.37" y2="140.79" xlink:href="#linear-gradient-6"/>
    <linearGradient id="linear-gradient-117" x1="186.68" y1="141.84" x2="188.82" y2="141.84" xlink:href="#linear-gradient-6"/>
    <linearGradient id="linear-gradient-118" x1="189.12" y1="142.96" x2="191.25" y2="142.96" xlink:href="#linear-gradient-6"/>
    <linearGradient id="linear-gradient-119" x1="191.53" y1="144.16" x2="193.64" y2="144.16" xlink:href="#linear-gradient-6"/>
    <linearGradient id="linear-gradient-120" x1="193.9" y1="145.43" x2="195.99" y2="145.43" xlink:href="#linear-gradient-6"/>
    <linearGradient id="linear-gradient-121" x1="196.24" y1="146.76" x2="198.31" y2="146.76" xlink:href="#linear-gradient-6"/>
    <linearGradient id="linear-gradient-122" x1="198.54" y1="148.16" x2="200.59" y2="148.16" xlink:href="#linear-gradient-6"/>
    <linearGradient id="linear-gradient-123" x1="200.8" y1="149.61" x2="202.83" y2="149.61" xlink:href="#linear-gradient-6"/>
    <linearGradient id="linear-gradient-124" x1="203.02" y1="151.13" x2="205.03" y2="151.13" xlink:href="#linear-gradient-6"/>
    <linearGradient id="linear-gradient-125" x1="205.2" y1="152.69" x2="207.19" y2="152.69" xlink:href="#linear-gradient-6"/>
    <linearGradient id="linear-gradient-126" x1="207.35" y1="154.3" x2="209.33" y2="154.3" xlink:href="#linear-gradient-6"/>
    <linearGradient id="linear-gradient-127" x1="209.48" y1="155.94" x2="211.44" y2="155.94" xlink:href="#linear-gradient-6"/>
    <linearGradient id="linear-gradient-128" x1="211.58" y1="157.6" x2="213.53" y2="157.6" xlink:href="#linear-gradient-6"/>
    <linearGradient id="linear-gradient-129" x1="213.67" y1="159.29" x2="215.61" y2="159.29" xlink:href="#linear-gradient-6"/>
    <linearGradient id="linear-gradient-130" x1="215.75" y1="160.98" x2="217.68" y2="160.98" xlink:href="#linear-gradient-6"/>
    <linearGradient id="linear-gradient-131" x1="217.83" y1="162.68" x2="219.75" y2="162.68" xlink:href="#linear-gradient-6"/>
    <linearGradient id="linear-gradient-132" x1="219.91" y1="164.38" x2="221.82" y2="164.38" xlink:href="#linear-gradient-6"/>
    <linearGradient id="linear-gradient-133" x1="222" y1="166.06" x2="223.91" y2="166.06" xlink:href="#linear-gradient-6"/>
    <linearGradient id="linear-gradient-134" x1="224.1" y1="167.72" x2="226.01" y2="167.72" xlink:href="#linear-gradient-6"/>
    <linearGradient id="linear-gradient-135" x1="226.22" y1="169.36" x2="228.13" y2="169.36" xlink:href="#linear-gradient-6"/>
    <linearGradient id="linear-gradient-136" x1="228.37" y1="170.96" x2="230.28" y2="170.96" xlink:href="#linear-gradient-6"/>
    <linearGradient id="linear-gradient-137" x1="230.56" y1="172.51" x2="232.47" y2="172.51" xlink:href="#linear-gradient-6"/>
    <linearGradient id="linear-gradient-138" x1="232.77" y1="174.02" x2="234.69" y2="174.02" xlink:href="#linear-gradient-6"/>
    <linearGradient id="linear-gradient-139" x1="235.03" y1="175.46" x2="236.94" y2="175.46" xlink:href="#linear-gradient-6"/>
    <linearGradient id="linear-gradient-140" x1="237.34" y1="176.83" x2="239.24" y2="176.83" xlink:href="#linear-gradient-6"/>
    <linearGradient id="linear-gradient-141" x1="239.68" y1="178.12" x2="241.59" y2="178.12" xlink:href="#linear-gradient-6"/>
    <linearGradient id="linear-gradient-142" x1="242.08" y1="179.33" x2="243.98" y2="179.33" xlink:href="#linear-gradient-6"/>
    <linearGradient id="linear-gradient-143" x1="244.53" y1="180.43" x2="246.42" y2="180.43" xlink:href="#linear-gradient-6"/>
    <linearGradient id="linear-gradient-144" x1="247.02" y1="181.42" x2="248.91" y2="181.42" xlink:href="#linear-gradient-6"/>
    <linearGradient id="linear-gradient-145" x1="249.55" y1="182.29" x2="251.44" y2="182.29" xlink:href="#linear-gradient-6"/>
    <linearGradient id="linear-gradient-146" x1="252.13" y1="183.02" x2="254.01" y2="183.02" xlink:href="#linear-gradient-6"/>
    <linearGradient id="linear-gradient-147" x1="254.75" y1="183.6" x2="256.63" y2="183.6" xlink:href="#linear-gradient-6"/>
    <linearGradient id="linear-gradient-148" x1="257.4" y1="184.02" x2="259.27" y2="184.02" xlink:href="#linear-gradient-6"/>
    <linearGradient id="linear-gradient-149" x1="260.08" y1="184.26" x2="261.93" y2="184.26" xlink:href="#linear-gradient-6"/>
    <linearGradient id="linear-gradient-150" x1="262.77" y1="184.34" x2="264.6" y2="184.34" xlink:href="#linear-gradient-6"/>
    <linearGradient id="linear-gradient-151" x1="265.45" y1="184.22" x2="267.27" y2="184.22" xlink:href="#linear-gradient-6"/>
    <linearGradient id="linear-gradient-152" x1="268.13" y1="183.92" x2="269.92" y2="183.92" xlink:href="#linear-gradient-6"/>
    <linearGradient id="linear-gradient-153" x1="270.77" y1="183.41" x2="272.53" y2="183.41" xlink:href="#linear-gradient-6"/>
    <linearGradient id="linear-gradient-154" x1="273.38" y1="182.7" x2="275.1" y2="182.7" xlink:href="#linear-gradient-6"/>
    <linearGradient id="linear-gradient-155" x1="275.91" y1="181.78" x2="277.59" y2="181.78" xlink:href="#linear-gradient-6"/>
    <linearGradient id="linear-gradient-156" x1="278.36" y1="180.63" x2="279.98" y2="180.63" xlink:href="#linear-gradient-6"/>
    <linearGradient id="linear-gradient-157" x1="280.7" y1="179.26" x2="282.25" y2="179.26" xlink:href="#linear-gradient-6"/>
    <linearGradient id="linear-gradient-158" x1="282.89" y1="177.67" x2="284.36" y2="177.67" xlink:href="#linear-gradient-6"/>
    <linearGradient id="linear-gradient-159" x1="284.9" y1="175.85" x2="286.28" y2="175.85" xlink:href="#linear-gradient-6"/>
    <linearGradient id="linear-gradient-160" x1="286.7" y1="173.83" x2="287.99" y2="173.83" xlink:href="#linear-gradient-6"/>
    <linearGradient id="linear-gradient-161" x1="288.28" y1="171.63" x2="289.47" y2="171.63" xlink:href="#linear-gradient-6"/>
    <linearGradient id="linear-gradient-162" x1="289.63" y1="169.28" x2="290.71" y2="169.28" xlink:href="#linear-gradient-6"/>
    <linearGradient id="linear-gradient-163" x1="290.72" y1="166.81" x2="291.69" y2="166.81" xlink:href="#linear-gradient-6"/>
    <linearGradient id="linear-gradient-164" x1="291.54" y1="164.24" x2="292.4" y2="164.24" xlink:href="#linear-gradient-6"/>
    <linearGradient id="linear-gradient-165" x1="292.07" y1="161.6" x2="292.8" y2="161.6" xlink:href="#linear-gradient-6"/>
    <linearGradient id="linear-gradient-166" x1="292.27" y1="158.93" x2="292.89" y2="158.93" xlink:href="#linear-gradient-6"/>
    <linearGradient id="linear-gradient-167" x1="292.03" y1="156.26" x2="292.73" y2="156.26" xlink:href="#linear-gradient-6"/>
    <linearGradient id="linear-gradient-168" x1="291.42" y1="153.64" x2="292.2" y2="153.64" xlink:href="#linear-gradient-6"/>
  </defs>
  <g class="cls-1">
    <g id="Illustration">
      <g>
        <path class="cls-2" d="M276.64,301.15c18.8-9.11,84,1,83.35-15.78-.8-19.66-28.27-29.49-13.25-44.54,14-14.05-33.07-24-116.5-23.73S12.59,234.73,44.93,253.56s10.79,19.81,9.21,28.13,14.78,26.58,79.4,11.36S229,324.21,276.64,301.15Z"/>
        <g>
          <circle class="cls-3" cx="267.02" cy="124.46" r="9.52" transform="translate(116.86 377.92) rotate(-84.35)"/>
          <circle class="cls-3" cx="290.68" cy="124.46" r="9.52" transform="translate(143 404.05) rotate(-85.34)"/>
          <circle class="cls-3" cx="314.33" cy="124.77" r="9.52" transform="translate(151.3 421.07) rotate(-82.83)"/>
          <g>
            <path class="cls-4" d="M272.68,122.45a6.11,6.11,0,1,1-5.66-3.79h.31v-1.55H267a7.66,7.66,0,1,0,7.66,7.66,7.56,7.56,0,0,0-.58-2.94Z"/>
            <path class="cls-5" d="M293.83,129.94a6,6,0,0,1-3.26.94,6.11,6.11,0,0,1,0-12.22h.31v-1.55h-.31a7.66,7.66,0,1,0,4,14.18Z"/>
            <path class="cls-6" d="M319.43,128.21a6.11,6.11,0,1,1-5.05-9.55h.3v-1.55h-.3a7.66,7.66,0,1,0,6.31,12Z"/>
          </g>
          <g class="cls-7">
            <path class="cls-3" d="M274.78,138H259.27a1.76,1.76,0,1,0,0,3.52h15.51a1.76,1.76,0,1,0,0-3.52Z"/>
            <path class="cls-3" d="M298.43,138H282.92a1.76,1.76,0,0,0,0,3.52h15.51a1.76,1.76,0,0,0,0-3.52Z"/>
            <path class="cls-3" d="M306.57,141.53h15.51a1.76,1.76,0,1,0,0-3.52H306.57a1.76,1.76,0,0,0,0,3.52Z"/>
            <rect class="cls-3" x="257.51" y="143.49" width="19.03" height="13.91" rx="1.76"/>
            <rect class="cls-3" x="281.16" y="143.49" width="19.03" height="13.91" rx="1.76"/>
            <rect class="cls-3" x="304.81" y="143.49" width="19.03" height="13.91" rx="1.76"/>
          </g>
        </g>
        <g>
          <path class="cls-8" d="M128.85,143.14c11.63,7.53,77.53,54.16,44.88,123.86,0,0-51.28-19.53-46.69-122.94A1.17,1.17,0,0,1,128.85,143.14Z"/>
          <path class="cls-9" d="M133.71,156.19s3.75,5.49,9,13.93l2,3.3L147,177c1.47,2.44,3,5,4.59,7.71s3.17,5.48,4.78,8.33l2.39,4.32c.78,1.46,1.58,2.91,2.35,4.38s1.56,2.94,2.31,4.41l1.13,2.21c.38.73.74,1.47,1.1,2.2s.73,1.46,1.09,2.19l1.05,2.17c.71,1.44,1.37,2.88,2,4.3,1.31,2.83,2.52,5.59,3.62,8.22s2.09,5.16,3,7.5c.45,1.16.83,2.3,1.2,3.37l.54,1.58c.17.51.32,1,.47,1.49.3,1,.6,1.88.84,2.72l.64,2.33.27,1,.21.89.33,1.4.28,1.16a.44.44,0,0,1-.34.54.43.43,0,0,1-.53-.33h0v0l-.27-1.16-.32-1.39-.2-.88-.26-1-.63-2.31c-.23-.84-.53-1.74-.82-2.7-.15-.48-.29-1-.46-1.49l-.53-1.57c-.36-1.07-.74-2.2-1.18-3.36-.84-2.34-1.82-4.84-2.9-7.48s-2.27-5.39-3.56-8.22c-.65-1.41-1.3-2.85-2-4.29l-1-2.18L165,210.83c-.36-.73-.72-1.47-1.09-2.2l-1.12-2.2c-.74-1.48-1.52-3-2.28-4.42s-1.56-2.93-2.33-4.38-1.59-2.9-2.37-4.33c-1.59-2.85-3.17-5.65-4.73-8.34s-3.09-5.28-4.55-7.73l-2.15-3.56-2-3.3c-1.31-2.12-2.52-4.05-3.61-5.76s-2-3.19-2.83-4.4c-1.59-2.44-2.51-3.81-2.51-3.81a.19.19,0,0,1,.31-.21Z"/>
        </g>
        <g class="cls-10">
          <path class="cls-11" d="M110.61,216.71a.51.51,0,0,1,.73-.66c4.25,2.87,15.63,10.07,24.78,11.26,14.9,1.94,31.68,11.35,32.75,22.66C168.87,250,137.81,267.76,110.61,216.71Z"/>
          <path class="cls-11" d="M116,221.35l.11.1.34.29,1.35,1.08c.59.45,1.3,1,2.12,1.63s1.77,1.32,2.8,2.07,2.15,1.56,3.35,2.38,2.48,1.69,3.81,2.57,2.71,1.77,4.14,2.64l1.07.66,1.09.65c.72.44,1.46.85,2.19,1.28s1.49.82,2.22,1.24l2.22,1.19c.75.38,1.48.77,2.21,1.13l1.1.54,1.09.52q2.16,1,4.19,1.85c1.34.57,2.63,1.06,3.83,1.49l1.72.6,1.57.49.72.22.67.19,1.19.32,1.68.4.59.14h0a.09.09,0,0,1,0,.17l-.6-.12c-.4-.08-1-.18-1.7-.35l-1.2-.29-.68-.17-.73-.21c-.49-.14-1-.28-1.59-.45l-1.74-.57c-1.21-.42-2.51-.89-3.87-1.44s-2.78-1.16-4.23-1.83c-.37-.16-.73-.33-1.1-.51l-1.1-.53c-.74-.36-1.48-.75-2.23-1.13l-2.23-1.19c-.74-.41-1.49-.82-2.23-1.25s-1.47-.85-2.2-1.29l-1.08-.66-1.08-.66c-1.42-.89-2.8-1.79-4.14-2.67s-2.59-1.77-3.78-2.62-2.31-1.67-3.33-2.43c-2-1.54-3.7-2.87-4.85-3.82-.57-.47-1-.85-1.32-1.12l-.35-.31-.11-.1a.11.11,0,0,1,0-.13.09.09,0,0,1,.12,0Z"/>
        </g>
        <g>
          <rect class="cls-12" x="81.52" y="200.14" width="4.35" height="31.91"/>
          <rect class="cls-12" x="88.78" y="211.11" width="4.35" height="20.94"/>
          <rect class="cls-12" x="96.04" y="184" width="4.35" height="48.05"/>
          <rect class="cls-12" x="103.3" y="220.51" width="4.35" height="11.54"/>
          <rect class="cls-12" x="110.56" y="190.42" width="4.35" height="41.63"/>
          <rect class="cls-12" x="117.82" y="197.63" width="4.35" height="34.42"/>
          <rect class="cls-12" x="125.08" y="205.47" width="4.35" height="26.58"/>
          <rect class="cls-12" x="132.34" y="174.29" width="4.35" height="57.76"/>
          <rect class="cls-12" x="139.6" y="180.4" width="4.35" height="51.65"/>
          <rect class="cls-12" x="146.86" y="189.64" width="4.35" height="42.41"/>
          <rect class="cls-12" x="154.12" y="221.58" width="4.35" height="10.47"/>
        </g>
        <g>
          <path class="cls-13" d="M301,143.05a.68.68,0,0,0-1.33,0c-1.61,6.7-6.39,24.15-14.39,33.61-13,15.42-21.16,40-12,52.15C273.25,228.82,320.18,218.34,301,143.05Z"/>
          <path class="cls-14" d="M300,152.57v.21l-.07.62c-.05.54-.15,1.32-.29,2.31-.28,2-.71,4.81-1.34,8.18-.32,1.69-.68,3.51-1.1,5.43s-.87,4-1.37,6-1.08,4.22-1.69,6.39l-.47,1.63-.48,1.64c-.32,1.09-.67,2.18-1,3.28s-.71,2.17-1.07,3.26l-1.15,3.2c-.4,1.05-.78,2.11-1.19,3.13s-.81,2.05-1.24,3c-.83,2-1.68,3.88-2.54,5.65s-1.73,3.42-2.55,4.93l-1.22,2.14c-.4.68-.8,1.3-1.17,1.9l-.53.85-.53.79-.93,1.37c-.57.83-1.05,1.45-1.37,1.88l-.49.66a.12.12,0,0,1-.18,0,.13.13,0,0,1,0-.18h0l.46-.67c.3-.45.75-1.09,1.3-1.92l.88-1.4.5-.79.51-.87c.34-.6.72-1.24,1.1-1.91s.77-1.41,1.17-2.16c.79-1.51,1.63-3.16,2.45-4.94s1.66-3.67,2.47-5.64c.42-1,.8-2,1.21-3s.78-2.07,1.17-3.12.75-2.13,1.12-3.2.74-2.15,1.08-3.24.7-2.17,1-3.26c.17-.54.33-1.09.49-1.63l.47-1.62c.62-2.16,1.19-4.29,1.72-6.36s1-4.08,1.46-6,.82-3.72,1.17-5.4.66-3.21.91-4.58.46-2.56.63-3.55.29-1.75.36-2.28l.08-.6,0-.2v0a.13.13,0,0,1,.14-.12A.13.13,0,0,1,300,152.57Z"/>
        </g>
        <g>
          <g>
            <path class="cls-15" d="M164.62,113.55h96.82a10,10,0,0,1,10,9.52l7.14,140.37a7.4,7.4,0,0,1-7.25,7.77l-111,2a7,7,0,0,1-7.15-7V124.94A11.39,11.39,0,0,1,164.62,113.55Z"/>
            <path class="cls-16" d="M176.6,270.84h0l-12.42-.16a7.66,7.66,0,0,1-7.52-7.63V244.3a.26.26,0,0,1,.26-.26.27.27,0,0,1,.27.26v18.75a7.13,7.13,0,0,0,7,7.1l12.42.16a.27.27,0,0,1,0,.53Z"/>
            <path class="cls-17" d="M156.92,238.76a.26.26,0,0,1-.26-.26v-3a.26.26,0,0,1,.26-.26.27.27,0,0,1,.27.26v3A.27.27,0,0,1,156.92,238.76Z"/>
            <g>
              <path class="cls-17" d="M164.92,112.41c13.22,1.8,58.69,7.34,96.27,4.46a3.06,3.06,0,0,1,3.3,2.88l7.49,141a3.52,3.52,0,0,1-3.3,3.7c-15.81.94-80.92,4.55-104.14,2.12a2.79,2.79,0,0,1-2.5-2.76l-.87-148.09A3.31,3.31,0,0,1,164.92,112.41Z"/>
              <path class="cls-18" d="M166.34,116.07c12.72,1.73,56.47,7.06,92.65,4.29a2.93,2.93,0,0,1,3.16,2.77l7.22,135.68a3.4,3.4,0,0,1-3.19,3.56c-15.21.9-77.87,4.39-100.21,2a2.67,2.67,0,0,1-2.4-2.65l-.84-142.51A3.18,3.18,0,0,1,166.34,116.07Z"/>
              <path class="cls-19" d="M174.51,129.71l1.35,29.09a1.84,1.84,0,0,0,1.79,1.76c5.39.15,22.18.56,31.65.07a2.07,2.07,0,0,0,2-2c.18-5.46.58-21.33-.67-28a2.34,2.34,0,0,0-2.21-1.9l-31.84-1.11A2,2,0,0,0,174.51,129.71Z"/>
              <circle class="cls-20" cx="192.83" cy="140.11" r="6.25" transform="translate(30.21 314.37) rotate(-82.98)"/>
              <path class="cls-21" d="M183.33,158.47h19.92a1.55,1.55,0,0,0,1.3-2.38,12.85,12.85,0,0,0-11.37-6.36,13.85,13.85,0,0,0-11.17,6.2A1.61,1.61,0,0,0,183.33,158.47Z"/>
              <path class="cls-22" d="M254.75,132.24a.54.54,0,0,0,.54-.56l0-.84a.57.57,0,0,0-.57-.56l-36.07-.65a.36.36,0,0,0-.37.52l.55,1.56a.84.84,0,0,0,.74.53Z"/>
              <path class="cls-23" d="M218.62,135.06a.36.36,0,0,0-.37.51l.55,1.57a.84.84,0,0,0,.74.52h35.21a.54.54,0,0,0,.54-.56l0-.83a.58.58,0,0,0-.57-.57Z"/>
              <path class="cls-24" d="M218.62,140.56a.36.36,0,0,0-.37.51l.55,1.57a.83.83,0,0,0,.74.52h35.21a.54.54,0,0,0,.54-.55l0-.84a.58.58,0,0,0-.57-.57Z"/>
              <path class="cls-25" d="M258.14,169.69a.51.51,0,0,0,.52-.55l-.06-.84a.6.6,0,0,0-.59-.56l-83-.66c-.3,0-.4.2-.21.44l1.39,1.74a1.31,1.31,0,0,0,.9.43Z"/>
              <path class="cls-26" d="M175.05,172.51c-.3,0-.4.19-.21.43l1.39,1.74a1.32,1.32,0,0,0,.9.44h81a.51.51,0,0,0,.52-.56l-.06-.84a.61.61,0,0,0-.59-.56Z"/>
              <path class="cls-27" d="M175.26,181.57c2-.15,5.65-.22,7.68-.25a1.83,1.83,0,0,1,1.81,1.4,30.36,30.36,0,0,1,.87,7.43,1.63,1.63,0,0,1-1.65,1.59l-7.48-.08a1.79,1.79,0,0,1-1.77-1.63l-.66-7A1.3,1.3,0,0,1,175.26,181.57Z"/>
              <path class="cls-28" d="M188.52,184.43a.44.44,0,0,0-.47.53l.35,2.35a.67.67,0,0,0,.64.55h19.33a.56.56,0,0,0,.55-.56l0-1.46a.6.6,0,0,0-.57-.58Z"/>
              <path class="cls-29" d="M216,181.57c2-.15,5.65-.22,7.68-.25a1.83,1.83,0,0,1,1.81,1.4,29.87,29.87,0,0,1,.87,7.43,1.63,1.63,0,0,1-1.65,1.59l-7.48-.08a1.79,1.79,0,0,1-1.77-1.63l-.66-7A1.3,1.3,0,0,1,216,181.57Z"/>
              <path class="cls-30" d="M229.28,184.43a.45.45,0,0,0-.47.53l.35,2.35a.67.67,0,0,0,.64.55h19.33a.56.56,0,0,0,.55-.56l0-1.46a.6.6,0,0,0-.57-.58Z"/>
              <g>
                <path class="cls-17" d="M185.82,209.49h0l-6.9-.06a1.86,1.86,0,0,1-1.9-1.58l-.61-5.8a1.26,1.26,0,0,1,.3-.94,1.54,1.54,0,0,1,1.06-.52h0l2.27-.19c1.82-.15,4.09-.35,5.37-.36a1.93,1.93,0,0,1,1.94,1.35,29.46,29.46,0,0,1,.26,6.53A1.71,1.71,0,0,1,185.82,209.49Zm-8-8.37a1,1,0,0,0-.68.33.71.71,0,0,0-.18.55l.61,5.79a1.33,1.33,0,0,0,1.37,1.11l6.9.06h0a1.18,1.18,0,0,0,1.24-1.05,28.64,28.64,0,0,0-.25-6.38,1.41,1.41,0,0,0-1.41-1c-1.26,0-3.52.21-5.34.36l-2.28.19Z"/>
                <path class="cls-31" d="M178.53,201.71c1.45-.1,4.6-.42,6.09-.43a1.33,1.33,0,0,1,1.34.92,23.41,23.41,0,0,1,.2,5.16,1.15,1.15,0,0,1-1.21,1l-5.52-.06a1.25,1.25,0,0,1-1.3-1.07l-.49-4.63A.9.9,0,0,1,178.53,201.71Z"/>
                <path class="cls-32" d="M191.88,205.65a1.71,1.71,0,0,0,1.67,1.27l63.88-.54a1.3,1.3,0,0,0,0-2.59l-63.88-.3A1.72,1.72,0,0,0,191.88,205.65Z"/>
                <path class="cls-33" d="M178.82,202.62h0a1.06,1.06,0,0,1,1.46.4l1.36,2.44a.34.34,0,0,0,.61,0l3.38-7.51a.38.38,0,0,1,.72.16A14.8,14.8,0,0,1,182,208.41s-2-.79-3.66-4.37A1.12,1.12,0,0,1,178.82,202.62Z"/>
                <path class="cls-17" d="M185.82,224.29h0l-6.9-.07a1.85,1.85,0,0,1-1.9-1.58l-.61-5.79a1.26,1.26,0,0,1,.3-.94,1.51,1.51,0,0,1,1.06-.53h0l2.27-.18c1.82-.15,4.09-.35,5.37-.36h0a1.93,1.93,0,0,1,1.91,1.35,29.46,29.46,0,0,1,.26,6.53A1.71,1.71,0,0,1,185.82,224.29Zm-8-8.38a1,1,0,0,0-.68.34.71.71,0,0,0-.18.55l.61,5.79a1.31,1.31,0,0,0,1.37,1.1l6.9.07h0a1.18,1.18,0,0,0,1.24-1.06,28.55,28.55,0,0,0-.25-6.37,1.4,1.4,0,0,0-1.41-1c-1.26,0-3.52.2-5.34.36l-2.28.18Z"/>
                <path class="cls-34" d="M178.53,216.51c1.45-.1,4.6-.42,6.09-.44A1.35,1.35,0,0,1,186,217a23.31,23.31,0,0,1,.2,5.15,1.14,1.14,0,0,1-1.21,1l-5.52,0a1.27,1.27,0,0,1-1.3-1.07l-.49-4.63A.9.9,0,0,1,178.53,216.51Z"/>
                <path class="cls-35" d="M191.88,220.44a1.71,1.71,0,0,0,1.67,1.28l63.88-.54a1.3,1.3,0,0,0,0-2.6l-63.88-.29A1.72,1.72,0,0,0,191.88,220.44Z"/>
                <path class="cls-36" d="M178.82,217.42h0a1.06,1.06,0,0,1,1.46.4l1.36,2.44a.34.34,0,0,0,.61,0l3.38-7.52a.38.38,0,0,1,.72.17A14.8,14.8,0,0,1,182,223.21s-2-.79-3.66-4.37A1.12,1.12,0,0,1,178.82,217.42Z"/>
                <path class="cls-17" d="M185.82,239.09h0l-6.9-.07a1.86,1.86,0,0,1-1.9-1.58l-.61-5.79a1.28,1.28,0,0,1,.3-1,1.54,1.54,0,0,1,1.06-.52h0L180,230c1.82-.16,4.09-.35,5.37-.37h0a1.94,1.94,0,0,1,1.91,1.36,29.37,29.37,0,0,1,.26,6.52A1.72,1.72,0,0,1,185.82,239.09Zm-8-8.38a1,1,0,0,0-.68.33.72.72,0,0,0-.18.55l.61,5.8a1.32,1.32,0,0,0,1.37,1.1l6.9.07h0a1.18,1.18,0,0,0,1.24-1.06,28.64,28.64,0,0,0-.25-6.38,1.41,1.41,0,0,0-1.41-1c-1.26,0-3.52.21-5.34.37l-2.28.18Z"/>
                <path class="cls-37" d="M178.53,231.31c1.45-.1,4.6-.42,6.09-.44a1.34,1.34,0,0,1,1.34.92,23.44,23.44,0,0,1,.2,5.16A1.14,1.14,0,0,1,185,238l-5.52-.05a1.27,1.27,0,0,1-1.3-1.07l-.49-4.63A.89.89,0,0,1,178.53,231.31Z"/>
                <path class="cls-38" d="M191.88,235.24a1.72,1.72,0,0,0,1.67,1.28l63.88-.55a1.3,1.3,0,0,0,0-2.59l-63.88-.29A1.71,1.71,0,0,0,191.88,235.24Z"/>
                <path class="cls-39" d="M178.82,232.22h0a1.06,1.06,0,0,1,1.46.39l1.36,2.45a.35.35,0,0,0,.61,0l3.38-7.52a.38.38,0,0,1,.72.16A14.8,14.8,0,0,1,182,238s-2-.78-3.66-4.36A1.12,1.12,0,0,1,178.82,232.22Z"/>
                <path class="cls-17" d="M185.82,253.88h0l-6.9-.06a1.86,1.86,0,0,1-1.9-1.58l-.61-5.79a1.28,1.28,0,0,1,.3-.95,1.54,1.54,0,0,1,1.06-.52h0l2.27-.18c1.82-.16,4.09-.35,5.37-.37h0a1.93,1.93,0,0,1,1.91,1.35,29.46,29.46,0,0,1,.26,6.53A1.71,1.71,0,0,1,185.82,253.88Zm-8-8.37a1,1,0,0,0-.68.33.72.72,0,0,0-.18.55l.61,5.79a1.32,1.32,0,0,0,1.37,1.11l6.9.06h0a1.18,1.18,0,0,0,1.24-1,28.64,28.64,0,0,0-.25-6.38,1.41,1.41,0,0,0-1.41-1c-1.26,0-3.52.21-5.34.36l-2.28.19Z"/>
                <path class="cls-40" d="M178.53,246.11c1.45-.1,4.6-.42,6.09-.44a1.33,1.33,0,0,1,1.34.92,23.44,23.44,0,0,1,.2,5.16A1.14,1.14,0,0,1,185,252.8l-5.52-.05a1.27,1.27,0,0,1-1.3-1.08l-.49-4.63A.89.89,0,0,1,178.53,246.11Z"/>
                <path class="cls-41" d="M191.88,250h0a1.7,1.7,0,0,0,1.67,1.27l63.88-.54a1.3,1.3,0,0,0,0-2.59l-63.88-.29A1.71,1.71,0,0,0,191.88,250Z"/>
                <path class="cls-42" d="M178.82,247h0a1.06,1.06,0,0,1,1.46.4l1.36,2.44a.34.34,0,0,0,.61,0l3.38-7.52a.38.38,0,0,1,.72.16A14.8,14.8,0,0,1,182,252.8s-2-.79-3.66-4.37A1.12,1.12,0,0,1,178.82,247Z"/>
              </g>
            </g>
            <path class="cls-43" d="M219,94.41c-3.5-2.43-6.54-2.38-8.68-1.75a4.28,4.28,0,0,0-3,4.49l.93,10.08,11,1S225.89,99.19,219,94.41Zm-4.84,8.13a2.74,2.74,0,1,1,2.74-2.74A2.73,2.73,0,0,1,214.2,102.54Z"/>
            <path class="cls-44" d="M209.35,103a.27.27,0,0,1-.27-.24l-.15-1.61a.28.28,0,0,1,.24-.29.27.27,0,0,1,.29.24l.15,1.61a.27.27,0,0,1-.24.29Zm-.29-3.15a.27.27,0,0,1-.27-.24l-.11-1.22a4.06,4.06,0,0,1,2.89-4.27,8.16,8.16,0,0,1,4-.17.27.27,0,0,1,.2.32.26.26,0,0,1-.31.2,7.6,7.6,0,0,0-3.76.16,3.54,3.54,0,0,0-2.51,3.72l.11,1.21a.26.26,0,0,1-.24.29Z"/>
            <path class="cls-45" d="M193.26,113.74v-5.07a3.08,3.08,0,0,1,3.19-3.09l34.93,1.2a3,3,0,0,1,2.9,2.82l.29,4.87Z"/>
            <path class="cls-46" d="M206.28,107.49h-1.5a.27.27,0,1,1,0-.53h1.5a.27.27,0,0,1,0,.53Z"/>
            <path class="cls-47" d="M195.15,112.15a.27.27,0,0,1-.27-.27v-2a2.88,2.88,0,0,1,2.87-2.87h5.52a.27.27,0,1,1,0,.53h-5.52a2.34,2.34,0,0,0-2.34,2.34v2A.27.27,0,0,1,195.15,112.15Z"/>
            <path class="cls-48" d="M182.31,111.88h61.08a4.52,4.52,0,0,1,4.45,3.75l0,.29a3.88,3.88,0,0,1-3.82,4.54H181.41a2.52,2.52,0,0,1-2.52-2.64L179,115A3.3,3.3,0,0,1,182.31,111.88Z"/>
          </g>
          <g>
            <rect class="cls-49" x="298.78" y="249.41" width="2.31" height="24.96"/>
            <path class="cls-49" d="M291.33,273.35h17.21a1.5,1.5,0,0,1,1.5,1.5v0a0,0,0,0,1,0,0H289.83a0,0,0,0,1,0,0v0A1.5,1.5,0,0,1,291.33,273.35Z"/>
            <rect class="cls-49" x="287.63" y="243.82" width="25.42" height="7.21" rx="2.48"/>
          </g>
          <g>
            <g>
              <path class="cls-50" d="M282.9,232.77a20.08,20.08,0,0,0-7.29,3.11,1.91,1.91,0,0,0-.85,1.83,81.43,81.43,0,0,0,8.62,27.06,2.89,2.89,0,0,1,.28,2l-1.09,5.06-2,1.89h5.19l3.46-9.36-1.48-.47a2.79,2.79,0,0,1-2-2.62l-.17-10a11.47,11.47,0,0,0-2.75-7.56l8.3-.4Z"/>
              <path class="cls-51" d="M278.53,274.64c-.47.62,5.09,1.43,7.9.08,0,0,3.9-6.78,3.9-10.27,0,0-.31-.72-2.6-.56,0,0-1.31,8-2.69,8.93s-3.86.1-3.86.1A8,8,0,0,0,278.53,274.64Z"/>
              <path class="cls-52" d="M290.11,243.82c0-.08-8.93-1.07-8.93-1.07a20.53,20.53,0,0,1-.62,6.42c-.91,3.72-14,19.84-14,19.84l1.36,4.34a21.92,21.92,0,0,1-12.48.75L264,269s7.93-27,12.8-31.87l8.91-3.08Z"/>
              <path class="cls-53" d="M310.05,228.08s5.12,7.62,5.54,11.09-1.41,4.89-6.78,5.12-19.72.23-19.72.23l-12.24-10.46s8.92-3.19,11.24-4.09S310.05,228.08,310.05,228.08Z"/>
              <path class="cls-54" d="M267.45,271.89a2.52,2.52,0,0,1,.48,3S256.25,277,253.09,276c0,0,.65-1.51,4.22-3.22l-.26.21a.42.42,0,0,0,.28.76C259.68,273.66,264.55,273.23,267.45,271.89Z"/>
            </g>
            <g>
              <path class="cls-55" d="M299.34,183.32c.77.24,3.56,1.24,3.2,3a.33.33,0,0,0,.41.38c1.2-.32,3.86-.73,5.51,1.33,1.45,1.82.36,3.54-.52,4.48a.33.33,0,0,0,.27.56c2.21-.28,7-.34,7.8,4.15.73,4.2-2.19,5.38-3.92,5.71a.34.34,0,0,0-.11.61,3.47,3.47,0,0,1,1.46,3.91c-.63,3.5-7.5,3.22-8.3,3.17a.42.42,0,0,1-.15,0l-11-6.27a.37.37,0,0,1-.16-.24l-2.22-12.82a.35.35,0,0,1,.09-.29l5.51-7.91C296,182.39,299.22,183.28,299.34,183.32Z"/>
              <path class="cls-56" d="M295.84,225.1a116.06,116.06,0,0,1-8.9-9.44,8,8,0,0,1-1.35-7.18,98,98,0,0,1,3.94-9.92c.33-1.12,7-1.07,7-1.07s13.16,8.54,18.33,23l-5.81,1.8a68.13,68.13,0,0,0-6.83-9.42s5.87,7.76,6.08,10.93Z"/>
              <path class="cls-57" d="M288.72,192.32c.07.23,1.81,6,1.95,6.14s3.83.32,5.56-.87l-3.31-7.54Z"/>
              <g>
                <path class="cls-58" d="M288.17,179.61s-2.69,2.11-3.57,7.06,1.22,6.57,3.23,6.32a9.4,9.4,0,0,0,7.21-4.75C297.33,184.57,291.71,177,288.17,179.61Z"/>
                <path class="cls-59" d="M292.34,186.46s.55-7.05-5.17-5.58l-1.09,1.3s-3.06-3-.09-5.63,7.37-2.32,10.09,1.91,3.8,7.25,2,10.13-3.51.63-3.51.63.76-2.43-.08-3.39-1.72.71-1.72.71Z"/>
                <path class="cls-60" d="M292.47,188.35s.27-3.63,2.17-2.73-.43,3.4-1.37,4.27Z"/>
              </g>
              <path class="cls-61" d="M283.69,225.52l4.38-4.22,6.06,2.56s6,.94,9.49,0l3.45-.93,7.81-2.43L316.1,224a2.09,2.09,0,0,1-.76,2.4,14.07,14.07,0,0,1-2,1.22c-1,.45-25.34-.31-25.34-.31Z"/>
            </g>
          </g>
          <g>
            <path class="cls-49" d="M102.15,245.65c-.66,1-3.29,23.18-3.71,31.38a1,1,0,0,0,1,1h0a1,1,0,0,0,1-.82l4.82-30.88Z"/>
            <path class="cls-49" d="M123.33,245.65c.66,1,3.3,23.18,3.71,31.38a1,1,0,0,1-1,1h0a1,1,0,0,1-1-.82l-4.82-30.88Z"/>
            <path class="cls-62" d="M98.17,243.92v.24a3.29,3.29,0,0,0,3.36,3.2l22.27.38a3.33,3.33,0,0,0,3.48-3l0-.22a3.29,3.29,0,0,0-3.36-3.33l-22.28-.4A3.3,3.3,0,0,0,98.17,243.92Z"/>
          </g>
          <g>
            <g>
              <path class="cls-63" d="M150.21,191.91l-.58-.95a2.11,2.11,0,0,0-1.53-1l-6.17-.77s-.28-.69.86-1.51a1.74,1.74,0,0,0,.46-2.16s-1.52,1.25-3.71,3.16a6.13,6.13,0,0,0-1.91,3.64l-1,2.17a2.87,2.87,0,0,0,2.7,1l.23-1.66A26.59,26.59,0,0,0,150.21,191.91Z"/>
              <path class="cls-64" d="M136.64,194.51l-3.67,8a3.52,3.52,0,0,1-4.42,1.84L121,197.71l-.16,13.41,7.83,1.57a7.75,7.75,0,0,0,9.2-6.56l1.44-10.62A2.87,2.87,0,0,1,136.64,194.51Z"/>
            </g>
            <g>
              <path class="cls-65" d="M141.49,276.23c-4,0-5.71-.34-6.49-.65a1.5,1.5,0,0,0,1.46,1.16h14a.68.68,0,0,0,.66-.86C149.52,276,146.13,276.23,141.49,276.23Z"/>
              <path class="cls-66" d="M151.12,275.88a.68.68,0,0,0-.12-.24c-1.06-1.36-3.2-3.5-6.12-3.46-4.27.06-5.76.53-9.08,0L135,274.8a1.48,1.48,0,0,0,0,.78c.78.31,2.53.65,6.49.65C146.13,276.23,149.52,276,151.12,275.88Z"/>
            </g>
            <path class="cls-67" d="M136.76,269.41l-1,3.27a5.64,5.64,0,0,0,4,.19l.37-2.83Z"/>
            <g>
              <path class="cls-68" d="M165.79,274.17c-3.09,2.48-4.66,3.31-5.47,3.56a1.5,1.5,0,0,0,1.87,0L173.1,269a.68.68,0,0,0,0-1.08C171.92,269,169.41,271.26,165.79,274.17Z"/>
              <path class="cls-69" d="M173.08,267.87a.9.9,0,0,0-.24-.12c-1.68-.38-4.68-.7-6.93,1.16-3.29,2.72-4.16,4-7.06,5.7l1,2.51a1.42,1.42,0,0,0,.46.61c.81-.25,2.38-1.08,5.47-3.56C169.41,271.26,171.92,269,173.08,267.87Z"/>
            </g>
            <path class="cls-70" d="M116.21,232.18s23.7,1.93,28.56,4.22-4,34.37-4,34.37-1.32.63-4.27-.28c0,0,3-23.67.78-28.81l-25.67-4.19Z"/>
            <path class="cls-71" d="M156.5,270.11c.22.2,2.35,4.5,2.35,4.5s2.38-.51,2.86-2l-2.14-3.88Z"/>
            <path class="cls-72" d="M101.93,232a12.07,12.07,0,0,0-.74,4.33,6.5,6.5,0,0,0,6.2,6.35l28,1.28a1.35,1.35,0,0,1,1.24,1c.66,2.55,3.88,10.37,19.61,26a1.26,1.26,0,0,0,1.57.17l2.24-1.41a.53.53,0,0,0,.17-.7l-16.32-27.86a6.3,6.3,0,0,0-3.83-2.84l-23.88-6.1Z"/>
            <path class="cls-73" d="M101.86,231.9a135.75,135.75,0,0,1,2.5-27,21.06,21.06,0,0,1,7.56-12.2l1.3-1,6.49,2.64,4.22,6.4a15,15,0,0,1,.7,11.8c-2.31,6.47-5.75,16.25-6.54,19.54C118.09,232.1,107.34,233.52,101.86,231.9Z"/>
            <path class="cls-74" d="M117.68,181.37l-5.07,11.77s1.62,3.65,7.31,2.23l2-8.11Z"/>
            <path class="cls-75" d="M134.53,220.94c0-.2,6.49-21.92,6.49-21.92l7.1-1.21-8.52,23.74Z"/>
            <path class="cls-76" d="M134.12,221.55c.41.4,4.46.4,4.46.4l8.53-24.75-6.7,1.42Z"/>
            <g>
              <path class="cls-77" d="M127.74,176c.06.17.19,11.76.19,11.76l-6.62-.06-1.76-11S126.71,173.25,127.74,176Z"/>
              <path class="cls-78" d="M121.49,178.84l.48,5.85a.78.78,0,0,0,0,.21c.16.43.82,1.88,2.26,1.12a7.33,7.33,0,0,1,3.45-1.23.81.81,0,0,1,.75.8,35.69,35.69,0,0,1-.34,5.49.81.81,0,0,1-.87.68,26.2,26.2,0,0,1-6.05-1.07.82.82,0,0,1-.55-.64c-.25-1.44-1-5.84-1.43-7s-1.94-1.5-2.6-1.61a.82.82,0,0,1-.54-.35,2.13,2.13,0,0,1,.75-3.33.81.81,0,0,0,.28-1.14,2.14,2.14,0,0,1,.54-3.13,3,3,0,0,1,3.69.09.83.83,0,0,0,1.05-.1.65.65,0,0,1,.72-.14.81.81,0,0,0,1-.58,2.43,2.43,0,0,1,2.48-2c2.93-.13,3.93,2.94,3.58,4.94s-3.54,1.95-5.26,1.35c-1.31-.45-2.66.61-3.23,1.15A.81.81,0,0,0,121.49,178.84Z"/>
              <path class="cls-79" d="M119.42,185.14s.46-3.51-.9-4-3,.26-2.15,2.54C117.49,186.46,119.42,185.14,119.42,185.14Z"/>
            </g>
            <path class="cls-80" d="M136.86,214.66c-14.42,10-20.55-12.77-20.7-12.9-9.33-7.71-8.89,6.29-7.71,7.92,11.93,18.59,25.77,13.19,30.05,7.48A4.58,4.58,0,0,1,136.86,214.66Z"/>
            <path class="cls-81" d="M123.54,215a.42.42,0,0,1-.28-.1c-3.59-3-5.9-8-7.2-11.73a.42.42,0,0,1,.26-.54.42.42,0,0,1,.54.26c1,2.93,3.33,8.31,7,11.36a.43.43,0,0,1,0,.6A.41.41,0,0,1,123.54,215Z"/>
            <path class="cls-82" d="M120.66,221.49a.32.32,0,0,1-.16,0c-4.6-1.92-8.84-5.88-12.61-11.75a.41.41,0,0,1,.13-.58.43.43,0,0,1,.59.12c3.67,5.73,7.78,9.57,12.22,11.43a.42.42,0,0,1,.22.56A.41.41,0,0,1,120.66,221.49Z"/>
            <path class="cls-83" d="M144.8,207.05a12,12,0,0,1-1.55,2.53c-1.42,2-3,3.45-2.23,1s-.2-3.25-1.17-.59a16.06,16.06,0,0,1-1.87,3.84c-.38.29-.76.57-1.12.82a4.58,4.58,0,0,0,1.64,2.5c.58-.41.9-.69.9-.69s4.66-2.43,5.07-4.87A26.09,26.09,0,0,0,144.8,207.05Z"/>
          </g>
          <g>
            <g>
              <path class="cls-84" d="M144.52,228.25c-.1.43-10.14,38.08-12.68,47.62a1.72,1.72,0,0,0,1.65,2.18h0a1.72,1.72,0,0,0,1.66-1.31l11.14-45.18Z"/>
              <path class="cls-84" d="M150,228.14c.1.43,10.14,38.16,12.69,47.73a1.73,1.73,0,0,1-1.66,2.18h0a1.71,1.71,0,0,1-1.65-1.31l-11.15-45.28Z"/>
              <path class="cls-84" d="M150.44,227h-6.25v5a1.29,1.29,0,0,0,1.29,1.3h.85v11.28a1,1,0,0,0,1,1h0a1,1,0,0,0,1-1V233.34h.43a1.72,1.72,0,0,0,1.72-1.73Z"/>
              <path class="cls-84" d="M282.29,228.25c-.11.43-10.15,38.08-12.69,47.62a1.72,1.72,0,0,0,1.65,2.18h0a1.72,1.72,0,0,0,1.66-1.31l11.14-45.18Z"/>
              <path class="cls-84" d="M287.78,228.25c.11.43,10.14,38.08,12.69,47.62a1.73,1.73,0,0,1-1.65,2.18h0a1.71,1.71,0,0,1-1.66-1.31L286,231.56Z"/>
              <path class="cls-84" d="M288.2,227H282v5a1.3,1.3,0,0,0,1.29,1.3h.86v11.28a1,1,0,0,0,1,1h0a1,1,0,0,0,1-1V233.34h.44a1.72,1.72,0,0,0,1.71-1.73Z"/>
            </g>
            <path class="cls-84" d="M128.36,225.81H303.89a1.07,1.07,0,0,1,1,.81l.49,1.91a1.09,1.09,0,0,1-1,1.36l-176.44-.21a1.09,1.09,0,0,1-1-1.35l.43-1.7A1.08,1.08,0,0,1,128.36,225.81Z"/>
          </g>
        </g>
        <g>
          <path class="cls-85" d="M117.68,199.11l-.5-.63a.41.41,0,0,1,.64-.5h0l.49.64a.4.4,0,0,1-.63.49Z"/>
          <path class="cls-86" d="M116.07,196.93l-.44-.67a.42.42,0,1,1,.7-.47h0l.44.68a.42.42,0,0,1-.7.45Z"/>
          <path class="cls-87" d="M114.65,194.61l-.38-.71a.44.44,0,1,1,.77-.41h0l.37.72a.42.42,0,0,1-.18.58A.43.43,0,0,1,114.65,194.61Z"/>
          <path class="cls-88" d="M113.44,192.18l-.32-.74a.45.45,0,0,1,.83-.36h0l.31.74a.43.43,0,0,1-.24.58A.44.44,0,0,1,113.44,192.18Z"/>
          <path class="cls-89" d="M112.44,189.65l-.26-.76a.46.46,0,0,1,.88-.3h0l.25.76a.47.47,0,0,1-.29.59A.47.47,0,0,1,112.44,189.65Z"/>
          <path class="cls-90" d="M111.64,187.06l-.2-.78a.48.48,0,0,1,.35-.59.48.48,0,0,1,.58.35h0l.18.78a.46.46,0,0,1-.35.57A.46.46,0,0,1,111.64,187.06Z"/>
          <path class="cls-91" d="M111,184.41l-.14-.79a.51.51,0,0,1,.41-.58.5.5,0,0,1,.57.41h0l.13.79a.49.49,0,0,1-.41.57A.5.5,0,0,1,111,184.41Z"/>
          <path class="cls-92" d="M110.64,181.72l-.08-.8a.51.51,0,0,1,1-.1h0l.07.8a.51.51,0,0,1-.46.55A.52.52,0,0,1,110.64,181.72Z"/>
          <path class="cls-93" d="M110.44,179l0-.8a.54.54,0,0,1,.52-.54.53.53,0,0,1,.54.51h0V179a.51.51,0,0,1-.51.53A.52.52,0,0,1,110.44,179Z"/>
          <path class="cls-94" d="M110.42,176.3l0-.81A.54.54,0,0,1,111,175a.55.55,0,0,1,.52.57h0l0,.81a.54.54,0,0,1-1.08,0Z"/>
          <path class="cls-95" d="M110.6,173.59l.08-.8a.56.56,0,1,1,1.11.12h0l-.09.8a.56.56,0,0,1-.62.48A.53.53,0,0,1,110.6,173.59Z"/>
          <path class="cls-96" d="M111,170.89l.14-.79a.56.56,0,0,1,.66-.46.58.58,0,0,1,.47.66h0l-.15.8a.57.57,0,0,1-1.12-.21Z"/>
          <path class="cls-97" d="M111.49,168.23l.19-.78a.58.58,0,1,1,1.13.28h0l-.2.78a.58.58,0,0,1-1.12-.28Z"/>
          <path class="cls-98" d="M112.2,165.61l.25-.77a.59.59,0,0,1,1.12.36h0l-.25.77a.59.59,0,0,1-1.12-.36Z"/>
          <path class="cls-99" d="M113.1,163l.29-.75a.6.6,0,0,1,.78-.34.61.61,0,0,1,.33.78h0l-.3.75a.6.6,0,0,1-.78.32A.58.58,0,0,1,113.1,163Z"/>
          <path class="cls-100" d="M114.16,160.53l.35-.72a.59.59,0,0,1,.8-.29.62.62,0,0,1,.29.81h0l-.35.72a.59.59,0,0,1-.8.28A.6.6,0,0,1,114.16,160.53Z"/>
          <path class="cls-101" d="M115.4,158.1l.39-.69a.61.61,0,0,1,1.07.6h0l-.41.7a.61.61,0,0,1-1-.61Z"/>
          <path class="cls-102" d="M116.8,155.77l.45-.67a.62.62,0,1,1,1,.69h0l-.45.67a.62.62,0,0,1-1-.69Z"/>
          <path class="cls-103" d="M118.37,153.55l.5-.64a.63.63,0,1,1,1,.77h0l-.5.64a.63.63,0,0,1-.88.1A.62.62,0,0,1,118.37,153.55Z"/>
          <path class="cls-104" d="M120.09,151.44l.53-.61a.64.64,0,0,1,.9-.05.62.62,0,0,1,0,.89h0l-.53.6a.64.64,0,0,1-.9.05A.63.63,0,0,1,120.09,151.44Z"/>
          <path class="cls-105" d="M121.94,149.44l.57-.57a.64.64,0,1,1,.9.91h0l-.57.57a.65.65,0,0,1-.91,0A.63.63,0,0,1,121.94,149.44Z"/>
          <path class="cls-106" d="M123.9,147.56l.61-.53a.65.65,0,0,1,.92.06.66.66,0,0,1-.06.92h0l-.6.53a.65.65,0,0,1-.86-1Z"/>
          <path class="cls-107" d="M126,145.81l.63-.5a.67.67,0,0,1,.93.12.66.66,0,0,1-.12.92h0l-.63.49a.66.66,0,1,1-.81-1Z"/>
          <path class="cls-108" d="M128.16,144.18l.66-.46a.67.67,0,0,1,.93.17.68.68,0,0,1-.17.93h0l-.66.45a.66.66,0,1,1-.75-1.09Z"/>
          <path class="cls-109" d="M130.42,142.68l.69-.42a.69.69,0,0,1,.93.22.68.68,0,0,1-.23.93h0l-.69.42a.67.67,0,0,1-.7-1.15Z"/>
          <path class="cls-110" d="M132.77,141.31l.7-.38a.69.69,0,0,1,.93.27.7.7,0,0,1-.28.93h0l-.71.38a.69.69,0,0,1-.92-.28A.68.68,0,0,1,132.77,141.31Z"/>
          <path class="cls-111" d="M135.18,140.07l.73-.34a.68.68,0,1,1,.58,1.23h0l-.73.34a.67.67,0,0,1-.9-.32A.68.68,0,0,1,135.18,140.07Z"/>
          <path class="cls-112" d="M137.66,139l.75-.31a.69.69,0,0,1,.89.38.69.69,0,0,1-.38.89h0l-.74.3a.68.68,0,0,1-.52-1.26Z"/>
          <path class="cls-113" d="M140.19,138l.76-.27a.69.69,0,0,1,.45,1.3h0l-.76.26a.68.68,0,1,1-.45-1.29Z"/>
          <path class="cls-114" d="M142.77,137.12l.77-.23a.69.69,0,0,1,.39,1.32h0l-.77.23a.69.69,0,1,1-.39-1.32Z"/>
          <path class="cls-115" d="M145.38,136.4l.78-.19a.69.69,0,1,1,.33,1.33h0l-.78.19a.69.69,0,1,1-.33-1.33Z"/>
          <path class="cls-116" d="M148,135.8l.79-.16a.71.71,0,0,1,.81.55.69.69,0,0,1-.55.81h0l-.79.15a.69.69,0,1,1-.26-1.35Z"/>
          <path class="cls-117" d="M150.7,135.33l.79-.12a.71.71,0,0,1,.79.59.69.69,0,0,1-.59.78h0l-.79.12a.71.71,0,0,1-.79-.59A.69.69,0,0,1,150.7,135.33Z"/>
          <path class="cls-118" d="M153.39,135l.8-.07a.69.69,0,0,1,.76.62.71.71,0,0,1-.63.76h0l-.8.07a.68.68,0,0,1-.75-.62A.69.69,0,0,1,153.39,135Z"/>
          <path class="cls-119" d="M156.09,134.77l.81,0a.7.7,0,0,1,.07,1.39h0l-.8,0a.7.7,0,1,1-.07-1.39Z"/>
          <path class="cls-120" d="M158.81,134.69h.81a.7.7,0,0,1,0,1.39h-.81a.7.7,0,1,1,0-1.39Z"/>
          <path class="cls-121" d="M161.52,134.73l.8,0a.7.7,0,1,1-.06,1.39h0l-.8,0a.7.7,0,1,1,.06-1.4Z"/>
          <path class="cls-122" d="M164.22,134.89l.8.08a.7.7,0,1,1-.12,1.39h0l-.8-.07a.7.7,0,0,1-.64-.76A.71.71,0,0,1,164.22,134.89Z"/>
          <path class="cls-123" d="M166.92,135.17l.8.11a.7.7,0,0,1-.19,1.39h0l-.79-.11a.7.7,0,1,1,.18-1.39Z"/>
          <path class="cls-124" d="M169.6,135.56l.79.14a.71.71,0,0,1,.58.81.72.72,0,0,1-.82.58h0l-.79-.14a.71.71,0,0,1-.57-.82A.7.7,0,0,1,169.6,135.56Z"/>
          <path class="cls-125" d="M172.26,136.06l.79.16a.71.71,0,0,1,.54.84.7.7,0,0,1-.84.54h0l-.78-.16a.72.72,0,0,1-.55-.84A.71.71,0,0,1,172.26,136.06Z"/>
          <path class="cls-126" d="M174.9,136.65l.78.2a.71.71,0,1,1-.35,1.37h0l-.78-.2a.71.71,0,0,1-.51-.85A.72.72,0,0,1,174.9,136.65Z"/>
          <path class="cls-127" d="M177.51,137.35l.78.22a.71.71,0,0,1-.4,1.37h0l-.77-.23a.71.71,0,0,1,.39-1.36Z"/>
          <path class="cls-128" d="M180.1,138.14l.77.25a.71.71,0,0,1,.45.9.72.72,0,0,1-.9.45h0l-.76-.25a.71.71,0,0,1,.44-1.35Z"/>
          <path class="cls-129" d="M182.66,139l.75.27a.71.71,0,0,1,.42.92.7.7,0,0,1-.91.42l-.75-.28a.71.71,0,1,1,.49-1.33Z"/>
          <path class="cls-130" d="M185.18,140l.75.31a.7.7,0,0,1,.38.92.71.71,0,0,1-.92.39l-.74-.3a.71.71,0,0,1,.53-1.32Z"/>
          <path class="cls-131" d="M187.67,141l.74.33a.7.7,0,0,1,.35.93.7.7,0,0,1-.92.35l-.74-.32a.71.71,0,1,1,.57-1.29Z"/>
          <path class="cls-132" d="M190.13,142.16l.72.35a.7.7,0,0,1-.6,1.26l-.73-.35a.7.7,0,0,1-.33-.93.7.7,0,0,1,.94-.33Z"/>
          <path class="cls-133" d="M192.55,143.36l.71.37a.69.69,0,1,1-.64,1.23l-.71-.37a.69.69,0,1,1,.64-1.23Z"/>
          <path class="cls-134" d="M194.93,144.63l.71.39a.68.68,0,0,1,.26.94.7.7,0,0,1-.94.27l-.7-.39a.69.69,0,0,1-.27-.94.68.68,0,0,1,.94-.27Z"/>
          <path class="cls-135" d="M197.28,146l.69.41a.69.69,0,0,1-.7,1.19l-.69-.41a.69.69,0,0,1-.25-.94.7.7,0,0,1,.95-.25Z"/>
          <path class="cls-136" d="M199.59,147.36l.68.43a.69.69,0,0,1-.73,1.16l-.68-.43a.68.68,0,0,1,.72-1.16Z"/>
          <path class="cls-137" d="M201.86,148.82l.66.45a.68.68,0,0,1-.75,1.13l-.67-.44a.69.69,0,0,1-.19-1,.68.68,0,0,1,.94-.19Z"/>
          <path class="cls-138" d="M204.09,150.34l.65.47a.66.66,0,0,1,.16.94.67.67,0,0,1-.94.16l-.65-.46a.68.68,0,0,1,.77-1.11Z"/>
          <path class="cls-139" d="M206.27,151.91l.65.48a.67.67,0,0,1-.8,1.08l-.64-.47a.67.67,0,1,1,.79-1.09Z"/>
          <path class="cls-140" d="M208.43,153.52l.64.49a.67.67,0,0,1,.12.94.66.66,0,0,1-.93.12l-.64-.48a.67.67,0,1,1,.81-1.07Z"/>
          <path class="cls-141" d="M210.56,155.17l.63.49a.69.69,0,0,1,.11.94.66.66,0,0,1-.93.11l-.64-.5a.66.66,0,0,1,.82-1Z"/>
          <path class="cls-142" d="M212.66,156.84l.62.5a.66.66,0,0,1-.82,1l-.63-.5a.66.66,0,0,1-.1-.93.66.66,0,0,1,.93-.1Z"/>
          <path class="cls-143" d="M214.74,158.53l.63.5a.66.66,0,0,1,.09.93.65.65,0,0,1-.92.09l-.63-.5a.66.66,0,0,1,.83-1Z"/>
          <path class="cls-144" d="M216.82,160.23l.62.51a.64.64,0,0,1,.09.91.65.65,0,0,1-.92.09l-.62-.5a.65.65,0,0,1-.09-.92.66.66,0,0,1,.92-.1Z"/>
          <path class="cls-145" d="M218.89,161.93l.62.51a.65.65,0,0,1-.82,1l-.62-.51a.65.65,0,1,1,.82-1Z"/>
          <path class="cls-146" d="M221,163.62l.63.51a.66.66,0,0,1,.09.91.64.64,0,0,1-.91.09l-.62-.5a.65.65,0,1,1,.81-1Z"/>
          <path class="cls-147" d="M223,165.31l.63.5a.65.65,0,0,1,.1.9.64.64,0,0,1-.9.1l-.63-.5a.64.64,0,0,1,.8-1Z"/>
          <path class="cls-148" d="M225.13,167l.63.5a.63.63,0,0,1-.78,1l-.63-.49a.64.64,0,0,1,.78-1Z"/>
          <path class="cls-149" d="M227.24,168.61l.64.49h0a.63.63,0,0,1-.76,1l-.65-.49a.65.65,0,0,1-.12-.89.64.64,0,0,1,.89-.12Z"/>
          <path class="cls-150" d="M229.38,170.21l.64.48a.62.62,0,0,1,.14.88.62.62,0,0,1-.88.13l-.65-.47a.63.63,0,1,1,.74-1Z"/>
          <path class="cls-151" d="M231.54,171.77l.66.46a.63.63,0,0,1-.71,1l-.67-.46a.63.63,0,0,1-.15-.87.62.62,0,0,1,.87-.16Z"/>
          <path class="cls-152" d="M233.74,173.28l.67.44a.62.62,0,0,1,.17.86.61.61,0,0,1-.85.18l-.68-.44a.63.63,0,1,1,.69-1Z"/>
          <path class="cls-153" d="M236,174.72l.68.43a.61.61,0,1,1-.64,1l-.68-.42a.61.61,0,0,1-.21-.84.63.63,0,0,1,.85-.21Z"/>
          <path class="cls-154" d="M238.24,176.11l.7.4a.6.6,0,0,1-.6,1l-.7-.39a.61.61,0,0,1,.6-1.06Z"/>
          <path class="cls-155" d="M240.56,177.41l.71.38a.59.59,0,0,1-.55,1.05l-.72-.37a.61.61,0,0,1-.25-.81.6.6,0,0,1,.81-.25Z"/>
          <path class="cls-156" d="M242.92,178.62l.73.35a.59.59,0,0,1,.27.79.58.58,0,0,1-.78.27l-.72-.34a.59.59,0,0,1,.5-1.07Z"/>
          <path class="cls-157" d="M245.33,179.74l.74.32a.58.58,0,0,1-.45,1.06l-.74-.31a.59.59,0,0,1-.31-.76.58.58,0,0,1,.76-.31Z"/>
          <path class="cls-158" d="M247.79,180.75l.75.28a.57.57,0,0,1,.33.73.56.56,0,0,1-.72.33l-.76-.27a.58.58,0,0,1-.34-.73.57.57,0,0,1,.73-.34Z"/>
          <path class="cls-159" d="M250.28,181.64l.77.24a.56.56,0,0,1-.33,1.06l-.77-.23a.56.56,0,0,1,.33-1.08Z"/>
          <path class="cls-160" d="M252.82,182.39l.78.2a.56.56,0,0,1,.4.67.55.55,0,0,1-.67.39l-.78-.19a.57.57,0,0,1-.4-.67.54.54,0,0,1,.67-.4Z"/>
          <path class="cls-161" d="M255.4,183l.79.15a.55.55,0,0,1,.43.63.54.54,0,0,1-.63.43l-.79-.15a.54.54,0,0,1-.44-.63.55.55,0,0,1,.64-.43Z"/>
          <path class="cls-162" d="M258,183.44l.79.1a.53.53,0,0,1-.13,1.06l-.8-.1a.52.52,0,0,1-.46-.59.53.53,0,0,1,.59-.47Z"/>
          <path class="cls-163" d="M260.64,183.72l.8.05a.52.52,0,0,1,.49.55.52.52,0,0,1-.55.49l-.8,0a.53.53,0,0,1-.5-.56.52.52,0,0,1,.55-.49Z"/>
          <path class="cls-164" d="M263.28,183.82h.8a.51.51,0,1,1,0,1h-.8a.5.5,0,0,1-.52-.51.51.51,0,0,1,.51-.52Z"/>
          <path class="cls-165" d="M265.92,183.75l.81-.06a.5.5,0,1,1,.07,1l-.8.07a.5.5,0,0,1-.54-.47.49.49,0,0,1,.46-.54Z"/>
          <path class="cls-166" d="M268.55,183.48l.8-.11a.49.49,0,0,1,.56.41.5.5,0,0,1-.41.57l-.8.12a.5.5,0,1,1-.15-1Z"/>
          <path class="cls-167" d="M271.16,183l.78-.18a.48.48,0,0,1,.58.36.5.5,0,0,1-.36.59l-.78.18a.49.49,0,1,1-.23-.95Z"/>
          <path class="cls-168" d="M273.71,182.37l.77-.25a.48.48,0,0,1,.6.32.47.47,0,0,1-.31.59l-.77.25a.47.47,0,0,1-.6-.31.48.48,0,0,1,.31-.6Z"/>
          <path class="cls-169" d="M276.2,181.5l.74-.31a.47.47,0,0,1,.62.25.48.48,0,0,1-.25.61l-.74.32a.47.47,0,1,1-.37-.87Z"/>
          <path class="cls-170" d="M278.61,180.41l.71-.37a.45.45,0,1,1,.42.8l-.7.38a.46.46,0,0,1-.44-.8Z"/>
          <path class="cls-171" d="M280.9,179.11l.67-.44a.45.45,0,0,1,.61.13.44.44,0,0,1-.13.6l-.66.45a.45.45,0,0,1-.62-.12.46.46,0,0,1,.12-.62Z"/>
          <path class="cls-172" d="M283.05,177.59l.62-.5a.42.42,0,0,1,.6.06.43.43,0,0,1-.06.59l-.62.51a.42.42,0,1,1-.54-.65Z"/>
          <path class="cls-173" d="M285,175.85l.56-.58a.41.41,0,0,1,.59.57l-.56.58a.41.41,0,0,1-.58,0,.42.42,0,0,1,0-.59Z"/>
          <path class="cls-174" d="M286.79,173.9l.5-.64a.39.39,0,0,1,.55-.06.4.4,0,0,1,.07.55l-.49.63a.4.4,0,1,1-.63-.48Z"/>
          <path class="cls-175" d="M288.34,171.76l.43-.68a.39.39,0,0,1,.52-.12.38.38,0,0,1,.12.52l-.42.69a.38.38,0,0,1-.65-.4Z"/>
          <path class="cls-176" d="M289.67,169.48l.35-.72a.37.37,0,0,1,.49-.17.35.35,0,0,1,.16.48l-.34.73a.37.37,0,0,1-.67-.32Z"/>
          <path class="cls-177" d="M290.74,167.07l.28-.76a.35.35,0,0,1,.44-.21.35.35,0,0,1,.21.45l-.26.75a.35.35,0,0,1-.45.22.35.35,0,0,1-.22-.45Z"/>
          <path class="cls-178" d="M291.55,164.55l.19-.78a.33.33,0,0,1,.4-.25.34.34,0,0,1,.25.4l-.18.79a.34.34,0,0,1-.41.25.33.33,0,0,1-.25-.4Z"/>
          <path class="cls-179" d="M292.07,162l.1-.8a.31.31,0,0,1,.35-.27.32.32,0,0,1,.28.35l-.09.8a.32.32,0,0,1-.36.28.32.32,0,0,1-.28-.35Z"/>
          <path class="cls-180" d="M292.27,159.33v-.8a.31.31,0,0,1,.3-.31.3.3,0,0,1,.31.3v.81a.3.3,0,0,1-.3.31.32.32,0,0,1-.32-.31Z"/>
          <path class="cls-181" d="M292.14,156.7l-.11-.8a.29.29,0,1,1,.58-.08l.12.79a.3.3,0,1,1-.59.09Z"/>
          <path class="cls-182" d="M291.65,154.1l-.22-.77a.28.28,0,0,1,.19-.34.27.27,0,0,1,.34.19l.23.77a.28.28,0,1,1-.54.16Z"/>
        </g>
      </g>
    </g>
  </g>
</svg>
