<svg xmlns="http://www.w3.org/2000/svg" xmlns:xlink="http://www.w3.org/1999/xlink" width="512" height="512" viewBox="0 0 512 512">
  <defs>
    <style>
      .cls-1 {
        fill: #4e4e4e;
        fill-rule: evenodd;
        filter: url(#filter);
      }
    </style>
    <filter id="filter" x="0" y="41.781" width="514.5" height="430.594" filterUnits="userSpaceOnUse">
      <feFlood result="flood" flood-color="#fff"/>
      <feComposite result="composite" operator="in" in2="SourceGraphic"/>
      <feBlend result="blend" in2="SourceGraphic"/>
    </filter>
  </defs>
  <path id="my_vector_mask_shape" class="cls-1" d="M236,356q-1-5-2-10c-15.7.748-29.174,1.48-34-9-3.093-5.379-2-16.6-2-25,0.016-33.3,10.5-24.623,37-31,0.614-5.891,12-30,12-30-4.39-8.281-16.524-11.222-19-22-3.441-14.978,30.552-41.656,43-41l21,18,7-3c-9.206-32.742-47.9-33.413-74-50q-0.5-2.5-1-5l3-5c30.755-5.775,77.693,31.912,86,53l10-2c-0.671-13.641-1.517-28.222,7-33,6.043-5.149,13.23-.234,22-4l21-23L339,99h-4a111.466,111.466,0,0,1-31,28c-8.8-2.891-59.189-23.247-62-29q-1-19-2-38l-2-3c-14.452-.272-38.235-2.985-49,2-2.088,12.414.377,32.069-3,43-18.925,9.84-41.747,18.234-61,25L93,99c-10.056,3.068-33.769,26.319-36,37,9.749,10.074,19.89,19.247,28,31-2.125,6.949-23.375,58.949-27,61-9.037,6.273-33.73.078-43,5l1,47,2,3,39,1c5.72,4.573,27.22,58.053,27,65L57,378v4l35,34,27-27,10-2c8.389,3.835,55.175,22.259,58,28q1,20,2,40l14,4v10l-3,1c-27.809,12.262-28.062-25.707-27-48-9.487-2.258-43.682-19.581-47-19-13.272,2.326-16.492,33.317-38,28-8.612-2.129-49.693-42.6-46-57,3.161-12.327,18.748-20.711,26-30-6.9-14.633-12.583-29.5-19-46-38.918.816-49,.116-49-39l1-32c10.266-23.053,37-3.23,49-12l18-47c-7.867-5.626-23.631-18.708-26-29-3.727-16.191,38.816-58.967,55-55,12.414,3.043,20.771,18.7,30,26,15.256-5.25,27.281-15.448,46-18-1.327-42.173,2.277-50,44-50,10.74,0,24.46-1.447,31,3,12.256,8.334,4.975,30.214,9,47,36.4,6.027,40.606,31.422,66-3,4.787-2.195,10.085-7.281,19-5,9.108,2.33,46.751,39.608,46,51-0.709,10.753-9.788,15.463-15,22v1c25.99,5.272,5.856,26.4,14,36l10,2c19.319,7.776,23.814,11.719,37-6,5.492-1.584,8.024-2.266,14-2,12.055,6.056,32.778,23.608,34,40-3.955,9.831-11.094,17.207-19,23l13,31c39.278-1.567,43.982,20.469,34,57-8.544,6.458-17.477,7.392-34,7-7.027,25.2-17.957,31.859,4,48q1,5.5,2,11c-5.394,13.524-23.967,36.66-42,37l-22-19-31,12c0.208,10.347-.064,21.421-2,29-10.559,8.275-52.72,13.67-60-2-3.184-5.65-2.234-18.231-2-27l-32-12c-7.156,10.4-19.753,24.425-35,15,0.777,15.8-.664,26.34-11,31-8.825,5.71-18.217,1.637-21-6,4.82-6.133,9.321-5.579,17-9V422c-3.035-7.138-16.213-9.117-13-23,2.478-10.7,16.693-14.267,18-24l-4-5c-77.83,6.927-128.565-26.5-142-92-11.975-58.38,21.779-98.875,53-119,9.1-5.866,31.652-20.761,46-16l5,3c-0.126,5.988-.935,6.706-3,10C73.782,183.084,87.331,365.225,236,356Zm-23-25c9.157-.2,25.207-2.011,31,2l19,47c-20.634,37.126-26,9.891,3,47l20-20,4-1c12.325,1.629,39.972,13.787,48,22v28h34q0.5-15,1-30c11.281-7.3,34.013-18.362,48-20l22,20h2l22-23c-6.682-8.507-18.8-13.4-20-27l20-44,30-1q-0.5-17-1-34l-30-1c-2.618-1.695-18.877-46.618-18-49l19-21-23-23h-2c-5.973,8.029-13.611,14.294-22,20-6.355-2.107-46.679-18.224-48-22q-0.5-14.5-1-29l-33,1c0.4,12.784.449,25.562-4,33-16.982,3.98-29.093,11.217-44,17l-23-20h-2l-22,23,19,19,1,2c-0.423,14.345-12.07,37.661-19,49l-31,2v33ZM343,229c120.239-2.512,127.559,148.18,29,170-62.107,13.75-118.034-48.157-100-108C283.553,252.663,307.513,244.145,343,229Zm2,15-19,6c0.871,4-.26,5.388-2,9-7.127.472-9.537-2.063-13,1l-13,13c2.654,4.755,2.494,5.043,1,11-2.622,1-7.127,2.056-9,4-9.26,15.457,2.378,19.318,0,29-2.092,4-3.506,3.091-5,8q2.5,9,5,18c5.661,0.21,6.714,1.084,10,3-0.762,9.591-2.723,10.384,3,15l10,10c7.572-2.661,15.43-1.418,13,8h2l20,6c1.141-4.023,1.374-3.827,4-6,8.316,0.243,7.909,2.2,12,6l19-5c1.1-4.125.274-7.209,5-10,4.053-1.529,5.932,0,10,1l14-15c-1.806-3.6-1.962-6.3-1-11,2.622-1,7.127-2.056,9-4,3.3-5.089,4.756-11.833,5-20-4.583-1.42-6.34-3.969-5-8,1.88-5.587,3.862-4.213,5-11q-2.5-7-5-14l-10-6c0.949-15.522-4.051-15.562-13-25l-8,3c-3.606-3.945-4.763-8.508-8-11l-19-5c-1.538,5.245-2.6,5.71-9,6Zm8,10c5.846,0.662,6.985,1.615,9,6q0.5,17.5,1,35c6.984,2.572,8.4,7.348,13,12,11.092-.427,20.05-0.092,26,4v1l-3,9c-7.226.728-20.389,0.364-26,3-6.941,21.956-40.316,10.847-39-14,3.617-7.87,6.829-11.728,14-16-0.339-12.668-1.74-31.044,3-39Zm0,54-3,4-1,5,6,4,6-4c-0.215-4.513-.708-5.391-2-8Z"/>
</svg>
