<svg xmlns="http://www.w3.org/2000/svg" xmlns:xlink="http://www.w3.org/1999/xlink" viewBox="0 0 225 234"><defs><style>.cls-1{fill:none;}.cls-2{fill:url(#linear-gradient);}.cls-160,.cls-165,.cls-3{fill:#fff;}.cls-4{isolation:isolate;}.cls-5{fill:#0283f0;opacity:0.24;}.cls-186,.cls-6{fill:#25b5df;}.cls-15,.cls-160,.cls-165,.cls-186,.cls-7{mix-blend-mode:soft-light;}.cls-8{clip-path:url(#clip-path-2);}.cls-9{fill:url(#Безымянный_градиент_2);}.cls-10{clip-path:url(#clip-path-3);}.cls-11{clip-path:url(#clip-path-4);}.cls-12{fill:#bfc8d6;}.cls-13{fill:#d8dee8;}.cls-14{fill:url(#linear-gradient-3);}.cls-15,.cls-167,.cls-178,.cls-184,.cls-186{opacity:0.3;}.cls-16{opacity:0.69;}.cls-17{fill:url(#linear-gradient-4);}.cls-18{fill:url(#linear-gradient-5);}.cls-19{fill:url(#linear-gradient-6);}.cls-20{fill:url(#linear-gradient-7);}.cls-21{fill:url(#linear-gradient-8);}.cls-22{fill:url(#linear-gradient-9);}.cls-23{fill:url(#linear-gradient-10);}.cls-24{fill:url(#linear-gradient-11);}.cls-25{fill:url(#linear-gradient-12);}.cls-26{fill:url(#linear-gradient-13);}.cls-27{fill:url(#linear-gradient-14);}.cls-28{fill:url(#linear-gradient-15);}.cls-29{fill:url(#linear-gradient-16);}.cls-30{fill:url(#linear-gradient-17);}.cls-31{fill:url(#linear-gradient-18);}.cls-32{fill:url(#linear-gradient-19);}.cls-33{fill:url(#linear-gradient-20);}.cls-34{fill:url(#linear-gradient-21);}.cls-35{fill:url(#linear-gradient-22);}.cls-36{fill:url(#linear-gradient-23);}.cls-37{fill:url(#linear-gradient-24);}.cls-38{fill:url(#linear-gradient-25);}.cls-39{fill:url(#linear-gradient-26);}.cls-40{fill:url(#linear-gradient-27);}.cls-41{fill:url(#linear-gradient-28);}.cls-42{fill:url(#linear-gradient-29);}.cls-43{fill:url(#linear-gradient-30);}.cls-44{fill:url(#linear-gradient-31);}.cls-45{fill:url(#linear-gradient-32);}.cls-46{fill:url(#linear-gradient-33);}.cls-47{fill:url(#linear-gradient-34);}.cls-48{fill:url(#linear-gradient-35);}.cls-49{fill:url(#linear-gradient-36);}.cls-50{fill:url(#linear-gradient-37);}.cls-51{fill:url(#linear-gradient-38);}.cls-52{fill:url(#linear-gradient-39);}.cls-53{fill:url(#linear-gradient-40);}.cls-54{fill:url(#linear-gradient-41);}.cls-55{fill:url(#linear-gradient-42);}.cls-56{fill:url(#linear-gradient-43);}.cls-57{fill:url(#linear-gradient-44);}.cls-58{fill:url(#linear-gradient-45);}.cls-59{fill:url(#linear-gradient-46);}.cls-60{fill:url(#linear-gradient-47);}.cls-61{fill:url(#linear-gradient-48);}.cls-62{fill:url(#linear-gradient-49);}.cls-63{fill:url(#linear-gradient-50);}.cls-64{fill:url(#linear-gradient-51);}.cls-65{fill:url(#linear-gradient-52);}.cls-66{fill:url(#linear-gradient-53);}.cls-67{fill:url(#linear-gradient-54);}.cls-68{fill:url(#linear-gradient-55);}.cls-69{fill:url(#linear-gradient-56);}.cls-70{fill:url(#linear-gradient-57);}.cls-71{fill:url(#linear-gradient-58);}.cls-72{fill:url(#linear-gradient-59);}.cls-73{fill:url(#linear-gradient-60);}.cls-74{fill:url(#linear-gradient-61);}.cls-75{fill:url(#linear-gradient-62);}.cls-76{fill:url(#linear-gradient-63);}.cls-77{fill:url(#linear-gradient-64);}.cls-78{fill:url(#linear-gradient-65);}.cls-79{fill:url(#linear-gradient-66);}.cls-80{fill:url(#linear-gradient-67);}.cls-81{fill:url(#linear-gradient-68);}.cls-82{fill:url(#linear-gradient-69);}.cls-83{fill:url(#linear-gradient-70);}.cls-84{fill:url(#linear-gradient-71);}.cls-85{fill:url(#linear-gradient-72);}.cls-86{fill:url(#linear-gradient-73);}.cls-87{fill:url(#linear-gradient-74);}.cls-88{fill:url(#linear-gradient-75);}.cls-89{fill:url(#linear-gradient-76);}.cls-90{fill:url(#linear-gradient-77);}.cls-91{fill:url(#linear-gradient-78);}.cls-92{fill:url(#linear-gradient-79);}.cls-93{fill:url(#linear-gradient-80);}.cls-94{fill:url(#linear-gradient-81);}.cls-95{fill:url(#linear-gradient-82);}.cls-96{fill:url(#linear-gradient-83);}.cls-97{fill:url(#linear-gradient-84);}.cls-98{fill:url(#linear-gradient-85);}.cls-99{fill:url(#linear-gradient-86);}.cls-100{fill:url(#linear-gradient-87);}.cls-101{fill:url(#linear-gradient-88);}.cls-102{fill:url(#linear-gradient-89);}.cls-103{fill:url(#linear-gradient-90);}.cls-104{fill:url(#linear-gradient-91);}.cls-105{fill:url(#linear-gradient-92);}.cls-106{fill:url(#linear-gradient-93);}.cls-107{fill:url(#linear-gradient-94);}.cls-108{fill:url(#linear-gradient-95);}.cls-109{fill:url(#linear-gradient-96);}.cls-110{fill:url(#linear-gradient-97);}.cls-111{fill:url(#linear-gradient-98);}.cls-112{fill:url(#linear-gradient-99);}.cls-113{fill:url(#linear-gradient-100);}.cls-114{fill:url(#linear-gradient-101);}.cls-115{fill:url(#linear-gradient-102);}.cls-116{fill:url(#linear-gradient-103);}.cls-117{fill:url(#linear-gradient-104);}.cls-118{fill:url(#linear-gradient-105);}.cls-119{fill:url(#linear-gradient-106);}.cls-120{fill:url(#linear-gradient-107);}.cls-121{fill:url(#linear-gradient-108);}.cls-122{fill:url(#linear-gradient-109);}.cls-123{fill:url(#linear-gradient-110);}.cls-124{fill:url(#linear-gradient-111);}.cls-125{fill:url(#linear-gradient-112);}.cls-126{fill:url(#linear-gradient-113);}.cls-127{fill:url(#linear-gradient-114);}.cls-128{fill:url(#linear-gradient-115);}.cls-129{fill:url(#linear-gradient-116);}.cls-130{fill:url(#linear-gradient-117);}.cls-131{fill:url(#linear-gradient-118);}.cls-132{fill:url(#linear-gradient-119);}.cls-133{fill:url(#linear-gradient-120);}.cls-134{fill:url(#linear-gradient-121);}.cls-135{fill:url(#linear-gradient-122);}.cls-136{fill:url(#linear-gradient-123);}.cls-137{fill:url(#linear-gradient-124);}.cls-138{fill:url(#linear-gradient-125);}.cls-139{fill:url(#linear-gradient-126);}.cls-140{fill:url(#linear-gradient-127);}.cls-141{fill:url(#linear-gradient-128);}.cls-142{fill:url(#linear-gradient-129);}.cls-143{fill:url(#linear-gradient-130);}.cls-144{fill:url(#linear-gradient-131);}.cls-145{fill:url(#linear-gradient-132);}.cls-146{fill:url(#linear-gradient-133);}.cls-147{fill:url(#linear-gradient-134);}.cls-148{fill:url(#linear-gradient-135);}.cls-149{fill:url(#linear-gradient-136);}.cls-150{fill:url(#linear-gradient-137);}.cls-151{fill:url(#linear-gradient-138);}.cls-152{fill:url(#linear-gradient-139);}.cls-153{fill:url(#linear-gradient-140);}.cls-154{fill:url(#linear-gradient-141);}.cls-155{fill:url(#linear-gradient-142);}.cls-156{fill:url(#linear-gradient-143);}.cls-157{fill:url(#linear-gradient-144);}.cls-158{fill:url(#linear-gradient-145);}.cls-159{fill:url(#linear-gradient-146);}.cls-160{opacity:0.35;}.cls-161{fill:url(#linear-gradient-147);}.cls-162{fill:url(#linear-gradient-148);}.cls-163{fill:url(#linear-gradient-149);}.cls-164{fill:url(#linear-gradient-150);}.cls-165{opacity:0.48;}.cls-166{fill:url(#linear-gradient-151);}.cls-167,.cls-178,.cls-184{mix-blend-mode:multiply;}.cls-167{fill:url(#linear-gradient-152);}.cls-168{opacity:0.75;}.cls-169{fill:url(#linear-gradient-153);}.cls-170{fill:url(#linear-gradient-154);}.cls-171{fill:url(#linear-gradient-155);}.cls-172{fill:url(#linear-gradient-156);}.cls-173{fill:url(#linear-gradient-157);}.cls-174{fill:url(#linear-gradient-158);}.cls-175{fill:url(#linear-gradient-159);}.cls-176{fill:url(#linear-gradient-160);}.cls-177{fill:url(#linear-gradient-161);}.cls-178{fill:url(#linear-gradient-162);}.cls-179{fill:url(#linear-gradient-163);}.cls-180{fill:url(#linear-gradient-164);}.cls-181{fill:url(#linear-gradient-165);}.cls-182{fill:url(#linear-gradient-166);}.cls-183{fill:url(#linear-gradient-167);}.cls-184{fill:url(#linear-gradient-168);}.cls-185{fill:#1093b2;}</style><linearGradient id="linear-gradient" x1="64.76" y1="102.64" x2="12.91" y2="145.23" gradientUnits="userSpaceOnUse"><stop offset="0" stop-color="#ff9085"/><stop offset="1" stop-color="#fb6fbb"/></linearGradient><clipPath id="clip-path"><path class="cls-3" d="M87.15,129.25c-7.23-5.29-14.28-7.78-21-7.41a26.08,26.08,0,0,0-6.95,1.45,22.66,22.66,0,0,1-8.85,1.38c-7.11-.29-13.18-2.71-17.09-6.8-6.06-6.33-7.4-16.94-3.43-27l.26.1c-3.94,10-2.62,20.49,3.37,26.74,3.86,4,9.86,6.43,16.9,6.72A22.66,22.66,0,0,0,59.16,123a26.06,26.06,0,0,1,7-1.46c6.75-.38,13.86,2.13,21.14,7.46Z"/></clipPath><clipPath id="clip-path-2"><path class="cls-1" d="M79.66,142.13c2.8-8.53,5.65-21.55,2.31-36C78.15,89.52,69.66,86.2,62,68.46,51.17,43.12,63.48,24.78,52.22,17c-5.49-3.77-14.12-3.77-19.44,0C17.6,27.86,21.76,75,45.85,93.35c10.89,8.31,20.4,7.32,28.58,18.08C81.65,120.94,81.08,133.48,79.66,142.13Z"/></clipPath><linearGradient id="Безымянный_градиент_2" x1="5950.72" y1="-1915.11" x2="6068.63" y2="-2036.39" gradientTransform="matrix(-0.96, 0.27, 0.27, 0.96, 5637.84, -61.68)" gradientUnits="userSpaceOnUse"><stop offset="0" stop-color="#3cc"/><stop offset="0.55" stop-color="#893976"/></linearGradient><clipPath id="clip-path-3"><path class="cls-1" d="M84.53,131.84c.89-5.37,1.4-13.75-3-21.25C73.94,97.5,60,101.84,46.73,87.82,36,76.52,39.38,67.73,27.49,60.22,25.5,59,15,52,7.17,56.21c-4.41,2.34-6,7.17-6.31,8.07C-3.67,78,10.27,99.39,28.43,109.19c10.44,5.62,13.81,3.79,32.18,10.35A103.58,103.58,0,0,1,84.53,131.84Z"/></clipPath><clipPath id="clip-path-4"><path class="cls-2" d="M84.72,127.28a58.15,58.15,0,0,0-14.45-7.58c-11.69-4.15-17-1.7-22-6.65-5.13-5.11-1.81-10.15-7.94-15.87-.52-.48-7.11-6.46-13.07-4.23-4.17,1.55-5.79,6.29-6.55,8.51-3,8.63-1.24,21.77,8,28.25,8.72,6.15,19.77,3.22,23.28,2.26,6.15-1.67,7.6-4.07,13.86-5.59A35.76,35.76,0,0,1,84.72,127.28Z"/></clipPath><linearGradient id="linear-gradient-3" x1="131.17" y1="14.42" x2="157.22" y2="29.01" gradientUnits="userSpaceOnUse"><stop offset="0" stop-color="#444b8c"/><stop offset="1" stop-color="#26264f"/></linearGradient><linearGradient id="linear-gradient-4" x1="126.71" y1="18.52" x2="127.36" y2="28.42" xlink:href="#linear-gradient"/><linearGradient id="linear-gradient-5" x1="129.07" y1="24.67" x2="129.15" y2="26" xlink:href="#linear-gradient"/><linearGradient id="linear-gradient-6" x1="131.1" y1="20.7" x2="131.55" y2="27.5" xlink:href="#linear-gradient"/><linearGradient id="linear-gradient-7" x1="133.35" y1="23.51" x2="133.55" y2="26.52" xlink:href="#linear-gradient"/><linearGradient id="linear-gradient-8" x1="135.39" y1="20.15" x2="135.88" y2="27.64" xlink:href="#linear-gradient"/><linearGradient id="linear-gradient-9" x1="137.59" y1="21.89" x2="137.93" y2="27.09" xlink:href="#linear-gradient"/><linearGradient id="linear-gradient-10" x1="139.63" y1="19" x2="140.21" y2="27.9" xlink:href="#linear-gradient"/><linearGradient id="linear-gradient-11" x1="141.73" y1="18.26" x2="142.37" y2="28.05" xlink:href="#linear-gradient"/><linearGradient id="linear-gradient-12" x1="143.99" y1="22.09" x2="144.31" y2="27.05" xlink:href="#linear-gradient"/><linearGradient id="linear-gradient-13" x1="145.95" y1="17.44" x2="146.65" y2="28.12" xlink:href="#linear-gradient"/><linearGradient id="linear-gradient-14" x1="148.1" y1="18.68" x2="148.7" y2="27.78" xlink:href="#linear-gradient"/><linearGradient id="linear-gradient-15" x1="150.4" y1="24.13" x2="150.57" y2="26.67" xlink:href="#linear-gradient"/><linearGradient id="linear-gradient-16" x1="152.41" y1="21.42" x2="152.79" y2="27.2" xlink:href="#linear-gradient"/><linearGradient id="linear-gradient-17" x1="154.43" y1="19.29" x2="154.97" y2="27.54" xlink:href="#linear-gradient"/><linearGradient id="linear-gradient-18" x1="156.58" y1="21.18" x2="156.98" y2="27.22" xlink:href="#linear-gradient"/><linearGradient id="linear-gradient-19" x1="158.56" y1="18.31" x2="159.17" y2="27.59" xlink:href="#linear-gradient"/><linearGradient id="linear-gradient-20" x1="160.6" y1="17.37" x2="161.28" y2="27.65" xlink:href="#linear-gradient"/><linearGradient id="linear-gradient-21" x1="131.24" y1="31.29" x2="157.14" y2="45.81" xlink:href="#linear-gradient-3"/><linearGradient id="linear-gradient-22" x1="126.71" y1="35.56" x2="127.36" y2="45.43" xlink:href="#linear-gradient"/><linearGradient id="linear-gradient-23" x1="129.07" y1="41.68" x2="129.15" y2="42.99" xlink:href="#linear-gradient"/><linearGradient id="linear-gradient-24" x1="131.1" y1="37.68" x2="131.55" y2="44.46" xlink:href="#linear-gradient"/><linearGradient id="linear-gradient-25" x1="133.35" y1="40.47" x2="133.54" y2="43.47" xlink:href="#linear-gradient"/><linearGradient id="linear-gradient-26" x1="135.39" y1="37.09" x2="135.88" y2="44.56" xlink:href="#linear-gradient"/><linearGradient id="linear-gradient-27" x1="137.59" y1="38.8" x2="137.93" y2="43.98" xlink:href="#linear-gradient"/><linearGradient id="linear-gradient-28" x1="139.63" y1="35.89" x2="140.21" y2="44.78" xlink:href="#linear-gradient"/><linearGradient id="linear-gradient-29" x1="141.73" y1="35.12" x2="142.37" y2="44.9" xlink:href="#linear-gradient"/><linearGradient id="linear-gradient-30" x1="143.99" y1="38.93" x2="144.31" y2="43.88" xlink:href="#linear-gradient"/><linearGradient id="linear-gradient-31" x1="145.95" y1="34.26" x2="146.64" y2="44.92" xlink:href="#linear-gradient"/><linearGradient id="linear-gradient-32" x1="148.1" y1="35.48" x2="148.7" y2="44.56" xlink:href="#linear-gradient"/><linearGradient id="linear-gradient-33" x1="150.4" y1="40.9" x2="150.57" y2="43.43" xlink:href="#linear-gradient"/><linearGradient id="linear-gradient-34" x1="152.41" y1="38.17" x2="152.79" y2="43.93" xlink:href="#linear-gradient"/><linearGradient id="linear-gradient-35" x1="154.43" y1="36.02" x2="154.97" y2="44.25" xlink:href="#linear-gradient"/><linearGradient id="linear-gradient-36" x1="156.58" y1="37.88" x2="156.98" y2="43.91" xlink:href="#linear-gradient"/><linearGradient id="linear-gradient-37" x1="158.56" y1="34.99" x2="159.17" y2="44.26" xlink:href="#linear-gradient"/><linearGradient id="linear-gradient-38" x1="160.6" y1="34.02" x2="161.28" y2="44.3" xlink:href="#linear-gradient"/><linearGradient id="linear-gradient-39" x1="131.3" y1="48.17" x2="157.07" y2="62.61" xlink:href="#linear-gradient-3"/><linearGradient id="linear-gradient-40" x1="126.71" y1="52.59" x2="127.35" y2="62.44" xlink:href="#linear-gradient"/><linearGradient id="linear-gradient-41" x1="129.07" y1="58.69" x2="129.15" y2="59.98" xlink:href="#linear-gradient"/><linearGradient id="linear-gradient-42" x1="131.1" y1="54.67" x2="131.55" y2="61.43" xlink:href="#linear-gradient"/><linearGradient id="linear-gradient-43" x1="133.35" y1="57.43" x2="133.54" y2="60.41" xlink:href="#linear-gradient"/><linearGradient id="linear-gradient-44" x1="135.39" y1="54.03" x2="135.88" y2="61.47" xlink:href="#linear-gradient"/><linearGradient id="linear-gradient-45" x1="137.59" y1="55.71" x2="137.93" y2="60.88" xlink:href="#linear-gradient"/><linearGradient id="linear-gradient-46" x1="139.63" y1="52.78" x2="140.21" y2="61.65" xlink:href="#linear-gradient"/><linearGradient id="linear-gradient-47" x1="141.73" y1="51.99" x2="142.37" y2="61.75" xlink:href="#linear-gradient"/><linearGradient id="linear-gradient-48" x1="143.99" y1="55.77" x2="144.31" y2="60.7" xlink:href="#linear-gradient"/><linearGradient id="linear-gradient-49" x1="145.95" y1="51.08" x2="146.64" y2="61.72" xlink:href="#linear-gradient"/><linearGradient id="linear-gradient-50" x1="148.1" y1="52.27" x2="148.7" y2="61.34" xlink:href="#linear-gradient"/><linearGradient id="linear-gradient-51" x1="150.4" y1="57.67" x2="150.57" y2="60.19" xlink:href="#linear-gradient"/><linearGradient id="linear-gradient-52" x1="152.41" y1="54.92" x2="152.79" y2="60.66" xlink:href="#linear-gradient"/><linearGradient id="linear-gradient-53" x1="154.43" y1="52.74" x2="154.96" y2="60.96" xlink:href="#linear-gradient"/><linearGradient id="linear-gradient-54" x1="156.59" y1="54.58" x2="156.98" y2="60.6" xlink:href="#linear-gradient"/><linearGradient id="linear-gradient-55" x1="158.56" y1="51.67" x2="159.17" y2="60.92" xlink:href="#linear-gradient"/><linearGradient id="linear-gradient-56" x1="160.6" y1="50.68" x2="161.28" y2="60.94" xlink:href="#linear-gradient"/><linearGradient id="linear-gradient-57" x1="131.37" y1="65.04" x2="157" y2="79.41" xlink:href="#linear-gradient-3"/><linearGradient id="linear-gradient-58" x1="126.71" y1="69.62" x2="127.35" y2="79.46" xlink:href="#linear-gradient"/><linearGradient id="linear-gradient-59" x1="129.07" y1="75.7" x2="129.15" y2="76.97" xlink:href="#linear-gradient"/><linearGradient id="linear-gradient-60" x1="131.1" y1="71.65" x2="131.55" y2="78.4" gradientTransform="translate(0.27 -0.47) rotate(0.21)" xlink:href="#linear-gradient"/><linearGradient id="linear-gradient-61" x1="133.35" y1="74.39" x2="133.54" y2="77.35" xlink:href="#linear-gradient"/><linearGradient id="linear-gradient-62" x1="135.39" y1="70.96" x2="135.88" y2="78.39" gradientTransform="translate(0.27 -0.49) rotate(0.21)" xlink:href="#linear-gradient"/><linearGradient id="linear-gradient-63" x1="137.59" y1="72.63" x2="137.93" y2="77.77" xlink:href="#linear-gradient"/><linearGradient id="linear-gradient-64" x1="139.63" y1="69.67" x2="140.21" y2="78.52" gradientTransform="translate(0.26 -0.5) rotate(0.21)" xlink:href="#linear-gradient"/><linearGradient id="linear-gradient-65" x1="141.73" y1="68.85" x2="142.37" y2="78.6" xlink:href="#linear-gradient"/><linearGradient id="linear-gradient-66" x1="143.99" y1="72.61" x2="144.31" y2="77.53" xlink:href="#linear-gradient"/><linearGradient id="linear-gradient-67" x1="145.95" y1="67.9" x2="146.64" y2="78.52" xlink:href="#linear-gradient"/><linearGradient id="linear-gradient-68" x1="148.1" y1="69.07" x2="148.7" y2="78.12" gradientTransform="translate(0.26 -0.53) rotate(0.21)" xlink:href="#linear-gradient"/><linearGradient id="linear-gradient-69" x1="150.4" y1="74.45" x2="150.57" y2="76.94" xlink:href="#linear-gradient"/><linearGradient id="linear-gradient-70" x1="152.41" y1="71.67" x2="152.78" y2="77.39" gradientTransform="translate(0.27 -0.55) rotate(0.21)" xlink:href="#linear-gradient"/><linearGradient id="linear-gradient-71" x1="154.43" y1="69.47" x2="154.96" y2="77.67" gradientTransform="translate(0.27 -0.56) rotate(0.21)" xlink:href="#linear-gradient"/><linearGradient id="linear-gradient-72" x1="156.59" y1="71.29" x2="156.98" y2="77.28" gradientTransform="translate(0.27 -0.56) rotate(0.21)" xlink:href="#linear-gradient"/><linearGradient id="linear-gradient-73" x1="158.56" y1="68.35" x2="159.17" y2="77.59" xlink:href="#linear-gradient"/><linearGradient id="linear-gradient-74" x1="160.6" y1="67.34" x2="161.28" y2="77.58" xlink:href="#linear-gradient"/><linearGradient id="linear-gradient-75" x1="131.44" y1="81.92" x2="156.93" y2="96.21" xlink:href="#linear-gradient-3"/><linearGradient id="linear-gradient-76" x1="126.71" y1="86.65" x2="127.35" y2="96.47" xlink:href="#linear-gradient"/><linearGradient id="linear-gradient-77" x1="129.07" y1="92.7" x2="129.15" y2="93.96" xlink:href="#linear-gradient"/><linearGradient id="linear-gradient-78" x1="131.1" y1="88.63" x2="131.54" y2="95.36" xlink:href="#linear-gradient"/><linearGradient id="linear-gradient-79" x1="133.35" y1="91.35" x2="133.54" y2="94.29" xlink:href="#linear-gradient"/><linearGradient id="linear-gradient-80" x1="135.39" y1="87.9" x2="135.88" y2="95.31" xlink:href="#linear-gradient"/><linearGradient id="linear-gradient-81" x1="137.59" y1="89.54" x2="137.93" y2="94.67" xlink:href="#linear-gradient"/><linearGradient id="linear-gradient-82" x1="139.63" y1="86.56" x2="140.21" y2="95.39" xlink:href="#linear-gradient"/><linearGradient id="linear-gradient-83" x1="141.73" y1="85.72" x2="142.37" y2="95.45" xlink:href="#linear-gradient"/><linearGradient id="linear-gradient-84" x1="143.99" y1="89.46" x2="144.31" y2="94.35" xlink:href="#linear-gradient"/><linearGradient id="linear-gradient-85" x1="145.95" y1="84.72" x2="146.64" y2="95.32" xlink:href="#linear-gradient"/><linearGradient id="linear-gradient-86" x1="148.1" y1="85.86" x2="148.7" y2="94.9" xlink:href="#linear-gradient"/><linearGradient id="linear-gradient-87" x1="150.41" y1="91.22" x2="150.57" y2="93.7" xlink:href="#linear-gradient"/><linearGradient id="linear-gradient-88" x1="152.41" y1="88.42" x2="152.78" y2="94.13" xlink:href="#linear-gradient"/><linearGradient id="linear-gradient-89" x1="154.43" y1="86.2" x2="154.96" y2="94.38" xlink:href="#linear-gradient"/><linearGradient id="linear-gradient-90" x1="156.59" y1="87.99" x2="156.98" y2="93.97" xlink:href="#linear-gradient"/><linearGradient id="linear-gradient-91" x1="158.56" y1="85.03" x2="159.17" y2="94.25" xlink:href="#linear-gradient"/><linearGradient id="linear-gradient-92" x1="160.61" y1="84" x2="161.28" y2="94.22" xlink:href="#linear-gradient"/><linearGradient id="linear-gradient-93" x1="131.5" y1="98.8" x2="156.86" y2="113" xlink:href="#linear-gradient-3"/><linearGradient id="linear-gradient-94" x1="126.71" y1="103.68" x2="127.35" y2="113.49" xlink:href="#linear-gradient"/><linearGradient id="linear-gradient-95" x1="129.07" y1="109.71" x2="129.15" y2="110.95" xlink:href="#linear-gradient"/><linearGradient id="linear-gradient-96" x1="131.1" y1="105.62" x2="131.54" y2="112.33" xlink:href="#linear-gradient"/><linearGradient id="linear-gradient-97" x1="133.35" y1="108.31" x2="133.54" y2="111.24" xlink:href="#linear-gradient"/><linearGradient id="linear-gradient-98" x1="135.39" y1="104.84" x2="135.87" y2="112.23" xlink:href="#linear-gradient"/><linearGradient id="linear-gradient-99" x1="137.59" y1="106.45" x2="137.93" y2="111.56" xlink:href="#linear-gradient"/><linearGradient id="linear-gradient-100" x1="139.63" y1="103.45" x2="140.21" y2="112.26" xlink:href="#linear-gradient"/><linearGradient id="linear-gradient-101" x1="141.73" y1="102.59" x2="142.37" y2="112.29" xlink:href="#linear-gradient"/><linearGradient id="linear-gradient-102" x1="143.99" y1="106.3" x2="144.31" y2="111.18" xlink:href="#linear-gradient"/><linearGradient id="linear-gradient-103" x1="145.95" y1="101.54" x2="146.64" y2="112.13" xlink:href="#linear-gradient"/><linearGradient id="linear-gradient-104" x1="148.1" y1="102.66" x2="148.69" y2="111.68" xlink:href="#linear-gradient"/><linearGradient id="linear-gradient-105" x1="150.41" y1="107.99" x2="150.57" y2="110.45" xlink:href="#linear-gradient"/><linearGradient id="linear-gradient-106" x1="152.41" y1="105.17" x2="152.78" y2="110.86" xlink:href="#linear-gradient"/><linearGradient id="linear-gradient-107" x1="154.43" y1="102.93" x2="154.96" y2="111.09" xlink:href="#linear-gradient"/><linearGradient id="linear-gradient-108" x1="156.59" y1="104.7" x2="156.98" y2="110.66" xlink:href="#linear-gradient"/><linearGradient id="linear-gradient-109" x1="158.56" y1="101.72" x2="159.17" y2="110.91" xlink:href="#linear-gradient"/><linearGradient id="linear-gradient-110" x1="160.61" y1="100.66" x2="161.27" y2="110.86" xlink:href="#linear-gradient"/><linearGradient id="linear-gradient-111" x1="131.57" y1="115.67" x2="156.79" y2="129.8" xlink:href="#linear-gradient-3"/><linearGradient id="linear-gradient-112" x1="126.71" y1="120.71" x2="127.35" y2="130.5" xlink:href="#linear-gradient"/><linearGradient id="linear-gradient-113" x1="129.07" y1="126.72" x2="129.15" y2="127.94" xlink:href="#linear-gradient"/><linearGradient id="linear-gradient-114" x1="131.1" y1="122.6" x2="131.54" y2="129.3" xlink:href="#linear-gradient"/><linearGradient id="linear-gradient-115" x1="133.35" y1="125.27" x2="133.54" y2="128.18" xlink:href="#linear-gradient"/><linearGradient id="linear-gradient-116" x1="135.39" y1="121.77" x2="135.87" y2="129.15" xlink:href="#linear-gradient"/><linearGradient id="linear-gradient-117" x1="137.59" y1="123.36" x2="137.92" y2="128.46" xlink:href="#linear-gradient"/><linearGradient id="linear-gradient-118" x1="139.63" y1="120.33" x2="140.21" y2="129.14" xlink:href="#linear-gradient"/><linearGradient id="linear-gradient-119" x1="141.74" y1="119.45" x2="142.37" y2="129.14" xlink:href="#linear-gradient"/><linearGradient id="linear-gradient-120" x1="143.99" y1="123.14" x2="144.31" y2="128" xlink:href="#linear-gradient"/><linearGradient id="linear-gradient-121" x1="145.95" y1="118.36" x2="146.64" y2="128.93" xlink:href="#linear-gradient"/><linearGradient id="linear-gradient-122" x1="148.1" y1="119.46" x2="148.69" y2="128.46" xlink:href="#linear-gradient"/><linearGradient id="linear-gradient-123" x1="150.41" y1="124.77" x2="150.57" y2="127.21" xlink:href="#linear-gradient"/><linearGradient id="linear-gradient-124" x1="152.41" y1="121.92" x2="152.78" y2="127.59" xlink:href="#linear-gradient"/><linearGradient id="linear-gradient-125" x1="154.43" y1="119.65" x2="154.96" y2="127.8" xlink:href="#linear-gradient"/><linearGradient id="linear-gradient-126" x1="156.59" y1="121.4" x2="156.98" y2="127.34" xlink:href="#linear-gradient"/><linearGradient id="linear-gradient-127" x1="158.56" y1="118.4" x2="159.17" y2="127.58" xlink:href="#linear-gradient"/><linearGradient id="linear-gradient-128" x1="160.61" y1="117.32" x2="161.27" y2="127.5" xlink:href="#linear-gradient"/><linearGradient id="linear-gradient-129" x1="131.64" y1="132.55" x2="156.72" y2="146.6" xlink:href="#linear-gradient-3"/><linearGradient id="linear-gradient-130" x1="126.71" y1="137.74" x2="127.35" y2="147.51" xlink:href="#linear-gradient"/><linearGradient id="linear-gradient-131" x1="129.07" y1="143.73" x2="129.15" y2="144.93" xlink:href="#linear-gradient"/><linearGradient id="linear-gradient-132" x1="131.1" y1="139.59" x2="131.54" y2="146.26" xlink:href="#linear-gradient"/><linearGradient id="linear-gradient-133" x1="133.35" y1="142.23" x2="133.54" y2="145.12" xlink:href="#linear-gradient"/><linearGradient id="linear-gradient-134" x1="135.39" y1="138.71" x2="135.87" y2="146.07" xlink:href="#linear-gradient"/><linearGradient id="linear-gradient-135" x1="137.59" y1="140.28" x2="137.92" y2="145.36" xlink:href="#linear-gradient"/><linearGradient id="linear-gradient-136" x1="139.63" y1="137.22" x2="140.21" y2="146.01" xlink:href="#linear-gradient"/><linearGradient id="linear-gradient-137" x1="141.74" y1="136.32" x2="142.37" y2="145.99" xlink:href="#linear-gradient"/><linearGradient id="linear-gradient-138" x1="143.99" y1="139.99" x2="144.31" y2="144.83" xlink:href="#linear-gradient"/><linearGradient id="linear-gradient-139" x1="145.95" y1="135.17" x2="146.64" y2="145.73" xlink:href="#linear-gradient"/><linearGradient id="linear-gradient-140" x1="148.1" y1="136.25" x2="148.69" y2="145.24" xlink:href="#linear-gradient"/><linearGradient id="linear-gradient-141" x1="150.41" y1="141.54" x2="150.57" y2="143.97" xlink:href="#linear-gradient"/><linearGradient id="linear-gradient-142" x1="152.41" y1="138.67" x2="152.78" y2="144.33" xlink:href="#linear-gradient"/><linearGradient id="linear-gradient-143" x1="154.43" y1="136.38" x2="154.96" y2="144.51" xlink:href="#linear-gradient"/><linearGradient id="linear-gradient-144" x1="156.59" y1="138.1" x2="156.98" y2="144.03" xlink:href="#linear-gradient"/><linearGradient id="linear-gradient-145" x1="158.57" y1="135.08" x2="159.17" y2="144.24" xlink:href="#linear-gradient"/><linearGradient id="linear-gradient-146" x1="160.61" y1="133.97" x2="161.27" y2="144.14" xlink:href="#linear-gradient"/><linearGradient id="linear-gradient-147" x1="99.78" y1="210.29" x2="84.63" y2="216.65" gradientUnits="userSpaceOnUse"><stop offset="0" stop-color="#40447e"/><stop offset="1" stop-color="#3c3b6b"/></linearGradient><linearGradient id="linear-gradient-148" x1="75.13" y1="142.93" x2="59.42" y2="149.53" xlink:href="#linear-gradient-147"/><linearGradient id="linear-gradient-149" x1="8.7" y1="146.74" x2="151.85" y2="146.74" xlink:href="#linear-gradient-147"/><linearGradient id="linear-gradient-150" x1="14.57" y1="145.77" x2="147.01" y2="145.77" gradientUnits="userSpaceOnUse"><stop offset="0" stop-color="#aa80f9"/><stop offset="1" stop-color="#6165d7"/></linearGradient><linearGradient id="linear-gradient-151" x1="8.7" y1="203.6" x2="224.35" y2="203.6" xlink:href="#linear-gradient-147"/><linearGradient id="linear-gradient-152" x1="29.84" y1="201.81" x2="187.85" y2="201.81" xlink:href="#linear-gradient-147"/><linearGradient id="linear-gradient-153" x1="264.73" y1="178.26" x2="131.78" y2="140.63" gradientUnits="userSpaceOnUse"><stop offset="0" stop-color="#ffc444"/><stop offset="1" stop-color="#f36f56"/></linearGradient><linearGradient id="linear-gradient-154" x1="264.38" y1="179.49" x2="131.43" y2="141.87" xlink:href="#linear-gradient-153"/><linearGradient id="linear-gradient-155" x1="128.29" y1="94.24" x2="130.37" y2="262.13" xlink:href="#linear-gradient-153"/><linearGradient id="linear-gradient-156" x1="7028.56" y1="91.92" x2="7032.27" y2="91.92" gradientTransform="matrix(-1, 0, 0, 1, 7175.48, 0)" gradientUnits="userSpaceOnUse"><stop offset="0" stop-color="#311944"/><stop offset="1" stop-color="#893976"/></linearGradient><linearGradient id="linear-gradient-157" x1="2870.63" y1="188.07" x2="2872.08" y2="206.56" gradientTransform="translate(-2691.46)" gradientUnits="userSpaceOnUse"><stop offset="0" stop-color="#311944"/><stop offset="1" stop-color="#a03976"/></linearGradient><linearGradient id="linear-gradient-158" x1="2874.38" y1="198.36" x2="2874.11" y2="179.21" gradientTransform="translate(-2691.46)" xlink:href="#linear-gradient-153"/><linearGradient id="linear-gradient-159" x1="2898.08" y1="185.91" x2="2899.54" y2="204.4" xlink:href="#linear-gradient-157"/><linearGradient id="linear-gradient-160" x1="2899.54" y1="198.01" x2="2899.28" y2="178.86" gradientTransform="translate(-2691.46)" xlink:href="#linear-gradient-153"/><linearGradient id="linear-gradient-161" x1="2869.81" y1="167.33" x2="2883.97" y2="167.33" gradientTransform="translate(-2691.46)" gradientUnits="userSpaceOnUse"><stop offset="0" stop-color="#444b8c"/><stop offset="1" stop-color="#3e4177"/></linearGradient><linearGradient id="linear-gradient-162" x1="2869.81" y1="167.33" x2="2883.97" y2="167.33" xlink:href="#linear-gradient-161"/><linearGradient id="linear-gradient-163" x1="2873.74" y1="165.94" x2="2902.25" y2="165.94" xlink:href="#linear-gradient-161"/><linearGradient id="linear-gradient-164" x1="6994.91" y1="102.38" x2="6996.52" y2="114.96" xlink:href="#linear-gradient-156"/><linearGradient id="linear-gradient-165" x1="6995.82" y1="99.93" x2="6995.11" y2="91.36" gradientTransform="matrix(-1, 0, 0, 1, 7175.48, 0)" gradientUnits="userSpaceOnUse"><stop offset="0" stop-color="#26264f"/><stop offset="1" stop-color="#444b8c"/></linearGradient><linearGradient id="linear-gradient-166" x1="6991.38" y1="94.36" x2="6997.99" y2="101.32" xlink:href="#linear-gradient-156"/><linearGradient id="linear-gradient-167" x1="7005.18" y1="161.21" x2="6999.18" y2="103.42" gradientTransform="matrix(-1, 0, 0, 1, 7175.48, 0)" gradientUnits="userSpaceOnUse"><stop offset="0" stop-color="#53d8ff"/><stop offset="1" stop-color="#3840f7"/></linearGradient><linearGradient id="linear-gradient-168" x1="6986.79" y1="163.27" x2="6980.73" y2="104.92" gradientTransform="matrix(-1, 0, 0, 1, 7175.48, 0)" xlink:href="#linear-gradient-150"/></defs><g class="cls-4"><g id="Illustration"><g id="Database"><path class="cls-5" d="M149.94,18a174.51,174.51,0,0,0-47-3.84C89,15,73.29,17.43,62.13,26.1c-5.32,4.13-11.67,11.55-13.41,18.1,0,0-9.16,34.48-27.47,41.87s-31,133.48,107.87,121.17c0,0,81.59-3.23,86.5-96.17,1.19-22.45.53-47.13-13.69-65.91C191,30.77,175.77,24.38,158.23,19.9,155.49,19.2,152.72,18.55,149.94,18Z"/><path class="cls-6" d="M79.66,142.13c2.8-8.53,5.65-21.55,2.31-36C78.15,89.52,69.66,86.2,62,68.46,51.17,43.12,63.48,24.78,52.22,17c-5.49-3.77-14.12-3.77-19.44,0C17.6,27.86,21.76,75,45.85,93.35c10.89,8.31,20.4,7.32,28.58,18.08C81.65,120.94,81.08,133.48,79.66,142.13Z"/><g class="cls-7"><g class="cls-8"><path class="cls-3" d="M81.37,120.67a65.29,65.29,0,0,0-3.64-10.48c-3.47-7.73-7.29-12-12.13-17.37A152.08,152.08,0,0,1,54.72,79.61C47,68.92,44.57,65.17,42.42,59.11a59.76,59.76,0,0,1-2.84-28A58.24,58.24,0,0,1,47.13,9.66l.23.14a58.06,58.06,0,0,0-7.51,21.31A59.55,59.55,0,0,0,42.67,59c2.15,6,4.54,9.76,12.27,20.43A149.86,149.86,0,0,0,65.8,92.64c4.86,5.4,8.69,9.67,12.18,17.44a65.81,65.81,0,0,1,3.66,10.52Z"/><path class="cls-3" d="M40.34,50.65l-.2-.1A32,32,0,0,1,31.6,43a28.91,28.91,0,0,1-5.84-23.45l.27.05a28.62,28.62,0,0,0,5.78,23.22,31.85,31.85,0,0,0,8.26,7.35c.25-8.76,5.87-14.43,10.56-17.66a38.68,38.68,0,0,1,10.32-5l.07.26a38.67,38.67,0,0,0-10.24,4.95C46.1,36,40.5,41.66,40.34,50.43Z"/><path class="cls-3" d="M41.62,78.83a23.7,23.7,0,0,1-14.83-5l.17-.22C38,82.28,51.21,77,52.51,76.46c-2.23-8.65-.26-15,1.8-18.86a20.93,20.93,0,0,1,5.1-6.35l.17.22a20.46,20.46,0,0,0-5,6.27c-2,3.8-4,10.15-1.74,18.77l0,.11-.11,0A29.87,29.87,0,0,1,41.62,78.83Z"/><path class="cls-3" d="M51.76,95.33A35.53,35.53,0,0,1,39.52,93l.09-.25c15.57,5.68,23.88-.69,24.73-1.4-3.78-8.86,1.55-23.19,1.6-23.33l.26.1c0,.14-5.39,14.47-1.57,23.22l0,.09-.07.06C64.54,91.52,60.22,95.33,51.76,95.33Z"/></g></g><path class="cls-9" d="M84.53,131.84c.89-5.37,1.4-13.75-3-21.25C73.94,97.5,60,101.84,46.73,87.82,36,76.52,39.38,67.73,27.49,60.22,25.5,59,15,52,7.17,56.21c-4.41,2.34-6,7.17-6.31,8.07C-3.67,78,10.27,99.39,28.43,109.19c10.44,5.62,13.81,3.79,32.18,10.35A103.58,103.58,0,0,1,84.53,131.84Z"/><g class="cls-7"><g class="cls-10"><path class="cls-3" d="M86.07,138.31c-2.66-12.77-7.69-21.34-15-25.48a21.85,21.85,0,0,0-9.37-2.67,24.23,24.23,0,0,1-11.14-3.47c-4.36-2.63-5.92-5.17-7.89-8.37a50.73,50.73,0,0,0-8.83-11.11A53.47,53.47,0,0,0,23.7,79.43a25.71,25.71,0,0,1-8.17-7C11,66.54,8.66,59,8.52,49.94h.27c.14,9,2.48,16.49,7,22.35a25.77,25.77,0,0,0,8.1,6.92A54.1,54.1,0,0,1,34.07,87a50.74,50.74,0,0,1,8.87,11.17c2,3.17,3.5,5.68,7.8,8.28a23.88,23.88,0,0,0,11,3.42,22.07,22.07,0,0,1,9.48,2.72c7.33,4.17,12.41,12.81,15.08,25.65Z"/><path class="cls-3" d="M23.86,80.22A35,35,0,0,1,3.3,73.57,33,33,0,0,1-4,66.5l.22-.16a32.72,32.72,0,0,0,7.26,7,34.64,34.64,0,0,0,21.32,6.58c-.58-1.88-5.45-18.35.85-25.41l.2.18c-6.55,7.35-.79,25.14-.73,25.32l.05.17H25Z"/><path class="cls-3" d="M23.14,95.4A41,41,0,0,1,1.92,89.59l.14-.24a41.09,41.09,0,0,0,25.23,5.57,41.18,41.18,0,0,0,11.33-2.65c-2.53-9.33-.28-22.5-.26-22.63l.27,0c0,.13-2.28,13.34.28,22.62l0,.12-.1,0a40.66,40.66,0,0,1-11.52,2.72A41.11,41.11,0,0,1,23.14,95.4Z"/><path class="cls-3" d="M31.24,117.07l-1.38,0v-.27a56.94,56.94,0,0,0,21.38-3.48,36.41,36.41,0,0,0,7.4-3.69c-7-8.71-4.26-22.92-4.23-23.06l.26,0c0,.14-2.77,14.35,4.27,23l.09.11-.11.08C58.82,109.82,48.75,117.07,31.24,117.07Z"/></g></g><g class="cls-7"><path class="cls-2" d="M84.72,127.28a58.15,58.15,0,0,0-14.45-7.58c-11.69-4.15-17-1.7-22-6.65-5.13-5.11-1.81-10.15-7.94-15.87-.52-.48-7.11-6.46-13.07-4.23-4.17,1.55-5.79,6.29-6.55,8.51-3,8.63-1.24,21.77,8,28.25,8.72,6.15,19.77,3.22,23.28,2.26,6.15-1.67,7.6-4.07,13.86-5.59A35.76,35.76,0,0,1,84.72,127.28Z"/><g class="cls-11"><path class="cls-3" d="M87.15,129.25c-7.23-5.29-14.28-7.78-21-7.41a26.08,26.08,0,0,0-6.95,1.45,22.66,22.66,0,0,1-8.85,1.38c-7.11-.29-13.18-2.71-17.09-6.8-6.06-6.33-7.4-16.94-3.43-27l.26.1c-3.94,10-2.62,20.49,3.37,26.74,3.86,4,9.86,6.43,16.9,6.72A22.66,22.66,0,0,0,59.16,123a26.06,26.06,0,0,1,7-1.46c6.75-.38,13.86,2.13,21.14,7.46Z"/><path class="cls-3" d="M30.62,113.84l-.2-.07c-.11,0-11.64-4.26-12.35-13.2l.27,0c.65,8.12,10.46,12.28,12,12.88-.69-11.52,13.22-17.88,13.37-17.94l.11.25c-.14.06-14.06,6.42-13.19,17.89Z"/><path class="cls-3" d="M32.8,127.47A31.43,31.43,0,0,1,17.15,123l.14-.24c8.56,4.88,15.62,4.89,20,4a20.18,20.18,0,0,0,7.46-2.94c-6.68-9.4,1.47-20.54,1.55-20.66l.22.17c-.08.11-8.17,11.19-1.47,20.44l.08.1-.1.09a20.1,20.1,0,0,1-7.69,3.07A24.38,24.38,0,0,1,32.8,127.47Z"/></g></g><path class="cls-12" d="M68.74,16V150.61a3,3,0,0,0,2.36,2.89l34.58,7,9.42-89.13L106,8.52,71.31,13.06A3,3,0,0,0,68.74,16Z"/><path class="cls-13" d="M167.11,10.94,106.22,8.5a4,4,0,0,0-4.35,3.81V156.74a3.91,3.91,0,0,0,4.35,3.74L167.11,157a4.2,4.2,0,0,0,4-4v-138A4.11,4.11,0,0,0,167.11,10.94Z"/><path class="cls-3" d="M106.07,25.38V15.16a2.84,2.84,0,0,1,3.09-2.71l55.23,2.07a2.93,2.93,0,0,1,2.86,2.83v9.82a2.69,2.69,0,0,1-2.86,2.64L109.16,28.3A3.08,3.08,0,0,1,106.07,25.38Z"/><path class="cls-13" d="M111.83,16.31a1.31,1.31,0,0,1-1.43,1.25A1.42,1.42,0,0,1,109,16.21,1.31,1.31,0,0,1,110.4,15,1.44,1.44,0,0,1,111.83,16.31Z"/><path class="cls-13" d="M116.32,16.46a1.32,1.32,0,0,1-1.42,1.26,1.42,1.42,0,0,1-1.41-1.35,1.31,1.31,0,0,1,1.41-1.26A1.43,1.43,0,0,1,116.32,16.46Z"/><path class="cls-13" d="M120.78,16.62a1.3,1.3,0,0,1-1.4,1.25A1.42,1.42,0,0,1,118,16.52a1.3,1.3,0,0,1,1.41-1.25A1.42,1.42,0,0,1,120.78,16.62Z"/><polygon class="cls-14" points="164.13 27.35 123.59 26.17 123.59 15.43 164.13 16.89 164.13 27.35"/><g class="cls-15"><polygon class="cls-3" points="127.53 25.53 126.31 25.49 126.31 16.82 127.53 16.86 127.53 25.53"/><polygon class="cls-3" points="129.71 25.59 128.49 25.55 128.49 16.89 129.71 16.94 129.71 25.59"/><polygon class="cls-3" points="131.87 25.65 130.65 25.62 130.65 16.97 131.87 17.01 131.87 25.65"/><polygon class="cls-3" points="134.03 25.72 132.81 25.68 132.81 17.05 134.03 17.09 134.03 25.72"/><polygon class="cls-3" points="136.18 25.78 134.97 25.75 134.97 17.12 136.18 17.16 136.18 25.78"/><polygon class="cls-3" points="138.32 25.84 137.12 25.81 137.12 17.2 138.32 17.24 138.32 25.84"/><polygon class="cls-3" points="140.46 25.91 139.26 25.87 139.26 17.27 140.46 17.31 140.46 25.91"/><polygon class="cls-3" points="142.6 25.97 141.4 25.94 141.4 17.35 142.6 17.39 142.6 25.97"/><polygon class="cls-3" points="144.72 26.03 143.53 26 143.53 17.42 144.72 17.46 144.72 26.03"/><polygon class="cls-3" points="146.85 26.1 145.65 26.06 145.65 17.5 146.85 17.54 146.85 26.1"/><polygon class="cls-3" points="148.96 26.16 147.77 26.12 147.77 17.57 148.96 17.61 148.96 26.16"/><polygon class="cls-3" points="151.07 26.22 149.89 26.19 149.89 17.65 151.07 17.69 151.07 26.22"/><polygon class="cls-3" points="153.18 26.28 151.99 26.25 151.99 17.72 153.18 17.76 153.18 26.28"/><polygon class="cls-3" points="155.28 26.35 154.1 26.31 154.1 17.79 155.28 17.84 155.28 26.35"/><polygon class="cls-3" points="157.37 26.41 156.19 26.37 156.19 17.87 157.37 17.91 157.37 26.41"/><polygon class="cls-3" points="159.46 26.47 158.28 26.43 158.28 17.94 159.46 17.98 159.46 26.47"/><polygon class="cls-3" points="161.54 26.53 160.37 26.5 160.37 18.01 161.54 18.05 161.54 26.53"/></g><g class="cls-16"><polygon class="cls-17" points="127.53 25.53 126.31 25.49 126.31 18.11 127.53 18.15 127.53 25.53"/><polygon class="cls-18" points="129.71 25.59 128.49 25.55 128.49 24.67 129.71 24.7 129.71 25.59"/><polygon class="cls-19" points="131.87 25.65 130.65 25.62 130.65 20.58 131.87 20.62 131.87 25.65"/><polygon class="cls-20" points="134.03 25.72 132.81 25.68 132.81 23.51 134.03 23.55 134.03 25.72"/><polygon class="cls-21" points="136.18 25.78 134.97 25.75 134.97 20.19 136.18 20.23 136.18 25.78"/><polygon class="cls-22" points="138.32 25.84 137.12 25.81 137.12 21.98 138.32 22.02 138.32 25.84"/><polygon class="cls-23" points="140.46 25.91 139.26 25.87 139.26 19.24 140.46 19.28 140.46 25.91"/><polygon class="cls-24" points="142.6 25.97 141.4 25.94 141.4 18.63 142.6 18.67 142.6 25.97"/><polygon class="cls-25" points="144.72 26.03 143.53 26 143.53 22.35 144.72 22.39 144.72 26.03"/><polygon class="cls-26" points="146.85 26.1 145.65 26.06 145.65 18.08 146.85 18.13 146.85 26.1"/><polygon class="cls-27" points="148.96 26.16 147.77 26.12 147.77 19.34 148.96 19.38 148.96 26.16"/><polygon class="cls-28" points="151.07 26.22 149.89 26.19 149.89 24.37 151.07 24.41 151.07 26.22"/><polygon class="cls-29" points="153.18 26.28 151.99 26.25 151.99 21.98 153.18 22.02 153.18 26.28"/><polygon class="cls-30" points="155.28 26.35 154.1 26.31 154.1 20.17 155.28 20.21 155.28 26.35"/><polygon class="cls-31" points="157.37 26.41 156.19 26.37 156.19 21.9 157.37 21.94 157.37 26.41"/><polygon class="cls-32" points="159.46 26.47 158.28 26.43 158.28 19.51 159.46 19.55 159.46 26.47"/><polygon class="cls-33" points="161.54 26.53 160.37 26.5 160.37 18.81 161.54 18.85 161.54 26.53"/></g><path class="cls-3" d="M106.07,42.64V32.42a2.89,2.89,0,0,1,3.09-2.75l55.23,1.47a2.88,2.88,0,0,1,2.86,2.79v9.82a2.74,2.74,0,0,1-2.86,2.68l-55.23-.91A3,3,0,0,1,106.07,42.64Z"/><path class="cls-13" d="M111.83,33.5a1.33,1.33,0,0,1-1.43,1.27A1.41,1.41,0,0,1,109,33.43a1.33,1.33,0,0,1,1.42-1.27A1.41,1.41,0,0,1,111.83,33.5Z"/><path class="cls-13" d="M116.32,33.61a1.34,1.34,0,0,1-1.42,1.27,1.4,1.4,0,0,1-1.41-1.34,1.32,1.32,0,0,1,1.41-1.27A1.41,1.41,0,0,1,116.32,33.61Z"/><path class="cls-13" d="M120.78,33.72a1.32,1.32,0,0,1-1.4,1.26A1.39,1.39,0,0,1,118,33.65a1.32,1.32,0,0,1,1.41-1.27A1.4,1.4,0,0,1,120.78,33.72Z"/><polygon class="cls-34" points="164.13 43.96 123.59 43.23 123.59 32.49 164.13 33.5 164.13 43.96"/><g class="cls-15"><polygon class="cls-3" points="127.53 42.55 126.31 42.52 126.31 33.85 127.53 33.88 127.53 42.55"/><polygon class="cls-3" points="129.71 42.59 128.49 42.56 128.49 33.9 129.71 33.93 129.71 42.59"/><polygon class="cls-3" points="131.87 42.63 130.65 42.6 130.65 33.95 131.87 33.98 131.87 42.63"/><polygon class="cls-3" points="134.03 42.66 132.81 42.64 132.81 34.01 134.03 34.03 134.03 42.66"/><polygon class="cls-3" points="136.18 42.7 134.97 42.68 134.97 34.06 136.18 34.09 136.18 42.7"/><polygon class="cls-3" points="138.32 42.74 137.12 42.72 137.12 34.11 138.32 34.14 138.32 42.74"/><polygon class="cls-3" points="140.46 42.78 139.26 42.76 139.26 34.16 140.46 34.19 140.46 42.78"/><polygon class="cls-3" points="142.6 42.82 141.4 42.8 141.4 34.21 142.6 34.24 142.6 42.82"/><polygon class="cls-3" points="144.72 42.86 143.53 42.84 143.53 34.26 144.72 34.29 144.72 42.86"/><polygon class="cls-3" points="146.85 42.9 145.65 42.88 145.65 34.31 146.85 34.34 146.85 42.9"/><polygon class="cls-3" points="148.96 42.94 147.77 42.92 147.77 34.37 148.96 34.4 148.96 42.94"/><polygon class="cls-3" points="151.07 42.98 149.89 42.96 149.89 34.42 151.07 34.45 151.07 42.98"/><polygon class="cls-3" points="153.18 43.02 151.99 43 151.99 34.47 153.18 34.5 153.18 43.02"/><polygon class="cls-3" points="155.28 43.06 154.1 43.04 154.1 34.52 155.28 34.55 155.28 43.06"/><polygon class="cls-3" points="157.37 43.1 156.19 43.08 156.19 34.57 157.37 34.6 157.37 43.1"/><polygon class="cls-3" points="159.46 43.14 158.28 43.11 158.28 34.62 159.46 34.65 159.46 43.14"/><polygon class="cls-3" points="161.54 43.17 160.37 43.15 160.37 34.67 161.54 34.7 161.54 43.17"/></g><g class="cls-16"><polygon class="cls-35" points="127.53 42.55 126.31 42.52 126.31 35.14 127.53 35.17 127.53 42.55"/><polygon class="cls-36" points="129.71 42.59 128.49 42.56 128.49 41.67 129.71 41.7 129.71 42.59"/><polygon class="cls-37" points="131.87 42.63 130.65 42.6 130.65 37.56 131.87 37.59 131.87 42.63"/><polygon class="cls-38" points="134.03 42.66 132.81 42.64 132.81 40.47 134.03 40.49 134.03 42.66"/><polygon class="cls-39" points="136.18 42.7 134.97 42.68 134.97 37.13 136.18 37.15 136.18 42.7"/><polygon class="cls-40" points="138.32 42.74 137.12 42.72 137.12 38.9 138.32 38.92 138.32 42.74"/><polygon class="cls-41" points="140.46 42.78 139.26 42.76 139.26 36.13 140.46 36.15 140.46 42.78"/><polygon class="cls-42" points="142.6 42.82 141.4 42.8 141.4 35.49 142.6 35.52 142.6 42.82"/><polygon class="cls-43" points="144.72 42.86 143.53 42.84 143.53 39.19 144.72 39.22 144.72 42.86"/><polygon class="cls-44" points="146.85 42.9 145.65 42.88 145.65 34.9 146.85 34.93 146.85 42.9"/><polygon class="cls-45" points="148.96 42.94 147.77 42.92 147.77 36.13 148.96 36.16 148.96 42.94"/><polygon class="cls-46" points="151.07 42.98 149.89 42.96 149.89 41.14 151.07 41.16 151.07 42.98"/><polygon class="cls-47" points="153.18 43.02 151.99 43 151.99 38.73 153.18 38.76 153.18 43.02"/><polygon class="cls-48" points="155.28 43.06 154.1 43.04 154.1 36.9 155.28 36.92 155.28 43.06"/><polygon class="cls-49" points="157.37 43.1 156.19 43.08 156.19 38.6 157.37 38.63 157.37 43.1"/><polygon class="cls-50" points="159.46 43.14 158.28 43.11 158.28 36.19 159.46 36.22 159.46 43.14"/><polygon class="cls-51" points="161.54 43.17 160.37 43.15 160.37 35.47 161.54 35.49 161.54 43.17"/></g><path class="cls-3" d="M106.07,59.9V49.68a2.92,2.92,0,0,1,3.09-2.79l55.23.86a2.84,2.84,0,0,1,2.86,2.76v9.82A2.78,2.78,0,0,1,164.39,63l-55.23-.3A3,3,0,0,1,106.07,59.9Z"/><path class="cls-13" d="M111.83,50.69A1.35,1.35,0,0,1,110.4,52,1.39,1.39,0,0,1,109,50.65a1.34,1.34,0,0,1,1.42-1.28A1.39,1.39,0,0,1,111.83,50.69Z"/><path class="cls-13" d="M116.32,50.75A1.34,1.34,0,0,1,114.9,52a1.38,1.38,0,0,1-1.41-1.32,1.33,1.33,0,0,1,1.41-1.28A1.39,1.39,0,0,1,116.32,50.75Z"/><path class="cls-13" d="M120.78,50.81a1.33,1.33,0,0,1-1.4,1.28A1.38,1.38,0,0,1,118,50.77a1.33,1.33,0,0,1,1.41-1.28A1.38,1.38,0,0,1,120.78,50.81Z"/><polygon class="cls-52" points="164.13 60.58 123.59 60.29 123.59 49.55 164.13 50.11 164.13 60.58"/><g class="cls-15"><polygon class="cls-3" points="127.53 59.56 126.31 59.55 126.31 50.88 127.53 50.9 127.53 59.56"/><polygon class="cls-3" points="129.71 59.58 128.49 59.57 128.49 50.91 129.71 50.92 129.71 59.58"/><polygon class="cls-3" points="131.87 59.6 130.65 59.59 130.65 50.94 131.87 50.95 131.87 59.6"/><polygon class="cls-3" points="134.03 59.61 132.81 59.6 132.81 50.97 134.03 50.98 134.03 59.61"/><polygon class="cls-3" points="136.18 59.63 134.97 59.62 134.97 50.99 136.18 51.01 136.18 59.63"/><polygon class="cls-3" points="138.32 59.64 137.12 59.63 137.12 51.02 138.32 51.04 138.32 59.64"/><polygon class="cls-3" points="140.46 59.66 139.26 59.65 139.26 51.05 140.46 51.07 140.46 59.66"/><polygon class="cls-3" points="142.6 59.68 141.4 59.67 141.4 51.08 142.6 51.09 142.6 59.68"/><polygon class="cls-3" points="144.72 59.69 143.53 59.68 143.53 51.11 144.72 51.12 144.72 59.69"/><polygon class="cls-3" points="146.85 59.71 145.65 59.7 145.65 51.13 146.85 51.15 146.85 59.71"/><polygon class="cls-3" points="148.96 59.72 147.77 59.72 147.77 51.16 148.96 51.18 148.96 59.72"/><polygon class="cls-3" points="151.07 59.74 149.89 59.73 149.89 51.19 151.07 51.2 151.07 59.74"/><polygon class="cls-3" points="153.18 59.76 151.99 59.75 151.99 51.22 153.18 51.23 153.18 59.76"/><polygon class="cls-3" points="155.28 59.77 154.1 59.76 154.1 51.24 155.28 51.26 155.28 59.77"/><polygon class="cls-3" points="157.37 59.79 156.19 59.78 156.19 51.27 157.37 51.29 157.37 59.79"/><polygon class="cls-3" points="159.46 59.8 158.28 59.79 158.28 51.3 159.46 51.31 159.46 59.8"/><polygon class="cls-3" points="161.54 59.82 160.37 59.81 160.37 51.33 161.54 51.34 161.54 59.82"/></g><g class="cls-16"><polygon class="cls-53" points="127.53 59.56 126.31 59.55 126.31 52.17 127.53 52.19 127.53 59.56"/><polygon class="cls-54" points="129.71 59.58 128.49 59.57 128.49 58.68 129.71 58.69 129.71 59.58"/><polygon class="cls-55" points="131.87 59.6 130.65 59.59 130.65 54.55 131.87 54.56 131.87 59.6"/><polygon class="cls-56" points="134.03 59.61 132.81 59.6 132.81 57.43 134.03 57.44 134.03 59.61"/><polygon class="cls-57" points="136.18 59.63 134.97 59.62 134.97 54.06 136.18 54.08 136.18 59.63"/><polygon class="cls-58" points="138.32 59.64 137.12 59.63 137.12 55.81 138.32 55.82 138.32 59.64"/><polygon class="cls-59" points="140.46 59.66 139.26 59.65 139.26 53.02 140.46 53.03 140.46 59.66"/><polygon class="cls-60" points="142.6 59.68 141.4 59.67 141.4 52.36 142.6 52.37 142.6 59.68"/><polygon class="cls-61" points="144.72 59.69 143.53 59.68 143.53 56.03 144.72 56.05 144.72 59.69"/><polygon class="cls-62" points="146.85 59.71 145.65 59.7 145.65 51.72 146.85 51.73 146.85 59.71"/><polygon class="cls-63" points="148.96 59.72 147.77 59.72 147.77 52.93 148.96 52.94 148.96 59.72"/><polygon class="cls-64" points="151.07 59.74 149.89 59.73 149.89 57.91 151.07 57.92 151.07 59.74"/><polygon class="cls-65" points="153.18 59.76 151.99 59.75 151.99 55.48 153.18 55.49 153.18 59.76"/><polygon class="cls-66" points="155.28 59.77 154.1 59.76 154.1 53.62 155.28 53.64 155.28 59.77"/><polygon class="cls-67" points="157.37 59.79 156.19 59.78 156.19 55.31 157.37 55.32 157.37 59.79"/><polygon class="cls-68" points="159.46 59.8 158.28 59.79 158.28 52.87 159.46 52.88 159.46 59.8"/><polygon class="cls-69" points="161.54 59.82 160.37 59.81 160.37 52.12 161.54 52.14 161.54 59.82"/></g><path class="cls-3" d="M106.07,77.15V66.93a3,3,0,0,1,3.09-2.82l55.23.25a2.81,2.81,0,0,1,2.86,2.73v9.82a2.82,2.82,0,0,1-2.86,2.74L109.16,80A3,3,0,0,1,106.07,77.15Z"/><path class="cls-13" d="M111.83,67.88a1.43,1.43,0,1,1-1.43-1.31A1.38,1.38,0,0,1,111.83,67.88Z"/><path class="cls-13" d="M116.32,67.89a1.42,1.42,0,1,1-1.42-1.3A1.37,1.37,0,0,1,116.32,67.89Z"/><path class="cls-13" d="M120.78,67.9a1.41,1.41,0,1,1-1.4-1.3A1.35,1.35,0,0,1,120.78,67.9Z"/><polygon class="cls-70" points="164.13 77.19 123.59 77.36 123.59 66.61 164.13 66.73 164.13 77.19"/><g class="cls-15"><polygon class="cls-3" points="127.53 76.58 126.31 76.59 126.31 67.91 127.53 67.92 127.53 76.58"/><polygon class="cls-3" points="129.71 76.58 128.49 76.58 128.49 67.92 129.71 67.92 129.71 76.58"/><polygon class="cls-3" points="131.87 76.57 130.65 76.57 130.65 67.92 131.87 67.92 131.87 76.57"/><polygon class="cls-3" points="134.03 76.56 132.81 76.56 132.81 67.93 134.03 67.93 134.03 76.56"/><polygon class="cls-3" points="136.18 76.55 134.97 76.56 134.97 67.93 136.18 67.93 136.18 76.55"/><polygon class="cls-3" points="138.32 76.54 137.12 76.55 137.12 67.94 138.32 67.94 138.32 76.54"/><polygon class="cls-3" points="140.46 76.54 139.26 76.54 139.26 67.94 140.46 67.94 140.46 76.54"/><polygon class="cls-3" points="142.6 76.53 141.4 76.53 141.4 67.94 142.6 67.95 142.6 76.53"/><polygon class="cls-3" points="144.72 76.52 143.53 76.53 143.53 67.95 144.72 67.95 144.72 76.52"/><polygon class="cls-3" points="146.85 76.51 145.65 76.52 145.65 67.95 146.85 67.95 146.85 76.51"/><polygon class="cls-3" points="148.96 76.51 147.77 76.51 147.77 67.96 148.96 67.96 148.96 76.51"/><polygon class="cls-3" points="151.07 76.5 149.89 76.5 149.89 67.96 151.07 67.96 151.07 76.5"/><polygon class="cls-3" points="153.18 76.49 151.99 76.5 151.99 67.97 153.18 67.97 153.18 76.49"/><polygon class="cls-3" points="155.28 76.48 154.1 76.49 154.1 67.97 155.28 67.97 155.28 76.48"/><polygon class="cls-3" points="157.37 76.47 156.19 76.48 156.19 67.97 157.37 67.98 157.37 76.47"/><polygon class="cls-3" points="159.46 76.47 158.28 76.47 158.28 67.98 159.46 67.98 159.46 76.47"/><polygon class="cls-3" points="161.54 76.46 160.37 76.47 160.37 67.98 161.54 67.98 161.54 76.46"/></g><g class="cls-16"><polygon class="cls-71" points="127.53 76.58 126.31 76.59 126.31 69.21 127.53 69.21 127.53 76.58"/><polygon class="cls-72" points="129.71 76.58 128.49 76.58 128.49 75.69 129.71 75.69 129.71 76.58"/><rect class="cls-73" x="130.65" y="71.53" width="1.22" height="5.04" transform="translate(-0.27 0.47) rotate(-0.21)"/><polygon class="cls-74" points="134.03 76.56 132.81 76.56 132.81 74.39 134.03 74.39 134.03 76.56"/><rect class="cls-75" x="134.97" y="71" width="1.21" height="5.55" transform="translate(-0.27 0.49) rotate(-0.21)"/><polygon class="cls-76" points="138.32 76.54 137.12 76.55 137.12 72.72 138.32 72.72 138.32 76.54"/><rect class="cls-77" x="139.26" y="69.91" width="1.2" height="6.63" transform="translate(-0.26 0.5) rotate(-0.21)"/><polygon class="cls-78" points="142.6 76.53 141.4 76.53 141.4 69.22 142.6 69.23 142.6 76.53"/><polygon class="cls-79" points="144.72 76.52 143.53 76.53 143.53 72.88 144.72 72.88 144.72 76.52"/><polygon class="cls-80" points="146.85 76.51 145.65 76.52 145.65 68.54 146.85 68.54 146.85 76.51"/><rect class="cls-81" x="147.77" y="69.72" width="1.19" height="6.78" transform="translate(-0.26 0.53) rotate(-0.21)"/><polygon class="cls-82" points="151.07 76.5 149.89 76.5 149.89 74.69 151.07 74.68 151.07 76.5"/><rect class="cls-83" x="151.99" y="72.23" width="1.18" height="4.26" transform="translate(-0.27 0.55) rotate(-0.21)"/><rect class="cls-84" x="154.1" y="70.35" width="1.18" height="6.14" transform="translate(-0.26 0.56) rotate(-0.21)"/><rect class="cls-85" x="156.19" y="72.01" width="1.18" height="4.47" transform="translate(-0.27 0.57) rotate(-0.21)"/><polygon class="cls-86" points="159.46 76.47 158.28 76.47 158.28 69.55 159.46 69.55 159.46 76.47"/><polygon class="cls-87" points="161.54 76.46 160.37 76.47 160.37 68.78 161.54 68.78 161.54 76.46"/></g><path class="cls-3" d="M106.07,94.41V84.19a3,3,0,0,1,3.09-2.85L164.39,81a2.77,2.77,0,0,1,2.86,2.7v9.82a2.86,2.86,0,0,1-2.86,2.77l-55.23.93A2.92,2.92,0,0,1,106.07,94.41Z"/><path class="cls-13" d="M111.83,85.08a1.39,1.39,0,0,1-1.43,1.32A1.37,1.37,0,0,1,109,85.1a1.39,1.39,0,0,1,1.42-1.32A1.37,1.37,0,0,1,111.83,85.08Z"/><path class="cls-13" d="M116.32,85a1.39,1.39,0,0,1-1.42,1.31,1.34,1.34,0,0,1-1.41-1.29,1.42,1.42,0,0,1,2.83,0Z"/><path class="cls-13" d="M120.78,85a1.37,1.37,0,0,1-1.4,1.31A1.35,1.35,0,0,1,118,85a1.37,1.37,0,0,1,1.41-1.31A1.34,1.34,0,0,1,120.78,85Z"/><polygon class="cls-88" points="164.13 93.8 123.59 94.42 123.59 83.67 164.13 83.34 164.13 93.8"/><g class="cls-15"><polygon class="cls-3" points="127.53 93.6 126.31 93.62 126.31 84.95 127.53 84.93 127.53 93.6"/><polygon class="cls-3" points="129.71 93.57 128.49 93.59 128.49 84.93 129.71 84.92 129.71 93.57"/><polygon class="cls-3" points="131.87 93.54 130.65 93.56 130.65 84.91 131.87 84.89 131.87 93.54"/><polygon class="cls-3" points="134.03 93.51 132.81 93.52 132.81 84.89 134.03 84.88 134.03 93.51"/><polygon class="cls-3" points="136.18 93.47 134.97 93.49 134.97 84.87 136.18 84.86 136.18 93.47"/><polygon class="cls-3" points="138.32 93.44 137.12 93.46 137.12 84.85 138.32 84.84 138.32 93.44"/><polygon class="cls-3" points="140.46 93.41 139.26 93.43 139.26 84.83 140.46 84.82 140.46 93.41"/><polygon class="cls-3" points="142.6 93.38 141.4 93.4 141.4 84.81 142.6 84.8 142.6 93.38"/><polygon class="cls-3" points="144.72 93.35 143.53 93.37 143.53 84.79 144.72 84.78 144.72 93.35"/><polygon class="cls-3" points="146.85 93.32 145.65 93.34 145.65 84.77 146.85 84.76 146.85 93.32"/><polygon class="cls-3" points="148.96 93.29 147.77 93.31 147.77 84.75 148.96 84.74 148.96 93.29"/><polygon class="cls-3" points="151.07 93.26 149.89 93.27 149.89 84.73 151.07 84.72 151.07 93.26"/><polygon class="cls-3" points="153.18 93.23 151.99 93.24 151.99 84.71 153.18 84.7 153.18 93.23"/><polygon class="cls-3" points="155.28 93.19 154.1 93.21 154.1 84.69 155.28 84.68 155.28 93.19"/><polygon class="cls-3" points="157.37 93.16 156.19 93.18 156.19 84.68 157.37 84.67 157.37 93.16"/><polygon class="cls-3" points="159.46 93.13 158.28 93.15 158.28 84.66 159.46 84.65 159.46 93.13"/><polygon class="cls-3" points="161.54 93.1 160.37 93.12 160.37 84.64 161.54 84.63 161.54 93.1"/></g><g class="cls-16"><polygon class="cls-89" points="127.53 93.6 126.31 93.62 126.31 86.24 127.53 86.23 127.53 93.6"/><polygon class="cls-90" points="129.71 93.57 128.49 93.59 128.49 92.7 129.71 92.68 129.71 93.57"/><polygon class="cls-91" points="131.87 93.54 130.65 93.56 130.65 88.52 131.87 88.5 131.87 93.54"/><polygon class="cls-92" points="134.03 93.51 132.81 93.52 132.81 91.35 134.03 91.34 134.03 93.51"/><polygon class="cls-93" points="136.18 93.47 134.97 93.49 134.97 87.94 136.18 87.92 136.18 93.47"/><polygon class="cls-94" points="138.32 93.44 137.12 93.46 137.12 89.64 138.32 89.62 138.32 93.44"/><polygon class="cls-95" points="140.46 93.41 139.26 93.43 139.26 86.79 140.46 86.78 140.46 93.41"/><polygon class="cls-96" points="142.6 93.38 141.4 93.4 141.4 86.09 142.6 86.08 142.6 93.38"/><polygon class="cls-97" points="144.72 93.35 143.53 93.37 143.53 89.72 144.72 89.7 144.72 93.35"/><polygon class="cls-98" points="146.85 93.32 145.65 93.34 145.65 85.36 146.85 85.35 146.85 93.32"/><polygon class="cls-99" points="148.96 93.29 147.77 93.31 147.77 86.52 148.96 86.51 148.96 93.29"/><polygon class="cls-100" points="151.07 93.26 149.89 93.27 149.89 91.46 151.07 91.44 151.07 93.26"/><polygon class="cls-101" points="153.18 93.23 151.99 93.24 151.99 88.98 153.18 88.97 153.18 93.23"/><polygon class="cls-102" points="155.28 93.19 154.1 93.21 154.1 87.08 155.28 87.06 155.28 93.19"/><polygon class="cls-103" points="157.37 93.16 156.19 93.18 156.19 88.71 157.37 88.7 157.37 93.16"/><polygon class="cls-104" points="159.46 93.13 158.28 93.15 158.28 86.23 159.46 86.22 159.46 93.13"/><polygon class="cls-105" points="161.54 93.1 160.37 93.12 160.37 85.44 161.54 85.42 161.54 93.1"/></g><path class="cls-3" d="M106.07,111.66V101.44a3,3,0,0,1,3.09-2.88l55.23-1a2.73,2.73,0,0,1,2.86,2.67v9.82a2.89,2.89,0,0,1-2.86,2.8l-55.23,1.54A2.87,2.87,0,0,1,106.07,111.66Z"/><path class="cls-13" d="M111.83,102.27a1.4,1.4,0,0,1-1.43,1.33,1.33,1.33,0,0,1-1.42-1.27A1.4,1.4,0,0,1,110.4,101,1.35,1.35,0,0,1,111.83,102.27Z"/><path class="cls-13" d="M116.32,102.18a1.4,1.4,0,0,1-1.42,1.33,1.32,1.32,0,0,1-1.41-1.27,1.4,1.4,0,0,1,1.41-1.34A1.34,1.34,0,0,1,116.32,102.18Z"/><path class="cls-13" d="M120.78,102.09a1.39,1.39,0,0,1-1.4,1.33,1.33,1.33,0,0,1-1.41-1.27,1.39,1.39,0,0,1,1.41-1.33A1.32,1.32,0,0,1,120.78,102.09Z"/><polygon class="cls-106" points="164.13 110.42 123.59 111.48 123.59 100.74 164.13 99.96 164.13 110.42"/><g class="cls-15"><polygon class="cls-3" points="127.53 110.62 126.31 110.65 126.31 101.98 127.53 101.95 127.53 110.62"/><polygon class="cls-3" points="129.71 110.56 128.49 110.6 128.49 101.93 129.71 101.91 129.71 110.56"/><polygon class="cls-3" points="131.87 110.51 130.65 110.54 130.65 101.89 131.87 101.87 131.87 110.51"/><polygon class="cls-3" points="134.03 110.45 132.81 110.48 132.81 101.85 134.03 101.82 134.03 110.45"/><polygon class="cls-3" points="136.18 110.4 134.97 110.43 134.97 101.8 136.18 101.78 136.18 110.4"/><polygon class="cls-3" points="138.32 110.34 137.12 110.37 137.12 101.76 138.32 101.74 138.32 110.34"/><polygon class="cls-3" points="140.46 110.29 139.26 110.32 139.26 101.72 140.46 101.69 140.46 110.29"/><polygon class="cls-3" points="142.6 110.23 141.4 110.26 141.4 101.67 142.6 101.65 142.6 110.23"/><polygon class="cls-3" points="144.72 110.18 143.53 110.21 143.53 101.63 144.72 101.61 144.72 110.18"/><polygon class="cls-3" points="146.85 110.12 145.65 110.16 145.65 101.59 146.85 101.57 146.85 110.12"/><polygon class="cls-3" points="148.96 110.07 147.77 110.1 147.77 101.55 148.96 101.52 148.96 110.07"/><polygon class="cls-3" points="151.07 110.02 149.89 110.05 149.89 101.5 151.07 101.48 151.07 110.02"/><polygon class="cls-3" points="153.18 109.96 151.99 109.99 151.99 101.46 153.18 101.44 153.18 109.96"/><polygon class="cls-3" points="155.28 109.91 154.1 109.94 154.1 101.42 155.28 101.4 155.28 109.91"/><polygon class="cls-3" points="157.37 109.85 156.19 109.88 156.19 101.38 157.37 101.36 157.37 109.85"/><polygon class="cls-3" points="159.46 109.8 158.28 109.83 158.28 101.34 159.46 101.31 159.46 109.8"/><polygon class="cls-3" points="161.54 109.75 160.37 109.78 160.37 101.29 161.54 101.27 161.54 109.75"/></g><g class="cls-16"><polygon class="cls-107" points="127.53 110.62 126.31 110.65 126.31 103.27 127.53 103.25 127.53 110.62"/><polygon class="cls-108" points="129.71 110.56 128.49 110.6 128.49 109.71 129.71 109.68 129.71 110.56"/><polygon class="cls-109" points="131.87 110.51 130.65 110.54 130.65 105.5 131.87 105.47 131.87 110.51"/><polygon class="cls-110" points="134.03 110.45 132.81 110.48 132.81 108.31 134.03 108.28 134.03 110.45"/><polygon class="cls-111" points="136.18 110.4 134.97 110.43 134.97 104.87 136.18 104.85 136.18 110.4"/><polygon class="cls-112" points="138.32 110.34 137.12 110.37 137.12 106.55 138.32 106.52 138.32 110.34"/><polygon class="cls-113" points="140.46 110.29 139.26 110.32 139.26 103.68 140.46 103.66 140.46 110.29"/><polygon class="cls-114" points="142.6 110.23 141.4 110.26 141.4 102.96 142.6 102.93 142.6 110.23"/><polygon class="cls-115" points="144.72 110.18 143.53 110.21 143.53 106.56 144.72 106.53 144.72 110.18"/><polygon class="cls-116" points="146.85 110.12 145.65 110.16 145.65 102.18 146.85 102.15 146.85 110.12"/><polygon class="cls-117" points="148.96 110.07 147.77 110.1 147.77 103.31 148.96 103.29 148.96 110.07"/><polygon class="cls-118" points="151.07 110.02 149.89 110.05 149.89 108.23 151.07 108.2 151.07 110.02"/><polygon class="cls-119" points="153.18 109.96 151.99 109.99 151.99 105.73 153.18 105.7 153.18 109.96"/><polygon class="cls-120" points="155.28 109.91 154.1 109.94 154.1 103.8 155.28 103.77 155.28 109.91"/><polygon class="cls-121" points="157.37 109.85 156.19 109.88 156.19 105.41 157.37 105.39 157.37 109.85"/><polygon class="cls-122" points="159.46 109.8 158.28 109.83 158.28 102.91 159.46 102.88 159.46 109.8"/><polygon class="cls-123" points="161.54 109.75 160.37 109.78 160.37 102.09 161.54 102.07 161.54 109.75"/></g><path class="cls-3" d="M106.07,128.92V118.7a3.08,3.08,0,0,1,3.09-2.92l55.23-1.59a2.7,2.7,0,0,1,2.86,2.64v9.82a2.93,2.93,0,0,1-2.86,2.83l-55.23,2.15A2.84,2.84,0,0,1,106.07,128.92Z"/><path class="cls-13" d="M111.83,119.46a1.42,1.42,0,0,1-1.43,1.35,1.32,1.32,0,0,1-1.42-1.26,1.42,1.42,0,0,1,1.42-1.35A1.32,1.32,0,0,1,111.83,119.46Z"/><path class="cls-13" d="M116.32,119.32a1.43,1.43,0,0,1-1.42,1.35,1.31,1.31,0,0,1-1.41-1.26,1.42,1.42,0,0,1,1.41-1.35A1.32,1.32,0,0,1,116.32,119.32Z"/><path class="cls-13" d="M120.78,119.18a1.4,1.4,0,0,1-1.4,1.34,1.3,1.3,0,0,1-1.41-1.25,1.4,1.4,0,0,1,1.41-1.34A1.3,1.3,0,0,1,120.78,119.18Z"/><polygon class="cls-124" points="164.13 127.03 123.59 128.54 123.59 117.8 164.13 116.57 164.13 127.03"/><g class="cls-15"><polygon class="cls-3" points="127.53 127.64 126.31 127.68 126.31 119.01 127.53 118.97 127.53 127.64"/><polygon class="cls-3" points="129.71 127.56 128.49 127.6 128.49 118.94 129.71 118.91 129.71 127.56"/><polygon class="cls-3" points="131.87 127.48 130.65 127.52 130.65 118.88 131.87 118.84 131.87 127.48"/><polygon class="cls-3" points="134.03 127.4 132.81 127.44 132.81 118.81 134.03 118.77 134.03 127.4"/><polygon class="cls-3" points="136.18 127.32 134.97 127.37 134.97 118.74 136.18 118.7 136.18 127.32"/><polygon class="cls-3" points="138.32 127.24 137.12 127.29 137.12 118.67 138.32 118.64 138.32 127.24"/><polygon class="cls-3" points="140.46 127.16 139.26 127.21 139.26 118.61 140.46 118.57 140.46 127.16"/><polygon class="cls-3" points="142.6 127.08 141.4 127.13 141.4 118.54 142.6 118.5 142.6 127.08"/><polygon class="cls-3" points="144.72 127.01 143.53 127.05 143.53 118.47 144.72 118.44 144.72 127.01"/><polygon class="cls-3" points="146.85 126.93 145.65 126.97 145.65 118.41 146.85 118.37 146.85 126.93"/><polygon class="cls-3" points="148.96 126.85 147.77 126.89 147.77 118.34 148.96 118.31 148.96 126.85"/><polygon class="cls-3" points="151.07 126.77 149.89 126.82 149.89 118.28 151.07 118.24 151.07 126.77"/><polygon class="cls-3" points="153.18 126.7 151.99 126.74 151.99 118.21 153.18 118.17 153.18 126.7"/><polygon class="cls-3" points="155.28 126.62 154.1 126.66 154.1 118.14 155.28 118.11 155.28 126.62"/><polygon class="cls-3" points="157.37 126.54 156.19 126.59 156.19 118.08 157.37 118.04 157.37 126.54"/><polygon class="cls-3" points="159.46 126.47 158.28 126.51 158.28 118.02 159.46 117.98 159.46 126.47"/><polygon class="cls-3" points="161.54 126.39 160.37 126.43 160.37 117.95 161.54 117.91 161.54 126.39"/></g><g class="cls-16"><polygon class="cls-125" points="127.53 127.64 126.31 127.68 126.31 120.3 127.53 120.26 127.53 127.64"/><polygon class="cls-126" points="129.71 127.56 128.49 127.6 128.49 126.72 129.71 126.67 129.71 127.56"/><polygon class="cls-127" points="131.87 127.48 130.65 127.52 130.65 122.49 131.87 122.45 131.87 127.48"/><polygon class="cls-128" points="134.03 127.4 132.81 127.44 132.81 125.27 134.03 125.23 134.03 127.4"/><polygon class="cls-129" points="136.18 127.32 134.97 127.37 134.97 121.81 136.18 121.77 136.18 127.32"/><polygon class="cls-130" points="138.32 127.24 137.12 127.29 137.12 123.46 138.32 123.42 138.32 127.24"/><polygon class="cls-131" points="140.46 127.16 139.26 127.21 139.26 120.57 140.46 120.53 140.46 127.16"/><polygon class="cls-132" points="142.6 127.08 141.4 127.13 141.4 119.82 142.6 119.78 142.6 127.08"/><polygon class="cls-133" points="144.72 127.01 143.53 127.05 143.53 123.4 144.72 123.36 144.72 127.01"/><polygon class="cls-134" points="146.85 126.93 145.65 126.97 145.65 119 146.85 118.96 146.85 126.93"/><polygon class="cls-135" points="148.96 126.85 147.77 126.89 147.77 120.11 148.96 120.07 148.96 126.85"/><polygon class="cls-136" points="151.07 126.77 149.89 126.82 149.89 125 151.07 124.96 151.07 126.77"/><polygon class="cls-137" points="153.18 126.7 151.99 126.74 151.99 122.48 153.18 122.44 153.18 126.7"/><polygon class="cls-138" points="155.28 126.62 154.1 126.66 154.1 120.53 155.28 120.49 155.28 126.62"/><polygon class="cls-139" points="157.37 126.54 156.19 126.59 156.19 122.12 157.37 122.08 157.37 126.54"/><polygon class="cls-140" points="159.46 126.47 158.28 126.51 158.28 119.58 159.46 119.55 159.46 126.47"/><polygon class="cls-141" points="161.54 126.39 160.37 126.43 160.37 118.75 161.54 118.71 161.54 126.39"/></g><path class="cls-3" d="M106.07,146.18V136a3.12,3.12,0,0,1,3.09-3l55.23-2.19a2.65,2.65,0,0,1,2.86,2.6v9.82a3,3,0,0,1-2.86,2.87l-55.23,2.75A2.8,2.8,0,0,1,106.07,146.18Z"/><path class="cls-13" d="M111.83,136.65A1.45,1.45,0,0,1,110.4,138a1.3,1.3,0,0,1-1.42-1.25,1.44,1.44,0,0,1,1.42-1.36A1.3,1.3,0,0,1,111.83,136.65Z"/><path class="cls-13" d="M116.32,136.46a1.45,1.45,0,0,1-1.42,1.37,1.3,1.3,0,0,1-1.41-1.25,1.43,1.43,0,0,1,1.41-1.36A1.31,1.31,0,0,1,116.32,136.46Z"/><path class="cls-13" d="M120.78,136.28a1.42,1.42,0,0,1-1.4,1.35,1.29,1.29,0,0,1-1.41-1.24,1.42,1.42,0,0,1,1.41-1.35A1.28,1.28,0,0,1,120.78,136.28Z"/><polygon class="cls-142" points="164.13 143.65 123.59 145.6 123.59 134.86 164.13 133.19 164.13 143.65"/><g class="cls-15"><polygon class="cls-3" points="127.53 144.66 126.31 144.72 126.31 136.04 127.53 135.99 127.53 144.66"/><polygon class="cls-3" points="129.71 144.55 128.49 144.61 128.49 135.95 129.71 135.9 129.71 144.55"/><polygon class="cls-3" points="131.87 144.45 130.65 144.51 130.65 135.86 131.87 135.81 131.87 144.45"/><polygon class="cls-3" points="134.03 144.35 132.81 144.41 132.81 135.77 134.03 135.72 134.03 144.35"/><polygon class="cls-3" points="136.18 144.25 134.97 144.3 134.97 135.68 136.18 135.63 136.18 144.25"/><polygon class="cls-3" points="138.32 144.14 137.12 144.2 137.12 135.59 138.32 135.54 138.32 144.14"/><polygon class="cls-3" points="140.46 144.04 139.26 144.1 139.26 135.5 140.46 135.45 140.46 144.04"/><polygon class="cls-3" points="142.6 143.94 141.4 144 141.4 135.41 142.6 135.36 142.6 143.94"/><polygon class="cls-3" points="144.72 143.84 143.53 143.89 143.53 135.32 144.72 135.27 144.72 143.84"/><polygon class="cls-3" points="146.85 143.74 145.65 143.79 145.65 135.23 146.85 135.18 146.85 143.74"/><polygon class="cls-3" points="148.96 143.63 147.77 143.69 147.77 135.14 148.96 135.09 148.96 143.63"/><polygon class="cls-3" points="151.07 143.53 149.89 143.59 149.89 135.05 151.07 135 151.07 143.53"/><polygon class="cls-3" points="153.18 143.43 151.99 143.49 151.99 134.96 153.18 134.91 153.18 143.43"/><polygon class="cls-3" points="155.28 143.33 154.1 143.39 154.1 134.87 155.28 134.82 155.28 143.33"/><polygon class="cls-3" points="157.37 143.23 156.19 143.29 156.19 134.78 157.37 134.73 157.37 143.23"/><polygon class="cls-3" points="159.46 143.13 158.28 143.19 158.28 134.69 159.46 134.65 159.46 143.13"/><polygon class="cls-3" points="161.54 143.03 160.37 143.09 160.37 134.61 161.54 134.56 161.54 143.03"/></g><g class="cls-16"><polygon class="cls-143" points="127.53 144.66 126.31 144.72 126.31 137.34 127.53 137.28 127.53 144.66"/><polygon class="cls-144" points="129.71 144.55 128.49 144.61 128.49 143.72 129.71 143.67 129.71 144.55"/><polygon class="cls-145" points="131.87 144.45 130.65 144.51 130.65 139.47 131.87 139.42 131.87 144.45"/><polygon class="cls-146" points="134.03 144.35 132.81 144.41 132.81 142.23 134.03 142.18 134.03 144.35"/><polygon class="cls-147" points="136.18 144.25 134.97 144.3 134.97 138.75 136.18 138.69 136.18 144.25"/><polygon class="cls-148" points="138.32 144.14 137.12 144.2 137.12 140.37 138.32 140.32 138.32 144.14"/><polygon class="cls-149" points="140.46 144.04 139.26 144.1 139.26 137.46 140.46 137.41 140.46 144.04"/><polygon class="cls-150" points="142.6 143.94 141.4 144 141.4 136.69 142.6 136.63 142.6 143.94"/><polygon class="cls-151" points="144.72 143.84 143.53 143.89 143.53 140.24 144.72 140.19 144.72 143.84"/><polygon class="cls-152" points="146.85 143.74 145.65 143.79 145.65 135.81 146.85 135.76 146.85 143.74"/><polygon class="cls-153" points="148.96 143.63 147.77 143.69 147.77 136.91 148.96 136.85 148.96 143.63"/><polygon class="cls-154" points="151.07 143.53 149.89 143.59 149.89 141.77 151.07 141.72 151.07 143.53"/><polygon class="cls-155" points="153.18 143.43 151.99 143.49 151.99 139.22 153.18 139.17 153.18 143.43"/><polygon class="cls-156" points="155.28 143.33 154.1 143.39 154.1 137.25 155.28 137.2 155.28 143.33"/><polygon class="cls-157" points="157.37 143.23 156.19 143.29 156.19 138.82 157.37 138.76 157.37 143.23"/><polygon class="cls-158" points="159.46 143.13 158.28 143.19 158.28 136.26 159.46 136.21 159.46 143.13"/><polygon class="cls-159" points="161.54 143.03 160.37 143.09 160.37 135.4 161.54 135.35 161.54 143.03"/></g><path class="cls-160" d="M161.31,137.25c-9-11.51-20.48-11.18-23.76-22-3.5-11.57,7.93-16.61,5-29.17-2.93-12.77-17-12.87-19-25.79-1.66-10.48,7.12-13.5,4.25-22.9C124.91,27.76,114.38,26.44,112.3,17a15.23,15.23,0,0,1,.58-8.25l-6.66-.27a4,4,0,0,0-4.35,3.81V156.74a3.91,3.91,0,0,0,4.35,3.74L167.11,157a4.37,4.37,0,0,0,1.73-.48C167.72,147.51,164.57,141.45,161.31,137.25Z"/><path class="cls-161" d="M224.35,202,8.7,200.08v5.61a3,3,0,0,0,2.21,3.05l61,11a8.46,8.46,0,0,0,2.19.11L222,207.3a2.84,2.84,0,0,0,2.34-3Z"/><path class="cls-162" d="M146.09,192.89,10.93,203.15a4.16,4.16,0,0,1-4.39-4.36V95a4.55,4.55,0,0,1,4.39-4.69H146.09c2,0,3.6,1.9,3.6,4.24v93.82C149.69,190.72,148.08,192.74,146.09,192.89Z"/><path class="cls-163" d="M148.24,192.89,13.08,203.15a4.15,4.15,0,0,1-4.38-4.36V95a4.54,4.54,0,0,1,4.38-4.69H148.24c2,0,3.61,1.9,3.61,4.24v93.82C151.85,190.72,150.24,192.74,148.24,192.89Z"/><path class="cls-164" d="M144,186.27,18.14,195.19a3.42,3.42,0,0,1-3.57-3.58V100.74a3.73,3.73,0,0,1,3.57-3.84L144,96.34a3.24,3.24,0,0,1,3,3.47v82.76A3.55,3.55,0,0,1,144,186.27Z"/><path class="cls-3" d="M85.44,93.15a1.57,1.57,0,1,1-1.56-1.75A1.67,1.67,0,0,1,85.44,93.15Z"/><path class="cls-165" d="M115.68,164.42c-10.42-6-18.61,1.61-26.52-5.92-4.79-4.56-2.44-8-8.34-14.79-6.53-7.55-10.79-5-17.35-11.81-8.3-8.6-4.15-15.29-11.3-21.46-8.68-7.49-18-.56-26.29-7.74-3.56-3.1-5.52-7.6-6.54-12.39H11.26A2.66,2.66,0,0,0,8.7,93.06V200.65a2.43,2.43,0,0,0,2.56,2.56L149,192.7a2.2,2.2,0,0,0,1.66-1.09c-10.09-.39-16.28-4-20.24-7.78C122.69,176.49,124,169.25,115.68,164.42Z"/><path class="cls-166" d="M153.63,192.42,8.7,203.22l63.19,11.45a8.46,8.46,0,0,0,2.19.1L224.35,202l-68.41-9.48A11.17,11.17,0,0,0,153.63,192.42Z"/><polygon class="cls-167" points="29.84 203.49 150.51 194.37 187.85 199.5 68.23 209.26 29.84 203.49"/><g class="cls-168"><polygon class="cls-3" points="40.26 104.03 26.4 104.08 26.4 99.59 40.26 99.59 40.26 104.03"/><polygon class="cls-3" points="112.89 103.78 49.06 104 49.06 99.59 112.89 99.59 112.89 103.78"/><polygon class="cls-3" points="62.45 111.4 49.06 111.53 49.06 107.12 62.45 107.04 62.45 111.4"/><polygon class="cls-3" points="132.64 110.74 70.95 111.32 70.95 106.99 132.64 106.62 132.64 110.74"/><polygon class="cls-3" points="62.45 118.85 49.06 119.06 49.06 114.65 62.45 114.49 62.45 118.85"/><polygon class="cls-3" points="132.64 117.77 70.95 118.72 70.95 114.39 132.64 113.65 132.64 117.77"/><polygon class="cls-3" points="40.26 126.77 26.4 127.07 26.4 122.58 40.26 122.33 40.26 126.77"/><polygon class="cls-3" points="112.89 125.22 49.06 126.58 49.06 122.18 112.89 121.04 112.89 125.22"/><polygon class="cls-3" points="62.45 133.75 49.06 134.11 49.06 129.71 62.45 129.39 62.45 133.75"/><polygon class="cls-3" points="132.64 131.83 70.95 133.51 70.95 129.18 132.64 127.71 132.64 131.83"/><polygon class="cls-3" points="62.45 141.19 49.06 141.64 49.06 137.23 62.45 136.84 62.45 141.19"/><polygon class="cls-3" points="132.64 138.86 70.95 140.91 70.95 136.58 132.64 134.74 132.64 138.86"/><polygon class="cls-3" points="62.45 148.64 49.06 149.17 49.06 144.76 62.45 144.28 62.45 148.64"/><polygon class="cls-3" points="132.64 145.89 70.95 148.31 70.95 143.98 132.64 141.77 132.64 145.89"/><polygon class="cls-3" points="84.07 155.11 71.15 155.7 71.15 151.37 84.07 150.83 84.07 155.11"/><polygon class="cls-3" points="142.06 152.49 92.28 154.74 92.28 150.49 142.06 148.41 142.06 152.49"/><polygon class="cls-3" points="40.26 164.68 26.4 165.38 26.4 160.9 40.26 160.24 40.26 164.68"/><polygon class="cls-3" points="112.89 160.96 49.06 164.22 49.06 159.82 112.89 156.77 112.89 160.96"/><polygon class="cls-3" points="62.45 170.99 49.06 171.75 49.06 167.35 62.45 166.63 62.45 170.99"/><polygon class="cls-3" points="132.64 166.97 70.95 170.5 70.95 166.17 132.64 162.86 132.64 166.97"/><polygon class="cls-3" points="62.45 178.44 49.06 179.28 49.06 174.87 62.45 174.08 62.45 178.44"/><polygon class="cls-3" points="132.64 174 70.95 177.9 70.95 173.57 132.64 169.89 132.64 174"/><polygon class="cls-3" points="40.26 187.42 26.4 188.38 26.4 183.89 40.26 182.98 40.26 187.42"/><polygon class="cls-3" points="112.89 182.4 49.06 186.81 49.06 182.4 112.89 178.21 112.89 182.4"/></g><path class="cls-169" d="M162,168.68c4.26,2.16,9.61.17,11.95-4.44s.79-10.1-3.47-12.26c-.22-.11-.45-.2-.67-.29a54.58,54.58,0,0,0,1.79-7.7,5.94,5.94,0,0,0,.73,0,9.8,9.8,0,0,0,8.62-10,8.31,8.31,0,0,0-9-8.4,6.32,6.32,0,0,0-.76.11,48.25,48.25,0,0,0-2.08-7.35c.23-.13.45-.27.67-.42a9.81,9.81,0,0,0,3-12.84,8.31,8.31,0,0,0-12.09-2.29c-.21.15-.41.31-.61.48a42.86,42.86,0,0,0-5.39-5c.14-.23.27-.46.39-.7,2.34-4.61,5.4-9.64,1.11-11.74-9.93-4.84-14.19-.69-16.53,3.92-.12.23-.22.48-.32.72A43.11,43.11,0,0,0,132,89.07q0-.39,0-.78c-.11-5.07,1.4-7.81-3.48-7.91-10.63-.21-14.22,4.41-14.12,9.48q0,.4.06.78a50.56,50.56,0,0,0-7.16,2.66c-.11-.22-.23-.45-.36-.67a8.29,8.29,0,0,0-12.08-2.29,9.79,9.79,0,0,0-3,12.84c.13.21.27.41.41.61a54,54,0,0,0-5.15,6l-.64-.37c-4.26-2.16-9.61-.17-12,4.44s-.78,10.1,3.47,12.26c.23.11.45.21.68.3A52.8,52.8,0,0,0,77,134.09c-.25,0-.49,0-.74,0a9.79,9.79,0,0,0-8.61,10,8.29,8.29,0,0,0,9,8.4c.25,0,.5-.06.75-.1a49.29,49.29,0,0,0,2.08,7.34c-.22.13-.45.27-.66.42a9.79,9.79,0,0,0-3,12.84c2.52,4.18,10.85,6.12,15,3.2.21-.15-2.51-1.22-2.32-1.38a45.91,45.91,0,0,0,5.39,5c-.13.22-.27.45-.39.69-2.34,4.61-.79,10.1,3.47,12.26s9.61.18,12-4.43c.12-.24.23-.48.33-.73A43.18,43.18,0,0,0,116.5,189a6.77,6.77,0,0,0,0,.78,8.3,8.3,0,0,0,9,8.4,9.79,9.79,0,0,0,8.61-10c0-.27,0-.52,0-.78a49.8,49.8,0,0,0,7.16-2.66c.11.23.22.45.35.67a8.3,8.3,0,0,0,12.09,2.29,9.79,9.79,0,0,0,3-12.83,6.65,6.65,0,0,0-.41-.62,55.13,55.13,0,0,0,5.16-6A6.5,6.5,0,0,0,162,168.68Zm-53.08.67c-15.46-7.85-21.1-27.78-12.6-44.52s27.92-24,43.38-16.1,21.1,27.78,12.6,44.52S124.34,177.2,108.88,169.35Z"/><path class="cls-170" d="M172.29,144a9.8,9.8,0,0,0,8.62-10,8.31,8.31,0,0,0-9-8.4,6.32,6.32,0,0,0-.76.11,48.25,48.25,0,0,0-2.08-7.35c.23-.13.45-.27.67-.42,4.15-2.91,9.3-10,6.36-13.84-5.56-7.4-11.32-4.2-15.48-1.29-.21.15-.41.31-.61.48a42.86,42.86,0,0,0-5.39-5c.14-.23.27-.46.39-.7a9.64,9.64,0,0,0,.55-7.62q-6,10.59-11.87,21.29c12.34,9,16.26,26.85,8.55,42-6.53,12.87-19.51,20.1-32.19,19.19-.57,1.47-1.12,2.94-1.73,4.39-1.64,3.95-3.51,7.81-5.38,11.66,1.17.23,2.36.4,3.54.52a6.77,6.77,0,0,0,0,.78c.1,5.07,3.18,9.38,12,8.92,4.88-.26,5.71-5.42,5.61-10.49,0-.27,0-.52,0-.78a51,51,0,0,0,7.16-2.66c.11.23.22.45.35.67,2.52,4.18,11.25,6,15.41,3s2.16-9.41-.36-13.58a6.65,6.65,0,0,0-.41-.62,55.13,55.13,0,0,0,5.16-6,6.5,6.5,0,0,0,.63.37c4.26,2.16,9.61.17,11.95-4.44s.79-10.1-3.47-12.26c-.22-.11-.45-.2-.67-.29a54.58,54.58,0,0,0,1.79-7.7A5.94,5.94,0,0,0,172.29,144Z"/><path class="cls-171" d="M166.54,169.2c4.26,2.16,9.61.18,12-4.44s.79-10.1-3.47-12.26c-.22-.11-.45-.2-.67-.29a54.26,54.26,0,0,0,1.79-7.7,6,6,0,0,0,.73,0,9.8,9.8,0,0,0,8.62-10,8.31,8.31,0,0,0-9-8.4,6.32,6.32,0,0,0-.76.11,48.25,48.25,0,0,0-2.08-7.35c.23-.13.45-.27.67-.42a9.79,9.79,0,0,0,3-12.83,8.29,8.29,0,0,0-12.08-2.3c-.21.15-.41.31-.61.48a42.86,42.86,0,0,0-5.39-5q.21-.34.39-.69c2.34-4.61.79-10.1-3.47-12.27s-9.61-.17-11.95,4.44c-.12.24-.22.48-.32.72a43.11,43.11,0,0,0-7.25-1.38c0-.26,0-.51,0-.77a8.31,8.31,0,0,0-9-8.41,9.81,9.81,0,0,0-8.62,10c0,.27,0,.53.06.79A49.32,49.32,0,0,0,112,93.82c-.11-.22-.23-.45-.36-.67a8.3,8.3,0,0,0-12.08-2.29,9.79,9.79,0,0,0-3,12.84c.13.21.27.41.41.61a54,54,0,0,0-5.15,6c-.21-.13-.42-.25-.64-.36-4.26-2.17-9.61-.18-12,4.43s-.78,10.1,3.47,12.26c.22.11.45.21.68.3a52.8,52.8,0,0,0-1.79,7.69c-.25,0-.49,0-.74,0a9.79,9.79,0,0,0-8.61,10,8.29,8.29,0,0,0,9,8.4c.25,0,.5-.06.75-.1A49.29,49.29,0,0,0,84,160.25c-.22.13-.45.27-.66.42a9.79,9.79,0,0,0-3,12.84,8.29,8.29,0,0,0,12.08,2.29,7.54,7.54,0,0,0,.61-.47,45.91,45.91,0,0,0,5.39,5c-.13.22-.27.45-.39.69-2.34,4.61-.79,10.1,3.47,12.26s9.61.18,12-4.43c.12-.24.23-.48.33-.73a44.24,44.24,0,0,0,7.24,1.39,6.54,6.54,0,0,0,0,.77,8.3,8.3,0,0,0,9,8.4,9.79,9.79,0,0,0,8.61-10c0-.26,0-.52-.05-.78a49.8,49.8,0,0,0,7.16-2.66c.11.23.22.45.35.67a8.3,8.3,0,0,0,12.09,2.29,9.79,9.79,0,0,0,3-12.83,6.65,6.65,0,0,0-.41-.62,54.19,54.19,0,0,0,5.16-6A6.5,6.5,0,0,0,166.54,169.2Zm-53.08.67C98,162,92.36,142.09,100.86,125.35s27.92-23.95,43.38-16.1,21.1,27.78,12.6,44.52S128.92,177.72,113.46,169.87Z"/><path class="cls-172" d="M146.92,94.1s-.89-.12-.61-1.8c.22-1.33.05-1.77-.26-1.54s-.36,1-.36,1a6.29,6.29,0,0,1-1.6-2.24c-.47-1.27-.77-.2-.87.43a5.8,5.8,0,0,0,1.1,3,7.81,7.81,0,0,1,1.07,2Z"/><path class="cls-173" d="M182,197.29s-5.85,2.66-5.94,3.08,3.76-.14,5.33-.08,2.87-.4,2.73-1.07-.69-2.34-.69-2.34Z"/><path class="cls-174" d="M181.79,195.13l.35,2.63a2.07,2.07,0,0,0,1.55-.06l.27-2.88Z"/><path class="cls-175" d="M209.33,195.19l.68,1.1a1.3,1.3,0,0,1,.16,1c-.24.91-.71,2.68-.92,3.14-.28.63-4.07,1-4.07,1s-.34-.47.45-1,1.29-.66,1.57-1.51a21.74,21.74,0,0,0,.46-3.24Z"/><path class="cls-176" d="M206.5,192.42a35.27,35.27,0,0,1,1.47,3.89s.39.5,1.14-.24l.34-.34-.14-3.62Z"/><path class="cls-177" d="M178.57,142.22c-.31,7.86-.32,16.39.13,25.51.51,10.27,1.53,19.76,2.82,28.36.48,0,1,0,1.51,0,.36,0,.7,0,1-.05a65.3,65.3,0,0,0,2.17-6.93,67.44,67.44,0,0,0,1.51-8.11c1.13-8.9-.19-9.68.72-16.27.81-5.84,2-6.07,3.32-14.36,1.46-9,.37-10.35-.16-10.83C189.36,137.46,184.05,138.87,178.57,142.22Z"/><path class="cls-178" d="M191.62,139.54c-2.16-2-7.09-.79-12.29,2.24,6,6.47,6.64,10.67,5.92,13.39-.81,3.08-3.28,4-3.27,7.33,0,4.14,3.75,5.23,3.67,9.61-.05,2.89-1.69,2.86-2.08,6.44-.46,4.23,1.68,5.69,1,8.82a8.47,8.47,0,0,1-3.58,4.91c.18,1.29.35,2.56.54,3.81.48,0,1,0,1.51,0,.36,0,.7,0,1-.05a65.3,65.3,0,0,0,2.17-6.93,67.44,67.44,0,0,0,1.51-8.11c1.13-8.9-.19-9.68.72-16.27.81-5.84,2-6.07,3.32-14.36C193.24,141.37,192.15,140,191.62,139.54Z"/><path class="cls-179" d="M182.28,142.09A176.26,176.26,0,0,1,198,170.27a175.83,175.83,0,0,1,8.49,23.58,3.28,3.28,0,0,0,1.73.27,3.19,3.19,0,0,0,1.95-1.06,50.42,50.42,0,0,0,.45-12.53,42.8,42.8,0,0,0-1.76-9.41c-1.42-4.59-2.4-4.85-4.26-9.71-1.93-5-1.46-6.3-3.31-12.61a81.69,81.69,0,0,0-4.12-11.07Z"/><path class="cls-180" d="M180.35,99.42a13.59,13.59,0,0,0,.91,3.85c.66,1.48,4,2.32,4.63,2.63s-1.2,1.35-3.1,1.6-7.37,0-8.38-.71.77-.69,2.12-1.23,2.05-3.24,1.77-4.44S180.35,99.42,180.35,99.42Z"/><path class="cls-181" d="M177.6,97.73c-1-1.33-.57-3.94.32-4.28.26-.09.43,0,3,2.13,1.27,1,1.88,1.57,1.92,2.29a2.14,2.14,0,0,1-.46,1.32,5.3,5.3,0,0,1-.91.8c-.45.36-.42.35-.56.45a7.57,7.57,0,0,1-1.95,1,6.36,6.36,0,0,0,0-.9,4.73,4.73,0,0,0-.22-1.15A5.3,5.3,0,0,0,177.6,97.73Z"/><path class="cls-182" d="M180.17,101.15a2.8,2.8,0,0,1-2.76.33c-1.35-.59-.43-3.78.7-4.12a1.89,1.89,0,0,1,1.44.32,7.22,7.22,0,0,0,.73.63c.39.27.53.27.62.42s.11.58-.49,1.39a.8.8,0,0,1,.9,0,.52.52,0,0,1,.12.25C181.49,100.82,181,101.16,180.17,101.15Z"/><path class="cls-183" d="M203.26,144.87c-2.15,1.94-5.88,2.1-6.69,2.14-3.83.16-4.38-1.5-8.17-1.34s-4.8,1.9-7.49,1.2a8.13,8.13,0,0,1-4.33-3.25c-5.61-7.34-.92-15.41-6.51-25.79a16.86,16.86,0,0,0-3.08-4.42c-4.83-4.78-9.44-2.6-15.53-6.44-5-3.14-8.34-9.46-6.89-12.31.65-1.29,1.22-1.12,2.11-1.23,1.48,2.52,5.15,5.58,9.37,7.37,4,1.69,7.09.88,13.21,1,3.75,0,10.18.14,15.27,2,12.75,4.57,17.47,20.08,18.86,24.67C204.61,132.41,207.28,141.22,203.26,144.87Z"/><path class="cls-184" d="M192.82,141.34c1.39-1.79-5.78-6.73-4.82-12.49.81-4.85,6.56-5.34,8-9.82.64-1.93.52-4.75-2.19-8.94,5.93,6.42,8.57,15.08,9.55,18.31,1.22,4,3.89,12.82-.13,16.47-2.15,1.94-5.88,2.1-6.69,2.14-3.83.16-4.38-1.5-8.17-1.34s-4.8,1.9-7.49,1.2a8.13,8.13,0,0,1-4.33-3.25l-.08-.12a11.62,11.62,0,0,1,5.43-3.05C187.21,139.27,191.69,142.79,192.82,141.34Z"/><path class="cls-185" d="M212.89,79.92a4,4,0,0,0,2.6-7.53l-.3-.08a23.82,23.82,0,0,0,.3-3.35l.31,0a4.17,4.17,0,0,0,3-4.71,3.52,3.52,0,0,0-4.27-3,2.8,2.8,0,0,0-.31.09,20.75,20.75,0,0,0-1.31-3,2.75,2.75,0,0,0,.26-.22,4.17,4.17,0,0,0,.5-5.58,3.53,3.53,0,0,0-5.22-.26,2.55,2.55,0,0,0-.23.24,19.45,19.45,0,0,0-2.57-1.81,2.88,2.88,0,0,0,.13-.31c.71-2.08,1.71-4.38-.22-5-4.47-1.46-6,.54-6.74,2.62l-.09.32a19.37,19.37,0,0,0-3.13-.16c0-.11,0-.22,0-.33-.34-2.13.14-3.37-1.92-3.13-4.49.54-5.73,2.69-5.4,4.82,0,.11.05.22.07.33a20.8,20.8,0,0,0-2.86,1.54,2.48,2.48,0,0,0-.19-.26,3.52,3.52,0,0,0-5.22-.26,4.17,4.17,0,0,0-.5,5.58l.21.23A22.27,22.27,0,0,0,178,59.48l-.29-.12a4,4,0,0,0-2.59,7.53c.1,0,.2.06.3.09a22.43,22.43,0,0,0-.31,3.34l-.31.06a4.16,4.16,0,0,0-3,4.7,3.52,3.52,0,0,0,4.27,3,1.58,1.58,0,0,0,.31-.09,22.06,22.06,0,0,0,1.31,3l-.25.21a4.16,4.16,0,0,0-.5,5.58c1.3,1.61,4.92,1.94,6.5.48.08-.08-1.13-.37-1.05-.45a19.28,19.28,0,0,0,2.56,1.8l-.12.31a3.69,3.69,0,1,0,7,2.4c0-.11.07-.22.1-.33a17.29,17.29,0,0,0,3.13.16,1.84,1.84,0,0,0,0,.33,3.53,3.53,0,0,0,4.28,3,4.16,4.16,0,0,0,3-4.7c0-.11,0-.22-.07-.33a20.18,20.18,0,0,0,2.86-1.53l.19.26a3.53,3.53,0,0,0,5.22.26,4.16,4.16,0,0,0,.5-5.58,1.57,1.57,0,0,0-.21-.24,22.73,22.73,0,0,0,1.83-2.82A2.36,2.36,0,0,0,212.89,79.92Zm-22.31,3.39c-7-2.4-10.51-10.47-7.91-18S193,53.57,200,56s10.51,10.46,7.91,18S197.55,85.71,190.58,83.31Z"/><path class="cls-185" d="M215.8,68.91a4.17,4.17,0,0,0,3-4.71,3.52,3.52,0,0,0-4.27-3,2.8,2.8,0,0,0-.31.09,20.75,20.75,0,0,0-1.31-3,2.75,2.75,0,0,0,.26-.22c1.58-1.47,3.33-4.73,1.87-6.2-2.78-2.79-5-1.11-6.59.36a2.55,2.55,0,0,0-.23.24,19.45,19.45,0,0,0-2.57-1.81,2.88,2.88,0,0,0,.13-.31,4.11,4.11,0,0,0-.22-3.24q-1.92,4.82-3.75,9.66c5.72,3.08,8.42,10.35,6.06,17.2a14.48,14.48,0,0,1-12.44,10c-.15.66-.3,1.31-.47,2-.46,1.75-1,3.49-1.59,5.22.51,0,1,0,1.53,0a1.84,1.84,0,0,0,0,.33c.34,2.13,1.89,3.77,5.57,3.06,2-.4,2.09-2.62,1.75-4.75,0-.11,0-.22-.07-.33a20.18,20.18,0,0,0,2.86-1.53l.19.26c1.31,1.61,5.09,1.85,6.67.38s.36-4.09-.95-5.7a1.57,1.57,0,0,0-.21-.24,22.73,22.73,0,0,0,1.83-2.82,2.36,2.36,0,0,0,.28.12,4,4,0,0,0,2.6-7.53l-.3-.08a23.82,23.82,0,0,0,.3-3.35Z"/><path class="cls-6" d="M217.76,68.86a4.16,4.16,0,0,0,3-4.7,3.53,3.53,0,0,0-4.27-3l-.31.09a20.75,20.75,0,0,0-1.31-3,2.75,2.75,0,0,0,.26-.22,4.17,4.17,0,0,0,.5-5.58,3.53,3.53,0,0,0-5.22-.26l-.24.24a17.82,17.82,0,0,0-2.56-1.8c0-.11.09-.21.13-.32a3.69,3.69,0,1,0-7-2.39l-.09.32a19.37,19.37,0,0,0-3.13-.16,3.11,3.11,0,0,0,0-.32,3.53,3.53,0,0,0-4.27-3,4.17,4.17,0,0,0-3,4.7c0,.12,0,.22.07.33a21.94,21.94,0,0,0-2.86,1.54,2.48,2.48,0,0,0-.19-.26A3.43,3.43,0,0,0,184,49.81a3.76,3.76,0,0,0-2,1,4.17,4.17,0,0,0-.5,5.58l.21.23a22.27,22.27,0,0,0-1.82,2.82l-.29-.11a4,4,0,0,0-2.6,7.52,1.81,1.81,0,0,0,.31.09,22.43,22.43,0,0,0-.31,3.34l-.31.06a4.16,4.16,0,0,0-3,4.7,3.53,3.53,0,0,0,4.27,3l.31-.09a20.75,20.75,0,0,0,1.31,3l-.26.21a4.16,4.16,0,0,0-.49,5.58,3.52,3.52,0,0,0,5.22.26,2.5,2.5,0,0,0,.23-.23,17.82,17.82,0,0,0,2.56,1.8,3,3,0,0,0-.12.32,3.69,3.69,0,1,0,6.95,2.39,2.23,2.23,0,0,0,.09-.32,18.4,18.4,0,0,0,3.14.15,1.84,1.84,0,0,0,0,.33,3.54,3.54,0,0,0,4.28,3,4.17,4.17,0,0,0,3-4.71,3,3,0,0,0-.07-.32A21.31,21.31,0,0,0,207,87.87l.19.26a3.53,3.53,0,0,0,5.22.26A4.25,4.25,0,0,0,213.59,84a3.63,3.63,0,0,0-.64-1.15,1.51,1.51,0,0,0-.21-.23,23.62,23.62,0,0,0,1.83-2.83,1.39,1.39,0,0,0,.28.12,4,4,0,0,0,2.6-7.53l-.3-.08a23.82,23.82,0,0,0,.3-3.35Zm-7.89,5.08a14.69,14.69,0,0,1-10.56,9.7,12.53,12.53,0,0,1-6.77-.38c-7-2.4-10.52-10.47-7.91-18a15.11,15.11,0,0,1,6-7.82A13,13,0,0,1,202,55.93C208.93,58.33,212.47,66.4,209.87,73.94Z"/><path class="cls-186" d="M212.45,88.39a3.53,3.53,0,0,1-5.22-.26l-.19-.26a21.31,21.31,0,0,1-2.86,1.54,3,3,0,0,1,.07.32,4.17,4.17,0,0,1-3,4.71,3.54,3.54,0,0,1-4.28-3,1.84,1.84,0,0,1,0-.33,18.4,18.4,0,0,1-3.14-.15,2.23,2.23,0,0,1-.09.32,3.69,3.69,0,1,1-6.95-2.39,3,3,0,0,1,.12-.32,17.82,17.82,0,0,1-2.56-1.8,2.5,2.5,0,0,1-.23.23,3.52,3.52,0,0,1-5.22-.26,4.16,4.16,0,0,1,.49-5.58l.26-.21a20.75,20.75,0,0,1-1.31-3l-.31.09a3.53,3.53,0,0,1-4.27-3,4.16,4.16,0,0,1,3-4.7l.31-.06a22.43,22.43,0,0,1,.31-3.34,1.81,1.81,0,0,1-.31-.09,4,4,0,0,1,2.6-7.52l.29.11a22.27,22.27,0,0,1,1.82-2.82l-.21-.23a4.17,4.17,0,0,1,.5-5.58,3.76,3.76,0,0,1,2-1c2.74,1.9,5.4,4.44,6.64,7.62a15.11,15.11,0,0,0-6,7.82c-2.61,7.54.94,15.61,7.91,18a12.53,12.53,0,0,0,6.77.38c3.43,2,8.09,2.43,14.28.32A4.25,4.25,0,0,1,212.45,88.39Z"/></g></g></g></svg>