<svg xmlns="http://www.w3.org/2000/svg" xmlns:xlink="http://www.w3.org/1999/xlink" viewBox="0 0 225 202"><defs><style>.cls-1{fill:url(#linear-gradient);}.cls-2{fill:none;}.cls-3{isolation:isolate;}.cls-4{fill:#0283f0;opacity:0.24;}.cls-5{clip-path:url(#clip-path);}.cls-6{fill:url(#linear-gradient-3);}.cls-21,.cls-22,.cls-23,.cls-24,.cls-7{mix-blend-mode:soft-light;}.cls-7{opacity:0.5;}.cls-21,.cls-22,.cls-23,.cls-24,.cls-8{fill:#fff;}.cls-9{fill:#25b5df;}.cls-10{clip-path:url(#clip-path-2);}.cls-11{fill:#fcfdfe;}.cls-12{fill:url(#Безымянный_градиент_78);}.cls-13{clip-path:url(#clip-path-3);}.cls-14{fill:#97a6b7;}.cls-15{fill:url(#linear-gradient-4);}.cls-16{fill:url(#linear-gradient-5);}.cls-17{fill:url(#linear-gradient-6);}.cls-18{fill:#d8dee8;}.cls-18,.cls-61,.cls-65,.cls-68{mix-blend-mode:multiply;}.cls-18,.cls-24,.cls-61,.cls-65,.cls-68{opacity:0.3;}.cls-19{fill:url(#linear-gradient-7);}.cls-20{fill:url(#linear-gradient-8);}.cls-21{opacity:0.6;}.cls-22{opacity:0.36;}.cls-25{fill:url(#linear-gradient-9);}.cls-26{fill:url(#linear-gradient-10);}.cls-27{fill:url(#linear-gradient-11);}.cls-28{fill:url(#linear-gradient-12);}.cls-29{fill:url(#linear-gradient-13);}.cls-30{fill:url(#linear-gradient-14);}.cls-31{fill:url(#linear-gradient-15);}.cls-32{fill:url(#linear-gradient-16);}.cls-33{fill:url(#linear-gradient-17);}.cls-34{fill:url(#linear-gradient-18);}.cls-35{fill:url(#linear-gradient-19);}.cls-36{fill:url(#linear-gradient-20);}.cls-37{fill:url(#linear-gradient-21);}.cls-38{fill:url(#linear-gradient-22);}.cls-39{fill:url(#linear-gradient-23);}.cls-40{fill:url(#linear-gradient-24);}.cls-41{fill:url(#linear-gradient-25);}.cls-42{fill:url(#linear-gradient-26);}.cls-43{fill:url(#linear-gradient-27);}.cls-44{fill:url(#linear-gradient-28);}.cls-45{fill:url(#linear-gradient-29);}.cls-46{fill:url(#linear-gradient-30);}.cls-47{fill:url(#linear-gradient-31);}.cls-48{fill:url(#linear-gradient-32);}.cls-49{fill:url(#linear-gradient-33);}.cls-50{fill:url(#linear-gradient-34);}.cls-51{fill:url(#linear-gradient-35);}.cls-52{fill:url(#linear-gradient-36);}.cls-53{fill:url(#linear-gradient-37);}.cls-54{fill:url(#linear-gradient-38);}.cls-55{fill:url(#linear-gradient-39);}.cls-56{fill:url(#linear-gradient-40);}.cls-57{fill:url(#linear-gradient-41);}.cls-58{fill:url(#linear-gradient-42);}.cls-59{fill:url(#linear-gradient-43);}.cls-60{fill:url(#linear-gradient-44);}.cls-61{fill:url(#linear-gradient-45);}.cls-62{fill:url(#linear-gradient-46);}.cls-63{fill:url(#linear-gradient-47);}.cls-64{fill:url(#linear-gradient-48);}.cls-65{fill:url(#linear-gradient-49);}.cls-66{fill:url(#linear-gradient-50);}.cls-67{fill:url(#linear-gradient-51);}.cls-68{fill:url(#linear-gradient-52);}.cls-69{fill:url(#linear-gradient-53);}.cls-70{fill:url(#linear-gradient-54);}.cls-71{fill:url(#linear-gradient-55);}.cls-72{fill:url(#linear-gradient-56);}</style><linearGradient id="linear-gradient" x1="7116.92" y1="2174.03" x2="7226.91" y2="2174.03" gradientTransform="matrix(-0.67, -0.74, -0.74, 0.67, 6539.02, 3955.1)" gradientUnits="userSpaceOnUse"><stop offset="0" stop-color="#ffc444"/><stop offset="1" stop-color="#f36f56"/></linearGradient><clipPath id="clip-path"><path class="cls-1" d="M145.8,132.42l-20.37-.76s-3.42-9.8,1.87-16.44c10.79-13.53-2.79-21.32-7.94-25.37-7.78-6.11-11.76-14.63.21-17.83s.83-20.55-13.27-28.74C92.5,35.26,100,8,131.54,22.78c18.87,8.84,15,27.56,15.54,37.44s16.3,11.28,10.36,23.11c-5.08,10.1-14.2,17.27-7.79,24.58S156.41,123.16,145.8,132.42Z"/></clipPath><linearGradient id="linear-gradient-3" x1="11247.55" y1="1056.06" x2="11209.77" y2="1163.44" gradientTransform="matrix(-1, -0.04, -0.04, 1, 11397.27, -583.39)" xlink:href="#linear-gradient"/><clipPath id="clip-path-2"><path class="cls-2" d="M126.14,106.58l14.21,10.61s12.73-3.38,11.39-9.94S161.48,96.08,167,93c15-8.44,1.35-22.43,19.61-34.77,4.86-3.28,15.44-8,16-14.55.62-7.52-6.48-7.92-5.23-13.33,2-8.45-2.17-17.25-11.79-17.66s-16.73,12.74-15.1,32.22c-.55,14-2.78,15.69-9.06,18.84-4.39,2.22-17.89,5.52-17.64,13.6s-.87,15.13-7.08,16.14C127.26,95,126.14,106.58,126.14,106.58Z"/></clipPath><linearGradient id="Безымянный_градиент_78" x1="7189.81" y1="2418.32" x2="7248.49" y2="2514.92" gradientTransform="translate(-3407.49 -6675.41) rotate(43.31)" gradientUnits="userSpaceOnUse"><stop offset="0" stop-color="#3cc"/><stop offset="0.41" stop-color="#f2bfff"/><stop offset="0.98" stop-color="#f2bfff"/></linearGradient><clipPath id="clip-path-3"><path class="cls-2" d="M124.85,109.41l21.23,18.26c3.92-1.53,10.44-5,7.22-10-4.48-7,5.16-16.4,10.31-18.22C170,97.24,184.69,91.7,178,80.86c-5.62-9-11.21-13.89-2.57-23.11s8.83-19.5-.91-27C164.22,22.85,168,4.82,156.13,1.62,135.52-4,127.79,26.2,138.72,46.44s-4.19,17.05-12.16,23.8c-10.88,9.22,6.62,20.5,6.64,27.86C133.21,103.88,128.26,107.51,124.85,109.41Z"/></clipPath><linearGradient id="linear-gradient-4" x1="10337.3" y1="161.31" x2="10337.3" y2="181.23" gradientTransform="matrix(-1, 0, 0, 1, 10436.28, 0)" gradientUnits="userSpaceOnUse"><stop offset="0" stop-color="#444b8c"/><stop offset="1" stop-color="#26264f"/></linearGradient><linearGradient id="linear-gradient-5" x1="10336.09" y1="106.99" x2="10275.21" y2="103.62" gradientTransform="matrix(-1, 0, 0, 1, 10436.28, 0)" gradientUnits="userSpaceOnUse"><stop offset="0" stop-color="#444b8c"/><stop offset="0.39" stop-color="#383c74"/><stop offset="1" stop-color="#26264f"/></linearGradient><linearGradient id="linear-gradient-6" x1="10231.71" y1="101.5" x2="10422.99" y2="101.5" xlink:href="#linear-gradient-4"/><linearGradient id="linear-gradient-7" x1="10237.35" y1="97.32" x2="10419.01" y2="97.32" gradientTransform="matrix(-1, 0, 0, 1, 10436.28, 0)" gradientUnits="userSpaceOnUse"><stop offset="0" stop-color="#aa80f9"/><stop offset="1" stop-color="#6165d7"/></linearGradient><linearGradient id="linear-gradient-8" x1="97.04" y1="144.06" x2="143.6" y2="83.33" gradientUnits="userSpaceOnUse"><stop offset="0" stop-color="#53d8ff"/><stop offset="1" stop-color="#3840f7"/></linearGradient><linearGradient id="linear-gradient-9" x1="6589.23" y1="-1196.87" x2="6597.07" y2="-1196.87" gradientTransform="matrix(0.78, -0.63, 0.63, 0.78, -4280.29, 5183.05)" gradientUnits="userSpaceOnUse"><stop offset="0" stop-color="#311944"/><stop offset="1" stop-color="#893976"/></linearGradient><linearGradient id="linear-gradient-10" x1="6621.81" y1="-1201.57" x2="6614.48" y2="-1198.8" xlink:href="#linear-gradient-9"/><linearGradient id="linear-gradient-11" x1="6587.85" y1="-1187.11" x2="6594.91" y2="-1190.52" xlink:href="#linear-gradient-9"/><linearGradient id="linear-gradient-12" x1="6592.84" y1="-1176.79" x2="6596.57" y2="-1183.69" xlink:href="#linear-gradient-9"/><linearGradient id="linear-gradient-13" x1="9733.84" y1="281.02" x2="9727.07" y2="277.06" gradientTransform="translate(-3380.11 9184.39) rotate(-70.5)" xlink:href="#linear-gradient-9"/><linearGradient id="linear-gradient-14" x1="6621.23" y1="-1180.05" x2="6615.4" y2="-1185.3" xlink:href="#linear-gradient-9"/><linearGradient id="linear-gradient-15" x1="6606.19" y1="-1199.38" x2="6605.96" y2="-1176.3" xlink:href="#linear-gradient-9"/><linearGradient id="linear-gradient-16" x1="6609.84" y1="-1215.29" x2="6607.99" y2="-1206.47" gradientTransform="matrix(0.78, -0.63, 0.63, 0.78, -4280.29, 5183.05)" xlink:href="#linear-gradient"/><linearGradient id="linear-gradient-17" x1="6614.73" y1="-1201.34" x2="6615.19" y2="-1242.52" gradientTransform="matrix(0.78, -0.63, 0.63, 0.78, -4280.29, 5183.05)" xlink:href="#linear-gradient"/><linearGradient id="linear-gradient-18" x1="6596.72" y1="-1201.54" x2="6597.18" y2="-1242.72" gradientTransform="matrix(0.78, -0.63, 0.63, 0.78, -4280.29, 5183.05)" xlink:href="#linear-gradient"/><linearGradient id="linear-gradient-19" x1="10294.73" y1="119.48" x2="10321.09" y2="119.48" gradientTransform="matrix(-1, 0, 0, 1, 10436.28, 0)" gradientUnits="userSpaceOnUse"><stop offset="0" stop-color="#ff9085"/><stop offset="1" stop-color="#fb6fbb"/></linearGradient><linearGradient id="linear-gradient-20" x1="10305.68" y1="123.63" x2="10321.09" y2="123.63" xlink:href="#linear-gradient-19"/><linearGradient id="linear-gradient-21" x1="7581.4" y1="-1909.35" x2="7497.28" y2="-1799.34" gradientTransform="matrix(-0.78, 0.63, 0.63, 0.78, 6356.31, -3368.78)" gradientUnits="userSpaceOnUse"><stop offset="0" stop-color="#311944"/><stop offset="1" stop-color="#a03976"/></linearGradient><linearGradient id="linear-gradient-22" x1="7594.37" y1="-1899.4" x2="7510.25" y2="-1789.39" xlink:href="#linear-gradient-21"/><linearGradient id="linear-gradient-23" x1="9670.13" y1="1998.69" x2="9676.81" y2="1998.69" gradientTransform="matrix(0.79, 0.62, -0.62, 0.79, -6326.79, -7513.88)" xlink:href="#linear-gradient-9"/><linearGradient id="linear-gradient-24" x1="9697.86" y1="1994.7" x2="9691.62" y2="1997.05" gradientTransform="matrix(0.79, 0.62, -0.62, 0.79, -6326.79, -7513.88)" xlink:href="#linear-gradient-9"/><linearGradient id="linear-gradient-25" x1="9668.95" y1="2007" x2="9674.97" y2="2004.1" gradientTransform="matrix(0.79, 0.62, -0.62, 0.79, -6326.79, -7513.88)" xlink:href="#linear-gradient-9"/><linearGradient id="linear-gradient-26" x1="9673.2" y1="2015.78" x2="9676.38" y2="2009.91" gradientTransform="matrix(0.79, 0.62, -0.62, 0.79, -6326.79, -7513.88)" xlink:href="#linear-gradient-9"/><linearGradient id="linear-gradient-27" x1="10672.2" y1="4615.47" x2="10666.43" y2="4612.1" gradientTransform="matrix(0.99, 0.11, -0.11, 0.99, -10024.76, -5740.15)" xlink:href="#linear-gradient-9"/><linearGradient id="linear-gradient-28" x1="9697.36" y1="2013.01" x2="9692.4" y2="2008.54" gradientTransform="matrix(0.79, 0.62, -0.62, 0.79, -6326.79, -7513.88)" xlink:href="#linear-gradient-9"/><linearGradient id="linear-gradient-29" x1="9684.57" y1="1996.56" x2="9684.37" y2="2016.2" gradientTransform="matrix(0.79, 0.62, -0.62, 0.79, -6326.79, -7513.88)" xlink:href="#linear-gradient-9"/><linearGradient id="linear-gradient-30" x1="9687.67" y1="1983.02" x2="9686.09" y2="1990.52" gradientTransform="matrix(0.79, 0.62, -0.62, 0.79, -6326.79, -7513.88)" xlink:href="#linear-gradient"/><linearGradient id="linear-gradient-31" x1="9691.83" y1="1994.89" x2="9692.22" y2="1959.84" gradientTransform="matrix(0.79, 0.62, -0.62, 0.79, -6326.79, -7513.88)" xlink:href="#linear-gradient"/><linearGradient id="linear-gradient-32" x1="9676.51" y1="1994.72" x2="9676.89" y2="1959.67" gradientTransform="matrix(0.79, 0.62, -0.62, 0.79, -6326.79, -7513.88)" xlink:href="#linear-gradient"/><linearGradient id="linear-gradient-33" x1="5896.46" y1="679.35" x2="5918.89" y2="679.35" gradientTransform="matrix(-0.22, -0.97, -0.97, 0.22, 2021.96, 5667.06)" xlink:href="#linear-gradient-19"/><linearGradient id="linear-gradient-34" x1="5906.09" y1="682.89" x2="5918.65" y2="682.89" gradientTransform="matrix(-0.22, -0.97, -0.97, 0.22, 2021.96, 5667.06)" xlink:href="#linear-gradient-19"/><linearGradient id="linear-gradient-35" x1="4217.74" y1="2364.48" x2="4184.77" y2="2319.12" gradientTransform="matrix(-0.79, -0.62, -0.62, 0.79, 4390.92, 935.94)" xlink:href="#linear-gradient-21"/><linearGradient id="linear-gradient-36" x1="4228.57" y1="2356.6" x2="4195.6" y2="2311.24" gradientTransform="matrix(-0.79, -0.62, -0.62, 0.79, 4390.92, 935.94)" xlink:href="#linear-gradient-21"/><linearGradient id="linear-gradient-37" x1="10338.99" y1="192.91" x2="10220.84" y2="143.18" gradientTransform="matrix(-1, 0, 0, 1, 10436.28, 0)" xlink:href="#linear-gradient-8"/><linearGradient id="linear-gradient-38" x1="10339.08" y1="192.7" x2="10220.93" y2="142.97" gradientTransform="matrix(-1, 0, 0, 1, 10436.28, 0)" xlink:href="#linear-gradient-8"/><linearGradient id="linear-gradient-39" x1="10265.34" y1="139.1" x2="10266.37" y2="222.75" gradientTransform="matrix(-1, 0, 0, 1, 10436.28, 0)" xlink:href="#linear-gradient-8"/><linearGradient id="linear-gradient-40" x1="11170.81" y1="199.34" x2="11172.42" y2="219.71" gradientTransform="matrix(-1, 0, 0, 1, 11235.43, 14.3)" xlink:href="#linear-gradient-21"/><linearGradient id="linear-gradient-41" x1="11174.95" y1="210.68" x2="11174.66" y2="189.58" gradientTransform="matrix(-1, 0, 0, 1, 11235.43, 14.3)" xlink:href="#linear-gradient"/><linearGradient id="linear-gradient-42" x1="11201.06" y1="196.96" x2="11202.66" y2="217.33" gradientTransform="matrix(-1, 0, 0, 1, 11235.43, 14.3)" xlink:href="#linear-gradient-21"/><linearGradient id="linear-gradient-43" x1="11202.67" y1="210.3" x2="11202.37" y2="189.2" gradientTransform="matrix(-1, 0, 0, 1, 11235.43, 14.3)" xlink:href="#linear-gradient"/><linearGradient id="linear-gradient-44" x1="11169.91" y1="176.5" x2="11185.51" y2="176.5" gradientTransform="matrix(-1, 0, 0, 1, 11235.43, 14.3)" gradientUnits="userSpaceOnUse"><stop offset="0" stop-color="#444b8c"/><stop offset="1" stop-color="#3e4177"/></linearGradient><linearGradient id="linear-gradient-45" x1="11169.91" y1="176.5" x2="11185.51" y2="176.5" xlink:href="#linear-gradient-44"/><linearGradient id="linear-gradient-46" x1="11174.24" y1="174.96" x2="11205.64" y2="174.96" xlink:href="#linear-gradient-44"/><linearGradient id="linear-gradient-47" x1="10401.64" y1="91.43" x2="10366.26" y2="149.52" gradientTransform="matrix(-1, 0, 0, 1, 10436.28, 0)" xlink:href="#linear-gradient"/><linearGradient id="linear-gradient-48" x1="10391.17" y1="73.86" x2="10391.93" y2="100.25" xlink:href="#linear-gradient-4"/><linearGradient id="linear-gradient-49" x1="10353.28" y1="121.44" x2="10378.54" y2="121.44" gradientTransform="matrix(-1, 0, 0, 1, 10436.28, 0)" xlink:href="#linear-gradient"/><linearGradient id="linear-gradient-50" x1="11882.34" y1="-2539.5" x2="11888.03" y2="-2539.5" gradientTransform="matrix(-0.86, 0.52, 0.52, 0.86, 11567.31, -3858.77)" xlink:href="#linear-gradient"/><linearGradient id="linear-gradient-51" x1="10420.78" y1="103.09" x2="10385.4" y2="161.18" gradientTransform="matrix(-1, 0, 0, 1, 10436.28, 0)" xlink:href="#linear-gradient"/><linearGradient id="linear-gradient-52" x1="10754.4" y1="372.98" x2="10806.23" y2="372.98" gradientTransform="matrix(-1, -0.07, -0.07, 1, 10821.77, 488.08)" xlink:href="#linear-gradient"/><linearGradient id="linear-gradient-53" x1="10343.06" y1="133.26" x2="10407.4" y2="133.26" xlink:href="#linear-gradient-4"/><linearGradient id="linear-gradient-54" x1="10283.72" y1="112.95" x2="10350.11" y2="112.95" xlink:href="#linear-gradient-4"/><linearGradient id="linear-gradient-55" x1="-7824.14" y1="4067.74" x2="-7861.09" y2="3991.82" gradientTransform="matrix(0.87, 0.49, -0.49, 0.87, 8914.06, 740.78)" xlink:href="#linear-gradient-4"/><linearGradient id="linear-gradient-56" x1="-7987.53" y1="3755.52" x2="-7942.2" y2="3805.43" gradientTransform="matrix(0.87, 0.49, -0.49, 0.87, 8914.06, 740.78)" xlink:href="#linear-gradient-4"/></defs><g class="cls-3"><g id="Illustration"><path class="cls-4" d="M109.56,9.81c51.19-1.48,95.53,34.86,102.23,82.54,7.33,52.13-33,99-82.59,106.55C67.49,208.24,7.65,154.18,13,95.54,17.07,51.35,57.52,11.31,109.56,9.81Z"/><path class="cls-1" d="M145.8,132.42l-20.37-.76s-3.42-9.8,1.87-16.44c10.79-13.53-2.79-21.32-7.94-25.37-7.78-6.11-11.76-14.63.21-17.83s.83-20.55-13.27-28.74C92.5,35.26,100,8,131.54,22.78c18.87,8.84,15,27.56,15.54,37.44s16.3,11.28,10.36,23.11c-5.08,10.1-14.2,17.27-7.79,24.58S156.41,123.16,145.8,132.42Z"/><g class="cls-5"><path class="cls-6" d="M145.8,132.42l-20.37-.76s-3.42-9.8,1.87-16.44c10.79-13.53-2.79-21.32-7.94-25.37-7.78-6.11-11-13.75-1.13-18.26,11.17-5.1,2.17-20.12-11.93-28.31C92.5,35.26,100,8,131.54,22.78c18.87,8.84,15,27.56,15.54,37.44s16.3,11.28,10.36,23.11c-5.08,10.1-14.2,17.27-7.79,24.58S156.41,123.16,145.8,132.42Z"/><g class="cls-7"><path class="cls-8" d="M136.91,133.84l-.42-.09c.06-.24,5.82-24.33,3.75-49.81-1.91-23.47-11.06-53-43.8-60.13l.1-.38c14.57,3.19,25.76,11,33.26,23.19,6,9.74,9.65,22.29,10.87,37.3C142.75,109.45,137,133.6,136.91,133.84Z"/><path class="cls-8" d="M132.7,51.84l-.43-.07C134.61,38.7,130,19.85,130,19.66l.42-.09C130.43,19.76,135.05,38.69,132.7,51.84Z"/><path class="cls-8" d="M127.46,43.84a38.34,38.34,0,0,0-28-5.34l-.12-.38a38.79,38.79,0,0,1,28.32,5.39Z"/><path class="cls-8" d="M140.61,100.66c-4-18.92-31.37-24.54-31.65-24.57l0-.4c.27,0,28,5.81,32.05,24.9Z"/><path class="cls-8" d="M141.09,92.73l-.42-.1c3.23-11.94,17.72-19.7,17.86-19.77l.22.34C158.6,73.28,144.28,81,141.09,92.73Z"/><path class="cls-8" d="M137.31,129.94c-.31-7.32-11.33-13.51-11.44-13.58l.22-.34c.47.26,11.33,6.37,11.65,13.91Z"/><path class="cls-8" d="M138.75,124.25l-.42-.08c1.3-5.67,10.91-11.67,14.06-13.65.45-.28.83-.52.89-.57l.31.27a8.58,8.58,0,0,1-1,.63C149.51,112.8,140,118.74,138.75,124.25Z"/></g></g><path class="cls-9" d="M136.71,93.46c-5.43.88-8,5.23-9.26,8.65a5.11,5.11,0,0,1,.63,1.15c2.07,4.13,3.9,5.48,6.64,9.25a24.65,24.65,0,0,0,4.18,3.43l2,1.3s12.14-3.43,10.8-10S161.48,96.08,167,93c3.41-1.91,4.3-3.79,5.43-4.68,12-9.4,18.5-8.49,20.35-13.75,2-5.81-5.34-8.58-3.47-15,2.11-7.25,12.95-8.6,13.28-15.88a9,9,0,0,0-.55-4.1c-1.57-3.84-5.65-5-4.68-9.23,2-8.45-2.17-17.25-11.79-17.66s-16.73,12.74-15.1,32.22c-.55,14-2.78,15.69-9.06,18.84-4.39,2.22-17.89,5.52-17.64,13.6S142.92,92.45,136.71,93.46Z"/><g class="cls-10"><g class="cls-7"><path class="cls-11" d="M133,110.74l.25.24c1.44-1.27,2.88-2.58,4.27-3.88a183,183,0,0,0,26.39-30.39,143.31,143.31,0,0,0,14.83-27.62,119.07,119.07,0,0,0,6.59-22.76,97.11,97.11,0,0,0,1.58-15.45c0-.86,0-1.75-.06-2.6a33.31,33.31,0,0,1,0-3.46l-.35,0a33.68,33.68,0,0,0,0,3.48c0,.86.07,1.74.06,2.59A96.51,96.51,0,0,1,185,26.25,118.74,118.74,0,0,1,178.42,49a142.78,142.78,0,0,1-14.8,27.57,184.09,184.09,0,0,1-26.34,30.34C135.89,108.16,134.45,109.47,133,110.74Z"/><path class="cls-11" d="M173.34,60.17l.32.17c6.53-11.94,29.58-20.86,29.82-21l-.16-.3C203.09,39.18,179.93,48.14,173.34,60.17Z"/><path class="cls-11" d="M151.74,91.87l.3.2c5.52-7.57-.16-25.3-.22-25.47l-.34.07C151.54,66.84,157.17,84.43,151.74,91.87Z"/><path class="cls-11" d="M148.19,95.89l.25.23c4.55-4.2,13.39-7.53,24.9-9.36.58-.09.58-.09.62-.13l-.25-.24.13.12-.08-.15-.51.08C161.68,88.28,152.78,91.64,148.19,95.89Z"/><path class="cls-11" d="M135.6,108.37l.32.17c3.24-5.86-1.42-15.28-1.47-15.38l-.31.12C134.18,93.37,138.77,102.65,135.6,108.37Z"/><path class="cls-11" d="M133.32,111.16c5.35-2,11.63-2.7,19.2-2v-.32c-7.63-.71-14,0-19.37,2Z"/><path class="cls-11" d="M184.11,30.68l.32.15a80.63,80.63,0,0,1,10.08-15.35,6.78,6.78,0,0,0,.59-.76l-.31-.15s-.27.34-.57.71A81.51,81.51,0,0,0,184.11,30.68Z"/><path class="cls-11" d="M180.74,42.66l.35.06c.74-7.11-9.29-18.86-9.72-19.36l-.27.19C171.2,23.67,181.47,35.69,180.74,42.66Z"/></g></g><path class="cls-12" d="M125.1,114.08c1,.68-3,11.36,5.28,8.14,2.06-.81,7.68-4.92,14.59.7l4,3.28c3.88-1.72,7.18-4,4.3-8.48-4.48-7,5.16-16.4,10.31-18.22C170,97.24,184.69,91.7,178,80.86c-5.62-9-11.21-13.89-2.57-23.11s8.83-19.5-.91-27C164.22,22.85,168,4.82,156.13,1.62,135.52-4,127.79,26.2,138.72,46.44s-4.19,17.05-12.16,23.8a18,18,0,0,0-2.69,3.24C118,82.66,125.2,91.42,125,103,124.67,118.67,123.39,112.93,125.1,114.08Z"/><g class="cls-13"><g class="cls-7"><path class="cls-11" d="M137.83,115.13l.53.31c22.93-34,26.93-79,10.43-117.28l-.57.18C164.65,36.47,160.67,81.22,137.83,115.13Z"/><path class="cls-11" d="M148.52,95.5l.46.4c11.84-11.35,32.35-10.43,32.55-10.42v-.55C181.33,84.91,160.55,84,148.52,95.5Z"/><path class="cls-11" d="M141.85,108.75l.6.16c4.23-15.62-18.52-38.09-18.75-38.31l-.44.37C123.49,71.19,146,93.42,141.85,108.75Z"/><path class="cls-11" d="M157.91,56.8l.58.21C163,45,182.81,37.59,183,37.52l-.26-.52C182.55,37.07,162.52,44.55,157.91,56.8Z"/><path class="cls-11" d="M157.21,30.79l.59-.12C153.21,16.3,134.15,5.51,134,5.4l-.3.47C133.84,6,152.69,16.66,157.21,30.79Z"/></g></g><path class="cls-14" d="M80.67,180.29a8.46,8.46,0,0,0,5.61-6.38l4.18-20.66,35.71,1.27,4.39,21.53c.62,3-1.85,6-4.68,7.14L110.94,189a19.46,19.46,0,0,1-8.74,1.27l-31.57-2.7a2,2,0,0,1-1.77-1.74c-.11-.93-.76-2,.12-2.27Z"/><path class="cls-15" d="M80.31,179a8.39,8.39,0,0,0,5.61-6.3l4.17-20.4,34.84,1.25,4.39,21.25a6.21,6.21,0,0,1-3.84,7.06l-14.93,5.77a19.51,19.51,0,0,1-8.72,1.25l-31.55-2.66a1.95,1.95,0,0,1-.44-3.79Z"/><path class="cls-16" d="M199.14,167c3.87.23,7-2.29,7-5.61V41.72c0-3.32-3.17-5.88-7-5.72L19.27,48.46c-2.84.12-4.37-2.18-4.37.65V150.88a5.53,5.53,0,0,0,5.15,5.43Z"/><path class="cls-17" d="M197.53,167c3.87.23,7-2.29,7-5.61V41.72c0-3.32-3.17-5.88-7-5.72L18.44,43.76a5.42,5.42,0,0,0-5.15,5.35V150.88a5.53,5.53,0,0,0,5.15,5.43Z"/><path class="cls-18" d="M18.44,46.16l179.09-7.37c2.07-.08,3.75,1.28,3.75,3.06V161.2c0,1.78-1.68,3.12-3.75,3L18.44,153.91a2.94,2.94,0,0,1-2.76-2.9V49A2.89,2.89,0,0,1,18.44,46.16Z"/><path class="cls-19" d="M19.77,145.3,195.59,154a3,3,0,0,0,3.34-2.72V43.42a3,3,0,0,0-3.34-2.77L19.77,47.18a2.6,2.6,0,0,0-2.5,2.58v92.93A2.65,2.65,0,0,0,19.77,145.3Z"/><circle class="cls-20" cx="120.46" cy="113.52" r="31.22"/><polygon class="cls-21" points="151.73 52.04 191.88 50.86 191.88 47.03 151.73 48.33 151.73 52.04"/><polygon class="cls-22" points="132.82 51.53 142.09 51.26 142.09 48.64 132.82 48.94 132.82 51.53"/><polygon class="cls-22" points="132.82 55.14 142.09 54.89 142.09 52.27 132.82 52.55 132.82 55.14"/><polygon class="cls-23" points="86.59 56.41 122.58 55.42 122.58 52.85 86.59 53.91 86.59 56.41"/><polygon class="cls-23" points="80.69 60.03 116.32 59.15 116.32 56.59 80.69 57.54 80.69 60.03"/><polygon class="cls-23" points="80.69 63.48 116.32 62.71 116.32 60.15 80.69 60.99 80.69 63.48"/><polygon class="cls-23" points="80.69 66.94 116.32 66.27 116.32 63.71 80.69 64.45 80.69 66.94"/><polygon class="cls-22" points="132.82 58.75 142.09 58.52 142.09 55.91 132.82 56.15 132.82 58.75"/><polygon class="cls-22" points="132.82 62.36 142.09 62.16 142.09 59.54 132.82 59.76 132.82 62.36"/><polygon class="cls-22" points="132.82 65.96 142.09 65.79 142.09 63.17 132.82 63.37 132.82 65.96"/><polygon class="cls-22" points="132.82 69.57 142.09 69.42 142.09 66.81 132.82 66.97 132.82 69.57"/><polygon class="cls-23" points="107.96 69.96 130.79 69.6 130.79 67.01 107.96 67.42 107.96 69.96"/><polygon class="cls-22" points="132.82 73.18 142.09 73.06 142.09 70.44 132.82 70.58 132.82 73.18"/><polygon class="cls-22" points="132.82 76.79 142.09 76.69 142.09 74.08 132.82 74.19 132.82 76.79"/><polygon class="cls-22" points="132.82 80.39 142.09 80.33 142.09 77.71 132.82 77.8 132.82 80.39"/><polygon class="cls-23" points="97.26 73.64 122.58 73.31 122.58 70.74 97.26 71.12 97.26 73.64"/><polygon class="cls-23" points="84.11 77.27 116.32 76.95 116.32 74.39 84.11 74.78 84.11 77.27"/><polygon class="cls-23" points="84.11 80.74 116.32 80.51 116.32 77.95 84.11 78.25 84.11 80.74"/><polygon class="cls-22" points="132.82 84 142.09 83.96 142.09 81.35 132.82 81.4 132.82 84"/><polygon class="cls-22" points="132.82 87.61 142.09 87.59 142.09 84.98 132.82 85.01 132.82 87.61"/><polygon class="cls-22" points="132.82 91.22 142.09 91.23 142.09 88.61 132.82 88.62 132.82 91.22"/><polygon class="cls-22" points="132.82 94.82 142.09 94.86 142.09 92.25 132.82 92.23 132.82 94.82"/><polygon class="cls-22" points="132.82 98.43 142.09 98.5 142.09 95.88 132.82 95.83 132.82 98.43"/><polygon class="cls-22" points="132.82 102.04 142.09 102.13 142.09 99.52 132.82 99.44 132.82 102.04"/><polygon class="cls-22" points="132.82 105.64 142.09 105.77 142.09 103.15 132.82 103.05 132.82 105.64"/><polygon class="cls-22" points="132.82 109.25 142.09 109.4 142.09 106.78 132.82 106.66 132.82 109.25"/><polygon class="cls-22" points="132.82 112.86 142.09 113.03 142.09 110.42 132.82 110.26 132.82 112.86"/><polygon class="cls-22" points="132.82 116.47 142.09 116.67 142.09 114.05 132.82 113.87 132.82 116.47"/><polygon class="cls-22" points="132.82 120.07 142.09 120.3 142.09 117.69 132.82 117.48 132.82 120.07"/><polygon class="cls-22" points="132.82 123.68 142.09 123.94 142.09 121.32 132.82 121.08 132.82 123.68"/><polygon class="cls-22" points="132.82 127.29 142.09 127.57 142.09 124.95 132.82 124.69 132.82 127.29"/><polygon class="cls-22" points="132.82 130.89 142.09 131.2 142.09 128.59 132.82 128.3 132.82 130.89"/><polygon class="cls-22" points="132.82 134.5 142.09 134.84 142.09 132.22 132.82 131.91 132.82 134.5"/><polygon class="cls-22" points="132.82 138.11 142.09 138.47 142.09 135.86 132.82 135.51 132.82 138.11"/><polygon class="cls-22" points="132.82 141.72 142.09 142.11 142.09 139.49 132.82 139.12 132.82 141.72"/><polygon class="cls-22" points="132.82 145.32 142.09 145.74 142.09 143.12 132.82 142.73 132.82 145.32"/><polygon class="cls-23" points="105.56 52.36 130.86 51.59 130.86 49 105.56 49.82 105.56 52.36"/><polygon class="cls-23" points="86.59 125.88 122.58 126.97 122.58 124.4 86.59 123.38 86.59 125.88"/><polygon class="cls-23" points="80.69 129.16 116.32 130.34 116.32 127.78 80.69 126.67 80.69 129.16"/><polygon class="cls-23" points="80.69 132.61 116.32 133.9 116.32 131.34 80.69 130.13 80.69 132.61"/><polygon class="cls-23" points="65.34 135.47 100.04 136.83 100.04 134.3 65.34 133.01 65.34 135.47"/><polygon class="cls-23" points="65.34 138.88 100.04 140.34 100.04 137.81 65.34 136.43 65.34 138.88"/><polygon class="cls-23" points="65.34 142.29 100.04 143.85 100.04 141.32 65.34 139.84 65.34 142.29"/><polygon class="cls-23" points="105.56 122.93 130.86 123.63 130.86 121.03 105.56 120.39 105.56 122.93"/><polygon class="cls-23" points="86.59 87.67 122.58 87.62 122.58 85.05 86.59 85.17 86.59 87.67"/><polygon class="cls-23" points="80.69 91.14 116.32 91.19 116.32 88.63 80.69 88.65 80.69 91.14"/><polygon class="cls-23" points="80.69 94.59 116.32 94.75 116.32 92.19 80.69 92.1 80.69 94.59"/><polygon class="cls-23" points="80.69 98.05 116.32 98.31 116.32 95.75 80.69 95.56 80.69 98.05"/><polygon class="cls-23" points="107.96 101.78 130.79 102.02 130.79 99.42 107.96 99.24 107.96 101.78"/><polygon class="cls-23" points="97.26 105.18 122.58 105.51 122.58 102.94 97.26 102.66 97.26 105.18"/><polygon class="cls-23" points="84.11 108.47 116.32 108.99 116.32 106.42 84.11 105.98 84.11 108.47"/><polygon class="cls-23" points="84.11 111.94 116.32 112.55 116.32 109.98 84.11 109.44 84.11 111.94"/><polygon class="cls-23" points="76.97 115.25 108.79 115.94 108.79 113.4 76.97 112.77 76.97 115.25"/><polygon class="cls-23" points="76.97 118.69 108.79 119.48 108.79 116.93 76.97 116.22 76.97 118.69"/><polygon class="cls-23" points="105.56 84.12 130.86 84.01 130.86 81.42 105.56 81.58 105.56 84.12"/><polygon class="cls-23" points="151.73 57.84 174.71 57.27 174.71 53.49 151.73 54.13 151.73 57.84"/><polygon class="cls-21" points="180.65 57.12 176.32 57.23 176.32 53.44 180.65 53.32 180.65 57.12"/><polygon class="cls-21" points="151.73 63.17 174.71 62.7 174.71 58.92 151.73 59.46 151.73 63.17"/><polygon class="cls-21" points="180.65 62.57 176.32 62.66 176.32 58.88 180.65 58.78 180.65 62.57"/><polygon class="cls-21" points="151.73 68.5 174.71 68.13 174.71 64.35 151.73 64.79 151.73 68.5"/><polygon class="cls-21" points="180.65 68.03 176.32 68.1 176.32 64.32 180.65 64.23 180.65 68.03"/><polygon class="cls-23" points="151.73 106.37 191.88 106.91 191.88 103.08 151.73 102.66 151.73 106.37"/><polygon class="cls-21" points="151.73 112.17 174.71 112.58 174.71 108.8 151.73 108.45 151.73 112.17"/><polygon class="cls-21" points="180.65 112.69 176.32 112.61 176.32 108.83 180.65 108.89 180.65 112.69"/><polygon class="cls-21" points="151.73 117.5 174.71 118.01 174.71 114.23 151.73 113.79 151.73 117.5"/><polygon class="cls-21" points="180.65 118.14 176.32 118.05 176.32 114.27 180.65 114.35 180.65 118.14"/><polygon class="cls-21" points="151.73 122.83 174.71 123.44 174.71 119.67 151.73 119.12 151.73 122.83"/><polygon class="cls-21" points="180.65 123.6 176.32 123.49 176.32 119.7 180.65 119.81 180.65 123.6"/><polygon class="cls-23" points="151.73 73.88 191.88 73.39 191.88 69.56 151.73 70.16 151.73 73.88"/><polygon class="cls-21" points="151.73 79.67 174.71 79.5 174.71 75.72 151.73 75.96 151.73 79.67"/><polygon class="cls-21" points="180.65 79.45 176.32 79.49 176.32 75.7 180.65 75.66 180.65 79.45"/><polygon class="cls-21" points="151.73 85.01 174.71 84.93 174.71 81.15 151.73 81.3 151.73 85.01"/><polygon class="cls-21" points="180.65 84.91 176.32 84.92 176.32 81.14 180.65 81.11 180.65 84.91"/><polygon class="cls-21" points="151.73 95.75 174.71 95.86 174.71 92.08 151.73 92.03 151.73 95.75"/><polygon class="cls-21" points="180.65 95.89 176.32 95.87 176.32 92.09 180.65 92.1 180.65 95.89"/><polygon class="cls-21" points="151.73 101.08 174.71 101.29 174.71 97.52 151.73 97.37 151.73 101.08"/><polygon class="cls-21" points="180.65 101.35 176.32 101.31 176.32 97.53 180.65 97.55 180.65 101.35"/><polygon class="cls-21" points="151.73 90.34 174.71 90.36 174.71 86.58 151.73 86.63 151.73 90.34"/><polygon class="cls-21" points="180.65 90.36 176.32 90.36 176.32 86.58 180.65 86.57 180.65 90.36"/><polygon class="cls-23" points="151.73 128.17 191.88 129.4 191.88 125.57 151.73 124.46 151.73 128.17"/><polygon class="cls-21" points="151.73 133.96 174.71 134.78 174.71 131 151.73 130.25 151.73 133.96"/><polygon class="cls-21" points="180.65 134.99 176.32 134.83 176.32 131.05 180.65 131.19 180.65 134.99"/><polygon class="cls-21" points="151.73 139.3 174.71 140.21 174.71 136.43 151.73 135.59 151.73 139.3"/><polygon class="cls-21" points="180.65 140.44 176.32 140.27 176.32 136.49 180.65 136.65 180.65 140.44"/><polygon class="cls-21" points="151.73 144.63 174.71 145.64 174.71 141.86 151.73 140.92 151.73 144.63"/><polygon class="cls-21" points="180.65 145.9 176.32 145.71 176.32 141.93 180.65 142.1 180.65 145.9"/><polygon class="cls-21" points="146.85 144.44 147.73 144.48 147.73 48.46 146.85 48.48 146.85 144.44"/><path class="cls-24" d="M37.13,148.9c39,.82,47.76,6.38,58.83-.29,15.23-9.16,8.29-25.46,23.12-34,18.65-10.75,40.15,8.94,49.88-.66s-8.62-32.06,2-57.14c4.25-10.06,11.49-16.6,16.5-20.35L197.53,36c3.87-.16,7,2.4,7,5.72V161.38c0,3.32-3.17,5.84-7,5.61L18.44,156.31a5.53,5.53,0,0,1-5.15-5.43v-1.81C18.66,148.88,27,148.69,37.13,148.9Z"/><path class="cls-25" d="M110.54,118.66l-.07,0-.09,0-.18,0-.36,0a4.3,4.3,0,0,0-.72,0,2.59,2.59,0,0,0-1.23.44l-.12.09-.12.1a2.18,2.18,0,0,0-.21.22c-.07.08-.13.17-.19.25s-.11.18-.16.28a4.65,4.65,0,0,0-.42,1.29,1.06,1.06,0,0,1-2.09-.37.75.75,0,0,1,0-.16v0a6.61,6.61,0,0,1,.9-1.75c.1-.14.22-.27.33-.4s.24-.25.38-.36a4.23,4.23,0,0,1,.42-.32l.23-.13.23-.12a4.19,4.19,0,0,1,2-.37,5.89,5.89,0,0,1,.94.12l.45.13.22.08.11,0,.13.05a.53.53,0,0,1,.28.7.51.51,0,0,1-.56.32Z"/><path class="cls-26" d="M124.26,104.13l-.07-.12-.06-.1-.11-.21c-.07-.14-.13-.28-.19-.43a5.31,5.31,0,0,1-.26-.91,4.26,4.26,0,0,1,.09-2c0-.08,0-.17.08-.25l.1-.24c.08-.16.16-.32.25-.47a4.13,4.13,0,0,1,.31-.42c.11-.13.22-.27.34-.39a6.43,6.43,0,0,1,1.6-1.14h0a1.06,1.06,0,0,1,1,1.88l-.16.07a4.62,4.62,0,0,0-1.22.6c-.09.06-.16.13-.25.2a2.18,2.18,0,0,0-.21.22,2.31,2.31,0,0,0-.2.24l-.08.13s0,.09-.07.14a2.79,2.79,0,0,0-.26,1.28,4.45,4.45,0,0,0,.09.71l.09.36.06.17,0,.08s0,.06,0,.07l0,.11a.54.54,0,0,1-1,.43Z"/><path class="cls-27" d="M113.77,124.89l-.08,0-.08,0-.18,0-.34.12a3.22,3.22,0,0,0-.64.33,2.64,2.64,0,0,0-.92.93.91.91,0,0,0-.07.14l-.07.14a2.46,2.46,0,0,0-.09.29c0,.1,0,.2-.06.3s0,.21,0,.32a4.63,4.63,0,0,0,.19,1.35,1.06,1.06,0,0,1-2.05.57.76.76,0,0,1,0-.16v0a6.55,6.55,0,0,1,.06-2c0-.17.08-.33.12-.5a4.94,4.94,0,0,1,.19-.49,5.21,5.21,0,0,1,.24-.47l.15-.21a1.66,1.66,0,0,1,.16-.21,4.2,4.2,0,0,1,1.6-1.2,6,6,0,0,1,.91-.29l.46-.08.23,0h.25a.53.53,0,0,1,.19,1Z"/><path class="cls-28" d="M120.39,128.44s0,0,0,.05l-.06.07a.76.76,0,0,0-.11.14,2.73,2.73,0,0,0-.21.3,4.31,4.31,0,0,0-.33.64,2.83,2.83,0,0,0-.2,1.29s0,.11,0,.16l0,.15c0,.1.06.19.1.29a2.39,2.39,0,0,0,.13.28,2.46,2.46,0,0,0,.17.27,4.29,4.29,0,0,0,.93,1,1.06,1.06,0,1,1-1.32,1.67l-.12-.11,0,0a6.51,6.51,0,0,1-1.11-1.63,4,4,0,0,1-.19-.48,4.35,4.35,0,0,1-.22-1v-.27c0-.09,0-.17,0-.26a4.1,4.1,0,0,1,.61-1.91,4.66,4.66,0,0,1,.56-.76c.1-.12.21-.23.32-.34l.17-.16.09-.08.11-.08a.54.54,0,0,1,.77.73Z"/><path class="cls-29" d="M129,107.45l0-.14a.52.52,0,0,0,0-.11l0-.24a3.55,3.55,0,0,1,0-.46,5.09,5.09,0,0,1,.05-1,4.24,4.24,0,0,1,.74-1.86l.16-.2.18-.2a3.25,3.25,0,0,1,.39-.35,4.13,4.13,0,0,1,.42-.31,4,4,0,0,1,.46-.24,6.29,6.29,0,0,1,1.89-.56h0a1.07,1.07,0,1,1,.31,2.11h-.17a4.51,4.51,0,0,0-1.35.16,2.64,2.64,0,0,0-.3.1,1.83,1.83,0,0,0-.28.14l-.26.16-.12.1a.57.57,0,0,0-.11.11,2.57,2.57,0,0,0-.67,1.12,4,4,0,0,0-.15.7,2.22,2.22,0,0,0,0,.37,1.09,1.09,0,0,0,0,.18v.09a.2.2,0,0,1,0,.07v.12a.54.54,0,0,1-1.06.08Z"/><path class="cls-30" d="M132.92,115l.07-.12a.61.61,0,0,1,.07-.1l.13-.19a3.58,3.58,0,0,1,.3-.36,3.88,3.88,0,0,1,.69-.65,4,4,0,0,1,1.81-.84l.26,0,.27,0a3,3,0,0,1,.52,0,4.34,4.34,0,0,1,.52.07,4.07,4.07,0,0,1,.5.13,6.43,6.43,0,0,1,1.75.9h0a1.07,1.07,0,1,1-1.23,1.74l-.13-.11a4.61,4.61,0,0,0-1.09-.81l-.29-.13a2.46,2.46,0,0,0-.29-.09,2.84,2.84,0,0,0-.31-.06h-.15a.75.75,0,0,0-.15,0,2.6,2.6,0,0,0-1.26.36,4.38,4.38,0,0,0-.59.4l-.28.25-.12.13-.06.06,0,.06-.09.08a.54.54,0,0,1-.82-.67Z"/><path class="cls-31" d="M131.61,108.82c3.42,4.94,5.76,14.42.44,19-5.06,4.35-13.73,1.94-18.21-2.72-5.62-5.83-6-16.57-.69-20.78,4.11-3.24,10.22-1.5,10.79-1.33A14.45,14.45,0,0,1,131.61,108.82Z"/><path class="cls-32" d="M123.94,103c-.57-.17-6.68-1.91-10.79,1.33-3.05,2.41-4.22,7-3.61,11.51a33.83,33.83,0,0,1,5.65-6.83,29.38,29.38,0,0,1,9.26-5.84Z"/><path class="cls-33" d="M116.38,103.53c-.35-.47-.67-.94-1-1.43s-.61-1-.9-1.46-.56-1-.83-1.51-.51-1-.75-1.56a21.86,21.86,0,0,1-1.16-3.3l-.06-.22,0-.21c0-.15-.07-.29-.1-.44s-.1-.58-.13-.88-.05-.61-.07-.91,0-.61,0-.92l0-.23a1.81,1.81,0,0,1,0-.23l0-.23a2,2,0,0,1,0-.24l.11-.46a1.8,1.8,0,0,1,.06-.22l.06-.22a8.26,8.26,0,0,1,.74-1.73,4,4,0,0,1,.65-.84,2.91,2.91,0,0,1,.51-.37,2,2,0,0,1,.68-.23,2,2,0,0,1,.77.06,2.13,2.13,0,0,1,.64.32,2.88,2.88,0,0,1,.79.9,4.27,4.27,0,0,1,.42,1,4.55,4.55,0,0,1,.18,1,5.79,5.79,0,0,1,0,1,4.54,4.54,0,0,1-.09.51l0,.13,0,.11-.06.24c-.05.16-.1.32-.17.5a3,3,0,0,1-.29.56l-.11.16-.08.08-.09.09a1.39,1.39,0,0,1-.54.33,1.68,1.68,0,0,1-.39.07,2.33,2.33,0,0,1-.38,0,1.57,1.57,0,0,1-.52-.25,2.37,2.37,0,0,1-.32-.26L113.8,92a3.93,3.93,0,0,1-.32-.47c-.09-.15-.16-.3-.24-.45l-.1-.22,0-.12,0-.06,0-.07h0a1.06,1.06,0,0,1,2-.78.19.19,0,0,0,0,.07v.07l0,.08a1.22,1.22,0,0,1,.07.17c0,.11.09.21.14.31a2.75,2.75,0,0,0,.15.25c0,.06.09.11.06.09a.49.49,0,0,0-.15-.06h-.16a.58.58,0,0,0-.19,0,.56.56,0,0,0-.18.11h0a1.21,1.21,0,0,0,.11-.19c0-.09.08-.2.12-.31s0-.11,0-.17l0-.09,0-.08c0-.11,0-.22.07-.33a3,3,0,0,0,0-.67,2.84,2.84,0,0,0-.08-.66,2.91,2.91,0,0,0-.2-.59,1.38,1.38,0,0,0-.29-.4.4.4,0,0,0-.12-.07l-.07,0-.12,0a.72.72,0,0,0-.19.12,2,2,0,0,0-.41.48,6.6,6.6,0,0,0-.66,1.36c0,.07,0,.13-.07.19a1.39,1.39,0,0,0-.06.19l-.11.36c0,.06,0,.13,0,.19l0,.18,0,.19,0,.2c0,.25-.05.51-.07.77s0,.53,0,.8.05.53.08.8l.06.4,0,.21,0,.2a20.11,20.11,0,0,0,.93,3.17c.2.52.42,1,.65,1.55s.47,1,.72,1.51.53,1,.81,1.48.57,1,.87,1.44h0a.32.32,0,0,1-.09.45A.33.33,0,0,1,116.38,103.53Z"/><path class="cls-34" d="M110.4,109.08c-.39-.39-.8-.78-1.22-1.16s-.84-.75-1.27-1.1-.88-.7-1.32-1-.91-.65-1.38-1a20.43,20.43,0,0,0-2.9-1.59l-.18-.08-.19-.07-.38-.15c-.26-.09-.51-.18-.77-.25s-.52-.13-.77-.19-.52-.09-.78-.11h-.57a1.2,1.2,0,0,0-.19,0l-.38,0-.2,0-.19,0a6.55,6.55,0,0,0-1.48.35,2.34,2.34,0,0,0-.55.3.8.8,0,0,0-.16.16.3.3,0,0,0-.06.11s0,0,0,.08a.78.78,0,0,0,.05.12,1.29,1.29,0,0,0,.32.37,2.88,2.88,0,0,0,.54.33,3.89,3.89,0,0,0,.63.22,3.74,3.74,0,0,0,.66.09h.7l.32-.06.21-.06h0a.72.72,0,0,0-.22.33,1,1,0,0,0,0,.16.52.52,0,0,0,0,.16s0,0-.08-.08a2.08,2.08,0,0,0-.21-.2l-.27-.2-.15-.1-.07,0,0,0,0,0a1.06,1.06,0,0,1,1.06-1.84l.06,0h0l.07,0,0,0,.1.07.2.15.39.33a5.24,5.24,0,0,1,.38.41,2.94,2.94,0,0,1,.2.26,1.81,1.81,0,0,1,.19.37,1.54,1.54,0,0,1,.13.56,1.69,1.69,0,0,1,0,.38,1.51,1.51,0,0,1-.15.37,1.63,1.63,0,0,1-.44.46l-.1.06-.1.06-.19.08a2.77,2.77,0,0,1-.61.16,3.15,3.15,0,0,1-.52,0H98l-.51,0a5.85,5.85,0,0,1-1-.21,5.27,5.27,0,0,1-1-.39,4.38,4.38,0,0,1-.88-.62,3,3,0,0,1-.71-1,2.18,2.18,0,0,1-.17-.7,1.8,1.8,0,0,1,.11-.76,1.83,1.83,0,0,1,.37-.62,2.51,2.51,0,0,1,.47-.41,3.51,3.51,0,0,1,1-.46,7.72,7.72,0,0,1,1.85-.35h.22a.89.89,0,0,1,.23,0h.71l.23,0,.24,0,.23,0c.31,0,.6.12.9.18s.59.16.87.26l.83.32.41.19.2.09.2.1a21.37,21.37,0,0,1,3,1.84c.46.35.92.7,1.36,1.07s.88.75,1.3,1.14.84.78,1.24,1.19.8.82,1.18,1.26a.32.32,0,0,1,0,.45.32.32,0,0,1-.44,0Z"/><path class="cls-35" d="M115.19,109s19.94,24.51,24.32,20.54.32-15.69.32-15.69Z"/><path class="cls-36" d="M115.19,109l2.64,22.48s6.25,9.11,11.51,6.24C135.84,134.16,115.19,109,115.19,109Z"/><path class="cls-37" d="M115.19,109l27.67,9.48a.71.71,0,0,0,.93-.76c-.51-3.67-3.36-15-19.34-14.56C124.45,103.15,118.66,105.23,115.19,109Z"/><path class="cls-38" d="M120.65,136.49,115.19,109a29.68,29.68,0,0,0-5.65,6.83s-6.3,12.15,10.07,21.42A.71.71,0,0,0,120.65,136.49Z"/><path class="cls-39" d="M33.24,46.74v-.13a.81.81,0,0,0,0-.16l0-.31a5.66,5.66,0,0,0-.15-.59,2.38,2.38,0,0,0-.6-.94l-.1-.08-.11-.08a1.64,1.64,0,0,0-.22-.14l-.24-.1-.26-.08a4,4,0,0,0-1.15-.1.92.92,0,0,1-1-.86.91.91,0,0,1,.86-1h.17a5.62,5.62,0,0,1,1.62.42,3,3,0,0,1,.4.2c.12.08.25.15.37.24s.23.19.34.29l.15.17.15.17a3.55,3.55,0,0,1,.68,1.56,4.25,4.25,0,0,1,.07.8c0,.13,0,.26,0,.4s0,.13,0,.2,0,.06,0,.1l0,.11a.45.45,0,0,1-.52.37.47.47,0,0,1-.38-.41Z"/><path class="cls-40" d="M47.91,55.35l.08-.08.08-.07.15-.13.32-.24a4,4,0,0,1,.71-.39,3.54,3.54,0,0,1,1.67-.31,1.66,1.66,0,0,1,.22,0l.22,0a4.43,4.43,0,0,1,.43.12c.15,0,.28.11.42.17s.26.13.38.21a5.64,5.64,0,0,1,1.26,1.11v0A.91.91,0,0,1,52.48,57l-.08-.12a4.1,4.1,0,0,0-.73-.9l-.21-.17-.23-.14L51,55.56l-.12,0-.13,0a2.22,2.22,0,0,0-1.11,0,4.3,4.3,0,0,0-.57.2l-.28.15-.13.08-.06,0-.06,0-.08,0a.45.45,0,0,1-.62-.17A.47.47,0,0,1,47.91,55.35Z"/><path class="cls-41" d="M28.68,50.61a.21.21,0,0,0,0-.06l0-.07-.07-.13c-.05-.09-.11-.18-.17-.27a3.6,3.6,0,0,0-.39-.47A2.27,2.27,0,0,0,27,49l-.12,0-.13,0-.26,0a1.22,1.22,0,0,0-.27,0A1.26,1.26,0,0,0,26,49a3.68,3.68,0,0,0-1.08.41.9.9,0,1,1-.86-1.59l.12-.06h0a5.5,5.5,0,0,1,1.64-.33,3.23,3.23,0,0,1,.44,0,2.22,2.22,0,0,1,.44.06,3,3,0,0,1,.43.11l.21.08.21.09a3.68,3.68,0,0,1,1.29,1.11,4.89,4.89,0,0,1,.42.69c0,.12.11.24.15.37a1.34,1.34,0,0,1,.07.18l0,.1,0,.11a.45.45,0,0,1-.31.56.47.47,0,0,1-.52-.2Z"/><path class="cls-42" d="M27,56.77l-.06,0-.06,0-.14-.07-.29-.11a3.29,3.29,0,0,0-.6-.15,2.13,2.13,0,0,0-1.1.08l-.13,0-.12.06-.22.13-.21.16c-.06.07-.13.12-.19.2a3.74,3.74,0,0,0-.64,1,.9.9,0,1,1-1.63-.78.75.75,0,0,1,.07-.12v0a5.3,5.3,0,0,1,1.14-1.23c.11-.1.24-.17.36-.26a2.87,2.87,0,0,1,.39-.2,3.69,3.69,0,0,1,.42-.17l.22-.06.22,0a3.55,3.55,0,0,1,1.69.14,3.76,3.76,0,0,1,.74.32l.35.2.16.11.08.06.09.08a.46.46,0,0,1,.08.64.47.47,0,0,1-.54.13Z"/><path class="cls-43" d="M46.06,59.91l.1,0,.1,0,.18-.07a2.78,2.78,0,0,1,.38-.12,4.32,4.32,0,0,1,.8-.14,3.56,3.56,0,0,1,1.68.27,1.21,1.21,0,0,1,.2.09l.2.11.37.25c.12.09.22.2.33.3a3,3,0,0,1,.29.33,5.29,5.29,0,0,1,.82,1.46v0a.91.91,0,0,1-1.69.65.57.57,0,0,1,0-.14,4.07,4.07,0,0,0-.39-1.08,1.82,1.82,0,0,0-.15-.23,1.66,1.66,0,0,0-.16-.21c-.06-.07-.13-.12-.19-.18l-.1-.08L48.69,61a2.41,2.41,0,0,0-1.06-.34,4.16,4.16,0,0,0-.61,0l-.31,0-.15,0-.08,0h-.06l-.09,0a.46.46,0,0,1-.53-.37A.46.46,0,0,1,46.06,59.91Z"/><path class="cls-44" d="M40.51,64.61l.11,0,.1,0,.18.07a3,3,0,0,1,.36.18,4.07,4.07,0,0,1,.67.44,3.5,3.5,0,0,1,1,1.35,1.8,1.8,0,0,1,.08.21l.07.21a2.29,2.29,0,0,1,.09.44,3.42,3.42,0,0,1,0,.44,3.2,3.2,0,0,1,0,.44,5.42,5.42,0,0,1-.41,1.63v0a.91.91,0,0,1-1.18.49.92.92,0,0,1-.5-1.18l.07-.13a3.79,3.79,0,0,0,.46-1.06,2.44,2.44,0,0,0,.06-.26c0-.09,0-.18,0-.27s0-.17,0-.26l0-.13,0-.13a2.25,2.25,0,0,0-.54-1,2.85,2.85,0,0,0-.44-.41,2,2,0,0,0-.26-.18l-.13-.08-.07,0,0,0-.08-.06a.45.45,0,0,1-.13-.63A.47.47,0,0,1,40.51,64.61Z"/><path class="cls-45" d="M45.42,62.34c-3.45,3.78-10.86,7.52-15.67,4-4.57-3.36-4.22-11-1.21-15.62,3.76-5.77,12.59-8.14,17.1-4.53,3.47,2.79,3.19,8.19,3.16,8.69A12.3,12.3,0,0,1,45.42,62.34Z"/><path class="cls-46" d="M48.8,54.86c0-.5.31-5.9-3.16-8.69-2.58-2.07-6.58-2.17-10.24-.8a28.57,28.57,0,0,1,6.74,3.38,25.41,25.41,0,0,1,6.62,6.57C48.77,55.17,48.79,55,48.8,54.86Z"/><path class="cls-47" d="M46.9,48.7c.33-.38.66-.73,1-1.08s.69-.7,1-1,.72-.66,1.1-1,.76-.62,1.15-.92A19,19,0,0,1,53.7,43.1l.17-.09.17-.08.34-.15c.24-.1.47-.2.71-.28s.49-.16.74-.24.5-.12.77-.15l.19,0,.2,0,.2,0h1a6.93,6.93,0,0,1,1.57.28,3.21,3.21,0,0,1,.83.38,3.13,3.13,0,0,1,.4.35,1.69,1.69,0,0,1,.32.52,1.64,1.64,0,0,1,.1.65,1.76,1.76,0,0,1-.14.59,2.5,2.5,0,0,1-.6.83,3.78,3.78,0,0,1-.74.54,4.79,4.79,0,0,1-.81.34,4.15,4.15,0,0,1-.85.18,3.25,3.25,0,0,1-.44,0H57.4l-.44,0a2.55,2.55,0,0,1-.52-.14l-.16-.06-.08,0-.09-.05a1.57,1.57,0,0,1-.38-.39,1.69,1.69,0,0,1-.13-.31,1.24,1.24,0,0,1,0-.33,1.83,1.83,0,0,1,.1-.48,1.8,1.8,0,0,1,.17-.31l.16-.23a3.58,3.58,0,0,1,.33-.34,4.28,4.28,0,0,1,.33-.29l.16-.13.09-.06,0,0,.06,0h0a.9.9,0,1,1,1,1.48L58,45h0l0,0-.06,0-.13.09-.23.17-.18.17c0,.05-.07.1-.06.07a.46.46,0,0,0,0-.13.78.78,0,0,0,0-.14.52.52,0,0,0-.06-.15.37.37,0,0,0-.13-.13h0a.84.84,0,0,0,.18,0l.28.05h.59a3.72,3.72,0,0,0,.57-.08,3.39,3.39,0,0,0,.53-.2,2,2,0,0,0,.45-.28,1.07,1.07,0,0,0,.27-.32.19.19,0,0,0,0-.1.08.08,0,0,0,0-.07.16.16,0,0,0,0-.09.6.6,0,0,0-.14-.13,1.73,1.73,0,0,0-.47-.25,5,5,0,0,0-1.26-.29l-.17,0-.17,0-.32,0h-.49l-.16,0c-.22,0-.44.06-.66.1s-.44.1-.66.17-.43.14-.65.21l-.32.13L54.3,44l-.16.07a16.42,16.42,0,0,0-2.45,1.37c-.4.27-.78.55-1.16.83s-.76.59-1.12.9-.73.62-1.08.94-.69.66-1,1h0a.27.27,0,0,1-.39,0A.28.28,0,0,1,46.9,48.7Z"/><path class="cls-48" d="M41.16,44.8c.25-.4.5-.82.73-1.23s.46-.84.67-1.27.41-.86.61-1.29.36-.88.53-1.32A17.69,17.69,0,0,0,44.47,37l0-.17,0-.18c0-.11,0-.22,0-.34a5.2,5.2,0,0,0,.06-.68c0-.23,0-.45,0-.68a4.76,4.76,0,0,0-.06-.66l0-.17a1.1,1.1,0,0,0,0-.16l0-.15c0-.06,0-.11,0-.16l-.09-.31a1,1,0,0,0-.06-.16,1,1,0,0,0-.05-.16,5.71,5.71,0,0,0-.58-1.16,2.38,2.38,0,0,0-.35-.4l-.16-.1a.26.26,0,0,0-.11,0H43a.24.24,0,0,0-.09.07,1,1,0,0,0-.25.33,2.54,2.54,0,0,0-.17.51,2.6,2.6,0,0,0-.06.56,2.84,2.84,0,0,0,0,.58,1.31,1.31,0,0,0,.06.27l0,.07,0,.08c0,.05,0,.1.05.14a1.27,1.27,0,0,0,.11.26.52.52,0,0,0,.09.16h0a.41.41,0,0,0-.16-.09.4.4,0,0,0-.15,0h-.15a.55.55,0,0,0-.12,0s0,0,0-.08a1.3,1.3,0,0,0,.12-.21l.12-.26.06-.15,0-.07v-.05a.9.9,0,0,1,1.73.52.14.14,0,0,0,0,.06h0l0,.06,0,0,0,.1-.09.19a3.6,3.6,0,0,1-.2.39,3.85,3.85,0,0,1-.26.4c-.06.07-.11.14-.18.21a3.53,3.53,0,0,1-.27.23,1.29,1.29,0,0,1-.44.21,1.15,1.15,0,0,1-.33,0,1,1,0,0,1-.33-.06,1.06,1.06,0,0,1-.46-.27l-.08-.07-.06-.08-.11-.13a3.06,3.06,0,0,1-.24-.48,3.52,3.52,0,0,1-.15-.42,1.17,1.17,0,0,1-.05-.2l0-.1,0-.1c0-.15-.06-.29-.08-.44a5.06,5.06,0,0,1,0-.87,4.4,4.4,0,0,1,.15-.87,3.57,3.57,0,0,1,.35-.84,2.5,2.5,0,0,1,.66-.78,1.88,1.88,0,0,1,.55-.27,1.57,1.57,0,0,1,.65-.06,1.72,1.72,0,0,1,.58.19,2.07,2.07,0,0,1,.43.31,3.11,3.11,0,0,1,.57.72,6.9,6.9,0,0,1,.64,1.46l.06.19a1.67,1.67,0,0,0,0,.18l.09.39a1.77,1.77,0,0,1,0,.2l0,.2,0,.2v.19a7,7,0,0,1,0,.79c0,.25,0,.51-.06.77s-.06.5-.1.75,0,.25-.08.37l0,.19,0,.18a17,17,0,0,1-1,2.82c-.2.45-.41.89-.63,1.33s-.45.87-.69,1.29-.49.85-.76,1.26-.53.81-.82,1.22a.27.27,0,0,1-.38.06.29.29,0,0,1-.07-.37Z"/><path class="cls-49" d="M42.14,48.75S25.62,70,29.75,72.84s13.07-2.72,13.07-2.72Z"/><path class="cls-50" d="M42.21,49,24,55.23s-6.45,7-3,10.73S42.21,49,42.21,49Z"/><path class="cls-51" d="M42.14,48.75,39.56,73.51a.6.6,0,0,0,.81.63c3-1.12,11.84-5.66,8.39-18.82A23,23,0,0,0,42.14,48.75Z"/><path class="cls-52" d="M20.38,58.53l21.76-9.78a25.19,25.19,0,0,0-6.74-3.38S24.12,42.46,19.56,57.8A.6.6,0,0,0,20.38,58.53Z"/><path class="cls-53" d="M154.48,176a28.63,28.63,0,0,0,2.57,3,2.23,2.23,0,0,0-.2.3,4.87,4.87,0,0,0,1.47,6.39,4.12,4.12,0,0,0,6-1.14,2.68,2.68,0,0,0,.18-.33,24.73,24.73,0,0,0,3.57,1.32l0,.39a4.88,4.88,0,0,0,4.29,5,4.14,4.14,0,0,0,4.48-4.19c0-.13,0-.25,0-.38a22.41,22.41,0,0,0,3.6-.69c.05.12.11.24.17.36a4.32,4.32,0,1,0,7.68-3.9,3.79,3.79,0,0,0-.2-.34,22.9,22.9,0,0,0,2.69-2.51c.1.08-1.26.62-1.15.69,2.07,1.45,6.22.49,7.47-1.6a4.87,4.87,0,0,0-1.48-6.39,2.66,2.66,0,0,0-.33-.21,23.94,23.94,0,0,0,1-3.66l.37.05a4.13,4.13,0,0,0,4.48-4.18,4.88,4.88,0,0,0-4.29-5h-.37a27.68,27.68,0,0,0-.89-3.84l.33-.14a4.68,4.68,0,0,0-4.22-8.32c-.11.05-.21.12-.32.18a27.29,27.29,0,0,0-2.56-3,3.28,3.28,0,0,0,.2-.31,4.87,4.87,0,0,0-1.48-6.39,4.14,4.14,0,0,0-6,1.14,3.59,3.59,0,0,0-.17.34,25.23,25.23,0,0,0-3.57-1.33l0-.39c0-2.53-1.74-4.83-7-4.72-2.43.05-1.68,1.41-1.73,3.94,0,.13,0,.26,0,.39a21.45,21.45,0,0,0-3.61.68c-.05-.12-.1-.24-.16-.36-1.17-2.29-3.29-4.36-8.23-1.95-2.14,1-.62,3.56.55,5.85l.19.35a21.91,21.91,0,0,0-2.68,2.5,3.55,3.55,0,0,0-.31-.23,4.14,4.14,0,0,0-6,1.14,4.89,4.89,0,0,0,1.48,6.4l.33.2a25.46,25.46,0,0,0-1,3.66l-.38-.05a4.13,4.13,0,0,0-4.47,4.19,4.87,4.87,0,0,0,4.29,5,2.3,2.3,0,0,0,.37,0,26.19,26.19,0,0,0,.89,3.83c-.11.05-.23.09-.34.15a4.68,4.68,0,0,0,4.23,8.32Zm4.52-7.5c-4.24-8.34-1.42-18.27,6.28-22.18s17.38-.32,21.61,8,1.42,18.27-6.28,22.18S163.23,176.84,159,168.5Z"/><path class="cls-54" d="M149,163.87a4.87,4.87,0,0,1-4.29-5,4.13,4.13,0,0,1,4.47-4.19l.38.05a25.46,25.46,0,0,1,1-3.66l-.33-.2c-2.07-1.46-4.63-5-3.17-6.9,2.77-3.69,5.64-2.09,7.71-.64a3.55,3.55,0,0,1,.31.23,21.91,21.91,0,0,1,2.68-2.5l-.19-.35a4.79,4.79,0,0,1-.27-3.8q3,5.28,5.91,10.61c-6.15,4.51-8.1,13.38-4.26,20.94a17,17,0,0,0,16,9.56c.28.73.56,1.47.86,2.19.82,2,1.75,3.89,2.68,5.81-.59.11-1.17.2-1.76.26,0,.13,0,.25,0,.38-.05,2.53-1.59,4.68-6,4.45-2.43-.13-2.85-2.7-2.8-5.23l0-.39a24.73,24.73,0,0,1-3.57-1.32,2.68,2.68,0,0,1-.18.33c-1.25,2.08-5.6,3-7.67,1.52s-1.08-4.69.18-6.77a2.23,2.23,0,0,1,.2-.3,28.63,28.63,0,0,1-2.57-3l-.31.19a4.68,4.68,0,0,1-4.23-8.32c.11-.06.23-.1.34-.15a26.19,26.19,0,0,1-.89-3.83A2.3,2.3,0,0,1,149,163.87Z"/><path class="cls-55" d="M152.2,176.26a26.46,26.46,0,0,0,2.57,3l-.21.31a4.88,4.88,0,0,0,1.48,6.39,4.13,4.13,0,0,0,6-1.14,2.68,2.68,0,0,0,.18-.33,24.3,24.3,0,0,0,3.57,1.32,2.56,2.56,0,0,0,0,.39,4.88,4.88,0,0,0,4.29,5,4.14,4.14,0,0,0,4.48-4.19c0-.13,0-.25,0-.38a22.32,22.32,0,0,0,3.61-.69,2.92,2.92,0,0,0,.17.36,4.32,4.32,0,1,0,7.68-3.9,3.79,3.79,0,0,0-.2-.34,22.9,22.9,0,0,0,2.69-2.51l.3.24a4.13,4.13,0,0,0,6-1.15,4.87,4.87,0,0,0-1.48-6.39L193,172a23.94,23.94,0,0,0,1-3.66l.37,0a4.13,4.13,0,0,0,4.48-4.18,4.88,4.88,0,0,0-4.29-5h-.37a27.35,27.35,0,0,0-.89-3.84l.33-.14a4.68,4.68,0,0,0-4.22-8.32c-.11.05-.21.12-.32.18a26.32,26.32,0,0,0-2.57-3,2.11,2.11,0,0,0,.21-.31,4.88,4.88,0,0,0-1.48-6.39,4.14,4.14,0,0,0-6,1.14l-.18.33a25.85,25.85,0,0,0-3.56-1.32c0-.13,0-.26,0-.39a4.88,4.88,0,0,0-4.29-5,4.13,4.13,0,0,0-4.47,4.19c0,.13,0,.26,0,.39a21.45,21.45,0,0,0-3.61.68c-.05-.12-.1-.24-.16-.36a4.32,4.32,0,1,0-7.68,3.9,3.9,3.9,0,0,0,.19.35,21.91,21.91,0,0,0-2.68,2.5,3.55,3.55,0,0,0-.31-.23,4.14,4.14,0,0,0-6,1.14,4.88,4.88,0,0,0,1.48,6.39,3,3,0,0,0,.33.21,25.46,25.46,0,0,0-1,3.66l-.38-.05a4.13,4.13,0,0,0-4.47,4.19,4.87,4.87,0,0,0,4.29,5,2.23,2.23,0,0,0,.37,0A26.19,26.19,0,0,0,148,168a3.49,3.49,0,0,0-.34.15,4.68,4.68,0,0,0,4.22,8.32A3.37,3.37,0,0,0,152.2,176.26Zm4.52-7.5c-4.24-8.34-1.43-18.27,6.28-22.18s17.37-.32,21.61,8,1.42,18.27-6.28,22.18S161,177.1,156.72,168.76Z"/><path class="cls-56" d="M61,197s6.43,2.94,6.54,3.41-4.15-.17-5.88-.1-3.16-.46-3-1.19.77-2.58.77-2.58Z"/><path class="cls-57" d="M61.23,194.6l-.4,2.9a2.29,2.29,0,0,1-1.71-.07l-.28-3.18Z"/><path class="cls-58" d="M30.89,194.6l-.75,1.2a1.39,1.39,0,0,0-.18,1.12c.26,1,.78,3,1,3.47.31.69,4.47,1.11,4.47,1.11s.38-.52-.49-1.16-1.42-.73-1.72-1.66a25,25,0,0,1-.5-3.58Z"/><path class="cls-59" d="M34,191.55a39.91,39.91,0,0,0-1.62,4.28s-.43.55-1.26-.27l-.37-.37.17-4Z"/><path class="cls-60" d="M64.91,136.33c.32,8.66.31,18.06-.21,28.1-.59,11.31-1.74,21.76-3.18,31.23-.53,0-1.08,0-1.66,0q-.59,0-1.14-.06A74.36,74.36,0,0,1,56.35,188,72.87,72.87,0,0,1,54.71,179c-1.22-9.81.24-10.66-.75-17.92-.88-6.44-2.15-6.69-3.61-15.83-1.59-9.91-.39-11.4.2-11.93C53,131.06,58.89,132.63,64.91,136.33Z"/><path class="cls-61" d="M50.55,133.34c2.38-2.18,7.8-.84,13.53,2.5-6.61,7.11-7.34,11.73-6.56,14.73.88,3.4,3.6,4.38,3.58,8.09,0,4.55-4.14,5.75-4.06,10.57.05,3.19,1.86,3.16,2.27,7.1.5,4.66-1.87,6.26-1.11,9.71.32,1.49,1.26,3.43,3.93,5.43-.2,1.41-.4,2.81-.61,4.19-.53,0-1.08,0-1.66,0q-.59,0-1.14-.06A74.36,74.36,0,0,1,56.35,188,72.87,72.87,0,0,1,54.71,179c-1.22-9.81.24-10.66-.75-17.92-.88-6.44-2.15-6.69-3.61-15.83C48.76,135.36,50,133.87,50.55,133.34Z"/><path class="cls-62" d="M60.83,136.18a194.57,194.57,0,0,0-26.78,56.94,3.34,3.34,0,0,1-1.9.29A3.57,3.57,0,0,1,30,192.25a56.31,56.31,0,0,1-.46-13.8,47,47,0,0,1,2-10.37c1.58-5.05,2.65-5.34,4.71-10.68,2.14-5.55,1.63-6.94,3.68-13.89a91.12,91.12,0,0,1,4.57-12.17Z"/><path class="cls-63" d="M84,124.47c0,2-3.37,3.8-6,4.34-6.25,1.28-13.49-3.26-16.93-8.28-.68-1-1.43-2.19-1.61-2.09-.4.21,3.35,6.38,5,13.4.83,3.59.61,5.27,2.17,7.66a2.33,2.33,0,0,1,.64,1.75c-.39,1.6-4,2-6.6,2.31a58.88,58.88,0,0,1-7.67.23c-4,0-4.28-.26-5.18.19-2.76,1.35-2.58,4.59-4.65,5-1.74.36-3.51-1.59-4.07-2.21-2.92-3.2-2.76-7.07-3.28-11-1.2-9.07-6.13-19-11-25.3-1.46-1.91-2.48-2.91-2.54-4.68-.19-5.21,8.06-10.95,14.92-11.61a50.22,50.22,0,0,1,8.41.17c1.27.12,2.61.29,4.06.55a33.2,33.2,0,0,1,8.42,2.17c10,4.59,7.84,14.8,18.69,21.86C80.48,121.41,84,122.35,84,124.47Z"/><path class="cls-8" d="M42.92,88.84A15.11,15.11,0,0,1,41.49,93c-.89,1.54-4.59,2.1-5.37,2.37s1.17,1.61,3.23,2.1,8.07.8,9.25.15-.76-.84-2.18-1.59-1.89-3.77-1.45-5S42.92,88.84,42.92,88.84Z"/><path class="cls-64" d="M46.83,88.14c1.49-1.07,1.91-4,1.08-4.6-.24-.19-.47-.1-3.84,1.25-1.67.67-2.5,1-2.77,1.77a2.33,2.33,0,0,0,.05,1.54A5.69,5.69,0,0,0,42,89.24c.37.52.34.51.45.66a8.3,8.3,0,0,0,1.73,1.68,5.45,5.45,0,0,1,.27-1,5,5,0,0,1,.61-1.14A5.78,5.78,0,0,1,46.83,88.14Z"/><path class="cls-8" d="M43,90.89a3.11,3.11,0,0,0,2.79,1.25c1.62-.17,1.7-3.83.62-4.56a2,2,0,0,0-1.61-.13,10.12,10.12,0,0,1-1,.41c-.5.16-.65.11-.8.24s-.3.57.06,1.62a.9.9,0,0,0-1-.27.63.63,0,0,0-.2.22C41.72,90.1,42.12,90.62,43,90.89Z"/><path class="cls-65" d="M75.22,124.16c-4.53-1-6.33-1-8.58-2.79-3.72-3-4.28-7.58-6.45-7.53-1,0-1.86,1.08-2.45,2.1l1.64,2.56a.08.08,0,0,1,0-.06c.18-.1.93,1.1,1.61,2.09,3.44,5,10.68,9.56,16.93,8.28A10.74,10.74,0,0,0,83,126.35,75.72,75.72,0,0,0,75.22,124.16Z"/><path class="cls-66" d="M82.6,128.05a17.5,17.5,0,0,0,4.08-.9c1.52-.65,2.5.28,2.36.93s-2.64,1.55-3.64,1.58S82.6,128.05,82.6,128.05Z"/><path class="cls-67" d="M27.55,141.57c-2.75.25-8.92.36-13.29-3.68-7.28-6.73-3.67-19.54-1.14-25,2.91-6.31,7.53-9.85,10.33-12,3.49-2.66,5.61-4.29,8.17-3.92,6.62.94,11.2,14.5,7.57,18.38-1.19,1.27-2.37.55-5.81,1.65-1.12.35-9.48,3-10.94,9.18-1,4.31,1.58,9.35,6.19,12.74Z"/><path class="cls-68" d="M57.54,140.62c-3-2.17-3.29-4.18-6.67-5.76-4.39-2.05-6.71,0-8.83-1.92-2.51-2.31.1-5.86-1.46-12.42-.26-1.12-2.27-9.58-8.08-11-2.72-.68-6.42.13-8,2.36-1.22,1.75-.29,3.18-1.76,5.1s-3,1.32-4.83,2.88c-2.87,2.47-3.66,8.06-1.45,11.4,1,1.55,2.46,2.24,5.16,3.53a26.16,26.16,0,0,0,4.53,1.67c-3.17-3.49-4.65-7.8-3.53-11.41,1.16-3.77,4.91-6,7.85-7.22a53.8,53.8,0,0,1,4.76,17.8c.25,3.93-.16,7.77,2.53,11.17.51.66,2.15,2.72,3.91,2.47,2.1-.29,2.13-3.54,5-4.7.93-.38,1.23-.15,5.18.17a56.44,56.44,0,0,0,7.67.28c2.27-.1,5.44-.25,6.46-1.38A16.53,16.53,0,0,1,57.54,140.62Z"/><path class="cls-69" d="M29.35,143.73l-.32-.94a2.79,2.79,0,0,1,1.87-3.57L91.38,120.8l1.84,6.25L33.05,145.58A3,3,0,0,1,29.35,143.73Z"/><path class="cls-70" d="M129,145.83c-17.33,5.61-35.9-4.2-41.31-22.4-5.55-18.64,4.9-38.42,23.15-43.67,17.92-5.16,36,5.85,40.66,24.12C156,121.73,146,140.31,129,145.83Zm-1.4-5.09c14.37-4.62,22.8-20.3,18.94-35.34-3.93-15.34-19.18-24.5-34.19-20.14-15.24,4.43-24,20.95-19.4,36.55C97.41,137.1,113,145.43,127.57,140.74Z"/><path class="cls-18" d="M91.38,120.8l-7.71,2.35a8,8,0,0,1-2.6,4.73c-3.89,3.22-9.09-.3-16.35,3.49-3.64,1.9-2.95,3.11-6.36,4.43C52.72,138,50.13,135,45.14,137s-5.55,6.38-8.41,6.23c-1.23-.07-2.81-1-4.57-4.34l-1.26.38A2.79,2.79,0,0,0,29,142.79l.32.94a3,3,0,0,0,3.7,1.85l60.17-18.53Z"/><path class="cls-71" d="M130.14,147.4C112.81,153,94.24,143.19,88.83,125c-5.54-18.64,4.9-38.41,23.15-43.66,17.92-5.16,36,5.85,40.66,24.11C157.16,123.3,147.16,141.88,130.14,147.4Zm-1.4-5.09c14.38-4.62,22.8-20.3,18.94-35.35-3.93-15.33-19.18-24.5-34.19-20.13-15.24,4.43-24,21-19.4,36.55C98.59,138.67,114.15,147,128.74,142.31Z"/><path class="cls-72" d="M129.64,145.6c-16.36,5.29-33.86-4-38.94-21.18-5.21-17.56,4.64-36.18,21.82-41.14,16.89-4.88,34,5.47,38.37,22.7C155.18,122.84,145.74,140.4,129.64,145.6Zm-.9-3.29c14.38-4.62,22.8-20.3,18.94-35.35-3.93-15.33-19.18-24.5-34.19-20.13-15.24,4.43-24,21-19.4,36.55C98.59,138.67,114.15,147,128.74,142.31Z"/><path class="cls-8" d="M27.78,141l.61-1.52a3.13,3.13,0,0,0,1.82-.53,2.32,2.32,0,0,1,1.47-.35c.23.06,1.09,0,.1.5s-1,.82-.57,1.21a7.25,7.25,0,0,0,2.55,1.26c.57,0-.45.92-1,1a3.55,3.55,0,0,1-2.67-.43C29.65,141.92,27.78,141,27.78,141Z"/></g></g></svg>