<svg xmlns="http://www.w3.org/2000/svg" xmlns:xlink="http://www.w3.org/1999/xlink" viewBox="0 0 226 234"><defs><style>.cls-1{isolation:isolate;}.cls-2{fill:#0283f0;opacity:0.24;}.cls-3{fill:url(#linear-gradient);}.cls-4{fill:url(#linear-gradient-2);}.cls-5{fill:url(#linear-gradient-3);}.cls-6{fill:url(#linear-gradient-4);}.cls-7{fill:url(#linear-gradient-5);}.cls-22,.cls-27,.cls-46,.cls-62,.cls-73,.cls-8,.cls-9{mix-blend-mode:multiply;opacity:0.3;}.cls-8{fill:url(#linear-gradient-6);}.cls-9{fill:url(#linear-gradient-7);}.cls-10{fill:url(#Безымянный_градиент_278);}.cls-11{fill:#25b5df;}.cls-12,.cls-14,.cls-33,.cls-49,.cls-51{mix-blend-mode:soft-light;}.cls-12,.cls-14,.cls-49,.cls-72,.cls-77{opacity:0.5;}.cls-12{fill:url(#Безымянный_градиент_277);}.cls-13{fill:url(#Безымянный_градиент_278-2);}.cls-14{fill:url(#Безымянный_градиент_277-2);}.cls-15,.cls-33,.cls-75,.cls-77{fill:#fff;}.cls-16{fill:url(#linear-gradient-8);}.cls-17{fill:url(#linear-gradient-9);}.cls-18{fill:url(#linear-gradient-10);}.cls-19{fill:url(#linear-gradient-11);}.cls-20{fill:url(#linear-gradient-12);}.cls-21{fill:url(#linear-gradient-13);}.cls-22{fill:url(#linear-gradient-14);}.cls-23{fill:url(#linear-gradient-15);}.cls-24{fill:url(#linear-gradient-16);}.cls-25{fill:url(#linear-gradient-17);}.cls-26{fill:#26264f;}.cls-27{fill:url(#linear-gradient-18);}.cls-28{fill:url(#linear-gradient-19);}.cls-29{fill:#b7c0ce;}.cls-30,.cls-34{fill:#d8dee8;}.cls-31{fill:#bfc8d6;}.cls-32{fill:#eff2f6;}.cls-33{opacity:0.48;}.cls-34{opacity:0.47;}.cls-35{fill:url(#linear-gradient-20);}.cls-36{fill:url(#linear-gradient-21);}.cls-37{fill:url(#linear-gradient-22);}.cls-38{fill:url(#linear-gradient-23);}.cls-39{fill:url(#linear-gradient-24);}.cls-40{fill:url(#linear-gradient-25);}.cls-41{fill:url(#Безымянный_градиент_280);}.cls-42{fill:url(#linear-gradient-26);}.cls-43{fill:url(#linear-gradient-27);}.cls-44{fill:url(#linear-gradient-28);}.cls-45{fill:url(#linear-gradient-29);}.cls-46{fill:url(#linear-gradient-30);}.cls-47{fill:url(#linear-gradient-31);}.cls-48{fill:url(#Безымянный_градиент_293);}.cls-49{fill:url(#Безымянный_градиент_277-3);}.cls-50{fill:url(#Безымянный_градиент_282);}.cls-51{opacity:0.6;fill:url(#Безымянный_градиент_277-4);}.cls-52{fill:url(#linear-gradient-32);}.cls-53{fill:url(#linear-gradient-33);}.cls-54{fill:url(#linear-gradient-34);}.cls-55{fill:url(#linear-gradient-35);}.cls-56{fill:url(#linear-gradient-36);}.cls-57{fill:url(#linear-gradient-37);}.cls-58{fill:url(#linear-gradient-38);}.cls-59{fill:url(#Безымянный_градиент_279);}.cls-60{fill:url(#linear-gradient-39);}.cls-61{fill:url(#linear-gradient-40);}.cls-62{fill:url(#linear-gradient-41);}.cls-63{fill:url(#linear-gradient-42);}.cls-64{fill:url(#linear-gradient-43);}.cls-65{fill:url(#linear-gradient-44);}.cls-66{fill:url(#linear-gradient-45);}.cls-67{fill:url(#linear-gradient-46);}.cls-68{fill:#fafeff;opacity:0.11;}.cls-69{fill:#444b8c;}.cls-70{fill:url(#linear-gradient-47);}.cls-71{fill:#1f1f44;}.cls-72{fill:url(#linear-gradient-48);}.cls-74{fill:url(#linear-gradient-49);}.cls-75{opacity:0.8;}.cls-76{fill:url(#Безымянный_градиент_78);}.cls-78{stroke:#fff;stroke-miterlimit:10;fill:url(#Безымянный_градиент_78-2);}</style><linearGradient id="linear-gradient" x1="111.15" y1="75.31" x2="128.06" y2="509.17" gradientUnits="userSpaceOnUse"><stop offset="0" stop-color="#ffc444"/><stop offset="1" stop-color="#f36f56"/></linearGradient><linearGradient id="linear-gradient-2" x1="113.78" y1="-19.56" x2="115.42" y2="225.28" xlink:href="#linear-gradient"/><linearGradient id="linear-gradient-3" x1="44.51" y1="73.45" x2="54.57" y2="331.68" xlink:href="#linear-gradient"/><linearGradient id="linear-gradient-4" x1="190.51" y1="78.81" x2="199.26" y2="303.33" xlink:href="#linear-gradient"/><linearGradient id="linear-gradient-5" x1="123.81" y1="70.96" x2="133.16" y2="310.82" xlink:href="#linear-gradient"/><linearGradient id="linear-gradient-6" x1="116.22" y1="55.38" x2="120.92" y2="176.11" xlink:href="#linear-gradient"/><linearGradient id="linear-gradient-7" x1="131.9" y1="84.35" x2="137.17" y2="219.49" xlink:href="#linear-gradient"/><linearGradient id="Безымянный_градиент_278" x1="67.49" y1="147.43" x2="74.28" y2="180.39" gradientUnits="userSpaceOnUse"><stop offset="0" stop-color="#ffc444"/><stop offset="0.1" stop-color="#ffc145"/><stop offset="1" stop-color="#f36f56"/></linearGradient><linearGradient id="Безымянный_градиент_277" x1="6876.58" y1="180.14" x2="6906.02" y2="180.14" gradientTransform="matrix(-1, 0, 0, 1, 6963.58, 0)" gradientUnits="userSpaceOnUse"><stop offset="0" stop-color="#fff"/><stop offset="1" stop-color="#fed7a2"/></linearGradient><linearGradient id="Безымянный_градиент_278-2" x1="73.13" y1="166.53" x2="77.02" y2="166.53" xlink:href="#Безымянный_градиент_278"/><linearGradient id="Безымянный_градиент_277-2" x1="57.18" y1="140.38" x2="92.93" y2="140.38" gradientTransform="matrix(1, 0, 0, 1, 0, 0)" xlink:href="#Безымянный_градиент_277"/><linearGradient id="linear-gradient-8" x1="113.53" y1="80" x2="118.69" y2="153.97" gradientUnits="userSpaceOnUse"><stop offset="0" stop-color="#53d8ff"/><stop offset="1" stop-color="#3840f7"/></linearGradient><linearGradient id="linear-gradient-9" x1="8658.28" y1="-145.13" x2="8664" y2="-145.13" gradientTransform="matrix(-1, 0.09, 0.09, 1, 8734.5, -442.64)" gradientUnits="userSpaceOnUse"><stop offset="0" stop-color="#444b8c"/><stop offset="1" stop-color="#26264f"/></linearGradient><linearGradient id="linear-gradient-10" x1="8278.23" y1="-104.83" x2="8280.74" y2="-110.03" gradientTransform="matrix(-1, 0.07, 0.07, 1, 8360.2, -280.24)" xlink:href="#linear-gradient"/><linearGradient id="linear-gradient-11" x1="7887.57" y1="-651.48" x2="7893.64" y2="-651.48" gradientTransform="matrix(-0.98, 0.21, 0.21, 0.98, 7962.66, -857.44)" xlink:href="#linear-gradient-9"/><linearGradient id="linear-gradient-12" x1="8043.83" y1="-405.48" x2="8046.39" y2="-410.79" gradientTransform="matrix(-0.99, 0.15, 0.15, 0.99, 8131.35, -578.36)" xlink:href="#linear-gradient"/><linearGradient id="linear-gradient-13" x1="272.6" y1="353.19" x2="256.39" y2="316.66" gradientTransform="translate(-137.31 -188.73) rotate(3.06)" gradientUnits="userSpaceOnUse"><stop offset="0" stop-color="#311944"/><stop offset="1" stop-color="#893976"/></linearGradient><linearGradient id="linear-gradient-14" x1="270.08" y1="354.31" x2="253.88" y2="317.77" xlink:href="#linear-gradient-13"/><linearGradient id="linear-gradient-15" x1="393.62" y1="-113.62" x2="377.41" y2="-150.15" gradientTransform="translate(-277.83 321.18) rotate(-3.98)" xlink:href="#linear-gradient-13"/><linearGradient id="linear-gradient-16" x1="94.54" y1="154.71" x2="123.14" y2="88.61" xlink:href="#linear-gradient-8"/><linearGradient id="linear-gradient-17" x1="92.72" y1="81.45" x2="97.88" y2="155.42" xlink:href="#linear-gradient-8"/><linearGradient id="linear-gradient-18" x1="89.74" y1="140.38" x2="114.52" y2="83.12" xlink:href="#linear-gradient"/><linearGradient id="linear-gradient-19" x1="69.93" y1="83.04" x2="75.09" y2="157.01" xlink:href="#linear-gradient-8"/><linearGradient id="linear-gradient-20" x1="784.55" y1="190.88" x2="785.81" y2="206.96" gradientTransform="translate(-626.26)" gradientUnits="userSpaceOnUse"><stop offset="0" stop-color="#26264f"/><stop offset="1" stop-color="#444b8c"/></linearGradient><linearGradient id="linear-gradient-21" x1="-868.91" y1="923.36" x2="-869.17" y2="904.12" gradientTransform="translate(1175.28 -561.44) rotate(9.85)" xlink:href="#linear-gradient"/><linearGradient id="linear-gradient-22" x1="768.74" y1="189.8" x2="770" y2="205.89" xlink:href="#linear-gradient-20"/><linearGradient id="linear-gradient-23" x1="-884.67" y1="925.01" x2="-884.93" y2="905.76" gradientTransform="translate(1175.28 -561.44) rotate(9.85)" xlink:href="#linear-gradient"/><linearGradient id="linear-gradient-24" x1="189.75" y1="156.71" x2="182.53" y2="167.45" gradientTransform="matrix(1, 0, 0, 1, 0, 0)" xlink:href="#linear-gradient-9"/><linearGradient id="linear-gradient-25" x1="143.96" y1="180.36" x2="195.76" y2="180.36" gradientTransform="matrix(1, 0, 0, 1, 0, 0)" xlink:href="#linear-gradient-9"/><linearGradient id="Безымянный_градиент_280" x1="191.7" y1="161.59" x2="170.05" y2="138.19" gradientUnits="userSpaceOnUse"><stop offset="0.07" stop-color="#53d8ff"/><stop offset="0.57" stop-color="#4587fb"/><stop offset="1" stop-color="#3840f7"/></linearGradient><linearGradient id="linear-gradient-26" x1="144.09" y1="148.4" x2="143.56" y2="150.8" xlink:href="#linear-gradient"/><linearGradient id="linear-gradient-27" x1="2734.47" y1="1144.52" x2="2748.85" y2="1162.61" gradientTransform="translate(-2172.85 -1694.32) rotate(14.93)" xlink:href="#linear-gradient"/><linearGradient id="linear-gradient-28" x1="176.29" y1="132.66" x2="217.57" y2="132.66" gradientTransform="matrix(1, 0, 0, 1, 0, 0)" xlink:href="#linear-gradient-13"/><linearGradient id="linear-gradient-29" x1="2735.16" y1="1143.61" x2="2751.21" y2="1163.81" gradientTransform="translate(-2172.85 -1694.32) rotate(14.93)" xlink:href="#linear-gradient"/><linearGradient id="linear-gradient-30" x1="165.35" y1="148.08" x2="188.4" y2="170.1" gradientUnits="userSpaceOnUse"><stop offset="0" stop-color="#ff9085"/><stop offset="1" stop-color="#fb6fbb"/></linearGradient><linearGradient id="linear-gradient-31" x1="151.36" y1="150.82" x2="177.06" y2="138.32" xlink:href="#linear-gradient-8"/><linearGradient id="Безымянный_градиент_293" x1="193.08" y1="197.53" x2="178.47" y2="218.24" gradientUnits="userSpaceOnUse"><stop offset="0.1" stop-color="#ffc145"/><stop offset="1" stop-color="#f36f56"/></linearGradient><linearGradient id="Безымянный_градиент_277-3" x1="246.72" y1="205.86" x2="276.16" y2="205.86" gradientTransform="translate(-74.33)" xlink:href="#Безымянный_градиент_277"/><linearGradient id="Безымянный_градиент_282" x1="183.01" y1="199.31" x2="184.33" y2="191.53" gradientUnits="userSpaceOnUse"><stop offset="0" stop-color="#ffc444"/><stop offset="0.4" stop-color="#ffc145"/><stop offset="0.88" stop-color="#f36f56"/></linearGradient><linearGradient id="Безымянный_градиент_277-4" x1="170" y1="158.56" x2="202.36" y2="173.75" gradientTransform="matrix(1, 0, 0, 1, 0, 0)" xlink:href="#Безымянный_градиент_277"/><linearGradient id="linear-gradient-32" x1="10257.39" y1="974.16" x2="10260.52" y2="976.95" gradientTransform="matrix(-0.99, -0.14, -0.14, 0.99, 10359.22, 676.18)" xlink:href="#linear-gradient-9"/><linearGradient id="linear-gradient-33" x1="9139.73" y1="439.73" x2="9139.73" y2="434.28" gradientTransform="matrix(-1, 0.05, 0.05, 1, 9169.54, -687.29)" xlink:href="#linear-gradient"/><linearGradient id="linear-gradient-34" x1="10257.7" y1="973.81" x2="10260.83" y2="976.59" gradientTransform="matrix(-0.99, -0.14, -0.14, 0.99, 10359.22, 676.18)" xlink:href="#linear-gradient-9"/><linearGradient id="linear-gradient-35" x1="9960.71" y1="206.65" x2="9963.84" y2="209.44" gradientTransform="matrix(-1, 0, 0, 1, 10036.48, 0)" xlink:href="#linear-gradient-9"/><linearGradient id="linear-gradient-36" x1="8760.68" y1="-313.82" x2="8760.68" y2="-319.27" gradientTransform="matrix(-0.98, 0.19, 0.19, 0.98, 8729.93, -1169.74)" xlink:href="#linear-gradient"/><linearGradient id="linear-gradient-37" x1="9961.02" y1="206.3" x2="9964.15" y2="209.09" gradientTransform="matrix(-1, 0, 0, 1, 10036.48, 0)" xlink:href="#linear-gradient-9"/><linearGradient id="linear-gradient-38" x1="7358.9" y1="148.12" x2="7356.99" y2="156.85" gradientTransform="matrix(-1, 0, 0, 1, 7427.4, 0)" xlink:href="#linear-gradient"/><linearGradient id="Безымянный_градиент_279" x1="7373.51" y1="126.24" x2="7393.72" y2="168.82" gradientTransform="matrix(-1, 0, 0, 1, 7427.4, 0)" gradientUnits="userSpaceOnUse"><stop offset="0" stop-color="#cb236d"/><stop offset="1" stop-color="#4c246d"/></linearGradient><linearGradient id="linear-gradient-39" x1="9700.13" y1="-703.74" x2="9713.93" y2="-686.37" gradientTransform="matrix(-0.97, 0.26, 0.26, 0.97, 9600.25, -1694.32)" xlink:href="#linear-gradient"/><linearGradient id="linear-gradient-40" x1="9700.79" y1="-704.62" x2="9716.2" y2="-685.23" gradientTransform="matrix(-0.97, 0.26, 0.26, 0.97, 9600.25, -1694.32)" xlink:href="#linear-gradient"/><linearGradient id="linear-gradient-41" x1="7368.02" y1="155.92" x2="7390.15" y2="177.05" gradientTransform="matrix(-1, 0, 0, 1, 7427.4, 0)" gradientUnits="userSpaceOnUse"><stop offset="0" stop-color="#e38ddd"/><stop offset="1" stop-color="#9571f6"/></linearGradient><linearGradient id="linear-gradient-42" x1="7371.33" y1="152.46" x2="7377.94" y2="158.77" gradientTransform="matrix(-1, 0, 0, 1, 7427.4, 0)" xlink:href="#linear-gradient-13"/><linearGradient id="linear-gradient-43" x1="7391.42" y1="172.3" x2="7373.28" y2="185.26" gradientTransform="matrix(-1, 0, 0, 1, 7427.4, 0)" xlink:href="#linear-gradient-9"/><linearGradient id="linear-gradient-44" x1="7352.29" y1="188.17" x2="7397.22" y2="188.17" gradientTransform="matrix(-1, 0, 0, 1, 7427.4, 0)" xlink:href="#linear-gradient-9"/><linearGradient id="linear-gradient-45" x1="32.14" y1="218.08" x2="53.67" y2="216.97" xlink:href="#linear-gradient"/><linearGradient id="linear-gradient-46" x1="31.26" y1="201.09" x2="52.79" y2="199.98" xlink:href="#linear-gradient"/><linearGradient id="linear-gradient-47" x1="243.11" y1="-95.57" x2="267.85" y2="-95.57" gradientTransform="translate(-140.07 250.43) rotate(-3.5)" gradientUnits="userSpaceOnUse"><stop offset="0" stop-color="#40447e"/><stop offset="1" stop-color="#3c3b6b"/></linearGradient><linearGradient id="linear-gradient-48" x1="533.94" y1="71.21" x2="574.01" y2="71.21" gradientTransform="translate(-479.96)" xlink:href="#linear-gradient-8"/><linearGradient id="linear-gradient-49" x1="539.23" y1="60.67" x2="574.01" y2="106.48" gradientTransform="translate(-479.96)" xlink:href="#linear-gradient-30"/><linearGradient id="Безымянный_градиент_78" x1="125.85" y1="192.25" x2="109.81" y2="222.86" gradientUnits="userSpaceOnUse"><stop offset="0" stop-color="#3cc"/><stop offset="0.41" stop-color="#f2bfff"/><stop offset="0.98" stop-color="#f2bfff"/></linearGradient><linearGradient id="Безымянный_градиент_78-2" x1="109.77" y1="191.82" x2="148.25" y2="234.5" xlink:href="#Безымянный_градиент_78"/></defs><g class="cls-1"><g id="Illustration"><path class="cls-2" d="M220.72,98.64C216.32,69.85,212.79,50,196.9,39c-26.79-18.39-56.72,11.47-94.67-8.57C83.54,20.61,82.84,9.17,67,7.65,39,5,16.08,38.38,14.09,41.25A72.87,72.87,0,0,0,2.88,100.14c3.18,13.14,5.32,26.75,4.73,40.26-1,23.51-.43,45.46,22.39,59.48,20.37,12.52,46,23.57,70.48,25.5,16.62,1.32,35.26-.81,51.28-5.14C233.42,198.18,226.77,138.23,220.72,98.64Z"/><path class="cls-3" d="M203.59,72.67V72.5a52,52,0,0,0-1.09-10.31c-1.77-8.91-5.62-15.94-11.33-21.24a34.88,34.88,0,0,0-9.44-6.47l-.07,0h0A37.34,37.34,0,0,0,168,31.13C147.08,30,133.91,44.07,120.35,57.45,106.94,43.62,91.12,27,69.38,25.82c-7.16-.39-13.85.19-19.88,2.66h0a45.15,45.15,0,0,0-31,43.33,51.68,51.68,0,0,0,3,17.69A43.74,43.74,0,0,0,36.7,110a56.07,56.07,0,0,0,9.95,5.51h0A53.73,53.73,0,0,0,67,118.64c17.83-.73,29.73-9.2,41-19.16h0c4.1-3.88,8.14-8,12.15-12,13,13,27.48,27.78,45.9,27a38.48,38.48,0,0,0,17.26-4.77l7.66-5a38.85,38.85,0,0,0,10.6-17.53A47,47,0,0,0,203.59,72.67ZM58,93.6C50.2,89.88,45.05,81.92,45.05,72a23.59,23.59,0,0,1,16.5-22.46h0a24.12,24.12,0,0,1,8.11-1.11c15.26.47,26.42,14.58,35.94,24L94.74,83.27l.16,0c-7.57,6.76-16.11,12.41-26.12,12.58A23.92,23.92,0,0,1,58,93.6Zm107.79.56c-12.76.22-22.6-12.65-31.62-21.38l12-12.16,0-.21c6.22-5.32,13-9.26,20.41-9A17.78,17.78,0,0,1,174,53.26a21.46,21.46,0,0,1,10.44,14.92,27.17,27.17,0,0,1,.4,4.49,26.79,26.79,0,0,1-.47,4.9C182.5,86.79,175.1,94,165.77,94.16Z"/><path class="cls-4" d="M206.26,68.16a52.63,52.63,0,0,0-1.11-10.54,40.92,40.92,0,0,0-11.09-20.94A34.84,34.84,0,0,0,184.48,30h0a37.1,37.1,0,0,0-13.61-3.38c-15.14-.9-26.23,6.33-36.36,15.47-3.72,3.35-7.31,7-10.92,10.52-13.32-13.86-29-30.3-50.61-31.57a48.59,48.59,0,0,0-19.73,2.75h0C34.49,29.57,22.46,47,22.46,66.63a50.88,50.88,0,0,0,3,17.53c.28.79.59,1.51.91,2.27a43.41,43.41,0,0,0,14.16,18.14,55,55,0,0,0,9.88,5.48h0a53.47,53.47,0,0,0,20.16,3.24c17.7-.63,29.89-9,40.61-18.81,0,0,0,0,0,0,4.17-3.84,8.13-7.93,12.1-11.89,12.95,13,27.32,27.83,45.62,27.17a37.78,37.78,0,0,0,17.16-4.66c12.6-7,20.18-21,20.18-36.49C206.27,68.44,206.27,68.3,206.26,68.16ZM72.38,90.66a23.61,23.61,0,0,1-10.72-2.33c-7.72-3.75-12.83-11.7-12.83-21.62A23.33,23.33,0,0,1,65.2,44.42h0a24,24,0,0,1,8-1.07C88.42,43.89,99.5,58,109,67.5c.07.07.13.14.2.2-3.41,3.43-7,7.15-10.85,10.57C90.79,85,82.31,90.54,72.38,90.66Zm114.87-18c-1.77,9.33-9.19,16.63-18.56,16.75C156,89.62,146.23,76.74,137.28,68l-.24-.24a159.62,159.62,0,0,1,12.1-12c6.18-5.28,12.89-9.17,20.27-8.91a17.93,17.93,0,0,1,7.55,2c5.24,2.69,9,8,10.26,14.68v0a25.4,25.4,0,0,1,.43,4.69,1,1,0,0,1,0,.17A23.19,23.19,0,0,1,187.25,72.71Z"/><path class="cls-5" d="M65.22,102.44l-14.8,7.49h0l-9.88-5.46A43.63,43.63,0,0,1,25.46,84.06a50.31,50.31,0,0,1-3-17.43c0-19.68,12-37.06,30.78-42.81h0L51.2,38l14,6.52A23.27,23.27,0,0,0,48.83,66.76c0,9.92,5.11,17.85,12.83,21.6Z"/><path class="cls-6" d="M206.27,68.58c0,15.45-7.58,29.51-20.18,36.49l-11-5.69,2.79-12.58c4.78-2.73,8.2-7.76,9.33-14.09a26.6,26.6,0,0,0,.4-4.53,1.21,1.21,0,0,0,0-.19,23,23,0,0,0-.44-4.5v0A21.6,21.6,0,0,0,177,48.77a17.84,17.84,0,0,0-1.81-.89L185.89,43l-1.53-12.61.11-.32h0a40.28,40.28,0,0,1,9.58,6.65c5.56,5.27,9.33,12.19,11.09,20.94a60.21,60.21,0,0,1,1.11,10.54C206.27,68.3,206.27,68.44,206.27,68.58Z"/><polygon class="cls-7" points="98.14 78.23 111.22 80.92 111.19 94.46 149.17 55.93 147.38 43.98 134.5 42.12 98.14 78.23"/><path class="cls-8" d="M109.22,67.23s-.4-7,1.35-10.56,4.21-11.65,1.69-15.44c7.18,6.75,11.32,11.41,11.32,11.41Z"/><path class="cls-9" d="M137.42,68.12s4.82,6.11,1.72,11-2.42,6.94-.34,9.61-.19,8.33-.19,8.33L123.2,82.66Z"/><ellipse class="cls-10" cx="75.07" cy="184.23" rx="17.52" ry="7.15"/><path class="cls-11" d="M57.56,183.39c0,3.73,7.84,6.75,17.51,6.75s17.52-3,17.52-6.75-7.84-9.82-17.52-9.82S57.56,179.67,57.56,183.39Z"/><path class="cls-12" d="M57.56,183.39c0-3.72,7.84-9.82,17.51-9.82a23.73,23.73,0,0,1,11.64,3.07A2.5,2.5,0,0,1,87,178c-.2,2.1-3.62,3.39-5.59,3.81C76.46,182.85,74,179.9,70,180c-2.52.07-6,1.33-10.16,6.7C58.38,185.73,57.56,184.6,57.56,183.39Z"/><path class="cls-13" d="M74.12,177a3.83,3.83,0,0,0,2,0,1.26,1.26,0,0,0,.94-1.23V156H73.13v19.73A1.28,1.28,0,0,0,74.12,177Z"/><path class="cls-11" d="M74.12,177a3.83,3.83,0,0,0,2,0,1.26,1.26,0,0,0,.94-1.23V156H73.13v19.73A1.28,1.28,0,0,0,74.12,177Z"/><path class="cls-11" d="M95.66,147.66l-6-3.76c-.25-1.41-3-16.11-14.44-20.72-4.64-1.88-9.62-1.66-12.36-1.54-5.46.25-9.35.42-11.22,3-2.41,3.34,1.63,6.37.79,15.94-.34,3.9-1.21,5.63-.13,8.22,1.29,3.09,4.29,4.81,6.62,5.78a34.06,34.06,0,0,0,14,4.48,34.94,34.94,0,0,0,21.62-5.45A3.58,3.58,0,0,0,97.06,151,3.16,3.16,0,0,0,95.66,147.66Z"/><path class="cls-14" d="M92.92,150.34c-.22-1.32-3.9-.22-7.39-2.82-5.22-3.87-2.51-10.43-7-16.72-4.17-5.78-12.55-8.72-15.15-6.52-3.46,2.93,5,13.89,0,21-2.43,3.43-6.14,3.26-6.16,5.28,0,3.18,9.2,6.85,18,6.69C84.56,157,93.27,152.44,92.92,150.34Z"/><path class="cls-15" d="M121,76.7l-.81-1.52a1.92,1.92,0,0,1-1.09-.69l-.34-.54a1.23,1.23,0,0,1,.45-1.17.59.59,0,0,0,.18-.52c-.08-.58-.26-1.77-.29-2.07a1.36,1.36,0,0,1,.15-.64.16.16,0,0,1,.29,0l.65,2.39a.6.6,0,0,1,.7.31,1.17,1.17,0,0,1,.52.74,13.54,13.54,0,0,1,0,1.6l.71,1.61Z"/><path class="cls-16" d="M119.89,76.45c.45,1,2.93,7,.06,12.64-3.19,6.23-11.8,9.49-20.4,6.68-.07,1.11-.78,15.2,6.14,18.57,7.43,3.61,21.42-6.22,23.71-18.57,1.95-10.57-5.59-19.12-6.81-20.46Z"/><path class="cls-17" d="M92.48,188.61a2.08,2.08,0,0,0-.32,1.33,1.1,1.1,0,0,0,0,.34c.18.47,1.11.46,2.57.52,2.3.09,3,.23,3.16-.12s-.29-.83-.34-.88a2.13,2.13,0,0,0-1.17-.55c-1.11-.29-1.85-.44-2.07-.48C92.91,188.48,92.68,188.43,92.48,188.61Z"/><path class="cls-18" d="M94.1,186.31l.09,2.62a1.42,1.42,0,0,1-1.47.11l-.45-2.6Z"/><path class="cls-19" d="M111.9,188.25a1.29,1.29,0,0,0-.21,1.54c.3.38.79.13,2.15.25s1.83.48,2.83.26c.41-.09,1.14-.32,1.14-.6s-.36-.33-1.54-.8a16,16,0,0,0-2-.77C113.33,187.93,112.43,187.73,111.9,188.25Z"/><path class="cls-20" d="M113,185.91l.6,2.48a1.42,1.42,0,0,1-1.46.21l-1-2.42Z"/><path class="cls-21" d="M109.31,132.16a226.72,226.72,0,0,0,.54,27.53,231,231,0,0,0,3.78,27l-2.84.6a23.8,23.8,0,0,1-6.25-11c-.73-3.1-.35-4.65-.71-8.44-.59-6-2.26-9.26-3.89-14.19a79.13,79.13,0,0,1-3.78-19.46Z"/><path class="cls-22" d="M108,170.48c-1-4.13-3.06-5.23-3.13-9.13-.05-2.76.94-3,.87-5.63-.1-4-2.45-6.12-3.63-8.64s-1.72-6.94,1.64-14.06l-7.59,1.17a79.13,79.13,0,0,0,3.78,19.46c1.63,4.93,3.3,8.16,3.89,14.19.36,3.79,0,5.34.71,8.44a23.8,23.8,0,0,0,6.25,11l.72-.15A13.91,13.91,0,0,1,108,179.5C107.64,176.07,109.05,174.66,108,170.48Z"/><path class="cls-23" d="M99.82,131.65q-1.69,15.58-3.1,31.77-1.05,12.14-1.87,24l-2.89.2a33.45,33.45,0,0,1-2.58-7.88c-.8-4.14-.43-6.56-.65-10.82-.25-4.78-.93-5.86-1.9-11.93-2-12.31-3-18.46.17-22.09C88,133.7,91.16,130.77,99.82,131.65Z"/><path class="cls-24" d="M128.17,84.33a9.12,9.12,0,0,1-.65,3.18c-1.26,3.12-4.25,5.39-3.63,8.89.31,1.74,1.27,2.35.88,3.62-.56,1.81-2.84,1.72-5.26,3.76-2.15,1.81-2.27,3.48-3.38,5-1.5,2.06-4.89,3.95-13.09,3.35a7.61,7.61,0,0,0,2.65,2.2c7.43,3.61,21.42-6.22,23.71-18.57A21,21,0,0,0,128.17,84.33Z"/><path class="cls-25" d="M74.92,99.33A63,63,0,0,1,97.73,96,61.78,61.78,0,0,1,112,98.29q.78,4.33,1.55,8.67a102.34,102.34,0,0,1-.17,11.48c-.32,4.64-.64,4.71-1.39,11.26-1.21,10.68-.7,13.47-2.85,14.76-1.4.83-1.9-.18-9-.88-4.78-.48-7.22-.7-9.64.12-3.29,1.12-4.39,3-5.75,2.38s-1.47-2.83-1.63-6.76c-.24-6-.23-10.16-.25-11.64-.1-6.75-1.81-11.91-4-18.52A92.13,92.13,0,0,0,74.92,99.33Z"/><path class="cls-15" d="M99.57,95.09c-.43-.9.16-2.1.85-3.08-.55-1.17-2.78-1.51-3.33-2.68a19.83,19.83,0,0,1-.57,3.94c-.26,1-.42,1.32-.62,1.53s-.75.57-3.21,1c-1.34.25-1.51.23-1.55.36-.18.64,3.32,3,7.07,2.69,2.3-.2,4.45-1.39,4.36-2.08S100.18,96.37,99.57,95.09Z"/><path class="cls-26" d="M101.29,90.22a2.38,2.38,0,0,0,.1-2.75,2.64,2.64,0,0,0-1.83-.94c-1.45-.24-3.33.27-4,1.57-.42.78.31,2.48.43,2.78s.38.47.61.74.82,1,1.63,1.94a7.25,7.25,0,0,1,.39-1,5.59,5.59,0,0,1,.75-1.13C100.14,90.58,100.75,90.88,101.29,90.22Z"/><path class="cls-15" d="M97,92.71a3.28,3.28,0,0,0,2.79,1.6c1.72,0,2.17-3.84,1.13-4.71a2.2,2.2,0,0,0-1.68-.31c-.35.08-.48.22-1.06.34s-.69,0-.86.17-.37.56-.1,1.7a.92.92,0,0,0-1-.38.67.67,0,0,0-.24.21C95.74,91.75,96.11,92.34,97,92.71Z"/><path class="cls-26" d="M97.26,89.56c.08.07-.19.36-.23.8a2.09,2.09,0,0,0,1.58,2c.52.08.68-.22,1.53-.27a4.3,4.3,0,0,1,1.24.14,2.07,2.07,0,0,1-.72,2.25,2.15,2.15,0,0,1-1.88,0,2.49,2.49,0,0,1-1.35-1.1c-.37-.75.06-1.17-.39-1.69-.23-.26-.54-.38-.82-.88a2.34,2.34,0,0,1-.16-.34C96.53,90,97.14,89.47,97.26,89.56Z"/><path class="cls-15" d="M100.74,92.57a2,2,0,0,1-1,.11s-.07,0-.07,0a.78.78,0,0,0,.76.26c.27-.06.49-.3.46-.37S100.8,92.56,100.74,92.57Z"/><path class="cls-27" d="M106.37,141c-3.51-1.5-3.49-4.59-6.76-5.88-4.67-1.85-9.83,2.44-10.64,1.25s5.33-5,4.51-8.76c-.65-3-5-2.45-7.26-6.51-2.19-3.86-.07-7.42-2-8.76-.7-.48-1.92-.67-4.24.35a49.16,49.16,0,0,1,2.86,15c0,1.48,0,5.59.25,11.64.16,3.93.32,6.18,1.63,6.76s2.46-1.26,5.75-2.38c2.42-.82,4.86-.6,9.64-.12,7.13.7,7.63,1.71,9,.88.91-.55,1.34-1.36,1.63-2.93A8.78,8.78,0,0,1,106.37,141Z"/><path class="cls-15" d="M79.71,127.69l1.72-.1s1.89-1.57,2.74-1.48a7.56,7.56,0,0,1,2.3.82c.16.13-.47.83-1.1.76s-2,.27-2.27.82-1.33.88-1.52.56l-2.31.46Z"/><path class="cls-28" d="M80.23,127.09a4.15,4.15,0,0,1-.7,3c-2.27,2.92-10,1.72-14.59-2.18a15.06,15.06,0,0,1-5.13-11.39c.13-7.83,7.4-15.52,18.2-18.17,1.6,4.78,4.87,9.16,6.47,13.94-6.66.1-12.38,5.53-11.78,9.12C73.15,124.1,76.27,126.5,80.23,127.09Z"/><path class="cls-29" d="M134.45,198.93a.28.28,0,0,1-.28-.26l-5.1-55.14a.27.27,0,0,1,.25-.3.28.28,0,0,1,.31.25l4.54,49.07V142.29a.28.28,0,1,1,.56,0v56.36a.28.28,0,0,1-.27.28Z"/><polygon class="cls-30" points="191.35 148.32 135.37 142.19 27.83 147.07 84.15 153.82 191.35 148.32"/><polygon class="cls-29" points="84.15 153.82 191.35 148.32 191.35 150.97 84.15 156.47 27.83 149.73 27.83 147.07 84.15 153.82"/><path class="cls-29" d="M84.53,218.16h0a.28.28,0,0,1-.27-.28v-62a.29.29,0,0,1,.57,0v54.84l4.29-54.86a.27.27,0,0,1,.3-.26.28.28,0,0,1,.26.3L84.82,217.9A.29.29,0,0,1,84.53,218.16Z"/><path class="cls-29" d="M28.45,207.14h0a.28.28,0,0,1-.27-.28V149.58a.28.28,0,0,1,.28-.28.29.29,0,0,1,.28.28v50.1l3.93-50.12a.3.3,0,0,1,.31-.26.29.29,0,0,1,.26.31l-4.5,57.27A.28.28,0,0,1,28.45,207.14Z"/><path class="cls-29" d="M190.82,207.14a.29.29,0,0,1-.29-.26l-4.77-57.27a.29.29,0,0,1,.26-.31.28.28,0,0,1,.3.26l4.21,50.53V151a.29.29,0,0,1,.57,0v55.89a.28.28,0,0,1-.27.28Z"/><path class="cls-31" d="M168.67,149.38l-38.46-.29v.85a.46.46,0,0,0,.4.46l10.87,1.67a1.7,1.7,0,0,0,.39,0l26.38-1.9a.44.44,0,0,0,.42-.45Z"/><path class="cls-31" d="M154.72,148l-24.11,1.55a.69.69,0,0,1-.78-.66V133.2a.75.75,0,0,1,.78-.71h24.11a.64.64,0,0,1,.64.64V147.3A.69.69,0,0,1,154.72,148Z"/><path class="cls-30" d="M155.1,148,131,149.53a.69.69,0,0,1-.78-.66V133.2a.75.75,0,0,1,.78-.71H155.1a.64.64,0,0,1,.64.64V147.3A.69.69,0,0,1,155.1,148Z"/><path class="cls-32" d="M154.35,147l-22.45,1.35a.57.57,0,0,1-.64-.54V134.07a.61.61,0,0,1,.64-.58l22.45-.09a.53.53,0,0,1,.53.53v12.49A.57.57,0,0,1,154.35,147Z"/><path class="cls-15" d="M143.9,132.92a.28.28,0,0,1-.28.27.27.27,0,1,1,.28-.27Z"/><path class="cls-33" d="M149.39,143.69c-1.87-.91-3.34.24-4.75-.89-.86-.69-.44-1.21-1.5-2.24s-1.93-.76-3.11-1.78c-1.49-1.3-.74-2.31-2-3.25-1.55-1.13-3.23-.08-4.71-1.17a3.14,3.14,0,0,1-1.17-1.87h-1.45a.45.45,0,0,0-.46.42v16.25a.41.41,0,0,0,.46.39l24.7-1.59a.37.37,0,0,0,.29-.16,5.9,5.9,0,0,1-3.63-1.18C150.65,145.51,150.89,144.42,149.39,143.69Z"/><path class="cls-15" d="M156.06,147.94l-25.85,1.63,11.27,1.73a1.7,1.7,0,0,0,.39,0l26.8-1.93L156.47,148A1.86,1.86,0,0,0,156.06,147.94Z"/><polygon class="cls-34" points="133.98 149.58 155.5 148.2 162.16 148.98 140.83 150.45 133.98 149.58"/><path class="cls-35" d="M161,198.88s-5.66.4-5.74.77,3.84,1.79,5.21,1.84,2.49-.35,2.37-.93-.6-2-.6-2Z"/><path class="cls-36" d="M160.69,196.37l-.1,2.67a2.11,2.11,0,0,0,1.54.21l.76-2.82Z"/><path class="cls-37" d="M145.14,197.81s-5.65.39-5.73.76,3.84,1.8,5.21,1.85,2.49-.35,2.37-.93-.61-2-.61-2Z"/><path class="cls-38" d="M144.88,195.3l-.1,2.66a2.06,2.06,0,0,0,1.54.21l.76-2.81Z"/><path class="cls-39" d="M160.09,196.75l3.17.35a21.39,21.39,0,0,0,4.69-8.22c2.2-7.47-1-12.86,1.06-14.2,2.89-1.9,9.15,9,19.19,8.75,4.12-.12,9.5-2.14,11.57-6.53.31-.67,1.85-4.14.35-7.4s-9.19-4.82-24.42-7.61c-6.54-1.2-9.84-1.8-11.17-1.16C155.13,165.21,159.05,190.59,160.09,196.75Z"/><path class="cls-40" d="M144,196.79l3.28.57c1.32-2,3.33-5,5.58-8.9,4.68-8.1,4.6-9.75,6.76-10.79,4.58-2.21,8,3.75,19.37,5.4,3.7.54,11.93,1.73,15.26-2.7a7.89,7.89,0,0,0,1-7.4c-1.91-4.6-8.22-4.05-29-8.1-8.1-1.57-9.2-1.85-11.17-1.16C144.14,167.61,143.93,191.47,144,196.79Z"/><path class="cls-41" d="M166.65,133.35a11.24,11.24,0,0,1,4.6-4.94,9.35,9.35,0,0,1,1.72-.92,23.36,23.36,0,0,1,9.46-1.6c1.87.15,6.51.49,9.95,3.47,1.66,1.44,3,3.45,4.93,14.79,2.7,15.81.5,14.19,2.64,20.6,1.12,3.39,2.88,7.28,1,9.77-.6.8-1.45,1-3.2,1.82a29.8,29.8,0,0,1-16,2.08c-3.92-.39-5.9-.61-6.93-2-1.66-2.21,0-5,.34-9.88.22-3.49-.58-6.25-2.16-11.78C169.38,141.9,164.59,138.4,166.65,133.35Z"/><path class="cls-42" d="M148.25,149.09l-4.18-.8a2.48,2.48,0,0,0-.9,0l-3.61.62a9.78,9.78,0,0,0,4.34.65,8,8,0,0,1,4.17.83Z"/><path class="cls-43" d="M175.89,123c-.71-1.06.34-3.1.76-3.91l.07-.13c.64-1.18.8-1.34,1.11-1.55l.42-.26.05,0a5.17,5.17,0,0,1,1.39-.08c.6.13,1.23,2.57,1.05,6,0,.13,0,.27.07.4.1.54.17,1.08.23,1.6s.77.49,1.27.46c2-.13,3,0,3.12.34.16.57-2.26,2.43-5.24,2.85-4,0-7.26-.4-6.91-1,.16-.28,3.26-1.09,4.13-1.89a2.69,2.69,0,0,0,.8-2C177.8,123.75,176.42,123.78,175.89,123Z"/><path class="cls-44" d="M177,116.14c-.33.73.47,2.19.76,2.4a1.6,1.6,0,0,1,.39.42l.06.13c.24.67-.84,1.46-.63,1.77s.88-.08,1,.11-.53.55-.43.76.44,0,.67.26a.89.89,0,0,1,.21.6c0,1-2.14,4.41-2.6,6s.38,3.23,3.5,7.58c4.44,6.2,6.66,9.29,7.89,10.18,6,4.33,13.11,3.8,16,3.35,3.49-.55,10.71-1.67,13-7.22,2.67-6.39-2.59-15.13-8-16.61-2.47-.68-3.78.35-7-.77-3.53-1.23-3.1-3.4-6.38-4.69-4.37-1.71-7.19,1.35-10.17-.88C183.71,118.29,184,117,182,116S177.44,115.19,177,116.14Z"/><path class="cls-45" d="M178,120.61c.26-.37.72,0,.72.44s-.45,1-.89.86S177.62,121.09,178,120.61Z"/><path class="cls-46" d="M185.2,173.82c-1.15-2.29,1.67-5.34-.17-8.84-1.57-3-4.42-2.3-5.72-5-1.58-3.29,1.85-5.75,1.73-10.75-.15-6-5.29-12-8.32-11.44-2,.34-2.21,3.26-3.59,6.46a74,74,0,0,1,3.94,10.53c1.58,5.53,2.38,8.29,2.16,11.78-.3,4.86-2,7.67-.34,9.88,1,1.39,3,1.61,6.93,2a29.8,29.8,0,0,0,16-2.08c.82-.38,1.44-.65,1.95-.93C189.51,176.94,186.11,175.64,185.2,173.82Z"/><path class="cls-47" d="M147.18,150.31l.36-1.6c8,1.44,11.53-.17,13.22-2.06,1.55-1.73.89-2.62,3.38-9.23,2.37-6.29,5.06-7.91,6.41-8.49a2.91,2.91,0,0,1,1.91-.39c2.89.7,3.84,8.23,3,13.87-.45,3.17-1.35,9.39-6.45,12.35l-.44.24c-.65.34-3.2,1.57-8.23.67C154.44,154.6,148.65,151.2,147.18,150.31Z"/><ellipse class="cls-48" cx="184.31" cy="209.96" rx="17.52" ry="7.15"/><path class="cls-11" d="M201.83,209.12c0,3.72-7.84,6.75-17.52,6.75s-17.52-3-17.52-6.75,7.85-9.83,17.52-9.83S201.83,205.39,201.83,209.12Z"/><path class="cls-49" d="M201.83,209.12c0-3.73-7.84-9.83-17.52-9.83a23.72,23.72,0,0,0-11.63,3.07,2.5,2.5,0,0,0-.28,1.33c.2,2.1,3.62,3.39,5.58,3.81,5,1.07,7.36-1.88,11.44-1.77,2.52.07,6,1.34,10.16,6.7C201,211.45,201.83,210.32,201.83,209.12Z"/><path class="cls-50" d="M185.27,202.68a4.06,4.06,0,0,1-2,0,1.27,1.27,0,0,1-.94-1.24V181.7h3.89v19.73A1.3,1.3,0,0,1,185.27,202.68Z"/><path class="cls-11" d="M185.27,202.68a4.06,4.06,0,0,1-2,0,1.27,1.27,0,0,1-.94-1.24V181.7h3.89v19.73A1.3,1.3,0,0,1,185.27,202.68Z"/><path class="cls-11" d="M163.73,173.39l6-3.77c.25-1.4,3-16.1,14.44-20.72,4.63-1.88,9.62-1.66,12.35-1.53,5.46.24,9.36.41,11.23,3,2.41,3.34-1.63,6.38-.79,15.94.34,3.9,1.21,5.64.13,8.22-1.3,3.1-4.29,4.81-6.62,5.78a33.91,33.91,0,0,1-14,4.48,34.94,34.94,0,0,1-21.62-5.45,3.56,3.56,0,0,1-2.42-2.68A3.13,3.13,0,0,1,163.73,173.39Z"/><path class="cls-51" d="M166.47,176.06c.22-1.32,3.9-.22,7.39-2.81,5.21-3.88,2.51-10.44,7-16.73,4.16-5.77,12.54-8.71,15.14-6.51,3.47,2.93-5,13.88,0,21,2.44,3.43,6.15,3.27,6.17,5.28,0,3.18-9.2,6.85-18,6.69C174.83,182.76,166.12,178.16,166.47,176.06Z"/><path class="cls-52" d="M65.09,206.18c-.09-.49-1.67-.93-2.46-.28-.39.33-.65,1-.43,1.29.08.11-.25.3.07.3C63.34,207.51,65.18,206.67,65.09,206.18Z"/><path class="cls-53" d="M63.36,206.18l-1.64.09c.56-1-.12-3.86-.12-3.86l1.78.06s-.05.81-.16,2A7.8,7.8,0,0,0,63.36,206.18Z"/><path class="cls-54" d="M63.58,206.16s-2-.45-2.18-.06-.38,1.43.87,1.39S63.69,206.49,63.58,206.16Z"/><path class="cls-55" d="M75.1,208.18c-.15-.47-1.78-.69-2.47.07-.34.38-.51,1.07-.25,1.33.1.1-.21.34.11.3C73.55,209.74,75.26,208.65,75.1,208.18Z"/><path class="cls-56" d="M73.18,208.64l-1.62.31c.42-1.1-.67-3.79-.67-3.79l1.77-.21s.07.82.14,2A7.51,7.51,0,0,0,73.18,208.64Z"/><path class="cls-57" d="M73.6,208.37s-2-.17-2.16.24-.18,1.47,1,1.27S73.75,208.68,73.6,208.37Z"/><path class="cls-26" d="M65,159.2,72,143A1.42,1.42,0,0,0,71,141l-12.7-3.09a1.45,1.45,0,0,0-1.66.85l-6.37,15.61a1.42,1.42,0,0,0,.9,1.9L63.28,160A1.45,1.45,0,0,0,65,159.2Z"/><path class="cls-32" d="M64.7,158.42l6.48-15.17a1.34,1.34,0,0,0-.91-1.82L58.4,138.55a1.34,1.34,0,0,0-1.55.79l-6,14.58a1.33,1.33,0,0,0,.84,1.78l11.34,3.47A1.33,1.33,0,0,0,64.7,158.42Z"/><path class="cls-58" d="M68.7,154l.21-1.91L70,150a2,2,0,0,0,.23-.93v-2.09L68.91,150a10.72,10.72,0,0,0-1.21-1c-.33-.16-.29.5,0,.75s-.13,2.29.12,2.5l-.08,1.25Z"/><path class="cls-59" d="M58.13,141.77A10.78,10.78,0,0,0,53.72,137c-2.72-1.78-4.47-1.46-10.73-2.41-8.34-1.27-9.34-2.47-12.15-1.5-3.68,1.28-5.61,4.63-6.49,6.16-4.44,7.72.75,11.65-.58,27-.54,6.28-1.94,11.75,1.41,15A10.18,10.18,0,0,0,28.26,183a28.59,28.59,0,0,0,15.31,2c3.76-.37,5.66-.59,6.66-1.91,1.59-2.13,0-4.82-.33-9.49-.21-3.35.55-6,2.08-11.31C55.52,150,60.12,146.62,58.13,141.77Z"/><path class="cls-60" d="M44.17,130.07a4,4,0,0,0-.44-2.88c-.61-1.13-.76-1.29-1.06-1.48l-.4-.25-.05,0a4.75,4.75,0,0,0-1.33-.08c-.58.12-1.19,2.46-1,5.78l-.06.38c-.1.52-.17,1-.22,1.54s-.74.47-1.22.44c-1.95-.13-2.91,0-3,.33-.16.54,2.16,2.33,5,2.73,3.85,0,7-.38,6.64-1-.15-.26-3.13-1-4-1.81a2.58,2.58,0,0,1-.76-2C42.54,131.68,43.89,131.06,44.17,130.07Z"/><path class="cls-26" d="M43.46,124.52a3.85,3.85,0,0,1-.73,2.29,1.73,1.73,0,0,0-.38.41.67.67,0,0,0-.06.12c-.22.65.81,1.41.61,1.7s-.84-.07-.93.11.51.53.42.73-.43,0-.65.25-.08.21-.2.57a2.9,2.9,0,0,1-.24.55c-.35.6-1.36.82-1.55.58,0-.06,0-.12-.06-.35a1.68,1.68,0,0,0-.2-.45,4.79,4.79,0,0,0-1.21-.95A3.26,3.26,0,0,1,37,128.63a1.16,1.16,0,0,1-.06-.16,3.83,3.83,0,0,1,.1-2.55c.57-1.15,1.85-.6,2.9-1.74,1.22-1.31.49-3.09,1.15-3.29S43.46,122.62,43.46,124.52Z"/><path class="cls-61" d="M42.53,128.8c-.25-.35-.69,0-.7.43s.44.91.86.82S42.87,129.26,42.53,128.8Z"/><path class="cls-26" d="M42.33,128.05l.58.76s.63.93,1,.42.38-.41.39-.39h0l-.09-.39a3.35,3.35,0,0,1,.5,1.07,1.88,1.88,0,0,1,0,1.47,1.45,1.45,0,0,1-.85.67,3.84,3.84,0,0,1-1.13-.11s1-.73,1-.9c0-.46-.61-.72-1.09-1.67A4.16,4.16,0,0,1,42.33,128.05Z"/><path class="cls-62" d="M40.33,180.63c1.1-2.2-1.61-5.13.16-8.49,1.51-2.85,4.24-2.21,5.5-4.82,1.51-3.16-1.79-5.52-1.67-10.32.14-5.74,5.08-11.49,8-11,1.88.32,2.12,3.13,3.44,6.2A70.25,70.25,0,0,0,52,162.33c-1.53,5.31-2.29,8-2.08,11.31.28,4.67,1.92,7.36.33,9.49-1,1.32-2.9,1.54-6.66,1.91a28.59,28.59,0,0,1-15.31-2c-.79-.35-1.38-.62-1.87-.89C36.19,183.63,39.45,182.38,40.33,180.63Z"/><path class="cls-63" d="M69.07,153.59l-1.83-.79c-1,1-2.34,2.08-3.45,1.75-1.65-.5-1.24-3.53-3.24-8.87-2.28-6-4.86-7.59-6.16-8.15a2.79,2.79,0,0,0-1.83-.37c-2.78.67-3.69,7.9-2.91,13.31.43,3.05,1.29,9,6.19,11.86.7.4,4.53,2.62,8.32.87C67.4,161.71,69.41,157.88,69.07,153.59Z"/><path class="cls-64" d="M64.43,202.64l-3,.34a20.57,20.57,0,0,1-4.51-7.89c-2.09-7.13,1.19-11.81-1-13.64-2.53-2.1-7.54,3.58-18.59,5.19-3.56.51-11.46,1.66-14.65-2.59a7.58,7.58,0,0,1-1-7.1c1.84-4.43,7.9-3.9,27.84-7.78,7.68-1.49,8.89-2,10.72-1.11C69.19,172.37,65.43,196.73,64.43,202.64Z"/><path class="cls-65" d="M73.49,205.51l-3,.33a20.32,20.32,0,0,1-4.5-7.88c-2.1-7.13,1.18-11.81-1-13.64-2.53-2.1-7.54,3.58-18.59,5.19-3.56.51-11.45,1.66-14.65-2.6a7.57,7.57,0,0,1-1-7.1c1.83-4.42,7.89-3.89,27.83-7.77,7.68-1.5,8.89-2,10.72-1.12C78.25,175.23,74.48,199.6,73.49,205.51Z"/><ellipse class="cls-66" cx="38.77" cy="217.74" rx="16.82" ry="6.86"/><path class="cls-11" d="M22,216.94c0,3.58,7.53,6.48,16.82,6.48s16.82-2.9,16.82-6.48-7.53-9.44-16.82-9.44S22,213.36,22,216.94Z"/><path class="cls-11" d="M22,216.94c0-3.58,7.53-9.44,16.82-9.44a22.77,22.77,0,0,1,11.17,2.95,2.41,2.41,0,0,1,.27,1.28c-.2,2-3.48,3.25-5.36,3.66-4.75,1-7.07-1.81-11-1.7-2.42.06-5.78,1.28-9.75,6.43C22.74,219.18,22,218.09,22,216.94Z"/><path class="cls-67" d="M37.85,210.75a3.78,3.78,0,0,0,1.89,0,1.21,1.21,0,0,0,.9-1.18v-19H36.9v18.94A1.23,1.23,0,0,0,37.85,210.75Z"/><path class="cls-11" d="M37.85,210.75a3.78,3.78,0,0,0,1.89,0,1.21,1.21,0,0,0,.9-1.18v-19H36.9v18.94A1.23,1.23,0,0,0,37.85,210.75Z"/><path class="cls-11" d="M58.53,182.63,52.82,179c-.24-1.35-2.93-15.46-13.87-19.89-4.44-1.81-9.23-1.59-11.85-1.48-5.25.24-9,.41-10.78,2.91-2.31,3.21,1.56,6.12.76,15.3-.33,3.75-1.16,5.41-.12,7.89,1.24,3,4.12,4.62,6.35,5.55a32.63,32.63,0,0,0,13.49,4.31,33.59,33.59,0,0,0,20.75-5.24,3.45,3.45,0,0,0,2.33-2.57A3.05,3.05,0,0,0,58.53,182.63Z"/><path class="cls-68" d="M55.9,185.21c-.21-1.27-3.75-.22-7.09-2.71-5-3.72-2.41-10-6.77-16.06-4-5.54-12-8.36-14.53-6.25-3.33,2.81,4.81,13.33,0,20.11-2.34,3.3-5.9,3.14-5.92,5.07,0,3.06,8.84,6.58,17.24,6.43C47.87,191.63,56.24,187.22,55.9,185.21Z"/><path class="cls-26" d="M87.77,144.43c-.1,0-.19,0-.2.13s.1.45.1.46a.32.32,0,0,0,.21.24l9.87,3.61,17.57-3.94-8.64-.37Z"/><path class="cls-69" d="M87.76,144.37c-.12,0-.2.07-.19.17a.28.28,0,0,0,.21.24l9.89,3.63,17.59-4-8.65-.37Z"/><path class="cls-70" d="M97.23,148.25,96.84,132a.49.49,0,0,1,.52-.49l22.8-.8a.92.92,0,0,1,.59.22.72.72,0,0,1,.24.51L120.46,147a.5.5,0,0,1-.53.45l-22.13,1Z"/><path class="cls-26" d="M97.75,148.87l-.35-16.56a.49.49,0,0,1,.52-.49l22.8-.79a.9.9,0,0,1,.58.21.69.69,0,0,1,.24.52L121,147.28a.51.51,0,0,1-.52.46Z"/><path class="cls-71" d="M97.75,148.87l22.71-1.13a.51.51,0,0,0,.52-.46l.16-4.48c-6.89,2.59-15.55,2.08-23.46,2.54Z"/><path class="cls-72" d="M91.15,79.13a12.6,12.6,0,0,0,2.91-7.92c0-8.42-9-15.25-20-15.25S54,62.79,54,71.21s9,15.26,20,15.26a24.62,24.62,0,0,0,11.2-2.6c2.11.36,5.39,1,7.12,1.29a.67.67,0,0,0,.75-.89Z"/><g class="cls-73"><path class="cls-74" d="M85,74.44c-4.49-1.89-9.43,2.1-12.52-.68s.25-8.35-2.73-12.3c-1.42-1.88-3.81-2.77-6.55-3.08C57.65,61.09,54,65.83,54,71.21c0,8.43,9,15.26,20,15.26a24.62,24.62,0,0,0,11.2-2.6c1.66.28,4.06.72,5.84,1C89.75,78.09,87.32,75.43,85,74.44Z"/></g><path class="cls-75" d="M66.63,61a7.1,7.1,0,0,0-1,.47l-.06-.08A1.27,1.27,0,0,0,63.69,63l.07.07a7.5,7.5,0,0,0-.62.86l-.09,0a1.32,1.32,0,0,0-1.6.79,1.14,1.14,0,0,0,.69,1.52l.1,0a8.61,8.61,0,0,0-.12,1l-.1,0a1.31,1.31,0,0,0-1,1.45,1.13,1.13,0,0,0,1.39.92l.1,0a7,7,0,0,0,.42.92l-.09.06a1.18,1.18,0,1,0,1.53,1.8l.08-.08a6.7,6.7,0,0,0,.83.56l0,.09a1.14,1.14,0,0,0,.69,1.53,1.31,1.31,0,0,0,1.59-.79.42.42,0,0,0,0-.1,7,7,0,0,0,1,0,.38.38,0,0,0,0,.1,1.13,1.13,0,0,0,1.39.92,1.31,1.31,0,0,0,1-1.44.44.44,0,0,1,0-.1,7.63,7.63,0,0,0,1-.47l.06.08a1.24,1.24,0,0,0,1.73.08,1.22,1.22,0,0,0,.19-1.72.46.46,0,0,0-.07-.07,6.56,6.56,0,0,0,.62-.87l.1,0a1.31,1.31,0,0,0,1.59-.79,1.13,1.13,0,0,0-.69-1.52l-.1,0a5.91,5.91,0,0,0,.12-1h.1a1.32,1.32,0,0,0,1-1.45,1.14,1.14,0,0,0-1.4-.92l-.1,0a5.74,5.74,0,0,0-.41-.91l.08-.06a1.18,1.18,0,1,0-1.52-1.8l-.08.08a5.34,5.34,0,0,0-.84-.56.93.93,0,0,0,.05-.1,1.14,1.14,0,0,0-.7-1.52,1.31,1.31,0,0,0-1.59.79l0,.1a7,7,0,0,0-1,0,.34.34,0,0,1,0-.1,1.15,1.15,0,0,0-1.4-.93,1.32,1.32,0,0,0-1,1.45A.36.36,0,0,0,66.63,61Zm1.52,1.78a4.13,4.13,0,0,1,5.06,3.36,4.77,4.77,0,0,1-3.75,5.25A4.12,4.12,0,0,1,64.4,68,4.75,4.75,0,0,1,68.15,62.76Z"/><path class="cls-75" d="M78.34,71.15a6.44,6.44,0,0,0-.7.34l0,0a.93.93,0,0,0-1.41,1.2l0,0a5.64,5.64,0,0,0-.46.63l-.07,0a1,1,0,0,0-1.16.58.83.83,0,0,0,.5,1.12h.07a6.31,6.31,0,0,0-.08.76H75a1,1,0,0,0-.76,1.06.84.84,0,0,0,1,.68l.07,0a4.54,4.54,0,0,0,.3.67l-.06,0a.9.9,0,0,0-.14,1.26.89.89,0,0,0,1.26,0l.06,0a5,5,0,0,0,.61.41l0,.07a.84.84,0,0,0,.51,1.12A1,1,0,0,0,79,80.5a.64.64,0,0,1,0-.07,4.78,4.78,0,0,0,.76,0,.15.15,0,0,0,0,.07.82.82,0,0,0,1,.68,1,1,0,0,0,.76-1.06s0-.05,0-.07a5.08,5.08,0,0,0,.7-.35l0,.06a.93.93,0,0,0,1.41-1.2l0,0a4.09,4.09,0,0,0,.45-.64l.07,0a1,1,0,0,0,1.17-.58.83.83,0,0,0-.5-1.12l-.08,0a4.66,4.66,0,0,0,.09-.75h.08a1,1,0,0,0,.76-1.06.84.84,0,0,0-1-.68l-.07,0a4.57,4.57,0,0,0-.31-.67l.07,0a.87.87,0,1,0-1.12-1.32l-.06.06a4.44,4.44,0,0,0-.62-.41.25.25,0,0,0,0-.07.84.84,0,0,0-.51-1.12,1,1,0,0,0-1.17.58.19.19,0,0,0,0,.07,4.78,4.78,0,0,0-.76,0s0,0,0-.08a.83.83,0,0,0-1-.68,1,1,0,0,0-.76,1.06S78.34,71.12,78.34,71.15Zm1.12,1.31a3,3,0,0,1,3.71,2.46,3.48,3.48,0,0,1-2.75,3.85,3,3,0,0,1-3.72-2.46A3.5,3.5,0,0,1,79.46,72.46Z"/><path class="cls-76" d="M118.78,212.57a16.7,16.7,0,0,1-7.93-2.62c-3-2-6.92-6-5.9-8.55a2.7,2.7,0,0,1,2.44-1.68c1.43.11,1.6,2.09,4.07,4.25.46.39,2.83,2.45,4,1.76a2.12,2.12,0,0,0,.67-2c-.28-2.12-2.88-2.45-5.37-4.75s-4.64-6.4-3.43-9.15c.69-1.58,2.52-2.83,3.73-2.48.51.15.84.57,2.4,4,1.28,2.77,1.57,3.57,2.39,3.84a2.51,2.51,0,0,0,2.68-.91c1.31-2.18-4.35-5.41-4.86-11.52-.23-2.73.51-6.79,3-7.66a4.47,4.47,0,0,1,4.92,1.85c.78,1.38-.16,2.42.43,5.54.18.94.55,2.89,1.33,3s2-2.36,2.19-3c1.78-4.55-.27-6.89,1.42-9.09a5.83,5.83,0,0,1,6.44-1.55,5.77,5.77,0,0,1,3.68,4.79c.11,2.09-1.65,4.16-5.16,8.32-1.66,2-3,3.3-2.91,5.25,0,1,.42,2.3,1.1,2.42,1.51.27,2.25-5.8,5.83-6.74A4.87,4.87,0,0,1,141,188c1.22,2,.4,4.89-1.14,6.39-2,2-4.06.48-7.84,2.59-1.67.93-4.3,2.93-3.92,4.57a2.16,2.16,0,0,0,1.75,1.52c1.85.21,2.46-2.82,5.43-4.16,2.14-1,5.1-.85,5.81.36,1,1.7-2.54,5.57-4.41,7.28C134.44,208.57,129.09,212.49,118.78,212.57Z"/><path class="cls-77" d="M119.8,211.6c-.3-5.07,3.06-15.39,5.5-20.27a97.2,97.2,0,0,0,4.7-12.41l.15.05a97.24,97.24,0,0,1-4.71,12.43c-2.44,4.86-5.78,15.15-5.49,20.19Z"/><path class="cls-78" d="M114.66,213.91A24.62,24.62,0,0,1,110,201.57c-.19-2.36-.55-6.95,2.27-10.92,1.4-2,4.37-4.89,6.38-4.05,1.29.54,2.09,2.6,1.72,4.17s-1.7,1.73-3.16,4.42c-.53,1-1.15,2.15-.68,2.81a2.09,2.09,0,0,0,2.3.32c1.68-.68,1.15-2.77,3-4.27,1.29-1.07,3.44-1.57,4.37-.69s.67,2.53-.05,3.71c-1.14,1.89-3.18,1.34-4.52,3.4-.59.92-1,2.31-.49,2.85s2.32.09,3.44-.6c1.47-.91,1.52-1.88,2.49-2a2.68,2.68,0,0,1,2.64,2c.3,1.59-1.66,3.31-3.21,4.06-2,.95-3.45.39-4.42,1.7-.35.48-.68,1.26-.39,1.73.42.68,1.92.46,2.92.31,2.42-.36,3.09-1.24,4-.82a2.55,2.55,0,0,1,1,2.93c-.22.57-.85,1.45-4,2A23.91,23.91,0,0,1,114.66,213.91Z"/></g></g></svg>