<svg xmlns="http://www.w3.org/2000/svg" xmlns:xlink="http://www.w3.org/1999/xlink" viewBox="0 0 226 221"><defs><style>.cls-1{fill:none;}.cls-2{fill:url(#Безымянный_градиент_78);}.cls-3,.cls-5{fill:#25b5df;}.cls-4{isolation:isolate;}.cls-5,.cls-54,.cls-63,.cls-69,.cls-72,.cls-75{mix-blend-mode:multiply;opacity:0.3;}.cls-6{clip-path:url(#clip-path);}.cls-28,.cls-30,.cls-42,.cls-43,.cls-7{mix-blend-mode:soft-light;}.cls-8{clip-path:url(#clip-path-2);}.cls-9{fill:#fcfdfe;}.cls-10{clip-path:url(#clip-path-3);}.cls-11,.cls-28,.cls-30{opacity:0.5;}.cls-12{fill:url(#linear-gradient);}.cls-13{opacity:0.6;}.cls-14{fill:url(#linear-gradient-2);}.cls-15{fill:url(#linear-gradient-3);}.cls-16{fill:url(#linear-gradient-4);}.cls-17,.cls-75{fill:#d8dee8;}.cls-18,.cls-42{fill:#fff;}.cls-19{fill:url(#linear-gradient-5);}.cls-20{fill:url(#linear-gradient-6);}.cls-21{fill:url(#linear-gradient-7);}.cls-22{fill:url(#linear-gradient-8);}.cls-23{fill:url(#linear-gradient-9);}.cls-24{fill:url(#linear-gradient-10);}.cls-25{fill:url(#linear-gradient-11);}.cls-26{fill:url(#linear-gradient-12);}.cls-27{fill:url(#linear-gradient-13);}.cls-28{fill:url(#linear-gradient-14);}.cls-29{fill:url(#linear-gradient-15);}.cls-31{fill:url(#linear-gradient-16);}.cls-32{fill:url(#linear-gradient-17);}.cls-33{fill:url(#linear-gradient-18);}.cls-34{fill:url(#linear-gradient-19);}.cls-35{clip-path:url(#clip-path-4);}.cls-36{fill:url(#linear-gradient-20);}.cls-37{fill:#8593a0;}.cls-38{fill:url(#linear-gradient-21);}.cls-39{fill:url(#linear-gradient-22);}.cls-40{fill:#bfc8d6;}.cls-41{fill:url(#linear-gradient-23);}.cls-42,.cls-43{opacity:0.4;}.cls-44{fill:url(#linear-gradient-24);}.cls-45{fill:url(#linear-gradient-25);}.cls-46{fill:url(#linear-gradient-26);}.cls-47{fill:url(#linear-gradient-27);}.cls-48{fill:url(#linear-gradient-28);}.cls-49{fill:url(#linear-gradient-29);}.cls-50{fill:url(#linear-gradient-30);}.cls-51{fill:#eaeaea;}.cls-52{fill:url(#linear-gradient-31);}.cls-53{fill:url(#linear-gradient-32);}.cls-54{fill:url(#linear-gradient-33);}.cls-55{fill:url(#linear-gradient-34);}.cls-56{fill:url(#linear-gradient-35);}.cls-57{fill:url(#linear-gradient-36);}.cls-58{fill:url(#linear-gradient-37);}.cls-59{fill:url(#linear-gradient-38);}.cls-60{fill:url(#linear-gradient-39);}.cls-61{fill:url(#linear-gradient-40);}.cls-62{fill:url(#linear-gradient-41);}.cls-63{fill:url(#linear-gradient-42);}.cls-64{fill:url(#linear-gradient-43);}.cls-65{fill:url(#linear-gradient-44);}.cls-66{fill:url(#linear-gradient-45);}.cls-67{fill:url(#linear-gradient-46);}.cls-68{fill:url(#linear-gradient-47);}.cls-69{fill:url(#linear-gradient-48);}.cls-70{fill:url(#linear-gradient-49);}.cls-71{fill:url(#linear-gradient-50);}.cls-72{fill:url(#linear-gradient-51);}.cls-73{fill:url(#linear-gradient-52);}.cls-74{fill:url(#linear-gradient-53);}.cls-76{fill:url(#linear-gradient-54);}.cls-77{fill:url(#linear-gradient-55);}.cls-78{fill:url(#linear-gradient-56);}.cls-79{fill:url(#linear-gradient-57);}.cls-80{fill:url(#linear-gradient-58);}.cls-81{fill:url(#linear-gradient-59);}.cls-82{fill:url(#linear-gradient-60);}.cls-83{fill:url(#linear-gradient-61);}.cls-84{fill:url(#linear-gradient-62);}.cls-85{fill:url(#linear-gradient-63);}.cls-86{fill:url(#linear-gradient-64);}.cls-87{fill:url(#linear-gradient-65);}.cls-88{fill:url(#linear-gradient-66);}.cls-89{fill:url(#linear-gradient-67);}.cls-90{fill:url(#linear-gradient-68);}.cls-91{fill:url(#linear-gradient-69);}.cls-92{fill:url(#linear-gradient-70);}</style><linearGradient id="Безымянный_градиент_78" x1="36.21" y1="43.57" x2="82.95" y2="123.09" gradientUnits="userSpaceOnUse"><stop offset="0" stop-color="#3cc"/><stop offset="0.41" stop-color="#f2bfff"/><stop offset="0.98" stop-color="#f2bfff"/></linearGradient><clipPath id="clip-path"><rect class="cls-1" x="8.67" y="4.57" width="124.38" height="182.64"/></clipPath><clipPath id="clip-path-2"><path class="cls-2" d="M94.58,169.17a14,14,0,0,0,6.38-1.94c5.69-5,17-13.61,18-21.53.17-1.36-5.58-3.72-6.19-5.11-3.3-2.4-4.59-3-6.6-6.85-6-11.28,15.29-26.37-4.18-36.74-14.27-7.6-28-4.78-22-28S75.41-.6,47.48,11.14c-16,6.74-5.32,29.47-15.43,42.85-9.6,12.71-5.83,25.37,7.49,36.59s4.14,16.19-2.69,28.7c-8.21,15,15.88,22.5,27.3,25C73.34,146.29,95.39,157.61,94.58,169.17Z"/></clipPath><clipPath id="clip-path-3"><path class="cls-3" d="M144.87,196.54a14.28,14.28,0,0,0,4-5.35c1.63-7.39,5.57-21,1.69-28-.67-1.19-6.7.31-8-.44-4.08,0-5.5.28-9.39-1.6-11.48-5.55-3.32-30.3-25.15-27.1-16,2.34-25.42,12.78-34.32-9.5S28.74,71.22,13.22,97.23c-8.91,14.94,13.2,26.88,13,43.65-.19,15.93,10.36,23.89,27.73,25s12.94,10.58,14.86,24.71c2.3,17,26.13,8.69,36.8,3.93C114.2,190.71,138.67,186.75,144.87,196.54Z"/></clipPath><linearGradient id="linear-gradient" x1="112.14" y1="38.48" x2="178.1" y2="38.48" gradientUnits="userSpaceOnUse"><stop offset="0" stop-color="#53d8ff"/><stop offset="1" stop-color="#3840f7"/></linearGradient><linearGradient id="linear-gradient-2" x1="176.93" y1="59.24" x2="207.65" y2="59.24" gradientUnits="userSpaceOnUse"><stop offset="0" stop-color="#f36f56"/><stop offset="1" stop-color="#ffc444"/></linearGradient><linearGradient id="linear-gradient-3" x1="96.21" y1="120.19" x2="63.99" y2="123.71" gradientUnits="userSpaceOnUse"><stop offset="0" stop-color="#444b8c"/><stop offset="1" stop-color="#26264f"/></linearGradient><linearGradient id="linear-gradient-4" x1="124.6" y1="38.98" x2="44.93" y2="310.19" xlink:href="#linear-gradient-3"/><linearGradient id="linear-gradient-5" x1="111.43" y1="38.49" x2="55.49" y2="178.89" xlink:href="#linear-gradient"/><linearGradient id="linear-gradient-6" x1="131.11" y1="39.69" x2="75.17" y2="180.09" xlink:href="#linear-gradient"/><linearGradient id="linear-gradient-7" x1="161.57" y1="58.46" x2="105.63" y2="198.87" xlink:href="#linear-gradient"/><linearGradient id="linear-gradient-8" x1="120.06" y1="41.93" x2="64.12" y2="182.33" xlink:href="#linear-gradient"/><linearGradient id="linear-gradient-9" x1="160.29" y1="57.95" x2="104.35" y2="198.36" xlink:href="#linear-gradient"/><linearGradient id="linear-gradient-10" x1="51.13" y1="264.86" x2="77.46" y2="161.75" xlink:href="#linear-gradient"/><linearGradient id="linear-gradient-11" x1="132.08" y1="39.05" x2="76.14" y2="179.45" xlink:href="#linear-gradient"/><linearGradient id="linear-gradient-12" x1="90.6" y1="274.94" x2="116.92" y2="171.83" xlink:href="#linear-gradient"/><linearGradient id="linear-gradient-13" x1="51.84" y1="265.04" x2="78.17" y2="161.93" xlink:href="#linear-gradient"/><linearGradient id="linear-gradient-14" x1="64.81" y1="125.8" x2="110.08" y2="125.8" xlink:href="#linear-gradient"/><linearGradient id="linear-gradient-15" x1="95.88" y1="276.29" x2="122.21" y2="173.18" xlink:href="#linear-gradient"/><linearGradient id="linear-gradient-16" x1="68.33" y1="86.23" x2="131.19" y2="86.23" xlink:href="#linear-gradient"/><linearGradient id="linear-gradient-17" x1="69.86" y1="174.9" x2="120" y2="174.9" xlink:href="#linear-gradient"/><linearGradient id="linear-gradient-18" x1="113.11" y1="124.12" x2="129.13" y2="124.12" xlink:href="#linear-gradient"/><linearGradient id="linear-gradient-19" x1="57.86" y1="61.55" x2="100.71" y2="61.55" xlink:href="#linear-gradient"/><clipPath id="clip-path-4"><circle class="cls-1" cx="101.4" cy="113.16" r="34.62"/></clipPath><linearGradient id="linear-gradient-20" x1="111.43" y1="38.49" x2="55.49" y2="178.89" gradientUnits="userSpaceOnUse"><stop offset="0" stop-color="#311944"/><stop offset="1" stop-color="#6b3976"/></linearGradient><linearGradient id="linear-gradient-21" x1="161.57" y1="58.46" x2="105.63" y2="198.87" xlink:href="#linear-gradient-20"/><linearGradient id="linear-gradient-22" x1="51.13" y1="264.86" x2="77.46" y2="161.75" xlink:href="#linear-gradient-2"/><linearGradient id="linear-gradient-23" x1="90.6" y1="274.94" x2="116.92" y2="171.83" xlink:href="#linear-gradient-2"/><linearGradient id="linear-gradient-24" x1="12887.91" y1="191.66" x2="12874.97" y2="173.33" gradientTransform="matrix(-1, 0, 0, 1, 12913.26, 0)" xlink:href="#linear-gradient-3"/><linearGradient id="linear-gradient-25" x1="52.61" y1="195.41" x2="51.94" y2="208.66" gradientUnits="userSpaceOnUse"><stop offset="0" stop-color="#893976"/><stop offset="1" stop-color="#311944"/></linearGradient><linearGradient id="linear-gradient-26" x1="12856.57" y1="186.63" x2="12860.1" y2="214.15" gradientTransform="matrix(-1, 0, 0, 1, 12913.26, 0)" gradientUnits="userSpaceOnUse"><stop offset="0" stop-color="#ffc444"/><stop offset="1" stop-color="#f36f56"/></linearGradient><linearGradient id="linear-gradient-27" x1="12874.47" y1="167.1" x2="12878.38" y2="197.6" xlink:href="#linear-gradient-26"/><linearGradient id="linear-gradient-28" x1="47.74" y1="175.19" x2="87.15" y2="175.19" gradientUnits="userSpaceOnUse"><stop offset="0.49" stop-color="#ebeff2"/><stop offset="1" stop-color="#fff"/></linearGradient><linearGradient id="linear-gradient-29" x1="56.15" y1="139.23" x2="56.5" y2="156.08" gradientUnits="userSpaceOnUse"><stop offset="0" stop-color="#311944"/><stop offset="1" stop-color="#a03976"/></linearGradient><linearGradient id="linear-gradient-30" x1="9601.2" y1="-2589.02" x2="9593.91" y2="-2579.98" gradientTransform="matrix(-0.86, 0.5, 0.5, 0.86, 9642.8, -2468.18)" xlink:href="#linear-gradient-29"/><linearGradient id="linear-gradient-31" x1="12825.64" y1="179.56" x2="12829.65" y2="159.12" gradientTransform="matrix(-1, 0, 0, 1, 12913.26, 0)" xlink:href="#linear-gradient-29"/><linearGradient id="linear-gradient-32" x1="50.92" y1="207.29" x2="90.14" y2="207.29" xlink:href="#linear-gradient-25"/><linearGradient id="linear-gradient-33" x1="50.92" y1="207.39" x2="90.14" y2="207.39" xlink:href="#linear-gradient-25"/><linearGradient id="linear-gradient-34" x1="62.03" y1="222.55" x2="54.48" y2="213.16" gradientUnits="userSpaceOnUse"><stop offset="0" stop-color="#aa80f9"/><stop offset="1" stop-color="#6165d7"/></linearGradient><linearGradient id="linear-gradient-35" x1="57.39" y1="220.32" x2="47" y2="207.24" gradientTransform="matrix(1, 0, 0, 1, 0, 0)" xlink:href="#linear-gradient-26"/><linearGradient id="linear-gradient-36" x1="35.01" y1="206.85" x2="26.36" y2="224.83" xlink:href="#linear-gradient-25"/><linearGradient id="linear-gradient-37" x1="962.72" y1="182.99" x2="964.51" y2="205.77" gradientTransform="translate(-799.19 15.06) rotate(-0.14)" xlink:href="#linear-gradient-29"/><linearGradient id="linear-gradient-38" x1="967.34" y1="195.68" x2="967.02" y2="172.08" gradientTransform="translate(-799.19 15.06) rotate(-0.14)" xlink:href="#linear-gradient-26"/><linearGradient id="linear-gradient-39" x1="996.55" y1="180.33" x2="998.34" y2="203.12" gradientTransform="translate(-799.19 15.06) rotate(-0.14)" xlink:href="#linear-gradient-29"/><linearGradient id="linear-gradient-40" x1="998.34" y1="195.25" x2="998.02" y2="171.65" gradientTransform="translate(-799.19 15.06) rotate(-0.14)" xlink:href="#linear-gradient-26"/><linearGradient id="linear-gradient-41" x1="961.71" y1="157.45" x2="979.16" y2="157.45" gradientTransform="translate(-799.19 15.06) rotate(-0.14)" gradientUnits="userSpaceOnUse"><stop offset="0" stop-color="#444b8c"/><stop offset="1" stop-color="#3e4177"/></linearGradient><linearGradient id="linear-gradient-42" x1="961.71" y1="157.45" x2="979.16" y2="157.45" xlink:href="#linear-gradient-41"/><linearGradient id="linear-gradient-43" x1="966.55" y1="155.73" x2="1001.67" y2="155.73" xlink:href="#linear-gradient-41"/><linearGradient id="linear-gradient-44" x1="207.17" y1="199.16" x2="179.48" y2="123.82" gradientUnits="userSpaceOnUse"><stop offset="0" stop-color="#311944"/><stop offset="1" stop-color="#893976"/></linearGradient><linearGradient id="linear-gradient-45" x1="188.93" y1="88.22" x2="185.2" y2="121.1" gradientTransform="matrix(1, 0, 0, 1, 0, 0)" xlink:href="#linear-gradient-26"/><linearGradient id="linear-gradient-46" x1="1880.06" y1="1144.55" x2="1874.08" y2="1129.35" gradientTransform="translate(-1633.69 -1136.71) rotate(2.72)" xlink:href="#linear-gradient-41"/><linearGradient id="linear-gradient-47" x1="185.57" y1="84.44" x2="188.5" y2="108.66" gradientTransform="matrix(1, 0, 0, 1, 0, 0)" xlink:href="#linear-gradient-26"/><linearGradient id="linear-gradient-48" x1="9251.27" y1="1740.29" x2="9275.02" y2="1740.29" gradientTransform="matrix(-0.96, -0.29, -0.29, 0.96, 9531.48, 1102.68)" xlink:href="#linear-gradient-44"/><linearGradient id="linear-gradient-49" x1="3186.55" y1="2920.56" x2="3192.91" y2="2920.56" gradientTransform="translate(-1075.18 -4020.81) rotate(31.21)" xlink:href="#linear-gradient-26"/><linearGradient id="linear-gradient-50" x1="233.87" y1="189.34" x2="206.18" y2="114.01" xlink:href="#linear-gradient-44"/><linearGradient id="linear-gradient-51" x1="9201.42" y1="1738.52" x2="9252.89" y2="1738.52" gradientTransform="matrix(-0.96, -0.29, -0.29, 0.96, 9531.48, 1102.68)" xlink:href="#linear-gradient-44"/><linearGradient id="linear-gradient-52" x1="131.44" y1="135.83" x2="203.39" y2="135.83" xlink:href="#linear-gradient-3"/><linearGradient id="linear-gradient-53" x1="65.07" y1="113.12" x2="139.32" y2="113.12" xlink:href="#linear-gradient-3"/><linearGradient id="linear-gradient-54" x1="1541.88" y1="-1367.94" x2="1504.5" y2="-1409.8" gradientTransform="matrix(-0.87, 0.49, 0.49, 0.87, 2107.68, 586.73)" xlink:href="#linear-gradient-3"/><linearGradient id="linear-gradient-55" x1="1486.93" y1="-1429.06" x2="1537.63" y2="-1373.24" gradientTransform="matrix(-0.87, 0.49, 0.49, 0.87, 2107.68, 586.73)" xlink:href="#linear-gradient-3"/><linearGradient id="linear-gradient-56" x1="7953.55" y1="2905.8" x2="7954.96" y2="2897.83" gradientTransform="matrix(-0.86, -0.52, -0.52, 0.86, 8507.89, 1785.57)" xlink:href="#linear-gradient-26"/><linearGradient id="linear-gradient-57" x1="19413.1" y1="-4069.75" x2="19421.1" y2="-4069.75" gradientTransform="matrix(-0.85, 0.53, 0.53, 0.85, 18712.11, -6792.74)" xlink:href="#linear-gradient-44"/><linearGradient id="linear-gradient-58" x1="19446.37" y1="-4074.55" x2="19438.88" y2="-4071.72" gradientTransform="matrix(-0.85, 0.53, 0.53, 0.85, 18712.11, -6792.74)" xlink:href="#linear-gradient-44"/><linearGradient id="linear-gradient-59" x1="19411.68" y1="-4059.78" x2="19418.9" y2="-4063.26" gradientTransform="matrix(-0.85, 0.53, 0.53, 0.85, 18712.11, -6792.74)" xlink:href="#linear-gradient-44"/><linearGradient id="linear-gradient-60" x1="19416.78" y1="-4049.24" x2="19420.59" y2="-4056.29" gradientTransform="matrix(-0.85, 0.53, 0.53, 0.85, 18712.11, -6792.74)" xlink:href="#linear-gradient-44"/><linearGradient id="linear-gradient-61" x1="22210.8" y1="4411.76" x2="22203.88" y2="4407.72" gradientTransform="matrix(-1, 0.01, 0.01, 1, 22260.53, -4474.13)" xlink:href="#linear-gradient-44"/><linearGradient id="linear-gradient-62" x1="19445.77" y1="-4052.58" x2="19439.82" y2="-4057.94" gradientTransform="matrix(-0.85, 0.53, 0.53, 0.85, 18712.11, -6792.74)" xlink:href="#linear-gradient-44"/><linearGradient id="linear-gradient-63" x1="19430.42" y1="-4072.32" x2="19430.18" y2="-4048.75" gradientTransform="matrix(-0.85, 0.53, 0.53, 0.85, 18712.11, -6792.74)" xlink:href="#linear-gradient-44"/><linearGradient id="linear-gradient-64" x1="19322.66" y1="-3156.71" x2="19320.77" y2="-3147.71" gradientTransform="matrix(-0.87, 0.55, 0.61, 0.97, 18891.38, -7464)" xlink:href="#linear-gradient-26"/><linearGradient id="linear-gradient-65" x1="19439.14" y1="-4074.31" x2="19439.6" y2="-4116.37" gradientTransform="matrix(-0.85, 0.53, 0.53, 0.85, 18712.11, -6792.74)" xlink:href="#linear-gradient-44"/><linearGradient id="linear-gradient-66" x1="19420.75" y1="-4074.52" x2="19421.21" y2="-4116.58" gradientTransform="matrix(-0.85, 0.53, 0.53, 0.85, 18712.11, -6792.74)" xlink:href="#linear-gradient-44"/><linearGradient id="linear-gradient-67" x1="2678.74" y1="-9951.01" x2="2705.66" y2="-9951.01" gradientTransform="translate(8636 5911.82) rotate(-70.99)" gradientUnits="userSpaceOnUse"><stop offset="0" stop-color="#ff9085"/><stop offset="1" stop-color="#fb6fbb"/></linearGradient><linearGradient id="linear-gradient-68" x1="2690.31" y1="-9946.75" x2="2705.66" y2="-9946.75" xlink:href="#linear-gradient-67"/><linearGradient id="linear-gradient-69" x1="-4840.47" y1="-3630.74" x2="-4880.04" y2="-3685.16" gradientTransform="matrix(0.85, -0.53, 0.53, 0.85, 6622.89, 815.68)" xlink:href="#linear-gradient-29"/><linearGradient id="linear-gradient-70" x1="-4827.48" y1="-3640.2" x2="-4867.04" y2="-3694.62" gradientTransform="matrix(0.85, -0.53, 0.53, 0.85, 6622.89, 815.68)" xlink:href="#linear-gradient-29"/></defs><g class="cls-4"><g id="Illustration"><path class="cls-5" d="M98.42,1.39C69.54,1.9,24.87,12.88,12,41.1,7.52,51,7.82,65.44,8.43,94.41A307,307,0,0,0,11,130.74c4.32,32,7.26,53.77,18.4,66.45,27.92,31.78,128.74,30.86,171.8-26.35,23.49-31.21,27.1-75.6,5.63-112.29C183.17,18.16,137.08.71,98.42,1.39Z"/><g class="cls-6"><g class="cls-7"><path class="cls-2" d="M94.58,169.17a14,14,0,0,0,6.38-1.94c5.69-5,17-13.61,18-21.53.17-1.36-5.58-3.72-6.19-5.11-3.3-2.4-4.59-3-6.6-6.85-6-11.28,15.29-26.37-4.18-36.74-14.27-7.6-28-4.78-22-28S75.41-.6,47.48,11.14c-16,6.74-5.32,29.47-15.43,42.85-9.6,12.71-5.83,25.37,7.49,36.59s4.14,16.19-2.69,28.7c-8.21,15,15.88,22.5,27.3,25C73.34,146.29,95.39,157.61,94.58,169.17Z"/><g class="cls-8"><path class="cls-9" d="M109.61,157.1l.21-.29C64.72,123.27,44.39,66.61,55.45,5.24l-.36-.06c-5.24,29.08-3.33,58.22,5.54,84.26A139.86,139.86,0,0,0,109.61,157.1Z"/><path class="cls-9" d="M32.72,125.14c15.24-2,39.27,2.37,53.57,9.77l.17-.32C72.1,127.16,48,122.76,32.67,124.77Z"/><path class="cls-9" d="M100.83,150.41l.29-.22c-5.07-6.66-6.58-15.62-4.49-26.65,1.54-8.09,4.94-17.07,10.11-26.7l-.32-.17c-5.19,9.66-8.6,18.68-10.15,26.8C94.16,134.6,95.69,143.67,100.83,150.41Z"/><path class="cls-9" d="M59.51,85.69l.3-.2c-8.91-13-24.42-19-35.86-21.71l-.08.36C35.25,66.82,50.67,72.74,59.51,85.69Z"/><path class="cls-9" d="M52.63,50.18l.37,0c2-17.69,14.94-31.18,22.46-37.64l-.23-.28C67.66,18.81,54.66,32.38,52.63,50.18Z"/></g></g><g class="cls-7"><path class="cls-3" d="M144.87,196.54a14.28,14.28,0,0,0,4-5.35c1.63-7.39,5.57-21,1.69-28-.67-1.19-6.7.31-8-.44-4.08,0-5.5.28-9.39-1.6-11.48-5.55-3.32-30.3-25.15-27.1-16,2.34-25.42,12.78-34.32-9.5S28.74,71.22,13.22,97.23c-8.91,14.94,13.2,26.88,13,43.65-.19,15.93,10.36,23.89,27.73,25s12.94,10.58,14.86,24.71c2.3,17,26.13,8.69,36.8,3.93C114.2,190.71,138.67,186.75,144.87,196.54Z"/><g class="cls-10"><path class="cls-9" d="M149.81,177.9v-.36c-56.2-.24-106.17-33.81-133.67-89.79l-.32.17c13,26.52,31.85,48.85,54.43,64.56A139.89,139.89,0,0,0,149.81,177.9Z"/><path class="cls-9" d="M69,197.77c11.07-10.66,33-21.38,48.93-23.9l-.06-.36c-16,2.53-38,13.3-49.13,24Z"/><path class="cls-9" d="M138.78,177.73l.1-.35c-8-2.35-14.57-8.68-19.42-18.8-3.56-7.42-6.15-16.67-7.69-27.49l-.37,0c1.56,10.86,4.16,20.14,7.73,27.6C124,169,130.64,175.35,138.78,177.73Z"/><path class="cls-9" d="M67.13,150.12l.12-.34c-14.92-5.22-30.94-.82-41.75,3.79l.14.34C36.4,149.32,52.32,144.94,67.13,150.12Z"/><path class="cls-9" d="M40.53,125.61l.32-.18C32,110,34.39,91.47,36.61,81.8l-.35-.08C34,91.44,31.6,110.07,40.53,125.61Z"/></g></g></g><g class="cls-11"><path class="cls-12" d="M146.94,10.11a27.67,27.67,0,0,0-4.46,0c0-.14-.06-.29-.1-.43A5.33,5.33,0,0,0,135.89,6a5.14,5.14,0,0,0-3.62,6.4c0,.15.09.29.14.43A28.67,28.67,0,0,0,128.58,15a2.35,2.35,0,0,0-.3-.33,5.29,5.29,0,0,0-7.44,0A5.21,5.21,0,0,0,121,22.1a4.28,4.28,0,0,0,.33.29,27.83,27.83,0,0,0-2.17,3.85l-.43-.14a5.18,5.18,0,0,0-6.38,3.7,5.3,5.3,0,0,0,3.81,6.4c.14,0,.29.06.43.09a29.73,29.73,0,0,0,.06,4.43l-.43.09a5.15,5.15,0,0,0-3.62,6.4A5.33,5.33,0,0,0,119,50.9l.42-.13a30.28,30.28,0,0,0,2.29,3.83,2.35,2.35,0,0,0-.33.3,5.2,5.2,0,0,0,.1,7.39,5.29,5.29,0,0,0,7.44,0c.1-.1.2-.21.29-.32a30.21,30.21,0,0,0,3.89,2.2c0,.14-.09.28-.13.43A5.3,5.3,0,0,0,136.82,71a5.19,5.19,0,0,0,6.39-3.7c0-.14.06-.29.08-.43a27.67,27.67,0,0,0,4.46,0c0,.14.06.29.1.43A5.33,5.33,0,0,0,154.34,71a5.16,5.16,0,0,0,3.63-6.4,3.12,3.12,0,0,0-.15-.43,28.05,28.05,0,0,0,3.83-2.22,3.26,3.26,0,0,0,.31.33,5.28,5.28,0,0,0,7.43,0,5.2,5.2,0,0,0-.11-7.39,3.18,3.18,0,0,0-.33-.3,27.15,27.15,0,0,0,2.17-3.84l.43.14a5.18,5.18,0,0,0,6.38-3.7,5.29,5.29,0,0,0-3.8-6.4l-.44-.09a27.26,27.26,0,0,0-.06-4.43c.14,0,.29-.05.43-.09a5.16,5.16,0,0,0,3.63-6.41,5.34,5.34,0,0,0-6.5-3.68,3.38,3.38,0,0,0-.42.13,30.21,30.21,0,0,0-2.28-3.83q.16-.13.33-.3a5.21,5.21,0,0,0-.11-7.39,5.27,5.27,0,0,0-7.43,0c-.11.1-.2.21-.3.32a27.87,27.87,0,0,0-3.89-2.2c0-.14.09-.28.13-.43A5.29,5.29,0,0,0,153.41,6,5.18,5.18,0,0,0,147,9.68,3.29,3.29,0,0,0,146.94,10.11Zm2.85,10a19.22,19.22,0,0,1,13.83,23.22,18.83,18.83,0,0,1-23.18,13.44,19.23,19.23,0,0,1-13.83-23.22A18.83,18.83,0,0,1,149.79,20.15Z"/></g><g class="cls-13"><path class="cls-14" d="M191.3,46.34a13.52,13.52,0,0,0-2,.29,1.07,1.07,0,0,0-.07-.19,2.42,2.42,0,0,0-3.16-1.25,2.34,2.34,0,0,0-1.22,3.12.76.76,0,0,0,.09.18,13.57,13.57,0,0,0-1.59,1.24l-.15-.13a2.41,2.41,0,0,0-3.35.48,2.36,2.36,0,0,0,.51,3.32l.17.12a13.06,13.06,0,0,0-.73,1.86l-.2,0A2.35,2.35,0,0,0,177,57.43a2.4,2.4,0,0,0,2.12,2.64h.2a14.47,14.47,0,0,0,.31,2l-.18.07a2.35,2.35,0,0,0-1.23,3.12,2.44,2.44,0,0,0,3.16,1.25l.18-.09A13.81,13.81,0,0,0,182.79,68a1,1,0,0,0-.13.16,2.37,2.37,0,0,0,.52,3.32,2.4,2.4,0,0,0,3.35-.48l.11-.16a13.48,13.48,0,0,0,1.89.74l0,.2a2.41,2.41,0,0,0,2.13,2.64,2.36,2.36,0,0,0,2.64-2.07c0-.07,0-.14,0-.2a13.52,13.52,0,0,0,2-.29,1.46,1.46,0,0,0,.07.19,2.44,2.44,0,0,0,3.16,1.25,2.35,2.35,0,0,0,1.23-3.12,1.62,1.62,0,0,0-.1-.18,13.66,13.66,0,0,0,1.59-1.25l.16.13a2.37,2.37,0,1,0,2.83-3.8l-.17-.11a11.7,11.7,0,0,0,.73-1.87l.2,0a2.36,2.36,0,0,0,2.64-2.08,2.4,2.4,0,0,0-2.12-2.64h-.2a12.9,12.9,0,0,0-.31-2l.19-.07a2.34,2.34,0,0,0,1.22-3.12A2.43,2.43,0,0,0,203.25,52l-.18.09a13,13,0,0,0-1.28-1.58,1,1,0,0,0,.13-.16,2.36,2.36,0,0,0-.51-3.32,2.41,2.41,0,0,0-3.36.48l-.11.16a14.3,14.3,0,0,0-1.89-.75l0-.19A2.41,2.41,0,0,0,194,44.07a2.37,2.37,0,0,0-2.65,2.07C191.31,46.21,191.3,46.28,191.3,46.34Zm1.93,4.34a8.75,8.75,0,0,1,7.71,9.59,8.56,8.56,0,0,1-9.59,7.53,8.74,8.74,0,0,1-7.71-9.58A8.58,8.58,0,0,1,193.23,50.68Z"/></g><path class="cls-15" d="M134.68,39l19.63,163.14a4.3,4.3,0,0,1-3.76,4.87L68.8,216c-5,.31-7.75-2.25-8-4.85L40.14,37.72c-.31-2.59,2.15-4.93,7.18-4.93l82.49,1.74A5.19,5.19,0,0,1,134.68,39Z"/><path class="cls-16" d="M138.36,38.74l19.73,164a4.31,4.31,0,0,1-3.76,4.9L69.58,216a5,5,0,0,1-5.41-4.27L43.45,37.42a4.11,4.11,0,0,1,4.33-4.64l85.69,1.44A5.23,5.23,0,0,1,138.36,38.74Z"/><path class="cls-17" d="M136.75,47.78,155,199.8a4,4,0,0,1-3.52,4.57l-79.71,7.75a4.62,4.62,0,0,1-5-4l-19.15-161a3.85,3.85,0,0,1,4-4.35l80.52.86A4.84,4.84,0,0,1,136.75,47.78Z"/><path class="cls-18" d="M94,38.63a1.36,1.36,0,0,1-1.4,1.56,1.86,1.86,0,0,1-1.78-1.61A1.35,1.35,0,0,1,92.23,37,1.89,1.89,0,0,1,94,38.63Z"/><g class="cls-7"><path class="cls-18" d="M123,149.83c-16.32-30.17-40.69-39.2-48-70.29-4-16.81-1.27-32.9,3.29-46.25l-30.45-.51a4.11,4.11,0,0,0-4.33,4.64L64.17,211.76A5,5,0,0,0,69.58,216l66.62-6.63C136.69,182.36,130.24,163.27,123,149.83Z"/></g><path class="cls-19" d="M140.71,49.8l-79.35,1a4.45,4.45,0,0,0-4.43,5.12L58.5,69.11a5.69,5.69,0,0,0,5.63,4.94l79.26-1.77a4.28,4.28,0,0,0,4.11-5L146,54.61A5.47,5.47,0,0,0,140.71,49.8Z"/><path class="cls-20" d="M151.06,73.79l-79.23,2a4.51,4.51,0,0,0-4.43,5.17L69,94.09A5.6,5.6,0,0,0,74.6,99l79.14-2.71a4.32,4.32,0,0,0,4.1-5l-1.51-12.69A5.39,5.39,0,0,0,151.06,73.79Z"/><path class="cls-21" d="M152.29,147l-78.95,4.27a4.68,4.68,0,0,0-4.41,5.33l4.89,41a5.31,5.31,0,0,0,5.6,4.67l78.76-5.93a4.54,4.54,0,0,0,4.08-5.22l-4.71-39.53A5.19,5.19,0,0,0,152.29,147Z"/><path class="cls-22" d="M72.6,145.09l32.21-1.67a4.55,4.55,0,0,0,4.27-5.21L106,112.59a5.45,5.45,0,0,0-5.46-4.79L68.3,109a4.59,4.59,0,0,0-4.42,5.24L67,140.29A5.49,5.49,0,0,0,72.6,145.09Z"/><path class="cls-23" d="M147.42,106.08l-31,1.14a4.45,4.45,0,0,0-4.24,5.13l3,25.55a5.33,5.33,0,0,0,5.41,4.71l31-1.6a4.42,4.42,0,0,0,4.1-5.11l-3-25.12A5.29,5.29,0,0,0,147.42,106.08Z"/><path class="cls-24" d="M141.68,49.16l-79.35,1A4.45,4.45,0,0,0,57.9,55.3l1.57,13.17a5.69,5.69,0,0,0,5.63,4.94l79.26-1.77a4.28,4.28,0,0,0,4.11-5L147,54A5.47,5.47,0,0,0,141.68,49.16Z"/><path class="cls-25" d="M152,73.15l-79.23,2a4.51,4.51,0,0,0-4.43,5.18l1.57,13.17a5.61,5.61,0,0,0,5.63,4.88l79.14-2.71a4.33,4.33,0,0,0,4.11-5L157.3,77.91A5.39,5.39,0,0,0,152,73.15Z"/><path class="cls-26" d="M153.26,146.34l-78.95,4.28a4.67,4.67,0,0,0-4.41,5.32l4.89,41a5.31,5.31,0,0,0,5.6,4.67l78.76-5.93a4.54,4.54,0,0,0,4.08-5.22L158.52,151A5.19,5.19,0,0,0,153.26,146.34Z"/><path class="cls-27" d="M73.57,144.45l32.21-1.67a4.55,4.55,0,0,0,4.27-5.21L107,112a5.44,5.44,0,0,0-5.46-4.79l-32.26,1.18a4.59,4.59,0,0,0-4.42,5.24L68,139.65A5.49,5.49,0,0,0,73.57,144.45Z"/><path class="cls-28" d="M73.57,144.45l32.21-1.67a4.55,4.55,0,0,0,4.27-5.21L107,112a5.44,5.44,0,0,0-5.46-4.79l-32.26,1.18a4.59,4.59,0,0,0-4.42,5.24L68,139.65A5.49,5.49,0,0,0,73.57,144.45Z"/><path class="cls-29" d="M148.39,105.44l-31,1.14a4.45,4.45,0,0,0-4.24,5.13l3,25.55A5.33,5.33,0,0,0,121.6,142l31-1.6a4.42,4.42,0,0,0,4.1-5.11l-3-25.12A5.29,5.29,0,0,0,148.39,105.44Z"/><g class="cls-30"><path class="cls-31" d="M72.8,75.11a4.51,4.51,0,0,0-4.43,5.18l1.57,13.17a5.61,5.61,0,0,0,5.63,4.88l55.62-1.9c-6-8.3-13.74-14.71-18.51-22.32Z"/></g><g class="cls-30"><path class="cls-32" d="M120,148.14l-45.69,2.48a4.67,4.67,0,0,0-4.41,5.32l4.89,41a5.31,5.31,0,0,0,5.6,4.67L115.81,199a59.05,59.05,0,0,1-4.34-21.15C111.32,165.13,115.61,156.28,120,148.14Z"/></g><g class="cls-30"><path class="cls-33" d="M128.66,116a39.26,39.26,0,0,0-2.89-9.76l-8.39.31a4.45,4.45,0,0,0-4.24,5.13l3,25.55A5.33,5.33,0,0,0,121.6,142l1.77-.09C127.32,134.27,130.34,126.56,128.66,116Z"/></g><g class="cls-30"><path class="cls-34" d="M98,59a29.08,29.08,0,0,1,2.32-9.31l-37.94.49A4.45,4.45,0,0,0,57.9,55.3l1.57,13.17a5.69,5.69,0,0,0,5.63,4.94l35.61-.8A24.92,24.92,0,0,1,98,59Z"/></g><g class="cls-35"><path class="cls-36" d="M140.71,49.8l-79.34,1a4.46,4.46,0,0,0-4.44,5.12L58.5,69.11a5.69,5.69,0,0,0,5.64,4.94l79.25-1.77a4.28,4.28,0,0,0,4.11-5L146,54.61A5.46,5.46,0,0,0,140.71,49.8Z"/><path class="cls-37" d="M151.06,73.79l-79.23,2a4.51,4.51,0,0,0-4.43,5.17L69,94.09A5.62,5.62,0,0,0,74.6,99l79.14-2.71a4.33,4.33,0,0,0,4.11-5l-1.52-12.69A5.38,5.38,0,0,0,151.06,73.79Z"/><path class="cls-38" d="M152.3,147l-79,4.27a4.68,4.68,0,0,0-4.41,5.33l4.89,41a5.32,5.32,0,0,0,5.6,4.67l78.76-5.93a4.54,4.54,0,0,0,4.08-5.22l-4.71-39.53A5.18,5.18,0,0,0,152.3,147Z"/><path class="cls-37" d="M72.61,145.09l32.2-1.67a4.54,4.54,0,0,0,4.27-5.21L106,112.59a5.44,5.44,0,0,0-5.46-4.79L68.3,109a4.59,4.59,0,0,0-4.42,5.24L67,140.29A5.49,5.49,0,0,0,72.61,145.09Z"/><path class="cls-37" d="M147.42,106.08l-31,1.14a4.44,4.44,0,0,0-4.23,5.13l3,25.55a5.33,5.33,0,0,0,5.41,4.71l31-1.6a4.42,4.42,0,0,0,4.1-5.11l-3-25.12A5.29,5.29,0,0,0,147.42,106.08Z"/><path class="cls-39" d="M141.68,49.16l-79.34,1A4.46,4.46,0,0,0,57.9,55.3l1.57,13.17a5.7,5.7,0,0,0,5.64,4.94l79.25-1.77a4.28,4.28,0,0,0,4.11-5L147,54A5.46,5.46,0,0,0,141.68,49.16Z"/><path class="cls-40" d="M152,73.15l-79.23,2a4.51,4.51,0,0,0-4.43,5.18l1.57,13.17a5.62,5.62,0,0,0,5.63,4.88l79.14-2.71a4.33,4.33,0,0,0,4.11-5L157.3,77.91A5.38,5.38,0,0,0,152,73.15Z"/><path class="cls-41" d="M153.27,146.34l-79,4.28a4.68,4.68,0,0,0-4.41,5.32l4.89,41a5.32,5.32,0,0,0,5.6,4.67l78.76-5.93a4.54,4.54,0,0,0,4.08-5.22L158.52,151A5.18,5.18,0,0,0,153.27,146.34Z"/><path class="cls-40" d="M73.58,144.45l32.2-1.67a4.54,4.54,0,0,0,4.27-5.21L107,112a5.44,5.44,0,0,0-5.46-4.79l-32.26,1.18a4.59,4.59,0,0,0-4.42,5.24L68,139.65A5.49,5.49,0,0,0,73.58,144.45Z"/><path class="cls-42" d="M73.57,144.45l32.21-1.67a4.55,4.55,0,0,0,4.27-5.21L107,112a5.44,5.44,0,0,0-5.46-4.79l-32.26,1.18a4.59,4.59,0,0,0-4.42,5.24L68,139.65A5.49,5.49,0,0,0,73.57,144.45Z"/><path class="cls-40" d="M148.39,105.44l-31,1.14a4.44,4.44,0,0,0-4.23,5.13l3,25.55A5.33,5.33,0,0,0,121.6,142l31-1.6a4.42,4.42,0,0,0,4.09-5.11l-3-25.12A5.29,5.29,0,0,0,148.39,105.44Z"/><g class="cls-43"><path class="cls-18" d="M72.8,75.11a4.51,4.51,0,0,0-4.43,5.18l1.57,13.17a5.62,5.62,0,0,0,5.63,4.88l55.62-1.9c-6-8.3-13.74-14.71-18.51-22.32Z"/></g><g class="cls-30"><path class="cls-18" d="M120,148.14l-45.7,2.48a4.68,4.68,0,0,0-4.41,5.32l4.89,41a5.32,5.32,0,0,0,5.6,4.67L115.81,199a58.84,58.84,0,0,1-4.33-21.15C111.32,165.13,115.62,156.28,120,148.14Z"/></g><g class="cls-43"><path class="cls-18" d="M128.66,116a39.68,39.68,0,0,0-2.88-9.76l-8.4.31a4.44,4.44,0,0,0-4.23,5.13l3,25.55A5.33,5.33,0,0,0,121.6,142l1.77-.09C127.32,134.27,130.34,126.56,128.66,116Z"/></g><g class="cls-30"><path class="cls-18" d="M98,59a29.61,29.61,0,0,1,2.32-9.31l-37.93.49A4.46,4.46,0,0,0,57.9,55.3l1.57,13.17a5.7,5.7,0,0,0,5.64,4.94l35.61-.8A24.93,24.93,0,0,1,98,59Z"/></g></g><path class="cls-44" d="M54.73,158.74c1.61-1.48,4.68-3.19,6.22-7.17.47-1.2,2.11-5.45-.32-8.69a6.94,6.94,0,0,0-6.47-2.78c-2,.4-2.32,1.8-5.75,4.63a24.37,24.37,0,0,1-5.85,3.84c-4.09,1.68-6.54.1-10.64.28-5,.22-10.88,3-13.7,7.12-5,7.25,2.24,14.61-3.24,23.11-1.79,2.78-2.68,2.16-6.93,7.55S1.66,194.72,2,198c.53,4.59,5.47,9,10.12,9.27s7.44-3.29,9.76-1.72c1.64,1.11.7,3.27,2.45,5.88,2.26,3.35,6.69,4,7.41,4.13,6.64,1,15.6-6.79,19.41-16C58.05,182.92,46,166.82,54.73,158.74Z"/><polygon class="cls-45" points="51.91 205.58 83.21 197.75 84.77 205.35 56.12 218.58 33.43 212.97 19.74 199.53 51.91 205.58"/><path class="cls-46" d="M82,161.6c0-3.87-10.51-7-15.34-8a40.83,40.83,0,0,0-15-.32,35.32,35.32,0,0,0-17.41,8.3,21,21,0,0,1,9.22,9.6c2.38,5.46.68,10.48-.2,13.4-.77,2.53-2,6.39-5.41,9.18C36,195.28,34,196,30,197.52c-4.77,1.77-7.72,2.26-7.7,3.21,0,1.22,4.87,2.21,4.7,3,0,.06-.05.06-.06.1-.06.53,5.38,1.83,12.25,2.87,8,1.21,12.06,1.81,15.9,1.15,6-1,5-2.87,11-3.9,7-1.2,10.16,1,16.48-1.44,1.07-.41,5.33-2.06,5.2-3.76-.15-2.11-7.17-1.39-13.29-6.8A18.5,18.5,0,0,1,70,186.11a19.87,19.87,0,0,1-.58-14.29,4.79,4.79,0,0,1,.42-.85C73.43,164.85,82,165.07,82,161.6Z"/><path class="cls-47" d="M51.11,176.67c1.29,2.73-4.6,9.06-11.15,12.07-1.33.61-10.9,5-15.17.78-3.53-3.49-1.18-10.71-.44-13.31,3.94-13.75,15.32-18.66,20.46-21,3.83,9.58,2.49,13.37,1.6,14.71a50.72,50.72,0,0,1-6.26,6.89c-1.94,1.81-3.14,2.7-3,3s2.47-.31,11.28-4.6A3.4,3.4,0,0,1,51.11,176.67Z"/><path class="cls-48" d="M87.11,161.55l-4.25,21.16a1.73,1.73,0,0,1-1.34,1.36l-31.68,6.8A1.74,1.74,0,0,1,47.75,189l1.67-21.52A1.74,1.74,0,0,1,50.73,166c5-1.24,24.37-5.89,34.57-6.49A1.74,1.74,0,0,1,87.11,161.55Z"/><path class="cls-49" d="M55.51,146.1s-.6,4.78-2.36,5.87-4.61,2.53-4.93,2.91,10.93,1.6,16.49-1.21h0c-1.83-.38-2.33-.52-2.33-.52a10.35,10.35,0,0,1-2.36-.94,8,8,0,0,1-2.59-2.39l0-2.65Z"/><path class="cls-50" d="M55.24,147.79a2.65,2.65,0,0,0,3,.92c1.61-.59.65-4.76-.63-5.23a2.25,2.25,0,0,0-1.74.24,2.51,2.51,0,0,0-.79,2.82c-.41-.12-.77,0-.86.19s.24.61.31.69A1.37,1.37,0,0,0,55.24,147.79Z"/><path class="cls-51" d="M58.58,179.85c3.4-1,6.22,1.42,8.94-.46s1-5.23,3.85-8.48c3.08-3.46,7-1.77,9.86-4.93,1.06-1.17,2-3.08,2-6.34.71-.07,1.4-.12,2-.16a1.74,1.74,0,0,1,1.81,2.07l-4.25,21.16a1.73,1.73,0,0,1-1.34,1.36L51.08,190.6C53.23,183.06,56.1,180.55,58.58,179.85Z"/><path class="cls-52" d="M85.09,172.81a7.59,7.59,0,0,0,2.24-4,4.19,4.19,0,0,0-2.78-4.35c-1.48-.44-2.26.21-1.27,2.35S85.84,170.29,85.09,172.81Z"/><path class="cls-53" d="M50.92,216.1a84.68,84.68,0,0,0,13.94-9.3c6.13-5.05,9-8.86,15.16-10.37,1.11-.26,7.44-1.8,9.48,1,2.26,3.11-2.14,9.61-2.67,10.4-7.94,11.75-28.15,11.2-34.49,10.82Z"/><path class="cls-54" d="M89.5,197.44A4.16,4.16,0,0,0,86.84,196a5,5,0,0,1,0,3.47c-1.24,2.81-4.92,1.95-7.5,5.25s-.78,6.38-3,7.72c-2.57,1.53-5.75-2.05-8.5-.34-1.87,1.17-1.29,3.38-3.47,4.59-1.51.83-3,.44-4.7.22a24.09,24.09,0,0,0-8,.41c.26.46.52.92.77,1.38,6.34.38,26.55.93,34.49-10.82C87.36,207.05,91.76,200.55,89.5,197.44Z"/><path class="cls-55" d="M55.63,217.86a3.2,3.2,0,0,1,2.79-.26c1.65.56,4.28,1,4.28,1.81s-2.63,1.32-4.45,1S55.15,218.57,55.63,217.86Z"/><path class="cls-56" d="M54,216.48l3,1a1,1,0,0,1-.17,1.34c-.67.53-3-.58-3-.58Z"/><path class="cls-57" d="M11.64,202.44c-.9,5.24,10.4,10.9,13,12.2,5.27,2.64,15.19,6.37,29.91,4.94.19-1.17.39-2.35.58-3.52a71.94,71.94,0,0,1-8.17-3.39c-5.7-2.81-7.87-4.81-15.78-9.6-8.76-5.3-11.32-6-13.93-5.32C15,198.31,12.06,200,11.64,202.44Z"/><path class="cls-58" d="M167.48,207.1s-7.19,3.29-7.31,3.81,4.63-.18,6.57-.11,3.54-.51,3.36-1.33-.86-2.89-.86-2.89Z"/><path class="cls-59" d="M167.21,204.44l.45,3.24a2.51,2.51,0,0,0,1.91-.08l.32-3.55Z"/><path class="cls-60" d="M201.15,204.44l.84,1.34a1.56,1.56,0,0,1,.19,1.26c-.29,1.12-.87,3.3-1.12,3.87-.35.77-5,1.24-5,1.24s-.41-.58.55-1.29,1.59-.82,1.93-1.86a27.33,27.33,0,0,0,.56-4Z"/><path class="cls-61" d="M197.65,201a42.62,42.62,0,0,1,1.82,4.78s.48.62,1.4-.3.42-.41.42-.41l-.19-4.47Z"/><path class="cls-62" d="M163.09,139.27c-.35,9.68-.34,20.19.24,31.42.66,12.65,1.95,24.34,3.56,34.93q.88,0,1.86,0c.43,0,.86,0,1.27-.06A80.66,80.66,0,0,0,174.51,187c1.36-11-.27-11.92.84-20,1-7.2,2.39-7.49,4-17.7,1.78-11.09.44-12.75-.22-13.35C176.37,133.37,169.84,135.13,163.09,139.27Z"/><path class="cls-63" d="M179.16,135.92c-2.66-2.43-8.73-.94-15.13,2.8,7.39,7.95,8.21,13.12,7.33,16.48-1,3.79-4,4.89-4,9,0,5.1,4.63,6.43,4.54,11.83-.05,3.56-2.08,3.53-2.54,7.94-.55,5.21,2.09,7,1.24,10.86-.36,1.66-1.4,3.83-4.39,6.07.22,1.58.44,3.14.68,4.68q.88,0,1.86,0c.43,0,.86,0,1.27-.06A80.66,80.66,0,0,0,174.51,187c1.36-11-.27-11.92.84-20,1-7.2,2.39-7.49,4-17.7C181.16,138.18,179.82,136.52,179.16,135.92Z"/><path class="cls-64" d="M167.66,139.1a217.08,217.08,0,0,1,19.42,34.66,217.76,217.76,0,0,1,10.53,29,3.84,3.84,0,0,0,4.53-1,62.53,62.53,0,0,0,.52-15.43,53.44,53.44,0,0,0-2.2-11.59c-1.77-5.65-3-6-5.28-11.95-2.39-6.21-1.82-7.76-4.11-15.53A103,103,0,0,0,186,133.68Z"/><path class="cls-65" d="M141.76,126c.07,2.26,3.78,4.25,6.77,4.86,7,1.43,15.08-3.65,18.93-9.27.75-1.1,1.59-2.44,1.8-2.33.45.23-3.75,7.13-5.57,15-.93,4-.69,5.9-2.43,8.57-.39.61-.88,1.24-.71,1.95.43,1.8,4.53,2.27,7.38,2.59a66,66,0,0,0,8.58.27c4.43-.07,4.78-.3,5.79.2,3.09,1.51,2.88,5.14,5.2,5.62,1.95.41,3.93-1.77,4.56-2.46,3.26-3.59,3.08-7.91,3.66-12.27,1.34-10.15,6.85-21.26,12.25-28.3,1.63-2.13,2.77-3.25,2.84-5.24.21-5.82-9-12.24-16.69-13a58.24,58.24,0,0,0-9.41.19c-1.41.14-2.91.33-4.53.61-3.92.69-6.65,1.17-9.43,2.44-11.21,5.13-8.76,16.55-20.89,24.44C145.68,122.58,141.7,123.64,141.76,126Z"/><path class="cls-66" d="M187.7,86.15a16.6,16.6,0,0,0,1.59,4.6c1,1.73,5.14,2.35,6,2.65s-1.3,1.8-3.6,2.35-9,.9-10.35.17.85-.94,2.44-1.78,2.11-4.21,1.62-5.65S187.7,86.15,187.7,86.15Z"/><path class="cls-67" d="M183.32,85.37c-1.67-1.19-2.13-4.42-1.2-5.14.26-.21.51-.12,4.28,1.4,1.88.75,2.8,1.15,3.1,2a2.7,2.7,0,0,1-.05,1.73,6.74,6.74,0,0,1-.77,1.27c-.4.59-.37.57-.5.74a9.2,9.2,0,0,1-1.93,1.88,6.4,6.4,0,0,0-.3-1.07,5.83,5.83,0,0,0-.68-1.26A6.48,6.48,0,0,0,183.32,85.37Z"/><path class="cls-68" d="M187.6,88.44a3.47,3.47,0,0,1-3.12,1.41c-1.81-.2-1.9-4.29-.7-5.1a2.29,2.29,0,0,1,1.81-.15,10.85,10.85,0,0,0,1.09.46c.56.17.72.12.88.27s.35.63-.06,1.81a1,1,0,0,1,1.07-.3.51.51,0,0,1,.23.25C189,87.56,188.58,88.14,187.6,88.44Z"/><path class="cls-69" d="M151.57,125.66c5.06-1.15,7.08-1.11,9.59-3.13,4.17-3.36,4.79-8.47,7.22-8.41,1.14,0,2.07,1.2,2.74,2.34l-1.83,2.87s0-.06,0-.07c-.21-.11-1,1.23-1.8,2.33-3.85,5.62-12,10.7-18.93,9.27a12.21,12.21,0,0,1-5.67-2.75A85.18,85.18,0,0,1,151.57,125.66Z"/><path class="cls-70" d="M143.32,130a19.49,19.49,0,0,1-4.57-1c-1.7-.73-2.8.32-2.64,1s2.95,1.73,4.07,1.77S143.32,130,143.32,130Z"/><path class="cls-71" d="M204.88,145.13c3.07.28,10,.4,14.87-4.12,8.13-7.53,4.1-21.85,1.27-28-3.25-7.06-8.42-11-11.56-13.42-3.89-3-6.27-4.8-9.13-4.39-7.4,1-12.52,16.21-8.46,20.56,1.33,1.42,2.64.61,6.49,1.84,1.25.4,10.61,3.38,12.24,10.26,1.14,4.83-1.77,10.47-6.93,14.26C204.07,143.12,204.48,144.13,204.88,145.13Z"/><path class="cls-72" d="M170.48,142.63c3.48-2.19,4-4.42,7.88-5.92,5.06-2,7.49.53,10-1.48,3-2.38.34-6.54,2.58-13.74.37-1.23,3.25-10.52,9.85-11.71,3.08-.55,7.15.63,8.72,3.24,1.22,2,.08,3.56,1.57,5.82s3.27,1.7,5.17,3.58c3,3,3.48,9.27.76,12.83-1.27,1.66-2.92,2.32-6,3.55a29.83,29.83,0,0,1-5.18,1.52c3.81-3.65,5.78-8.35,4.81-12.47-1-4.29-5-7.06-8.22-8.64a60.08,60.08,0,0,0-6.66,19.5c-.58,4.36-.4,8.68-3.66,12.27-.63.69-2.61,2.87-4.56,2.46-2.32-.48-2.11-4.11-5.2-5.62-1-.5-1.36-.27-5.79-.2a66,66,0,0,1-8.58-.27c-2.53-.29-6.05-.69-7.1-2A18.39,18.39,0,0,0,170.48,142.63Z"/><path class="cls-73" d="M202.87,147.54l.36-1a3.12,3.12,0,0,0-2.1-4L133.5,121.9l-2.06,7,67.29,20.73A3.33,3.33,0,0,0,202.87,147.54Z"/><path class="cls-74" d="M66.28,103c5.18-20.43,25.44-32.74,45.48-27,20.41,5.88,32.1,28,25.89,48.83-6.05,20.36-26.82,31.34-46.19,25.06C72.41,143.72,61.23,122.94,66.28,103ZM131.77,123c5.12-17.44-4.66-35.92-21.7-40.88-16.78-4.88-33.84,5.37-38.24,22.52C67.52,121.5,76.94,139,93,144.2,109.34,149.44,126.74,140.13,131.77,123Z"/><path class="cls-75" d="M133.5,121.9l8.62,2.63a8.92,8.92,0,0,0,2.9,5.28c4.36,3.61,10.17-.33,18.29,3.91,4.07,2.12,3.3,3.48,7.11,5,6.32,2.45,9.2-1,14.79,1.28s6.2,7.14,9.41,7c1.37-.07,3.13-1.07,5.1-4.85l1.41.43a3.12,3.12,0,0,1,2.1,4l-.36,1a3.33,3.33,0,0,1-4.14,2.07l-67.29-20.73Z"/><path class="cls-76" d="M65,104.72c5.18-20.43,25.44-32.74,45.48-27,20.41,5.88,32.1,28,25.89,48.84-6.05,20.35-26.82,31.33-46.19,25C71.1,145.47,59.92,124.69,65,104.72Zm65.49,20.06c5.12-17.44-4.66-35.92-21.7-40.88C92,79,74.92,89.27,70.52,106.42c-4.31,16.83,5.11,34.37,21.19,39.53C108,151.2,125.43,141.88,130.46,124.78Z"/><path class="cls-77" d="M66.93,105.32c4.9-19.27,24-30.85,42.92-25.39,19.22,5.55,30.23,26.38,24.41,46-5.69,19.2-25.27,29.6-43.56,23.68C72.7,143.82,62.14,124.18,66.93,105.32Zm63.53,19.46c5.12-17.44-4.66-35.92-21.7-40.88C92,79,74.92,89.27,70.52,106.42c-4.31,16.83,5.11,34.37,21.19,39.53C108,151.2,125.43,141.88,130.46,124.78Z"/><path class="cls-78" d="M204.62,144.49l-.68-1.7a3.55,3.55,0,0,1-2-.59,2.66,2.66,0,0,0-1.64-.4c-.26.08-1.23,0-.12.56s1.09.92.63,1.36a8.18,8.18,0,0,1-2.85,1.41c-.63,0,.51,1,1.15,1.15a4,4,0,0,0,3-.48C202.53,145.52,204.62,144.49,204.62,144.49Z"/><path class="cls-79" d="M110.57,107.1a.19.19,0,0,0,0-.08v-.09l0-.18c0-.13,0-.25.08-.37a4.08,4.08,0,0,1,.26-.69,2.7,2.7,0,0,1,.83-1l.13-.09.14-.08.28-.13.3-.1c.11,0,.21,0,.32-.06a4.66,4.66,0,0,1,1.39,0,1.09,1.09,0,0,0,.34-2.15h-.2a6.57,6.57,0,0,0-2,.29c-.17.05-.33.12-.49.18a4.37,4.37,0,0,0-.48.25c-.15.09-.3.2-.44.3l-.21.18-.19.18a4.39,4.39,0,0,0-1,1.78,5.14,5.14,0,0,0-.18,1c0,.15,0,.31,0,.47a1.93,1.93,0,0,0,0,.24v.26a.55.55,0,0,0,.58.51.55.55,0,0,0,.5-.44Z"/><path class="cls-80" d="M92,115.5l-.09-.1-.08-.1c0-.06-.11-.11-.17-.17l-.35-.32a4.5,4.5,0,0,0-.79-.56,4.28,4.28,0,0,0-2-.58,2.43,2.43,0,0,0-.27,0H88c-.18,0-.36,0-.53.09s-.35.1-.52.15-.33.13-.48.21a6.3,6.3,0,0,0-1.64,1.16l0,0a1.08,1.08,0,0,0,0,1.54,1.1,1.1,0,0,0,1.54,0l.11-.13a5,5,0,0,1,1-1,2.09,2.09,0,0,1,.28-.17,1.83,1.83,0,0,1,.28-.14c.1,0,.2-.07.3-.11l.15,0,.16,0a2.67,2.67,0,0,1,1.32.17,4.07,4.07,0,0,1,.66.33,3.28,3.28,0,0,1,.31.2l.15.12.07.05.06,0,.09.07a.55.55,0,0,0,.74-.8Z"/><path class="cls-81" d="M115.52,112.28l0-.06,0-.08.11-.15.23-.3a3.57,3.57,0,0,1,.53-.5,2.73,2.73,0,0,1,1.2-.58l.16,0,.15,0h.32c.1,0,.21,0,.31,0s.21,0,.32.08a4.78,4.78,0,0,1,1.23.63,1.09,1.09,0,0,0,1.24-1.79l-.14-.08,0,0a6.73,6.73,0,0,0-1.92-.6c-.17,0-.35,0-.53,0s-.35,0-.53,0a4.51,4.51,0,0,0-.53.08l-.26.07-.26.08a4.29,4.29,0,0,0-1.68,1.16,5.42,5.42,0,0,0-.59.77c-.08.14-.16.27-.23.42a2,2,0,0,0-.1.21.61.61,0,0,0,0,.12l0,.12a.55.55,0,0,0,.94.54Z"/><path class="cls-82" d="M116.74,119.85l.07,0,.08,0,.18-.06.36-.1a4.48,4.48,0,0,1,.72-.11,2.86,2.86,0,0,1,1.32.24.61.61,0,0,0,.14.07l.13.08.25.19.23.22c.07.09.15.16.21.25a4.82,4.82,0,0,1,.63,1.24,1.09,1.09,0,0,0,2-.73.94.94,0,0,0-.06-.15l0,0a6.56,6.56,0,0,0-1.2-1.61,3.34,3.34,0,0,0-.4-.35,4.84,4.84,0,0,0-.44-.3,4.3,4.3,0,0,0-.48-.24l-.25-.1-.26-.08a4.16,4.16,0,0,0-2,0,4.67,4.67,0,0,0-.92.28l-.44.2-.21.12-.1.06-.12.07a.56.56,0,0,0-.17.76.55.55,0,0,0,.62.23Z"/><path class="cls-83" d="M93.61,121.18l-.12-.07-.11-.06-.21-.11-.44-.19a5,5,0,0,0-.93-.27,4.31,4.31,0,0,0-2,.1l-.25.09-.25.1-.47.26c-.16.1-.3.21-.44.31s-.27.23-.39.36a6.53,6.53,0,0,0-1.16,1.64v0a1.09,1.09,0,1,0,1.93,1,1.11,1.11,0,0,0,.07-.16,4.67,4.67,0,0,1,.6-1.25c.06-.09.14-.17.2-.26s.15-.16.23-.22l.24-.2.14-.08a.61.61,0,0,1,.14-.07,2.62,2.62,0,0,1,1.3-.27,3.63,3.63,0,0,1,.73.08l.36.09.18.06.09,0,.07,0,.11,0a.54.54,0,0,0,.43-1Z"/><path class="cls-84" d="M99.63,127.49l-.13,0-.12,0-.23.06c-.16,0-.3.11-.45.17a5.81,5.81,0,0,0-.86.44,4.36,4.36,0,0,0-1.41,1.48l-.13.24-.11.24a5,5,0,0,0-.16.51,4.94,4.94,0,0,0-.1.53,4.55,4.55,0,0,0,0,.52,6.58,6.58,0,0,0,.28,2v0a1.07,1.07,0,0,0,1.34.74,1.1,1.1,0,0,0,.75-1.35,1.11,1.11,0,0,0-.07-.16,4.79,4.79,0,0,1-.41-1.32c0-.11,0-.21,0-.32s0-.22,0-.32a2.87,2.87,0,0,1,0-.31l0-.15a.66.66,0,0,1,.05-.15,2.67,2.67,0,0,1,.76-1.1,5.32,5.32,0,0,1,.59-.44l.33-.18.17-.08.08,0,.07,0,.1-.06a.55.55,0,0,0-.37-1Z"/><path class="cls-85" d="M94.06,124.16c3.64,4.94,12,10.36,18.19,6.74,5.89-3.44,6.44-12.6,3.44-18.48-3.77-7.37-14-11.32-19.84-7.58-4.5,2.89-4.85,9.36-4.87,10A14.75,14.75,0,0,0,94.06,124.16Z"/><path class="cls-86" d="M90.84,115.17c0-.67,0-7.87,4.67-10.85,3.45-2.22,8.57-1.55,13.13,1a32.47,32.47,0,0,0-8.86,3.11,28.16,28.16,0,0,0-8.92,7.35C90.85,115.58,90.84,115.38,90.84,115.17Z"/><path class="cls-87" d="M94,107.7c-.33-.49-.68-1-1-1.42s-.73-.92-1.11-1.36-.78-.88-1.18-1.3-.83-.84-1.26-1.25a21.68,21.68,0,0,0-2.8-2.22l-.19-.12-.19-.12-.39-.23c-.27-.15-.53-.3-.81-.43s-.57-.25-.85-.36a7.25,7.25,0,0,0-.9-.29l-.23-.06-.23-.05-.23,0a1,1,0,0,0-.24,0l-.48,0a1,1,0,0,0-.24,0h-.23a8.41,8.41,0,0,0-1.91.13,3.73,3.73,0,0,0-1,.36,2.48,2.48,0,0,0-.53.36,2.09,2.09,0,0,0-.45.59,1.83,1.83,0,0,0-.2.76,2.09,2.09,0,0,0,.1.72,3,3,0,0,0,.6,1.07,4.67,4.67,0,0,0,.82.73,5.52,5.52,0,0,0,.92.51,5.58,5.58,0,0,0,1,.33,4.54,4.54,0,0,0,.51.09h.14l.12,0h.25a4.6,4.6,0,0,0,.53,0,3.37,3.37,0,0,0,.64-.09l.19-.06.11,0,.11,0a1.43,1.43,0,0,0,.5-.42A1.33,1.33,0,0,0,84,103a1.36,1.36,0,0,0,.08-.38,1.51,1.51,0,0,0-.06-.59,2.13,2.13,0,0,0-.15-.39c-.06-.11-.11-.2-.17-.29a3.46,3.46,0,0,0-.35-.46,4.26,4.26,0,0,0-.35-.38l-.18-.18-.1-.08,0-.05,0,0h0a1.08,1.08,0,1,0-1.41,1.64l.06,0,0,0,0,0,.07,0,.13.12a2.89,2.89,0,0,1,.25.24,1.92,1.92,0,0,1,.2.23c0,.06.07.12.07.09a.32.32,0,0,1,0-.16.59.59,0,0,1,0-.17.91.91,0,0,1,.09-.17.67.67,0,0,1,.17-.14h0a.71.71,0,0,1-.22,0l-.34,0h-.36l-.34,0a3.9,3.9,0,0,1-.67-.18,3.45,3.45,0,0,1-.61-.3,2.47,2.47,0,0,1-.5-.39,1.65,1.65,0,0,1-.29-.41.5.5,0,0,1,0-.14.15.15,0,0,1,0-.07.16.16,0,0,1,.07-.11.7.7,0,0,1,.18-.14,2,2,0,0,1,.59-.24,6.83,6.83,0,0,1,1.54-.19h.41l.38,0a1.08,1.08,0,0,1,.19,0l.2,0,.19,0,.2,0c.25,0,.51.13.77.2s.51.17.76.28.5.23.75.35l.37.19.18.1.18.1a20.06,20.06,0,0,1,2.76,2c.43.36.86.74,1.27,1.13s.83.8,1.23,1.21.78.83,1.16,1.27.75.87,1.09,1.32h0a.33.33,0,0,0,.46.06A.33.33,0,0,0,94,107.7Z"/><path class="cls-88" d="M101.37,103.77c-.25-.51-.49-1-.71-1.56s-.44-1.06-.64-1.6-.39-1.07-.56-1.62-.33-1.09-.47-1.64A19.34,19.34,0,0,1,98.42,94l0-.21V93.6c0-.14,0-.28,0-.41,0-.28,0-.55,0-.83s0-.54.08-.81a6.71,6.71,0,0,1,.15-.78l0-.19a1.06,1.06,0,0,1,.06-.19l.06-.18a1.06,1.06,0,0,1,.06-.19l.15-.35c0-.06.06-.12.08-.19l.09-.18A6.84,6.84,0,0,1,100,88a2.29,2.29,0,0,1,.47-.43,1,1,0,0,1,.21-.1.3.3,0,0,1,.12,0,.09.09,0,0,1,.07,0,.27.27,0,0,1,.11.09,1.52,1.52,0,0,1,.25.43,3,3,0,0,1,.14.62,3.59,3.59,0,0,1-.13,1.36c0,.11-.07.22-.11.33l0,.08,0,.08c0,.06,0,.12-.08.17a2.11,2.11,0,0,1-.16.3,1.22,1.22,0,0,1-.13.18s0,0,0,0h0a.46.46,0,0,1,.2-.09.53.53,0,0,1,.18,0,.74.74,0,0,1,.17,0,.54.54,0,0,1,.14.08s0,0-.05-.1a2.38,2.38,0,0,1-.12-.27c0-.11-.07-.22-.1-.33a1.21,1.21,0,0,1,0-.18l0-.09v-.07a1.08,1.08,0,0,0-1.27-.86,1.1,1.1,0,0,0-.86,1.27.64.64,0,0,0,0,.07v0l0,.07,0,.06,0,.13a2.25,2.25,0,0,0,.08.24,4.78,4.78,0,0,0,.19.48,3.51,3.51,0,0,0,.26.51l.19.28a2.68,2.68,0,0,0,.29.31,1.88,1.88,0,0,0,.5.31,1.51,1.51,0,0,0,.38.08,1.85,1.85,0,0,0,.41,0,1.8,1.8,0,0,0,.59-.27.73.73,0,0,0,.09-.08l.09-.08.14-.15a2.93,2.93,0,0,0,.36-.53,4.9,4.9,0,0,0,.22-.48,2.34,2.34,0,0,0,.09-.24l0-.11,0-.13c0-.16.1-.33.14-.5a6,6,0,0,0,.14-1,5.3,5.3,0,0,0-.07-1,4.55,4.55,0,0,0-.3-1.06,3.35,3.35,0,0,0-.7-1,2.36,2.36,0,0,0-.61-.39,1.87,1.87,0,0,0-.78-.15,1.85,1.85,0,0,0-.72.15,2.65,2.65,0,0,0-.55.32,4,4,0,0,0-.77.77,8.56,8.56,0,0,0-1,1.67l-.09.21a2,2,0,0,0-.08.22l-.17.46a1.55,1.55,0,0,0-.06.23l-.07.23c0,.08,0,.15,0,.23l-.05.23c-.06.31-.09.62-.13.93s0,.62,0,.93,0,.61,0,.91,0,.31,0,.46l0,.22,0,.23a21.44,21.44,0,0,0,.8,3.48c.17.56.36,1.12.57,1.67s.43,1.09.67,1.63.48,1.07.74,1.59.53,1,.82,1.56a.33.33,0,0,0,.45.12.32.32,0,0,0,.13-.42Z"/><path class="cls-89" d="M99.7,108.36s17,27.41,11.73,30.32-15.25-4.91-15.25-4.91Z"/><path class="cls-90" d="M99.7,108.36l20.81,10s6.82,9.16,2.2,13.18S99.7,108.36,99.7,108.36Z"/><path class="cls-91" d="M99.7,108.36l-.06,29.87a.73.73,0,0,1-1,.65c-3.37-1.71-13.4-8.25-7.62-23.51C91,115.37,94.91,110.47,99.7,108.36Z"/><path class="cls-92" d="M124.42,122.79,99.7,108.36a30.3,30.3,0,0,1,8.47-3.18s13.83-2,17.33,16.85A.73.73,0,0,1,124.42,122.79Z"/></g></g></svg>