<svg xmlns="http://www.w3.org/2000/svg" xmlns:xlink="http://www.w3.org/1999/xlink" viewBox="0 0 254 227"><defs><style>.cls-1{isolation:isolate;}.cls-2,.cls-7{fill:#25b5df;}.cls-13,.cls-2,.cls-50,.cls-70{mix-blend-mode:multiply;}.cls-13,.cls-2,.cls-32,.cls-50{opacity:0.3;}.cls-3{opacity:0.5;fill:url(#linear-gradient);}.cls-4{fill:url(#Безымянный_градиент_78);}.cls-30,.cls-32,.cls-5{mix-blend-mode:soft-light;}.cls-5{opacity:0.8;}.cls-30,.cls-32,.cls-6{fill:#fff;}.cls-8{fill:url(#linear-gradient-2);}.cls-9{fill:url(#linear-gradient-3);}.cls-10{fill:url(#linear-gradient-4);}.cls-11{fill:url(#linear-gradient-5);}.cls-12{fill:url(#linear-gradient-6);}.cls-14{fill:url(#linear-gradient-7);}.cls-15{fill:url(#linear-gradient-8);}.cls-16{fill:url(#linear-gradient-9);}.cls-17{fill:url(#linear-gradient-10);}.cls-18{fill:url(#linear-gradient-11);}.cls-19{fill:url(#linear-gradient-12);}.cls-20{fill:url(#linear-gradient-13);}.cls-21{fill:url(#linear-gradient-14);}.cls-22{fill:url(#linear-gradient-15);}.cls-23{fill:url(#linear-gradient-16);}.cls-24{fill:url(#linear-gradient-17);}.cls-25{fill:url(#linear-gradient-18);}.cls-26{fill:url(#linear-gradient-19);}.cls-27{fill:url(#linear-gradient-20);}.cls-28{fill:#bfc8d6;}.cls-29{fill:#d8dee8;}.cls-30{opacity:0.48;}.cls-31{fill:url(#linear-gradient-21);}.cls-33{fill:url(#linear-gradient-22);}.cls-34{opacity:0.9;}.cls-35{fill:url(#Безымянный_градиент_3);}.cls-36{fill:url(#linear-gradient-23);}.cls-37{fill:url(#linear-gradient-24);}.cls-38{fill:url(#linear-gradient-25);}.cls-39{fill:url(#linear-gradient-26);}.cls-40{fill:url(#linear-gradient-27);}.cls-41{fill:url(#linear-gradient-28);}.cls-42{fill:url(#linear-gradient-29);}.cls-43{fill:url(#linear-gradient-30);}.cls-44{fill:url(#linear-gradient-31);}.cls-45{fill:url(#linear-gradient-32);}.cls-46{fill:url(#linear-gradient-33);}.cls-47{fill:url(#linear-gradient-34);}.cls-48{fill:url(#linear-gradient-35);}.cls-49{fill:url(#linear-gradient-36);}.cls-50{fill:url(#linear-gradient-37);}.cls-51{fill:url(#linear-gradient-38);}.cls-52{fill:url(#linear-gradient-39);}.cls-53{fill:url(#linear-gradient-40);}.cls-54{fill:url(#linear-gradient-41);}.cls-55{fill:url(#linear-gradient-42);}.cls-56{fill:url(#linear-gradient-43);}.cls-57{fill:url(#linear-gradient-44);}.cls-58{fill:url(#linear-gradient-45);}.cls-59{fill:url(#linear-gradient-46);}.cls-60{fill:url(#linear-gradient-47);}.cls-61{fill:url(#linear-gradient-48);}.cls-62{fill:url(#linear-gradient-49);}.cls-63{fill:url(#linear-gradient-50);}.cls-64{fill:url(#linear-gradient-51);}.cls-65{fill:url(#linear-gradient-52);}.cls-66{fill:url(#linear-gradient-53);}.cls-67{fill:#26264f;}.cls-68{fill:url(#linear-gradient-54);}.cls-69{fill:url(#linear-gradient-55);}.cls-70{opacity:0.2;fill:url(#linear-gradient-56);}.cls-71{fill:url(#linear-gradient-57);}.cls-72{fill:url(#linear-gradient-58);}</style><linearGradient id="linear-gradient" x1="131.26" y1="74.09" x2="216.06" y2="74.09" gradientUnits="userSpaceOnUse"><stop offset="0" stop-color="#53d8ff"/><stop offset="1" stop-color="#3840f7"/></linearGradient><linearGradient id="Безымянный_градиент_78" x1="181.47" y1="118.55" x2="158.28" y2="298.08" gradientUnits="userSpaceOnUse"><stop offset="0" stop-color="#3cc"/><stop offset="0.41" stop-color="#f2bfff"/><stop offset="0.98" stop-color="#f2bfff"/></linearGradient><linearGradient id="linear-gradient-2" x1="7853.21" y1="3766.47" x2="7874.56" y2="3799.67" gradientTransform="matrix(0.98, 0.19, 0.19, -0.98, -8327.33, 2261.91)" gradientUnits="userSpaceOnUse"><stop offset="0" stop-color="#fff"/><stop offset="1" stop-color="#f4f7fa"/></linearGradient><linearGradient id="linear-gradient-3" x1="8980.27" y1="3200" x2="8998.22" y2="3290.27" gradientTransform="matrix(1, 0, 0, -1, -8853.68, 3259.7)" gradientUnits="userSpaceOnUse"><stop offset="0" stop-color="#ffc444"/><stop offset="1" stop-color="#f36f56"/></linearGradient><linearGradient id="linear-gradient-4" x1="8974.62" y1="3193.48" x2="8992.58" y2="3283.75" gradientTransform="matrix(1, 0, 0, -1, -8859.74, 3302.52)" xlink:href="#linear-gradient-3"/><linearGradient id="linear-gradient-5" x1="8970.41" y1="3194.14" x2="8988.37" y2="3284.41" gradientTransform="matrix(1, 0, 0, -1, -8865.8, 3345.35)" xlink:href="#linear-gradient-3"/><linearGradient id="linear-gradient-6" x1="8967.44" y1="3201.08" x2="8985.4" y2="3291.34" gradientTransform="matrix(1, 0, 0, -1, -8871.86, 3388.17)" xlink:href="#linear-gradient-3"/><linearGradient id="linear-gradient-7" x1="7893.38" y1="3729.31" x2="7868.3" y2="3790.63" gradientTransform="matrix(-0.89, -0.46, -0.46, 0.89, 8839.66, 323.64)" xlink:href="#linear-gradient-3"/><linearGradient id="linear-gradient-8" x1="7904.95" y1="3744.53" x2="7873.44" y2="3801.62" gradientTransform="matrix(0.77, 0.64, 0.64, -0.77, -8372.24, -2086.74)" xlink:href="#linear-gradient-2"/><linearGradient id="linear-gradient-9" x1="11775.65" y1="761.44" x2="11789.8" y2="837.42" gradientTransform="matrix(1, 0, 0, -1, -11688.44, 817.24)" xlink:href="#linear-gradient"/><linearGradient id="linear-gradient-10" x1="11771.72" y1="762.17" x2="11785.87" y2="838.16" gradientTransform="matrix(1, 0, 0, -1, -11683.62, 860.38)" xlink:href="#linear-gradient"/><linearGradient id="linear-gradient-11" x1="11767.78" y1="762.91" x2="11781.94" y2="838.89" gradientTransform="matrix(1, 0, 0, -1, -11678.8, 903.52)" xlink:href="#linear-gradient"/><linearGradient id="linear-gradient-12" x1="11761.26" y1="749.72" x2="11775.41" y2="825.7" gradientTransform="matrix(1, 0, 0, -1, -11673.98, 946.67)" xlink:href="#linear-gradient"/><linearGradient id="linear-gradient-13" x1="7911.67" y1="3748.24" x2="7880.16" y2="3805.33" gradientTransform="matrix(-0.89, -0.46, -0.46, 0.89, 8839.66, 323.64)" gradientUnits="userSpaceOnUse"><stop offset="0" stop-color="#e38ddd"/><stop offset="1" stop-color="#9571f6"/></linearGradient><linearGradient id="linear-gradient-14" x1="7890.03" y1="3793.9" x2="7899.85" y2="3830.16" gradientTransform="matrix(0.36, 0.93, 0.93, -0.36, -6318.81, -5902.59)" xlink:href="#linear-gradient-2"/><linearGradient id="linear-gradient-15" x1="13050.01" y1="-2715.8" x2="13064.16" y2="-2639.82" gradientTransform="matrix(1, 0, 0, -1, -12999.27, -2654.75)" gradientUnits="userSpaceOnUse"><stop offset="0" stop-color="#311944"/><stop offset="1" stop-color="#893976"/></linearGradient><linearGradient id="linear-gradient-16" x1="13045.21" y1="-2719.72" x2="13059.37" y2="-2643.74" gradientTransform="matrix(1, 0, 0, -1, -12984.78, -2616.58)" xlink:href="#linear-gradient-15"/><linearGradient id="linear-gradient-17" x1="13040.77" y1="-2721.71" x2="13054.93" y2="-2645.72" gradientTransform="matrix(1, 0, 0, -1, -12970.28, -2578.4)" xlink:href="#linear-gradient-15"/><linearGradient id="linear-gradient-18" x1="13035.99" y1="-2725.59" x2="13050.14" y2="-2649.6" gradientTransform="matrix(1, 0, 0, -1, -12955.78, -2540.22)" xlink:href="#linear-gradient-15"/><linearGradient id="linear-gradient-19" x1="7931.2" y1="3765.84" x2="7902.06" y2="3811.91" gradientTransform="matrix(-0.89, -0.46, -0.46, 0.89, 8839.66, 323.64)" gradientUnits="userSpaceOnUse"><stop offset="0" stop-color="#ff9085"/><stop offset="1" stop-color="#fb6fbb"/></linearGradient><linearGradient id="linear-gradient-20" x1="8977.43" y1="3308.11" x2="8986.12" y2="3308.11" gradientTransform="matrix(-0.96, -0.28, -0.28, 0.96, 9656.77, -563.07)" xlink:href="#linear-gradient-13"/><linearGradient id="linear-gradient-21" x1="25.74" y1="197.75" x2="239.99" y2="197.75" gradientUnits="userSpaceOnUse"><stop offset="0.49" stop-color="#ebeff2"/><stop offset="1" stop-color="#fff"/></linearGradient><linearGradient id="linear-gradient-22" x1="110.25" y1="49.55" x2="99.97" y2="92.78" gradientUnits="userSpaceOnUse"><stop offset="0" stop-color="#444b8c"/><stop offset="1" stop-color="#26264f"/></linearGradient><linearGradient id="Безымянный_градиент_3" x1="12986.7" y1="155.32" x2="12912.47" y2="26.76" gradientTransform="matrix(-1, 0, 0, 1, 13169.61, 0)" gradientUnits="userSpaceOnUse"><stop offset="0" stop-color="#53d8ff"/><stop offset="0.36" stop-color="#3840f7"/></linearGradient><linearGradient id="linear-gradient-23" x1="-2949.28" y1="444.46" x2="-2942.89" y2="444.46" gradientTransform="matrix(1, 0.03, -0.03, 1, 3165.04, -143.99)" xlink:href="#linear-gradient-15"/><linearGradient id="linear-gradient-24" x1="208.22" y1="213.05" x2="210.51" y2="213.05" gradientTransform="matrix(1, 0, 0, 1, 0, 0)" xlink:href="#linear-gradient-3"/><linearGradient id="linear-gradient-25" x1="-3038.34" y1="2389.05" x2="-3031.55" y2="2389.05" gradientTransform="matrix(0.96, 0.27, -0.27, 0.96, 3746.28, -1284.75)" xlink:href="#linear-gradient-15"/><linearGradient id="linear-gradient-26" x1="187.81" y1="212.29" x2="190.64" y2="212.29" gradientTransform="matrix(1, 0, 0, 1, 0, 0)" xlink:href="#linear-gradient-3"/><linearGradient id="linear-gradient-27" x1="12984" y1="202.27" x2="12965.91" y2="161.48" gradientTransform="matrix(-1, 0, 0, 1, 13169.61, 0)" xlink:href="#linear-gradient-15"/><linearGradient id="linear-gradient-28" x1="13035.24" y1="1207.31" x2="13017.15" y2="1166.53" gradientTransform="matrix(-0.99, -0.12, -0.12, 0.99, 13279.86, 602.76)" xlink:href="#linear-gradient-15"/><linearGradient id="linear-gradient-29" x1="12969.73" y1="106.47" x2="12948.42" y2="208.68" gradientTransform="matrix(-1, 0, 0, 1, 13169.61, 0)" xlink:href="#linear-gradient"/><linearGradient id="linear-gradient-30" x1="12951.4" y1="193.88" x2="12959.49" y2="155.45" gradientTransform="matrix(-1, 0, 0, 1, 13169.61, 0)" xlink:href="#linear-gradient"/><linearGradient id="linear-gradient-31" x1="12955.13" y1="103.43" x2="12933.81" y2="205.63" gradientTransform="matrix(-1, 0, 0, 1, 13169.61, 0)" xlink:href="#linear-gradient"/><linearGradient id="linear-gradient-32" x1="12973.31" y1="160.49" x2="12969.86" y2="150.71" gradientTransform="matrix(-1, 0, 0, 1, 13169.61, 0)" xlink:href="#linear-gradient-22"/><linearGradient id="linear-gradient-33" x1="12958.24" y1="146.33" x2="12959.5" y2="155.07" gradientTransform="matrix(-1, 0, 0, 1, 13169.61, 0)" xlink:href="#linear-gradient-22"/><linearGradient id="linear-gradient-34" x1="204.28" y1="147.7" x2="211.43" y2="147.7" gradientTransform="matrix(1, 0, 0, 1, 0, 0)" xlink:href="#linear-gradient-3"/><linearGradient id="linear-gradient-35" x1="12983.3" y1="147.09" x2="12976.57" y2="137.54" gradientTransform="matrix(-1, 0, 0, 1, 13169.61, 0)" xlink:href="#linear-gradient-22"/><linearGradient id="linear-gradient-36" x1="12970.4" y1="162.9" x2="12985.12" y2="133" gradientTransform="matrix(-1, 0, 0, 1, 13169.61, 0)" xlink:href="#linear-gradient-22"/><linearGradient id="linear-gradient-37" x1="12963.21" y1="143.71" x2="12995.54" y2="143.71" gradientTransform="matrix(-1, 0, 0, 1, 13169.61, 0)" xlink:href="#linear-gradient-22"/><linearGradient id="linear-gradient-38" x1="173.56" y1="151.36" x2="178.38" y2="151.36" gradientTransform="matrix(1, 0, 0, 1, 0, 0)" xlink:href="#linear-gradient-3"/><linearGradient id="linear-gradient-39" x1="203.22" y1="117.44" x2="216.01" y2="117.44" gradientTransform="matrix(1, 0, 0, 1, 0, 0)" xlink:href="#linear-gradient-3"/><linearGradient id="linear-gradient-40" x1="300.09" y1="1024.01" x2="307.21" y2="1024.01" gradientTransform="matrix(0.98, 0.19, -0.19, 0.98, 105.89, -950.41)" gradientUnits="userSpaceOnUse"><stop offset="0" stop-color="#26264f"/><stop offset="1" stop-color="#444b8c"/></linearGradient><linearGradient id="linear-gradient-41" x1="300.27" y1="1025.9" x2="306.45" y2="1025.9" gradientTransform="matrix(0.98, 0.19, -0.19, 0.98, 105.89, -950.41)" xlink:href="#linear-gradient-3"/><linearGradient id="linear-gradient-42" x1="300.2" y1="1026.37" x2="306.36" y2="1026.37" xlink:href="#linear-gradient-40"/><linearGradient id="linear-gradient-43" x1="300.86" y1="1026.96" x2="302.22" y2="1026.96" gradientTransform="matrix(0.98, 0.19, -0.19, 0.98, 105.89, -950.41)" xlink:href="#linear-gradient-3"/><linearGradient id="linear-gradient-44" x1="10310.9" y1="154.02" x2="10317.78" y2="126.49" gradientTransform="matrix(-1, 0, 0, 1, 10350.43, 0)" xlink:href="#linear-gradient-3"/><linearGradient id="linear-gradient-45" x1="10609.03" y1="937.78" x2="10612.3" y2="940.68" gradientTransform="matrix(-0.99, -0.14, -0.14, 0.99, 10669.32, 774.46)" xlink:href="#linear-gradient-22"/><linearGradient id="linear-gradient-46" x1="9686.91" y1="940.67" x2="9686.91" y2="934.98" gradientTransform="matrix(-0.99, -0.14, -0.14, 0.99, 9753.12, 644.95)" xlink:href="#linear-gradient-3"/><linearGradient id="linear-gradient-47" x1="10609.36" y1="937.41" x2="10612.63" y2="940.31" gradientTransform="matrix(-0.99, -0.14, -0.14, 0.99, 10669.32, 774.46)" xlink:href="#linear-gradient-22"/><linearGradient id="linear-gradient-48" x1="10294.36" y1="219.59" x2="10297.63" y2="222.5" gradientTransform="matrix(-1, 0, 0, 1, 10350.43, 0)" xlink:href="#linear-gradient-22"/><linearGradient id="linear-gradient-49" x1="9372.2" y1="222.5" x2="9372.2" y2="216.82" gradientTransform="matrix(-1, 0, 0, 1, 9425.12, 0)" xlink:href="#linear-gradient-3"/><linearGradient id="linear-gradient-50" x1="-168.49" y1="225.11" x2="-189.78" y2="139.16" gradientTransform="translate(221.69)" xlink:href="#linear-gradient-22"/><linearGradient id="linear-gradient-51" x1="70.47" y1="161.03" x2="16.64" y2="123.6" gradientTransform="matrix(1, 0, 0, 1, 0, 0)" xlink:href="#linear-gradient-3"/><linearGradient id="linear-gradient-52" x1="10294.69" y1="219.22" x2="10297.96" y2="222.13" gradientTransform="matrix(-1, 0, 0, 1, 10350.43, 0)" xlink:href="#linear-gradient-22"/><linearGradient id="linear-gradient-53" x1="10121.41" y1="-342.05" x2="10139.09" y2="-319.81" gradientTransform="matrix(-1, 0.07, 0.07, 1, 10173.55, -248.79)" xlink:href="#linear-gradient-3"/><linearGradient id="linear-gradient-54" x1="10122.16" y1="-342.64" x2="10139.84" y2="-320.4" gradientTransform="matrix(-1, 0.07, 0.07, 1, 10173.55, -248.79)" xlink:href="#linear-gradient-3"/><linearGradient id="linear-gradient-55" x1="33.17" y1="148.08" x2="36.42" y2="148.08" gradientTransform="matrix(1, 0, 0, 1, 0, 0)" xlink:href="#linear-gradient-19"/><linearGradient id="linear-gradient-56" x1="35.5" y1="153.13" x2="60" y2="153.13" gradientTransform="matrix(1, 0, 0, 1, 0, 0)" xlink:href="#linear-gradient-19"/><linearGradient id="linear-gradient-57" x1="78.91" y1="136.59" x2="83.8" y2="142.74" gradientTransform="matrix(1, 0, 0, 1, 0, 0)" xlink:href="#linear-gradient-3"/><linearGradient id="linear-gradient-58" x1="10325.5" y1="164.01" x2="10274.06" y2="128.24" gradientTransform="matrix(-1, 0, 0, 1, 10350.43, 0)" xlink:href="#linear-gradient-3"/></defs><g class="cls-1"><g id="Illustration"><path class="cls-2" d="M130.67,3.12C72.23,1.4,21.62,43.8,14,99.43,5.61,160.27,51.63,215,108.25,223.77c70.44,10.9,138.76-52.18,132.62-120.61C236.25,51.6,190.08,4.87,130.67,3.12Z"/><path class="cls-3" d="M213.79,71.36l-5-.56a36.24,36.24,0,0,0-1.21-6.28l4.49-1.92a2.22,2.22,0,0,0,1.14-3.05l-3.58-7.24a2.47,2.47,0,0,0-3.18-1.14l-4.42,1.93A36.47,36.47,0,0,0,198,48.32l2.75-3.75a2.18,2.18,0,0,0-.58-3.12l-6.57-4.4a2.38,2.38,0,0,0-3.21.54l-2.71,3.7a37.15,37.15,0,0,0-5.83-2.08l.45-4.44a2.17,2.17,0,0,0-2-2.35l-7.67-.6a2.26,2.26,0,0,0-2.44,2l-.47,4.34a36.33,36.33,0,0,0-6,1l-1.78-3.93a2.13,2.13,0,0,0-2.86-1l-6.84,3.12a2.2,2.2,0,0,0-1.13,2.84l1.71,3.89a34.55,34.55,0,0,0-4.69,3.77l-3.4-2.48a2.15,2.15,0,0,0-3,.51l-4.42,6a2.14,2.14,0,0,0,.4,3L141,57.37A36.25,36.25,0,0,0,138.79,63l-4.17-.47a2.2,2.2,0,0,0-2.38,1.93l-1,7.48a2.16,2.16,0,0,0,1.83,2.44l4.16.51a35.43,35.43,0,0,0,.81,6.1l-3.91,1.71A2.27,2.27,0,0,0,133,85.6l2.86,7.18A2.15,2.15,0,0,0,138.71,94l4-1.69a36.22,36.22,0,0,0,3.75,5.06l-2.61,3.56a2.38,2.38,0,0,0,.43,3.24l6.16,5a2.17,2.17,0,0,0,3.16-.38l2.67-3.63a37.42,37.42,0,0,0,5.87,2.57l-.51,4.64a2.48,2.48,0,0,0,2,2.71l8,1.27a2.23,2.23,0,0,0,2.58-2l.48-4.72a36.11,36.11,0,0,0,6.41-.79l2,4.5a2.5,2.5,0,0,0,3.17,1.38l7.56-3.06a2.32,2.32,0,0,0,1.18-3.16l-2.05-4.54a34.26,34.26,0,0,0,5.09-4l4,3a2.41,2.41,0,0,0,3.41-.41l4.83-6.6a2.43,2.43,0,0,0-.63-3.39l-4.11-3a34.94,34.94,0,0,0,2.24-6l5,.62a2.3,2.3,0,0,0,2.64-2.07l.65-8.14A2.5,2.5,0,0,0,213.79,71.36Zm-32.2,23.15a23.29,23.29,0,0,1-30.34-12.6,22.73,22.73,0,0,1,11.59-29.59,23.29,23.29,0,0,1,30.43,11.45A22.67,22.67,0,0,1,181.59,94.51Z"/><path class="cls-4" d="M170.41,194.15c9-1.15,20.42-4.2,25-12.77,1.09-2,2.19-6-.57-7.49-2.51-1.37-5.77.08-7.64,1.85-1.38,1.3-2.45,4.22-4,5.14-2.26,1.35-3.48-2.33-3.43-3.85.11-3.39,4.28-4.78,7.06-5.52,4.6-1.22,10-2.27,9.68-7.46s-5.35-8.3-9.25-6c-3.2,1.87-2.75,5.86-4.94,8.26-2,2.12-2.63-1.33-2.5-3,.29-3.68,3.52-6.34,5.9-8.81,2.69-2.79,5.66-8.39,2.8-12.08-1.65-2.12-5.85-2.62-8.33-2.26-12.13,1.75-4.08,17.45-6.29,19.2s-4.29-1.31-4.29-6-.7-8.1-5.57-6.61-5.79,13.67-.23,18.35-.35,9.78-1.84,6.43c-1.08-2.42-2-8.76-5.14-9.46-5.18-1.16-5.11,9.43-3.62,11.9,2.1,3.45,6.83,4.2,9.47,7.18.76.87,2.5,3,1.82,4.28-.93,1.76-3.55-.13-4.52-.95-2.16-1.83-5.15-8.08-8.2-3.93C148,185.65,154.32,193.25,170.41,194.15Z"/><g class="cls-5"><path class="cls-6" d="M171.71,193.12c-.22,0-.39-.11-.39-.32a124.28,124.28,0,0,1,7.81-40.57.38.38,0,0,1,.49-.22.4.4,0,0,1,.24.51,123.24,123.24,0,0,0-7.76,40.26.35.35,0,0,1-.39.34Z"/></g><path class="cls-7" d="M175,186.25c-1.46-1.24-4.56.7-5.85,1.44-.75.43-1.77,1.09-2.67.71s-.87-1.39-.3-2.09c1-1.26,3-1.61,4.4-2.22a6.77,6.77,0,0,0,3.69-3.1,5,5,0,0,0,.06-4.26c-1.87-3.36-4.6-.74-6.13,1.26-.74,1-2.39,2.65-3.65,1.5s-.19-3.39.85-4.35a49.09,49.09,0,0,1,4.47-3.21c1.33-1,2.7-2.39,1.81-4.13a4.13,4.13,0,0,0-3.88-2c-3.4.26-3.93,5.23-6.17,7.14-.79.67-2.59,1.21-3.54.55s-.33-2.22,0-3.06c1-2.5,8.39-10.87,2.29-11.92a6.75,6.75,0,0,0-4.86,1.2c-2.28,1.84-3.48,5.48-4.08,8.25a30.84,30.84,0,0,0,.16,13.52c2.33,9.57,7.79,12.64,7.79,12.64a16,16,0,0,0,7.78.65c2.88-.61,6.32-2.75,7.75-5.41C175.41,188.53,175.92,187,175,186.25Z"/><rect class="cls-8" x="98.64" y="23.12" width="40.86" height="110.92" transform="matrix(-0.96, -0.28, 0.28, -0.96, 211.68, 187.1)"/><rect class="cls-9" x="115.75" y="29.76" width="30.82" height="18.66" transform="translate(246.34 113.04) rotate(-163.9)"/><rect class="cls-10" x="109.7" y="50.75" width="30.82" height="18.66" transform="translate(228.64 152.5) rotate(-163.9)"/><rect class="cls-11" x="103.64" y="71.73" width="30.82" height="18.66" transform="translate(210.94 191.96) rotate(-163.9)"/><rect class="cls-12" x="97.58" y="92.72" width="30.82" height="18.66" transform="translate(193.24 231.43) rotate(-163.9)"/><g class="cls-13"><path class="cls-14" d="M114.83,19.63l20.87,6a30.37,30.37,0,0,0-8.55,11.41c-3.79,9.11-.65,15.61-1.49,28.39-.88,13.34-5.15,19.18-9.26,31.24a124.66,124.66,0,0,0-6.43,37L84.06,126.2Z"/></g><rect class="cls-15" x="78.71" y="23.93" width="40.86" height="110.92" transform="translate(213.35 134.96) rotate(167.26)"/><rect class="cls-16" x="75.27" y="29.64" width="30.82" height="18.66" transform="translate(187.72 56.98) rotate(167.26)"/><rect class="cls-17" x="80.09" y="50.94" width="30.82" height="18.66" transform="translate(201.94 98) rotate(167.26)"/><rect class="cls-18" x="84.9" y="72.25" width="30.82" height="18.66" transform="translate(216.15 139.02) rotate(167.26)"/><rect class="cls-19" x="89.72" y="93.55" width="30.82" height="18.66" transform="translate(230.37 180.04) rotate(167.26)"/><g class="cls-13"><path class="cls-20" d="M67,29.8l26.25-5.93c-3,6.61-3.16,11.78-2.61,15.54C92.17,50,100,52.68,104,65.49c3.82,12,.18,19.78-.38,29.54-.52,9.3,1.67,21.77,12.37,37.4L91.44,138Z"/></g><rect class="cls-21" x="57.81" y="33.24" width="40.86" height="110.92" transform="translate(195.63 103.11) rotate(138.41)"/><rect class="cls-22" x="35.92" y="48.05" width="30.82" height="18.66" transform="translate(127.81 66.22) rotate(138.41)"/><rect class="cls-23" x="50.42" y="64.38" width="30.82" height="18.66" transform="translate(163.99 85.15) rotate(138.41)"/><rect class="cls-24" x="64.91" y="80.72" width="30.82" height="18.66" transform="translate(200.17 104.08) rotate(138.41)"/><rect class="cls-25" x="79.41" y="97.05" width="30.82" height="18.66" transform="translate(236.36 123.01) rotate(138.41)"/><g class="cls-13"><path class="cls-26" d="M26.15,60.78,45.76,43.37c-.34,10,2.4,16,5.12,19.65C57.24,71.61,65.39,70.3,75,79.66c9,8.79,9.5,17.35,13.62,26.22,3.66,7.86,10.71,17.05,25.25,25.32L99.77,143.74Z"/></g><circle class="cls-27" cx="109.41" cy="123.83" r="4.35"/><path class="cls-28" d="M240,196.17,25.74,194.32v5.48a2.9,2.9,0,0,0,2.2,3l60.58,10.79a8,8,0,0,0,2.18.1l147-12.3a2.77,2.77,0,0,0,2.33-2.9Z"/><path class="cls-28" d="M161.14,187.39,25,197.41a4.13,4.13,0,0,1-4.42-4.26V91.75A4.51,4.51,0,0,1,25,87.17l4.82,2.77,131.35-2.77a3.91,3.91,0,0,1,3.64,4.14V183A4.29,4.29,0,0,1,161.14,187.39Z"/><path class="cls-6" d="M163.32,187.39l-136.18,10a4.13,4.13,0,0,1-4.41-4.26V91.75a4.5,4.5,0,0,1,4.41-4.58H163.32A3.91,3.91,0,0,1,167,91.31V183A4.29,4.29,0,0,1,163.32,187.39Z"/><path class="cls-29" d="M159.07,180.92,32.24,189.63a3.38,3.38,0,0,1-3.59-3.49V97.36a3.69,3.69,0,0,1,3.59-3.76l126.83-.55a3.22,3.22,0,0,1,3,3.4v80.86A3.5,3.5,0,0,1,159.07,180.92Z"/><path class="cls-6" d="M100,89.94a1.58,1.58,0,1,1-1.57-1.7A1.65,1.65,0,0,1,100,89.94Z"/><path class="cls-30" d="M27.14,197.41l135.49-10,.69-.05a3.66,3.66,0,0,0,2.39-1.22c-9.75-.53-15.8-4-19.71-7.57-7.84-7.17-6.48-14.25-14.94-19-10.55-5.89-18.85,1.57-26.86-5.79-4.85-4.47-2.47-7.79-8.44-14.46-6.62-7.39-10.92-4.91-17.57-11.55-8.41-8.41-4.2-15-11.44-21-8.79-7.33-18.26-.55-26.63-7.57-3.6-3-5.58-7.43-6.61-12.11H27.14a4.5,4.5,0,0,0-4.41,4.58v101.4A4.13,4.13,0,0,0,27.14,197.41Z"/><path class="cls-31" d="M169.73,186.83l-144,10.55,62.78,11.18a8.38,8.38,0,0,0,2.18.11L240,196.17l-68-9.27A11.67,11.67,0,0,0,169.73,186.83Z"/><polygon class="cls-29" points="46.75 197.47 166.63 188.56 203.73 193.57 84.88 203.1 46.75 197.47"/><path class="cls-6" d="M88,156.1V126.16c0-1.92,1.62-3.12,3-2.24l25.08,15.74a2.89,2.89,0,0,1,0,4.65L91,158.53C89.61,159.32,88,158,88,156.1Z"/><path class="cls-7" d="M170.49,171.13a5.78,5.78,0,0,1-5.14,5.91l-124.3,7.11a5.74,5.74,0,0,1-6.13-5.8v-100a6,6,0,0,1,6.13-6.06l124.3,1.91a5.5,5.5,0,0,1,5.14,5.7Z"/><path class="cls-32" d="M167.14,168.64a5.42,5.42,0,0,1-4.83,5.58L45.16,180.67a5.43,5.43,0,0,1-5.78-5.47V81.6a5.73,5.73,0,0,1,5.79-5.71l117.12,1.53a5.17,5.17,0,0,1,4.85,5.37Z"/><path class="cls-33" d="M170.49,80.1v4.58L34.92,83.59v-5a6.4,6.4,0,0,1,6.3-6.32L165.5,74.17C168.34,74.22,170.49,77,170.49,80.1Z"/><path class="cls-6" d="M44.46,78.19a2.34,2.34,0,0,1-2.36,2.35,2.4,2.4,0,0,1-2.37-2.41,2.35,2.35,0,0,1,2.37-2.35A2.41,2.41,0,0,1,44.46,78.19Z"/><path class="cls-6" d="M51.63,78.27a2.32,2.32,0,0,1-2.34,2.34,2.38,2.38,0,0,1-2.35-2.39,2.32,2.32,0,0,1,2.35-2.34A2.39,2.39,0,0,1,51.63,78.27Z"/><path class="cls-6" d="M58.73,78.35a2.31,2.31,0,0,1-2.32,2.33,2.37,2.37,0,0,1-2.32-2.38A2.3,2.3,0,0,1,56.41,76,2.37,2.37,0,0,1,58.73,78.35Z"/><g class="cls-34"><polygon class="cls-6" points="77.6 172.86 43.85 174.58 43.85 89.83 77.6 89.97 77.6 172.86"/><polygon class="cls-6" points="164.35 114.26 80.39 115.34 80.39 89.98 164.35 90.32 164.35 114.26"/><polygon class="cls-6" points="114.7 143.39 80.39 144.49 80.39 119.14 114.7 118.61 114.7 143.39"/><polygon class="cls-6" points="114.7 170.95 80.39 172.7 80.39 147.35 114.7 146.18 114.7 170.95"/><polygon class="cls-6" points="164.35 168.43 118.61 170.76 118.61 118.55 164.35 117.85 164.35 168.43"/></g><path class="cls-7" d="M155.73,150.52l-6.94-10.19a.38.38,0,0,0-.31-.16.34.34,0,0,0-.31.17l-3.93,6-6.55-9.63a.37.37,0,0,0-.32-.17.4.4,0,0,0-.31.18l-9.5,14.36a.46.46,0,0,0,0,.44.39.39,0,0,0,.33.23l13.06-.26,6.65-.14,7.84-.16a.46.46,0,0,0,.33-.25A.5.5,0,0,0,155.73,150.52Z"/><path class="cls-7" d="M150.56,133.85a3.09,3.09,0,0,1-2.93,3.19,3,3,0,0,1-3-3.11,3.08,3.08,0,0,1,2.94-3.17A3,3,0,0,1,150.56,133.85Z"/><path class="cls-7" d="M73.69,98.24a3.26,3.26,0,0,1-3.22,3.19l-19.26.07A3.19,3.19,0,0,1,48,98.28v0A3.13,3.13,0,0,1,51.15,95H70.51a3.21,3.21,0,0,1,3.18,3.18Z"/><path class="cls-7" d="M112.76,139.58a.77.77,0,0,1-.73.79l-7.71.24a.74.74,0,0,1-.74-.76h0a.79.79,0,0,1,.74-.8l7.71-.23a.73.73,0,0,1,.73.76Z"/><path class="cls-7" d="M112.76,167.18a.8.8,0,0,1-.73.81l-7.71.38a.72.72,0,0,1-.74-.75h0a.8.8,0,0,1,.74-.81l7.71-.37a.71.71,0,0,1,.73.74Z"/><path class="cls-7" d="M152.39,111a1.2,1.2,0,0,1-1.13,1.23,1.16,1.16,0,0,1-1.13-1.21,1.2,1.2,0,0,1,1.13-1.23A1.17,1.17,0,0,1,152.39,111Z"/><path class="cls-7" d="M156,111a1.19,1.19,0,0,1-1.12,1.23,1.15,1.15,0,0,1-1.12-1.2,1.19,1.19,0,0,1,1.12-1.23A1.15,1.15,0,0,1,156,111Z"/><path class="cls-7" d="M159.6,110.93a1.19,1.19,0,0,1-1.11,1.23,1.15,1.15,0,0,1-1.12-1.2,1.17,1.17,0,0,1,1.12-1.22A1.15,1.15,0,0,1,159.6,110.93Z"/><path class="cls-7" d="M73.41,106.53A1.38,1.38,0,0,0,72,105.25l-22.4.14a1.31,1.31,0,0,0-1.31,1.31v14.54a1.23,1.23,0,0,0,1.24,1.29l22.5-.39a1.39,1.39,0,0,0,1.36-1.31Z"/><path class="cls-7" d="M73.69,135.82a3.35,3.35,0,0,1-3.22,3.26l-19.26.55A3.09,3.09,0,0,1,48,136.49v0a3.24,3.24,0,0,1,3.12-3.3l19.36-.47a3.12,3.12,0,0,1,3.18,3.1Z"/><path class="cls-7" d="M73.41,144.11A1.35,1.35,0,0,0,72,142.86l-22.4.7a1.36,1.36,0,0,0-1.31,1.35v14.54a1.19,1.19,0,0,0,1.24,1.25l22.5-.94a1.44,1.44,0,0,0,1.36-1.34Z"/><path class="cls-35" d="M187.73,137.31c-1.85-2,3.28-9.42,6-12.68,2.4-2.84,4.87-5.77,7.9-5.4a6.74,6.74,0,0,1,5.4,5.82C207.48,132.28,190.37,140.13,187.73,137.31Z"/><path class="cls-36" d="M210,213.76c.35.28.41,1,.45,1.45a1.3,1.3,0,0,1,0,.39c-.17.53-1.2.59-2.82.75-2.57.26-3.33.46-3.53.08s.27-.94.32-1a2.27,2.27,0,0,1,1.26-.69c1.21-.4,2-.62,2.28-.68C209.51,213.64,209.77,213.57,210,213.76Z"/><path class="cls-37" d="M208.48,211.42l-.26,2.92a1.59,1.59,0,0,0,1.63.2l.66-2.87Z"/><path class="cls-38" d="M189.68,213.38a1.44,1.44,0,0,1,.15,1.73c-.36.42-.9.11-2.42.15s-2.06.44-3.17.13c-.45-.12-1.24-.42-1.23-.74s.42-.35,1.76-.8a18,18,0,0,1,2.31-.74C188.1,212.94,189.13,212.77,189.68,213.38Z"/><path class="cls-39" d="M188.63,210.72l-.82,2.72a1.58,1.58,0,0,0,1.61.33l1.22-2.65Z"/><path class="cls-40" d="M195.91,151a253.77,253.77,0,0,1-2.24,30.65,254.09,254.09,0,0,1-5.83,29.84l3.14.84a26.54,26.54,0,0,0,7.61-11.86c1-3.42.67-5.17,1.31-9.37,1-6.69,3.06-10.19,5.18-15.59a89,89,0,0,0,5.36-21.46Z"/><path class="cls-41" d="M205.35,150.14q1,17.49,1.56,35.6.45,13.59.67,26.84l3.2.4a36.9,36.9,0,0,0,3.35-8.63c1.14-4.57.87-7.28,1.37-12,.56-5.32,1.38-6.48,2.82-13.18,2.93-13.61,4.4-20.41,1.13-24.64C218.39,153.13,215.06,149.69,205.35,150.14Z"/><path class="cls-42" d="M220.91,120.86a50.27,50.27,0,0,0-10.65-1.78c-6.4-.36-9.6-.54-11.87,1-5.24,3.52-1.19,11.64-3.33,31.79-.31,2.88-.38,5.78-.6,8.66-.37,4.78-.45,5-.12,5.52,2.09,3,9.86-1.54,21.26.27,6.38,1,9.27,3.34,11,1.66,2-2,.29-7.24-1.22-11.78-1.72-5.22-2.79-5.28-3.77-9.21-1-4.11-.41-6.22-.25-12.69A113.79,113.79,0,0,0,220.91,120.86Z"/><path class="cls-43" d="M205.42,158.69c3-.24,4.91,1.45,7.48.14,3.52-1.8,4.66-7.4,4.43-11.37-.34-6-3.78-7.61-3.18-11.5.32-2.1,1.82-4.9,7.22-7.75.07,2.4,0,4.45,0,6.08-.16,6.47-.78,8.58.25,12.69,1,3.93,2.05,4,3.77,9.21,1.51,4.54,3.25,9.82,1.22,11.78-1.75,1.68-4.64-.65-11-1.66-9.82-1.56-16.95,1.62-20.07.59C199.3,160.67,202.72,158.9,205.42,158.69Z"/><path class="cls-44" d="M216.85,121.28c2.13-1.75,6.41.23,7.55.76,6.38,2.95,12.1,10.89,10.68,19.29-.21,1.26-1.2,7.16-6.19,10-4.5,2.58-10.58,1.92-15.45-1.73l-2-1.78c-.66-.7-1.31-1.41-2-2.12a15.66,15.66,0,0,1,5.24-2.88c3.23-1.05,5.59.83,7.1-.6a4.13,4.13,0,0,0,.78-3.77c-.52-2.13-2.39-2.72-3.95-4.23C215,130.69,214.3,123.37,216.85,121.28Z"/><polygon class="cls-45" points="186.28 148.7 214.79 148.27 207.21 151.93 186.21 150.56 186.28 148.7"/><path class="cls-46" d="M215.8,149h0a1.26,1.26,0,0,1-.84,1.19l-9.11,3.58,0-2.48,9-3A.79.79,0,0,1,215.8,149Z"/><path class="cls-47" d="M211.41,147.34c.17,0-.85-2.08-1.66-1.85S205,148,204.64,149l-.36.94a9.07,9.07,0,0,0,2.79-.22C208.14,149.32,210,147.66,211.41,147.34Z"/><path class="cls-48" d="M205.05,133.94l2,18.31a1.72,1.72,0,0,1-1.44,1.54L176.13,152a1,1,0,0,1-1-.86l-3.7-17.68c-.11-.64,1-1.3,1.7-1.29l30.9.87A1,1,0,0,1,205.05,133.94Z"/><path class="cls-49" d="M204.38,134.48l2,18.3a1,1,0,0,1-1.08,1.14l-29.86-1.41a1,1,0,0,1-1-.86l-3-17.75a1,1,0,0,1,1-1.21l30.9.87A1,1,0,0,1,204.38,134.48Z"/><path class="cls-50" d="M186.85,148.22c2.6-1.1,1.68-3.21,4.76-5.84,4.06-3.46,8.2-2,9.65-4.64.46-.84.67-2.14-.12-4.25l2.24.07a1,1,0,0,1,1,.92l2,18.3a1,1,0,0,1-1.08,1.14l-29.86-1.41a1,1,0,0,1-1-.86l-.42-2.45a11.54,11.54,0,0,1,3.26-1.22C181.7,147.1,183.85,149.49,186.85,148.22Z"/><path class="cls-51" d="M173.57,150a.24.24,0,0,1,.21-.31,6,6,0,0,1,2.91.45c1.05.65,2.4,1.82,1.26,2.41l-1.07.55a.21.21,0,0,1-.15,0c-.38-.09-2-.44-2.15-.53A16.46,16.46,0,0,1,173.57,150Z"/><path class="cls-52" d="M209.78,112.09a22.54,22.54,0,0,0,.4,4.43,3.52,3.52,0,0,0,.6,1.74c.32.37.8.68,3.52,1.36,1.48.36,1.67.35,1.71.5.15.72-3.88,3.16-8,2.57-2.55-.36-4.87-1.82-4.73-2.58s2.69-.36,3.45-1.75c.53-1-.06-2.34-.76-3.48C206.59,113.61,209.1,113.36,209.78,112.09Z"/><path class="cls-53" d="M205.2,112.26a2.69,2.69,0,0,1,.64-3,2.91,2.91,0,0,1,2.24-.51c1.64.13,3.53,1.19,3.94,2.8.25,1-1,2.59-1.21,2.89s-.54.4-.86.63l-2.3,1.66a6.25,6.25,0,0,0-.15-1.16,6.39,6.39,0,0,0-.51-1.42C206.35,113,205.62,113.11,205.2,112.26Z"/><path class="cls-54" d="M209.17,116.11a3.65,3.65,0,0,1-3.45,1c-1.86-.49-1.31-4.75.06-5.41a2.41,2.41,0,0,1,1.9.12c.36.18.46.37,1.06.66s.73.23.88.41.25.71-.35,1.87a1,1,0,0,1,1.16-.14.67.67,0,0,1,.2.29C210.8,115.42,210.24,116,209.17,116.11Z"/><path class="cls-55" d="M209.75,112.64c-.1,0,.11.44,0,.92a2.34,2.34,0,0,1-2.27,1.77c-.57,0-.66-.42-1.58-.71a4.35,4.35,0,0,0-1.38-.18,2.3,2.3,0,0,0,.18,2.63,2.38,2.38,0,0,0,2,.47,2.79,2.79,0,0,0,1.76-.83c.61-.71.25-1.28.88-1.72a4.2,4.2,0,0,0,1.13-.74,1.92,1.92,0,0,0,.26-.32C210.42,113.33,209.9,112.56,209.75,112.64Z"/><path class="cls-56" d="M205.16,115a2.26,2.26,0,0,0,1.07.38s.07,0,.07,0a.88.88,0,0,1-.89.09c-.28-.14-.46-.46-.4-.53S205.1,114.92,205.16,115Z"/><path class="cls-57" d="M35.15,126.62c-.52.2-8.49,3.36-10.13,11.68-.13.67-1.41,7.81,3.43,12.86,5.44,5.65,15.89,5.51,20.05.78a8.57,8.57,0,0,0,1.76-3.35h0l-1.09-2.91A7.13,7.13,0,0,0,45,143.45c-2.39-.59-4.19.48-5.56-.68a3.6,3.6,0,0,1-1-2.37c-.46-2.8,1.12-4.52,1.24-6.24.08-1.29.53-4.12-1.15-6A5.43,5.43,0,0,0,35.15,126.62Z"/><path class="cls-58" d="M32,219.26c-.09-.51-1.74-1-2.56-.28-.41.34-.69,1-.45,1.34.08.11-.27.31.07.31C30.21,220.65,32.14,219.77,32,219.26Z"/><path class="cls-59" d="M30.31,219.45l-1.7-.24c.79-1,.64-4,.64-4l1.81.41s-.2.83-.55,2A8,8,0,0,0,30.31,219.45Z"/><path class="cls-60" d="M30.46,219.24s-2-.47-2.27-.06-.39,1.49.91,1.45S30.58,219.59,30.46,219.24Z"/><path class="cls-61" d="M55.37,221.18c-.17-.49-1.87-.72-2.58.08-.36.39-.54,1.11-.26,1.39.1.1-.22.34.11.3C53.75,222.81,55.53,221.67,55.37,221.18Z"/><path class="cls-62" d="M53.68,221.61H52c.65-1.05.08-4,.08-4l1.85.15s-.09.85-.27,2.11A7.8,7.8,0,0,0,53.68,221.61Z"/><path class="cls-63" d="M58.13,156.69a80.19,80.19,0,0,1,2.66,12.19c2.08,15.16-2.35,15.65-1.52,32.46.26,5.36-4.65,17.73-5.08,18a4.94,4.94,0,0,1-.68,0,6.64,6.64,0,0,1-1.73-.29c-.78-.13-3.59-7.73-2.93-12.25.46-3.2.32-6.63.06-13.49,0-1.11-2.89-21.64-2.89-21.64h0c-.87,7.6-1.86,14.06-2.73,19.06-2.77,16.08-11.78,25.81-12.25,26a2,2,0,0,1-1.63-.11,1.21,1.21,0,0,1-.42-.47c-.24-.19.07-16.05,2.82-28,4-17.33,2.26-21.39,3.52-29.13C36.43,152.34,58.13,156.69,58.13,156.69Z"/><path class="cls-64" d="M59.19,159.31a27.83,27.83,0,0,1-15.92,2.34,24.55,24.55,0,0,1-7.77-2.53l-.17-.08c1.91-5.78.41-8.87-.29-11.72-1-4.07-1-3.76-1.86-7-1.36-5.33-1.59-10.77-.65-11.88,2.54-3,7.1-3.11,9.48-3.19,2.64-.07,8.74-1,12.09,2,.06,0-.63.42-.29.82a21.63,21.63,0,0,1,2.37,3.4,23,23,0,0,1,2,4.92A42.79,42.79,0,0,1,59.74,145c0,.47.07.93.1,1.38C60.28,153.5,59.71,156.93,59.19,159.31Z"/><path class="cls-65" d="M53.8,221.38s-2.1-.18-2.26.25-.18,1.54,1.1,1.32S54,221.71,53.8,221.38Z"/><path class="cls-66" d="M49.63,121.88a4.61,4.61,0,0,0,.14-3.34c-.44-1.4-.59-1.61-.87-1.89l-.41-.37-.05,0a5.48,5.48,0,0,0-1.48-.38c-.67,0-1.87,2.52-2.39,6.29-.06.14-.11.28-.16.42q-.49,1.31-.84,2.55c-4.52.7-5.11,1.28-5.11,1.59,0,.65,2.65,1.22,4.61,1.36,4.29.33,8.58-1.1,8.5-1.89,0-.34-.91-.73-4.54-1,0-.6.09-1.2.13-1.8C47.45,123.34,49.1,122.94,49.63,121.88Z"/><path class="cls-67" d="M50,115.47a4.44,4.44,0,0,1-1.32,2.43,1.92,1.92,0,0,0-.51.38.62.62,0,0,0-.09.12c-.4.68.6,1.77.31,2s-.94-.26-1.07-.08.45.7.31.91-.48-.08-.79.14c-.15.11-.13.22-.35.6a3.3,3.3,0,0,1-.38.57c-.53.6-1.71.63-1.87.32-.05-.09,0-.14,0-.41a2.08,2.08,0,0,0-.12-.55A5.45,5.45,0,0,0,43,120.61a3.9,3.9,0,0,1-1.12-1.9c0-.09,0-.15,0-.2a4.34,4.34,0,0,1,.67-2.85c.89-1.16,2.22-.27,3.65-1.32,1.65-1.21,1.22-3.38,2-3.46S50.46,113.34,50,115.47Z"/><path class="cls-68" d="M48.07,120.1c-.21-.45-.78-.18-.88.33a.94.94,0,0,0,.78,1.11C48.46,121.53,48.35,120.69,48.07,120.1Z"/><path class="cls-69" d="M36.18,155.46h0a.16.16,0,0,1-.14-.17,16,16,0,0,0-.78-6.65c-.13-.44-.25-.87-.35-1.29-.57-2.3-.82-3.19-1.09-4.13-.17-.62-.35-1.25-.63-2.32a.15.15,0,0,1,.11-.18.14.14,0,0,1,.19.11c.28,1.06.45,1.69.63,2.31.26.94.51,1.83,1.09,4.14.1.42.22.84.35,1.28a16.2,16.2,0,0,1,.79,6.76A.16.16,0,0,1,36.18,155.46Z"/><path class="cls-70" d="M59.19,159.31a27.83,27.83,0,0,1-15.92,2.34,24.55,24.55,0,0,1-7.77-2.53,35.85,35.85,0,0,0,3.64-3.66c2.11-2.29,4.58-1.44,6-.58A3.43,3.43,0,0,0,50.34,152a14.74,14.74,0,0,0-.08-1.92c-.5-5.2,6.71-5.64,6.71-5.64,1-.53,2,.32,2.87,1.91C60.28,153.5,59.71,156.93,59.19,159.31Z"/><path class="cls-71" d="M84.4,136.13a2.9,2.9,0,0,0-.89.46c-.35.2-.7.4-1.06.58a4.53,4.53,0,0,1-2.21.61,2.07,2.07,0,0,1,.1-.33c.14-.31.31-.58.21-.68s-.81.15-1.43.74a4.06,4.06,0,0,0-.67.84c-.32.54-.26.83-.52,1.23a1.92,1.92,0,0,1-.68.43v.11l0,.13a3.46,3.46,0,0,1-1.05.53l1.61.44.37.62a13,13,0,0,0,3.27-1.17,1.58,1.58,0,0,0,.82-1.14,1.69,1.69,0,0,0,0-.58l0-.15a4.8,4.8,0,0,0,2.34-2.2C84.67,136.37,84.68,136.1,84.4,136.13Z"/><path class="cls-72" d="M77.29,139.38A5.33,5.33,0,0,1,79,141.54a16,16,0,0,1-5.61,7,16.51,16.51,0,0,1-18.91-.4c-6.62-5-7.72-14.75-4.94-18.9a4.65,4.65,0,0,1,3-2.23c1-.11,2.43.32,4.65,2.91,4.62,5.41,3,8.79,5.72,10.37C67,142.66,73.12,136.46,77.29,139.38Z"/></g></g></svg>