<svg xmlns="http://www.w3.org/2000/svg" xmlns:xlink="http://www.w3.org/1999/xlink" viewBox="0 0 225 229"><defs><style>.cls-1{isolation:isolate;}.cls-2{fill:#0283f0;opacity:0.24;}.cls-3{fill:url(#linear-gradient);}.cls-4{fill:url(#linear-gradient-2);}.cls-30,.cls-5,.cls-78,.cls-8{fill:#fff;}.cls-5{mix-blend-mode:soft-light;opacity:0.6;}.cls-6{fill:url(#linear-gradient-3);}.cls-7{opacity:0.85;}.cls-9{opacity:0.49;}.cls-10{fill:url(#linear-gradient-4);}.cls-11{fill:url(#linear-gradient-5);}.cls-12{fill:url(#linear-gradient-6);}.cls-13{fill:url(#linear-gradient-7);}.cls-14{fill:url(#linear-gradient-8);}.cls-15{fill:url(#linear-gradient-9);}.cls-16{opacity:0.64;}.cls-17{opacity:0.53;fill:url(#linear-gradient-10);}.cls-18{fill:url(#linear-gradient-11);}.cls-19{fill:url(#linear-gradient-12);}.cls-20{fill:url(#linear-gradient-13);}.cls-21{fill:url(#linear-gradient-14);}.cls-22{fill:url(#linear-gradient-15);}.cls-23{fill:url(#linear-gradient-16);}.cls-24{fill:url(#linear-gradient-17);}.cls-25{fill:url(#linear-gradient-18);}.cls-26{fill:url(#linear-gradient-19);}.cls-27{fill:url(#linear-gradient-20);}.cls-28{fill:url(#linear-gradient-21);}.cls-29{fill:url(#linear-gradient-22);}.cls-30{opacity:0.54;}.cls-31{fill:url(#linear-gradient-23);}.cls-32{fill:url(#linear-gradient-24);}.cls-33{fill:url(#linear-gradient-25);}.cls-34{fill:url(#linear-gradient-26);}.cls-35{fill:url(#linear-gradient-27);}.cls-36{fill:url(#linear-gradient-28);}.cls-37{fill:url(#Безымянный_градиент_346);}.cls-38{fill:url(#linear-gradient-29);}.cls-39{fill:url(#linear-gradient-30);}.cls-40{fill:url(#linear-gradient-31);}.cls-41{fill:url(#Безымянный_градиент_346-2);}.cls-42{fill:url(#linear-gradient-32);}.cls-43{fill:url(#linear-gradient-33);}.cls-44{fill:url(#linear-gradient-34);}.cls-45{fill:url(#linear-gradient-35);}.cls-46{fill:url(#linear-gradient-36);}.cls-47{fill:url(#linear-gradient-37);}.cls-48{fill:url(#linear-gradient-38);}.cls-49{fill:url(#linear-gradient-39);}.cls-50{fill:url(#linear-gradient-40);}.cls-51{fill:url(#linear-gradient-41);}.cls-52{fill:url(#linear-gradient-42);}.cls-53{fill:url(#linear-gradient-43);}.cls-54{fill:url(#linear-gradient-44);}.cls-55{fill:url(#linear-gradient-45);}.cls-56{fill:url(#linear-gradient-46);}.cls-57{fill:url(#Безымянный_градиент_346-3);}.cls-58{fill:url(#linear-gradient-47);}.cls-59{fill:url(#linear-gradient-48);}.cls-60{fill:url(#linear-gradient-49);}.cls-61{fill:url(#linear-gradient-50);}.cls-62{fill:url(#linear-gradient-51);}.cls-63{fill:url(#linear-gradient-52);}.cls-64{fill:url(#linear-gradient-53);}.cls-65{fill:url(#linear-gradient-54);}.cls-66{fill:url(#linear-gradient-55);}.cls-67{fill:url(#linear-gradient-56);}.cls-68{fill:url(#linear-gradient-57);}.cls-69{fill:url(#linear-gradient-58);}.cls-70{fill:url(#linear-gradient-59);}.cls-71{fill:url(#linear-gradient-60);}.cls-72{fill:url(#linear-gradient-61);}.cls-73{fill:url(#linear-gradient-62);}.cls-74{fill:url(#linear-gradient-63);}.cls-75{opacity:0.3;}.cls-76{fill:url(#linear-gradient-64);}.cls-77,.cls-78{opacity:0.5;}.cls-79{fill:#91b3fa;}.cls-80{opacity:0.8;fill:url(#linear-gradient-65);}.cls-81{fill:#bdd0fb;}.cls-82{fill:url(#linear-gradient-66);}.cls-83{fill:url(#linear-gradient-67);}.cls-84{fill:url(#linear-gradient-68);}.cls-85{fill:url(#linear-gradient-69);}.cls-86{fill:url(#linear-gradient-70);}.cls-87{fill:url(#linear-gradient-71);}.cls-88{fill:url(#linear-gradient-72);}.cls-89{fill:url(#linear-gradient-73);}.cls-90{fill:url(#linear-gradient-74);}.cls-91{fill:url(#linear-gradient-75);}.cls-92{fill:url(#linear-gradient-76);}.cls-93{fill:url(#Безымянный_градиент_346-4);}.cls-94{fill:url(#Безымянный_градиент_346-5);}.cls-95{fill:url(#linear-gradient-77);}.cls-96{fill:url(#linear-gradient-78);}.cls-97{fill:url(#linear-gradient-79);}.cls-98{fill:url(#linear-gradient-80);}.cls-99{fill:url(#linear-gradient-81);}</style><linearGradient id="linear-gradient" x1="2443.36" y1="65.82" x2="2267.07" y2="200.05" gradientTransform="matrix(-1, 0, 0, 1, 2467.26, 0)" gradientUnits="userSpaceOnUse"><stop offset="0" stop-color="#444b8c"/><stop offset="1" stop-color="#26264f"/></linearGradient><linearGradient id="linear-gradient-2" x1="3.01" y1="135.02" x2="220.9" y2="135.02" gradientTransform="matrix(1, 0, 0, 1, 0, 0)" xlink:href="#linear-gradient"/><linearGradient id="linear-gradient-3" x1="2338.75" y1="140.8" x2="2389.99" y2="-41.85" xlink:href="#linear-gradient"/><linearGradient id="linear-gradient-4" x1="85.14" y1="106.61" x2="110.37" y2="106.61" gradientTransform="translate(132.94 -33.69) rotate(56.6)" gradientUnits="userSpaceOnUse"><stop offset="0" stop-color="#dae3fe"/><stop offset="1" stop-color="#e9effd"/></linearGradient><linearGradient id="linear-gradient-5" x1="53.78" y1="106.61" x2="79.01" y2="106.61" gradientTransform="translate(154.9 17.5) rotate(76.72)" xlink:href="#linear-gradient-4"/><linearGradient id="linear-gradient-6" x1="22.41" y1="107.02" x2="47.65" y2="107.02" gradientTransform="translate(131.33 48.64) rotate(76.9)" xlink:href="#linear-gradient-4"/><linearGradient id="linear-gradient-7" x1="53.19" y1="156.52" x2="138.73" y2="62.37" gradientUnits="userSpaceOnUse"><stop offset="0" stop-color="#ffc444"/><stop offset="1" stop-color="#f36f56"/></linearGradient><linearGradient id="linear-gradient-8" x1="36.99" y1="141.8" x2="122.53" y2="47.65" xlink:href="#linear-gradient-7"/><linearGradient id="linear-gradient-9" x1="19.7" y1="126.09" x2="105.24" y2="31.94" xlink:href="#linear-gradient-7"/><linearGradient id="linear-gradient-10" x1="145.02" y1="192.49" x2="145.02" y2="156.61" xlink:href="#linear-gradient-7"/><linearGradient id="linear-gradient-11" x1="101.54" y1="194.48" x2="101.54" y2="176" gradientTransform="translate(203.09 370.48) rotate(-180)" xlink:href="#linear-gradient-7"/><linearGradient id="linear-gradient-12" x1="94.72" y1="194.48" x2="94.72" y2="182.35" gradientTransform="translate(189.45 376.83) rotate(-180)" xlink:href="#linear-gradient-7"/><linearGradient id="linear-gradient-13" x1="87.9" y1="194.48" x2="87.9" y2="166.66" gradientTransform="translate(175.81 361.14) rotate(-180)" xlink:href="#linear-gradient-7"/><linearGradient id="linear-gradient-14" x1="81.08" y1="194.48" x2="81.08" y2="187.79" gradientTransform="translate(162.17 382.27) rotate(-180)" xlink:href="#linear-gradient-7"/><linearGradient id="linear-gradient-15" x1="74.26" y1="194.48" x2="74.26" y2="170.38" gradientTransform="translate(148.52 364.86) rotate(-180)" xlink:href="#linear-gradient-7"/><linearGradient id="linear-gradient-16" x1="67.44" y1="194.48" x2="67.44" y2="174.55" gradientTransform="translate(134.88 369.03) rotate(-180)" xlink:href="#linear-gradient-7"/><linearGradient id="linear-gradient-17" x1="60.62" y1="194.48" x2="60.62" y2="179.09" gradientTransform="translate(121.24 373.56) rotate(-180)" xlink:href="#linear-gradient-7"/><linearGradient id="linear-gradient-18" x1="53.8" y1="194.48" x2="53.8" y2="161.04" gradientTransform="translate(107.6 355.51) rotate(-180)" xlink:href="#linear-gradient-7"/><linearGradient id="linear-gradient-19" x1="46.98" y1="194.48" x2="46.98" y2="164.57" gradientTransform="translate(93.96 359.05) rotate(-180)" xlink:href="#linear-gradient-7"/><linearGradient id="linear-gradient-20" x1="40.16" y1="194.48" x2="40.16" y2="169.92" gradientTransform="translate(80.32 364.4) rotate(-180)" xlink:href="#linear-gradient-7"/><linearGradient id="linear-gradient-21" x1="33.34" y1="194.48" x2="33.34" y2="188.41" gradientTransform="translate(66.68 382.89) rotate(-180)" xlink:href="#linear-gradient-7"/><linearGradient id="linear-gradient-22" x1="26.52" y1="194.48" x2="26.52" y2="176.64" gradientTransform="translate(53.04 371.11) rotate(-180)" xlink:href="#linear-gradient-7"/><linearGradient id="linear-gradient-23" x1="41.1" y1="206.73" x2="9.06" y2="241.58" gradientUnits="userSpaceOnUse"><stop offset="0" stop-color="#09005d"/><stop offset="1" stop-color="#1a0f91"/></linearGradient><linearGradient id="linear-gradient-24" x1="30.7" y1="209.32" x2="33.55" y2="209.32" gradientUnits="userSpaceOnUse"><stop offset="0" stop-color="#febbba"/><stop offset="1" stop-color="#ff928e"/></linearGradient><linearGradient id="linear-gradient-25" x1="28.92" y1="160" x2="28.56" y2="199.81" gradientUnits="userSpaceOnUse"><stop offset="0" stop-color="#311944"/><stop offset="1" stop-color="#893976"/></linearGradient><linearGradient id="linear-gradient-26" x1="33.92" y1="200.12" x2="1.87" y2="234.98" xlink:href="#linear-gradient-23"/><linearGradient id="linear-gradient-27" x1="20.45" y1="209.17" x2="22.9" y2="209.17" xlink:href="#linear-gradient-24"/><linearGradient id="linear-gradient-28" x1="24.59" y1="159.96" x2="24.23" y2="199.78" xlink:href="#linear-gradient-25"/><linearGradient id="Безымянный_градиент_346" x1="161.14" y1="152.87" x2="161.2" y2="152.87" gradientUnits="userSpaceOnUse"><stop offset="0" stop-color="#53d8ff"/><stop offset="1" stop-color="#562659"/></linearGradient><linearGradient id="linear-gradient-29" x1="42.42" y1="135.06" x2="56.96" y2="135.06" xlink:href="#linear-gradient-24"/><linearGradient id="linear-gradient-30" x1="17467.06" y1="132.63" x2="17476.82" y2="154.83" gradientTransform="matrix(-1, 0, 0, 1, 17520.78, 0)" xlink:href="#linear-gradient-24"/><linearGradient id="linear-gradient-31" x1="56.89" y1="125.23" x2="60.96" y2="118.97" xlink:href="#linear-gradient-24"/><linearGradient id="Безымянный_градиент_346-2" x1="161.14" y1="146.37" x2="161.2" y2="146.37" xlink:href="#Безымянный_градиент_346"/><linearGradient id="linear-gradient-32" x1="10.6" y1="155.66" x2="29" y2="155.66" xlink:href="#linear-gradient-24"/><linearGradient id="linear-gradient-33" x1="34.57" y1="142.58" x2="44.68" y2="184.74" xlink:href="#linear-gradient-23"/><linearGradient id="linear-gradient-34" x1="40.9" y1="135.93" x2="38.75" y2="145.4" gradientUnits="userSpaceOnUse"><stop offset="0" stop-color="#4f52ff"/><stop offset="1" stop-color="#4042e2"/></linearGradient><linearGradient id="linear-gradient-35" x1="39.77" y1="139.9" x2="38.74" y2="146.09" xlink:href="#linear-gradient-34"/><linearGradient id="linear-gradient-36" x1="27.63" y1="153.73" x2="33.37" y2="153.73" xlink:href="#linear-gradient-24"/><linearGradient id="linear-gradient-37" x1="24.73" y1="135.99" x2="32" y2="135.99" xlink:href="#linear-gradient-24"/><linearGradient id="linear-gradient-38" x1="-2323.52" y1="-4591.64" x2="-2326.24" y2="-4600.61" gradientTransform="matrix(0.75, -0.67, 0.67, 0.75, 4824.65, 2009.49)" xlink:href="#linear-gradient-24"/><linearGradient id="linear-gradient-39" x1="-2325.98" y1="-4607.26" x2="-2323.7" y2="-4594.29" gradientTransform="matrix(0.75, -0.67, 0.67, 0.75, 4824.65, 2009.49)" xlink:href="#linear-gradient-23"/><linearGradient id="linear-gradient-40" x1="-2326.3" y1="-4591.68" x2="-2328.75" y2="-4599.75" gradientTransform="matrix(0.75, -0.67, 0.67, 0.75, 4824.65, 2009.49)" xlink:href="#linear-gradient-24"/><linearGradient id="linear-gradient-41" x1="156.79" y1="68.79" x2="172.8" y2="68.79" xlink:href="#linear-gradient-25"/><linearGradient id="linear-gradient-42" x1="-462.16" y1="425.63" x2="-451.41" y2="450.08" gradientTransform="translate(648.35 -320.12) rotate(5.69)" xlink:href="#linear-gradient-24"/><linearGradient id="linear-gradient-43" x1="177.72" y1="143.02" x2="182.65" y2="143.02" xlink:href="#linear-gradient-23"/><linearGradient id="linear-gradient-44" x1="156.87" y1="162.47" x2="163.97" y2="79.5" xlink:href="#linear-gradient-24"/><linearGradient id="linear-gradient-45" x1="154.8" y1="142.12" x2="162.78" y2="142.12" xlink:href="#linear-gradient-23"/><linearGradient id="linear-gradient-46" x1="171.15" y1="163.7" x2="178.25" y2="80.71" xlink:href="#linear-gradient-24"/><linearGradient id="Безымянный_градиент_346-3" x1="161.14" y1="80.65" x2="161.2" y2="80.65" xlink:href="#Безымянный_градиент_346"/><linearGradient id="linear-gradient-47" x1="153.05" y1="103.67" x2="171.06" y2="103.67" xlink:href="#linear-gradient-25"/><linearGradient id="linear-gradient-48" x1="156.09" y1="80.69" x2="157.43" y2="70.93" xlink:href="#linear-gradient-24"/><linearGradient id="linear-gradient-49" x1="152.73" y1="68.11" x2="164.36" y2="47.4" xlink:href="#linear-gradient-24"/><linearGradient id="linear-gradient-50" x1="164.54" y1="81.17" x2="160.24" y2="65.21" xlink:href="#linear-gradient-25"/><linearGradient id="linear-gradient-51" x1="155.2" y1="69.5" x2="166.84" y2="48.79" xlink:href="#linear-gradient-24"/><linearGradient id="linear-gradient-52" x1="-465.05" y1="424.82" x2="-457.62" y2="441.71" gradientTransform="translate(648.35 -320.12) rotate(5.69)" xlink:href="#linear-gradient-24"/><linearGradient id="linear-gradient-53" x1="8632.12" y1="10739.97" x2="8649.02" y2="10739.97" gradientTransform="translate(13621.43 -2845.08) rotate(116.58)" xlink:href="#linear-gradient-24"/><linearGradient id="linear-gradient-54" x1="180.81" y1="135.63" x2="217.93" y2="64.08" gradientUnits="userSpaceOnUse"><stop offset="0" stop-color="#53d8ff"/><stop offset="1" stop-color="#3840f7"/></linearGradient><linearGradient id="linear-gradient-55" x1="194.93" y1="142.95" x2="232.05" y2="71.4" xlink:href="#linear-gradient-54"/><linearGradient id="linear-gradient-56" x1="216.4" y1="154.09" x2="253.52" y2="82.54" xlink:href="#linear-gradient-54"/><linearGradient id="linear-gradient-57" x1="199.95" y1="145.55" x2="237.07" y2="74" xlink:href="#linear-gradient-54"/><linearGradient id="linear-gradient-58" x1="175.97" y1="133.12" x2="213.09" y2="61.56" xlink:href="#linear-gradient-54"/><linearGradient id="linear-gradient-59" x1="187.62" y1="139.16" x2="224.74" y2="67.61" xlink:href="#linear-gradient-54"/><linearGradient id="linear-gradient-60" x1="198.83" y1="144.98" x2="235.95" y2="73.42" xlink:href="#linear-gradient-54"/><linearGradient id="linear-gradient-61" x1="209.88" y1="150.71" x2="247" y2="79.16" xlink:href="#linear-gradient-54"/><linearGradient id="linear-gradient-62" x1="221.17" y1="156.57" x2="258.3" y2="85.02" xlink:href="#linear-gradient-54"/><linearGradient id="linear-gradient-63" x1="232.29" y1="162.34" x2="269.42" y2="90.78" xlink:href="#linear-gradient-54"/><linearGradient id="linear-gradient-64" x1="84.45" y1="51.02" x2="131.63" y2="51.02" xlink:href="#linear-gradient-7"/><linearGradient id="linear-gradient-65" x1="63.24" y1="16.17" x2="79.21" y2="43.84" xlink:href="#linear-gradient-54"/><linearGradient id="linear-gradient-66" x1="115.66" y1="169.57" x2="115.98" y2="163.92" xlink:href="#linear-gradient-23"/><linearGradient id="linear-gradient-67" x1="119.77" y1="185.51" x2="108.4" y2="202.27" xlink:href="#linear-gradient-25"/><linearGradient id="linear-gradient-68" x1="99.36" y1="182.9" x2="117.73" y2="227.29" xlink:href="#linear-gradient-24"/><linearGradient id="linear-gradient-69" x1="2773.99" y1="182.81" x2="2792.37" y2="227.2" gradientTransform="matrix(-1, 0, 0, 1, 2905.93, 0)" xlink:href="#linear-gradient-24"/><linearGradient id="linear-gradient-70" x1="115.68" y1="188.75" x2="114.73" y2="227" xlink:href="#linear-gradient-23"/><linearGradient id="linear-gradient-71" x1="105.01" y1="221.53" x2="115.06" y2="221.53" gradientTransform="translate(23.4 -10.42) rotate(0.44)" xlink:href="#linear-gradient-23"/><linearGradient id="linear-gradient-72" x1="116.29" y1="221.65" x2="107.47" y2="221.55" gradientTransform="translate(23.4 -10.42) rotate(0.44)" xlink:href="#linear-gradient-34"/><linearGradient id="linear-gradient-73" x1="133.34" y1="193.81" x2="122.74" y2="222.52" xlink:href="#linear-gradient-24"/><linearGradient id="linear-gradient-74" x1="2187.73" y1="235.42" x2="2197.77" y2="235.42" gradientTransform="matrix(-1, -0.02, -0.02, 1, 2294.34, 20.25)" xlink:href="#linear-gradient-23"/><linearGradient id="linear-gradient-75" x1="2199" y1="235.54" x2="2190.22" y2="235.43" gradientTransform="matrix(-1, -0.02, -0.02, 1, 2294.34, 20.25)" xlink:href="#linear-gradient-34"/><linearGradient id="linear-gradient-76" x1="112.1" y1="185.16" x2="101.49" y2="213.89" xlink:href="#linear-gradient-24"/><linearGradient id="Безымянный_градиент_346-4" x1="161.14" y1="205.84" x2="161.2" y2="205.84" xlink:href="#Безымянный_градиент_346"/><linearGradient id="Безымянный_градиент_346-5" x1="161.14" y1="205.51" x2="161.2" y2="205.51" xlink:href="#Безымянный_градиент_346"/><linearGradient id="linear-gradient-77" x1="115.49" y1="186.57" x2="115.24" y2="165.29" xlink:href="#linear-gradient-24"/><linearGradient id="linear-gradient-78" x1="-285.08" y1="413.98" x2="-284.32" y2="395.47" gradientTransform="translate(462.72 -188) rotate(9.25)" xlink:href="#linear-gradient-24"/><linearGradient id="linear-gradient-79" x1="118.83" y1="152.04" x2="116.67" y2="160.6" xlink:href="#linear-gradient-23"/><linearGradient id="linear-gradient-80" x1="355.59" y1="-45.76" x2="356.78" y2="-74.77" gradientTransform="translate(-234.04 269.78) rotate(-7.64)" xlink:href="#linear-gradient-24"/><linearGradient id="linear-gradient-81" x1="115.57" y1="185.68" x2="114.95" y2="215.23" xlink:href="#linear-gradient-34"/></defs><g class="cls-1"><g id="Illustration"><path class="cls-2" d="M195.9,189.81a83.83,83.83,0,0,1-14.76,12C142.93,227.3,99.24,220,85.73,217.43c-21.79-4.05-40.18-6.91-56-21.19C-6.17,163.79-4.42,96.11,23,54.18c3.25-5,30.65-45.58,74.43-51.3,1.07-.14,1.87-.22,2.57-.3,6.78-.72,48.74-4.5,83,24.17a102,102,0,0,1,20.1,22.8C229.81,90.83,229.89,154.77,195.9,189.81Z"/><path class="cls-3" d="M213.78,65.6,14.51,62.23a14,14,0,0,0-14,14.94l6.86,118A12.15,12.15,0,0,0,19.27,206.7l191.54,1.9a8.84,8.84,0,0,0,8.82-8.61l4.59-123.11A10.77,10.77,0,0,0,213.78,65.6Z"/><path class="cls-4" d="M210.72,68.6,16.66,65.4A13.42,13.42,0,0,0,3,79.62L9.72,191.84a11.7,11.7,0,0,0,11.57,11l186.55,1.8a8.51,8.51,0,0,0,8.59-8.19l4.46-117.12A10.35,10.35,0,0,0,210.72,68.6Z"/><path class="cls-5" d="M207.09,72.47l-184.79-3A12.78,12.78,0,0,0,9.33,83l6.36,106.86a11.14,11.14,0,0,0,11,10.48L204.34,202a8.1,8.1,0,0,0,8.18-7.8l4.25-111.53A9.84,9.84,0,0,0,207.09,72.47Z"/><path class="cls-6" d="M16.21,65.31l194.88,3.21A10.39,10.39,0,0,1,221.3,79.3L221,87.56H3l-.48-8A13.47,13.47,0,0,1,16.21,65.31Z"/><g class="cls-7"><path class="cls-8" d="M205,72.51a1.76,1.76,0,1,0,1.75-1.75A1.75,1.75,0,0,0,205,72.51Z"/><path class="cls-8" d="M205,77.65a1.76,1.76,0,1,0,1.75-1.75A1.75,1.75,0,0,0,205,77.65Z"/><path class="cls-8" d="M205,82.78A1.76,1.76,0,1,0,206.71,81,1.75,1.75,0,0,0,205,82.78Z"/></g><g class="cls-9"><path class="cls-8" d="M178.31,137.25h21a5,5,0,0,1,5,5.27L202,191.37a5,5,0,0,1-5,4.78H178.31a5,5,0,0,1-5-5V142.28A5,5,0,0,1,178.31,137.25Z"/><path class="cls-8" d="M127.75,92.93l73.77,1.14a5,5,0,0,1,4.94,5.27l-1.23,25.08a5,5,0,0,1-5,4.78H127.67a5,5,0,0,1-5-5V98A5,5,0,0,1,127.75,92.93Z"/><rect class="cls-8" x="122.65" y="137.25" width="44.4" height="58.9" rx="5.03"/></g><circle class="cls-10" cx="97.75" cy="106.61" r="12.62" transform="matrix(0.55, -0.83, 0.83, 0.55, -45.06, 129.53)"/><circle class="cls-11" cx="66.39" cy="106.61" r="12.62" transform="translate(-52.62 146.73) rotate(-76.72)"/><circle class="cls-12" cx="35.03" cy="107.02" r="12.62" transform="translate(-77.15 116.88) rotate(-76.9)"/><path class="cls-13" d="M90.26,103.94a8.11,8.11,0,1,0,7.49-5h-.4V96.87h.4a10.13,10.13,0,1,1-9.38,6.26Z"/><path class="cls-14" d="M62.21,113.88a8.11,8.11,0,1,0,4.32-15h-.41V96.87h.41a10.16,10.16,0,1,1-5.34,18.8Z"/><path class="cls-15" d="M28.27,111.58A8.11,8.11,0,1,0,35,98.92h-.41V96.87H35a10.16,10.16,0,1,1-8.36,15.92Z"/><g class="cls-16"><path class="cls-8" d="M87.47,124.57H108a2.34,2.34,0,0,1,0,4.68H87.47a2.34,2.34,0,0,1,0-4.68Z"/><path class="cls-8" d="M56.11,124.57H76.68a2.34,2.34,0,0,1,0,4.68H56.11a2.34,2.34,0,0,1,0-4.68Z"/><path class="cls-8" d="M45.31,129.25H24.75a2.34,2.34,0,1,1,0-4.68H45.31a2.34,2.34,0,0,1,0,4.68Z"/><rect class="cls-8" x="85.14" y="131.85" width="25.24" height="18.44" rx="2.34"/><rect class="cls-8" x="53.78" y="131.85" width="25.24" height="18.44" rx="2.34"/><rect class="cls-8" x="22.41" y="131.85" width="25.24" height="18.44" rx="2.34"/></g><path class="cls-17" d="M163.05,168.7v18.54a5.25,5.25,0,0,1-5.25,5.25H132.4a5.39,5.39,0,0,1-5.4-5.39V159.18a2.56,2.56,0,0,1,4.47-1.71l4.91,5.49a5.42,5.42,0,0,0,7.33.68l.47-.37a4.64,4.64,0,0,1,5.83.15l2.69,2.28a7.1,7.1,0,0,0,7.45,1.1h0A2.07,2.07,0,0,1,163.05,168.7Z"/><rect class="cls-18" x="99.5" y="176" width="4.08" height="18.48" transform="translate(203.09 370.48) rotate(180)"/><rect class="cls-19" x="92.68" y="182.35" width="4.08" height="12.13" transform="translate(189.45 376.83) rotate(180)"/><rect class="cls-20" x="85.86" y="166.66" width="4.08" height="27.82" transform="translate(175.81 361.14) rotate(180)"/><rect class="cls-21" x="79.04" y="187.79" width="4.08" height="6.68" transform="translate(162.17 382.27) rotate(180)"/><rect class="cls-22" x="72.22" y="170.38" width="4.08" height="24.1" transform="translate(148.52 364.86) rotate(180)"/><rect class="cls-23" x="65.4" y="174.55" width="4.08" height="19.93" transform="translate(134.88 369.03) rotate(180)"/><rect class="cls-24" x="58.58" y="179.09" width="4.08" height="15.39" transform="translate(121.24 373.56) rotate(180)"/><rect class="cls-25" x="51.76" y="161.04" width="4.08" height="33.44" transform="translate(107.6 355.51) rotate(180)"/><rect class="cls-26" x="44.94" y="164.57" width="4.08" height="29.9" transform="translate(93.96 359.05) rotate(180)"/><rect class="cls-27" x="38.12" y="169.92" width="4.08" height="24.55" transform="translate(80.32 364.4) rotate(180)"/><rect class="cls-28" x="31.3" y="188.41" width="4.08" height="6.06" transform="translate(66.68 382.89) rotate(180)"/><rect class="cls-29" x="24.48" y="176.64" width="4.08" height="17.84" transform="translate(53.04 371.11) rotate(180)"/><path class="cls-30" d="M98,161.27h18.73a1.49,1.49,0,1,1,0,3H98a1.49,1.49,0,1,1,0-3Z"/><path class="cls-30" d="M98,156.61h18.73a1.49,1.49,0,1,1,0,3H98a1.49,1.49,0,1,1,0-3Z"/><path class="cls-30" d="M64.19,161.27H82.92a1.49,1.49,0,1,1,0,3H64.19a1.49,1.49,0,1,1,0-3Z"/><path class="cls-30" d="M64.19,156.61H82.92a1.49,1.49,0,1,1,0,3H64.19a1.49,1.49,0,1,1,0-3Z"/><path class="cls-31" d="M31,209.33s-.34,1.88-.5,3.74a1.28,1.28,0,0,0,1.23,1.38c2.47.11,7.77.31,9.67.22a.42.42,0,0,0,.37-.57.94.94,0,0,0-.48-.5l-8.75-4Z"/><path class="cls-32" d="M30.7,208.22l.27,2.25a2.8,2.8,0,0,0,2.58-.09l-.63-2.5Z"/><path class="cls-33" d="M30.9,166c-.11.58-.61,29.28,2.45,42.14a.43.43,0,0,1-.25.51,7.77,7.77,0,0,1-2.5.51.77.77,0,0,1-.75-.54c-.87-3-5.08-17.94-5.62-32.22-.62-15.95,0-.54,0-.54l.36-9.86Z"/><path class="cls-34" d="M20.91,210.31a13.46,13.46,0,0,0-1,3.47.78.78,0,0,0,.69.93c.82.08,2.07.19,3.08.18a.77.77,0,0,0,.77-.87,6.61,6.61,0,0,0-1.53-3.61Z"/><path class="cls-35" d="M20.45,207.42l.62,3.39a2.18,2.18,0,0,0,1.83.13l-.29-3.66Z"/><path class="cls-36" d="M18.76,166.86c-2.51,15.14.55,37.42,1.58,41.78a.68.68,0,0,0,.55.52,4.78,4.78,0,0,0,2-.08.63.63,0,0,0,.45-.58c.13-3.52-.11-25.17,2.22-33.72a2,2,0,0,1,.75-1.07l4.54-3.23.35-5.21Z"/><path class="cls-37" d="M34.75,138.17a70.48,70.48,0,0,0-15.82,2c-2.24,13.08-.39,28.16-.39,28.16,5.82,1.53,12.39-.93,12.39-.93,1-5.47,5.48-20.85,5.48-20.85a24.5,24.5,0,0,0,9.19-2.92,16,16,0,0,1-3.18-6.66A25.08,25.08,0,0,1,34.75,138.17Z"/><path class="cls-38" d="M57,127.09a1.45,1.45,0,0,0-1.68-.47c-1.1,4.68-6.9,8.47-12.86,10.32a16,16,0,0,0,3.18,6.66C55.49,138,57,127.09,57,127.09Z"/><path class="cls-39" d="M56.78,127.32c.07.25-.82.62-1.35-.38,0-.48-.31-2.55,0-2.94a38.32,38.32,0,0,1,4.5-4.71.7.7,0,0,1,.09,1l-1.44,1.5a7.06,7.06,0,0,1,.84,1.67,2,2,0,0,1-.2,1.49c-.25.45-.6,1-.92,1.51A2,2,0,0,1,56.78,127.32Z"/><path class="cls-40" d="M57.93,122.75l-1.31,1.11L56.2,125l1.17,1.3a15.54,15.54,0,0,1,.69-2.68C58.35,123.12,58.2,122.89,57.93,122.75Z"/><path class="cls-41" d="M21.82,147.42l-2.89-7.28s-7,4.77-8.17,10.82a16.75,16.75,0,0,1,6.1,1.64C17.38,149.74,21.82,147.42,21.82,147.42Z"/><path class="cls-42" d="M28,154.27s-7.89,4.46-10.55.65a3,3,0,0,1-.55-2.32,16.75,16.75,0,0,0-6.1-1.64,8.31,8.31,0,0,0,.91,5.73c4.66,8.52,17.33-.47,17.33-.47Z"/><path class="cls-43" d="M27,159.91l4.3-15a.44.44,0,0,1,.37-.31c.78-.09,3-.35,5.65-.57a63.94,63.94,0,0,1,9-.3.45.45,0,0,1,.36.64c-1.24,2.5-6.34,12.71-8.89,16a.43.43,0,0,1-.36.17l-10-.09A.44.44,0,0,1,27,159.91Z"/><path class="cls-44" d="M37.78,142.7l3.12-.52a.22.22,0,0,1,.24.29l-.3.93a.22.22,0,0,1-.19.16l-3,.4a.23.23,0,0,1-.25-.28l.19-.81A.22.22,0,0,1,37.78,142.7Z"/><path class="cls-45" d="M35.44,145.34,35.7,144a.3.3,0,0,1,.27-.25l6.3-.64a.31.31,0,0,1,.33.38l-.4,1.67a.32.32,0,0,1-.28.24l-6.16.31A.31.31,0,0,1,35.44,145.34Z"/><path class="cls-46" d="M28.05,156.28a11,11,0,0,1-.36-3.34c.24-.87.71-2,2.27-1.75a23,23,0,0,1,3.41.91.9.9,0,0,1-1.28.77l.73.57s-.1.91-1.11.42l.69.76a.8.8,0,0,1-1.17.27C30.49,154.41,30.14,156.58,28.05,156.28Z"/><path class="cls-47" d="M27.13,132.07,24.74,139a.25.25,0,0,0,.11.3,5.63,5.63,0,0,0,5.84-.39,1.21,1.21,0,0,0,.54-.84l.77-6Z"/><path class="cls-48" d="M32.34,125.66s2.63,4.94,2.29,6.94-3.59,1.86-6.44.23l-2-5.34Z"/><path class="cls-49" d="M28.32,130.21a.21.21,0,0,0,.09-.3,5.09,5.09,0,0,1-.73-1.55s-.48-.3,1.2-.7,4.17-1,4.69-2.45-.83-4.88-3-2.1a.21.21,0,0,1-.33,0,2.1,2.1,0,0,0-2.55-.83,1.91,1.91,0,0,0-1.32,1.86.21.21,0,0,1-.24.21,2.37,2.37,0,0,0-2.75,1.28c-.56,1.23-.2,1.93.14,2.27a.21.21,0,0,1-.09.34,1.22,1.22,0,0,0-.86,1.39c.07,1.29,1.51,1.18,1.92,1.12a.23.23,0,0,1,.19.07,6.93,6.93,0,0,0,3.66,2.24.2.2,0,0,0,.21-.27l-.74-2.16a.21.21,0,0,1,.11-.26Z"/><path class="cls-50" d="M28.62,130.52s-1.87-1.29-2-.2,1.69,1.56,2.59,1.16Z"/><path class="cls-51" d="M159.9,57.44s2,1,2.32,2.05c.29.88,2.46,1,2.67,2.72A2,2,0,0,0,166.55,64c2.22.34,5.63,1.49,6.18,5.34.42,2.93-1.08,4-2.65,4.43a2.24,2.24,0,0,0-1.69,2.57c.23,1.12-.11,2.41-2,3.43C162,82,157.68,74.3,157.68,74.3l-.89-13.46Z"/><path class="cls-52" d="M142.06,49.45s4.05,15.69,13,21.36c0,0-3.66,4.82-5.33,5,0,0-8.82-13.94-8.79-24.64Z"/><path class="cls-53" d="M177.72,141.83l.28,2.31a1,1,0,0,0,.84.83,14.56,14.56,0,0,0,3.09.05.81.81,0,0,0,.68-1.06,8.32,8.32,0,0,0-1.55-3H178.5A.79.79,0,0,0,177.72,141.83Z"/><path class="cls-54" d="M157.68,114.81l-.43,2.54S158.7,132,159,137.86a4.53,4.53,0,0,1-.68,2.61l-2.51,4.09,6.39-3.78.13-.78-1.05-1.43,1.37-16.42a5.06,5.06,0,0,0-.57-2.78l-1.32-2.48Z"/><path class="cls-55" d="M155.34,145.15h2a1.23,1.23,0,0,0,1-.48c.64-.83,2-2.44,2.58-2.48.85-.06.74,3,.74,3h.48l.6-3.75a2.23,2.23,0,0,0-1.16-2.32h0a3.15,3.15,0,0,1-1.25,2.07c-1.05.64-4.27,2.91-4.27,2.91a2.82,2.82,0,0,0-.83,0A.54.54,0,0,0,155.34,145.15Z"/><path class="cls-56" d="M166.44,116s8.47,16.07,9.82,19.74a35.68,35.68,0,0,1,1.83,7c0,.45.59.89,2.15.89a1.48,1.48,0,0,0,1.38-.63.89.89,0,0,0,0-.88c-.49-1-2-4.16-2.62-5.6-.69-1.72-2.17-9.5-3-12.2s-1.73-5.64-5.26-8.34C170.8,116,168.37,113.64,166.44,116Z"/><path class="cls-57" d="M161.08,89.68c-2.18-9.26,3.35-14.5,3.35-14.5-3.49-3.35-9.86-4.88-9.86-4.88s-6.07,4.44-5.35,7.92c.42,2,4.27,12.2,4.27,12.2A8.43,8.43,0,0,0,161.08,89.68Z"/><path class="cls-58" d="M165.93,94.27c-.89-2.68-4.85-4.59-4.85-4.59a8.43,8.43,0,0,1-7.59.74,15.24,15.24,0,0,0-.25,5.89c.55,2.83,4,21,4,21,5.44,1.11,13.81-1.11,13.81-1.11C167.6,110.09,166.82,97,165.93,94.27Z"/><path class="cls-59" d="M158.55,64.18l1.77,8c.17.7-.47.58-1.18.45C158,72.4,156.48,72,156,71a.76.76,0,0,1-.1-.3l-.76-5.53a1,1,0,0,1,.58-1l1.48-.65A1,1,0,0,1,158.55,64.18Z"/><path class="cls-60" d="M156.46,56.58a7.88,7.88,0,0,0-3.53,3.93c-1.44,3.05-.37,4.45,1,4.64a6.27,6.27,0,0,0,5.47-1.8C161.5,61.39,159.2,55.53,156.46,56.58Z"/><path class="cls-61" d="M158,61.73s1.59-4.45-2.36-4.5l-.92.64s-1.45-2.46.92-3.64,5.16-.21,6.17,3,1.18,5.34-.5,6.87-2.37-.21-2.37-.21.91-1.43.54-2.19-1.23.15-1.23.15Z"/><path class="cls-62" d="M158.39,62.22s.81-2.29,1.88-1.38-.87,2.12-1.63,2.51Z"/><path class="cls-63" d="M141.25,52.15c-.11.26.83.77,1.52-.28.07-.52.62-2.75.35-3.21a5.41,5.41,0,0,0-3.21-2.79,7.71,7.71,0,0,0-1.11,1.74,2.2,2.2,0,0,0,.06,1.65c.23.52.54,1.21.85,1.76A2.18,2.18,0,0,0,141.25,52.15Z"/><path class="cls-64" d="M165.42,77.66S149.15,97.5,137,74.89a2.85,2.85,0,0,1-.09-1.41,13.13,13.13,0,0,0-.35-2.68.42.42,0,0,1,.37-.5h0a.56.56,0,0,1,.51.22l2.21,2.82a1.19,1.19,0,0,1-.62,1.41h0a.58.58,0,0,0-.22.88c9.23,12.11,24.68-1.16,25-1C164.8,75.18,166,75.79,165.42,77.66Z"/><path class="cls-65" d="M155,225.51a.67.67,0,0,0,.66-.66v-79a.66.66,0,0,0-1.32,0v79A.66.66,0,0,0,155,225.51Z"/><path class="cls-66" d="M173,225.51a.67.67,0,0,0,.66-.66v-79a.66.66,0,1,0-1.32,0v79A.66.66,0,0,0,173,225.51Z"/><path class="cls-67" d="M217,226a.74.74,0,0,0,.25,0,.65.65,0,0,0,.35-.87l-33.81-79.54a.66.66,0,0,0-.87-.35.67.67,0,0,0-.35.87l33.82,79.54A.65.65,0,0,0,217,226Z"/><path class="cls-68" d="M196.09,226a.8.8,0,0,0,.26,0,.67.67,0,0,0,.35-.87l-33.82-79.54a.66.66,0,0,0-.87-.35.67.67,0,0,0-.35.87l33.82,79.54A.66.66,0,0,0,196.09,226Z"/><path class="cls-69" d="M154,146.54h31a.94.94,0,0,0,.93-.94h0a.93.93,0,0,0-.93-.93H154a.93.93,0,0,0-.93.93h0A.94.94,0,0,0,154,146.54Z"/><path class="cls-70" d="M167.38,158.63h21a.66.66,0,0,0,0-1.32h-21a.66.66,0,0,0,0,1.32Z"/><rect class="cls-71" x="173.81" y="172.35" width="20.95" height="1.32"/><rect class="cls-72" x="180.03" y="187.4" width="20.95" height="1.32"/><path class="cls-73" d="M186.56,203.76h20.95a.66.66,0,0,0,0-1.32H186.56a.66.66,0,0,0,0,1.32Z"/><path class="cls-74" d="M192.87,218.81h20.95a.67.67,0,0,0,0-1.33H192.87a.67.67,0,0,0,0,1.33Z"/><g class="cls-75"><path class="cls-8" d="M87.25,27.9a.79.79,0,0,1,.14-1c.69-.57,1.41-1.13,2.15-1.65a.8.8,0,0,1,1.11.19v0a.8.8,0,0,1-.2,1.09c-.7.49-1.39,1-2,1.57A.79.79,0,0,1,87.3,28,.18.18,0,0,1,87.25,27.9ZM93,24.07A.56.56,0,0,1,93,24a.79.79,0,0,1,.34-1.07q1.22-.62,2.46-1.14a.8.8,0,0,1,1,.44.79.79,0,0,1-.43,1c-.79.33-1.58.69-2.34,1.08A.79.79,0,0,1,93,24.07Zm6.47-2.46a.8.8,0,0,1,.46-1.22c.87-.22,1.76-.41,2.65-.56a.8.8,0,0,1,.26,1.57c-.84.14-1.69.32-2.52.53A.78.78,0,0,1,99.48,21.61Zm6.85-1a.77.77,0,0,1-.13-.42.79.79,0,0,1,.77-.82c.9,0,1.81,0,2.71.05a.79.79,0,1,1-.1,1.58c-.85-.05-1.71-.06-2.57,0A.79.79,0,0,1,106.33,20.65Zm6.9.59a.74.74,0,0,1-.12-.6A.78.78,0,0,1,114,20c.88.18,1.77.39,2.63.64a.8.8,0,1,1-.44,1.53c-.82-.24-1.66-.44-2.5-.61A.77.77,0,0,1,113.23,21.24Zm6.59,2.11a.81.81,0,0,1-.07-.77.79.79,0,0,1,1-.4c.82.37,1.64.77,2.43,1.21a.79.79,0,1,1-.77,1.39c-.75-.42-1.52-.8-2.3-1.15A.73.73,0,0,1,119.82,23.35Zm17.86,23.07a.84.84,0,0,1-.12-.31c-.15-.84-.33-1.69-.54-2.52a.8.8,0,1,1,1.54-.4c.22.87.41,1.77.56,2.65a.79.79,0,0,1-.65.92A.8.8,0,0,1,137.68,46.42Zm-11.9-19.56a.8.8,0,0,1,1.14-1.08c.72.54,1.42,1.12,2.09,1.72a.8.8,0,0,1,.06,1.12.78.78,0,0,1-1.12.06c-.64-.57-1.31-1.12-2-1.63A.81.81,0,0,1,125.78,26.86Zm10,12.91a1,1,0,0,1-.08-.14c-.33-.79-.69-1.58-1.09-2.34a.79.79,0,0,1,1.41-.73c.42.8.8,1.63,1.15,2.46a.79.79,0,0,1-1.39.75Zm-5-8.15a.8.8,0,0,1,.14-1.06.79.79,0,0,1,1.12.1c.58.69,1.14,1.41,1.66,2.14v0a.79.79,0,0,1-1.31.9c-.49-.7-1-1.38-1.57-2Z"/><path class="cls-8" d="M138.11,52a.77.77,0,0,1-.14-.45c0-.41,0-.83,0-1.24a.8.8,0,0,1,.78-.82.79.79,0,0,1,.81.78c0,.43,0,.87,0,1.3a.79.79,0,0,1-1.45.43Z"/></g><g class="cls-75"><path class="cls-8" d="M128.34,74.15a.81.81,0,0,1,.12-1c.3-.28.6-.57.88-.86a.8.8,0,0,1,1.14,1.11c-.31.31-.62.62-.94.91a.79.79,0,0,1-1.12,0Z"/><path class="cls-8" d="M81.54,68.92l-.6-.92a.8.8,0,1,1,1.35-.85c.45.72.93,1.43,1.43,2.09a.81.81,0,0,1-.16,1.12.8.8,0,0,1-1.11-.16C82.14,69.78,81.84,69.35,81.54,68.92ZM79,64.3a1.34,1.34,0,0,1-.06-.12c-.37-.8-.7-1.64-1-2.47a.79.79,0,0,1,.48-1,.8.8,0,0,1,1,.48c.28.79.6,1.58.94,2.35A.79.79,0,0,1,79,64.3Zm6.22,9.06a.8.8,0,0,1,1.23-1c.59.6,1.21,1.17,1.85,1.72a.8.8,0,0,1,.09,1.12.79.79,0,0,1-1.12.09c-.67-.58-1.33-1.19-2-1.81ZM76.86,57.82a.7.7,0,0,1-.12-.28c-.18-.87-.33-1.75-.43-2.63a.8.8,0,1,1,1.58-.19c.1.83.23,1.67.4,2.5a.79.79,0,0,1-.61.94A.8.8,0,0,1,76.86,57.82ZM90.48,77.64a.77.77,0,0,1,0-.87.78.78,0,0,1,1.09-.24c.71.45,1.45.88,2.19,1.27A.79.79,0,0,1,93,79.2c-.78-.41-1.56-.86-2.3-1.34A.61.61,0,0,1,90.48,77.64Zm6.1,3a.77.77,0,0,1-.09-.71.8.8,0,0,1,1-.48c.79.29,1.6.55,2.41.77a.79.79,0,1,1-.41,1.53c-.86-.23-1.71-.5-2.54-.8A.76.76,0,0,1,96.58,80.65Zm6.62,1.62a.76.76,0,0,1-.13-.55A.8.8,0,0,1,104,81c.83.11,1.68.19,2.52.23a.79.79,0,1,1-.07,1.58c-.88,0-1.78-.12-2.66-.23A.79.79,0,0,1,103.2,82.27Zm6.81.13a.84.84,0,0,1-.14-.37.8.8,0,0,1,.72-.87c.84-.07,1.69-.19,2.51-.33a.78.78,0,0,1,.92.64.79.79,0,0,1-.64.92c-.87.15-1.76.27-2.64.35A.78.78,0,0,1,110,82.4ZM116.68,81a.72.72,0,0,1-.09-.2.78.78,0,0,1,.51-1c.79-.26,1.59-.56,2.37-.88a.79.79,0,1,1,.61,1.46c-.81.35-1.65.66-2.49.93A.8.8,0,0,1,116.68,81Zm6.21-2.8,0,0a.81.81,0,0,1,.28-1.09c.54-.31,1.07-.65,1.58-1l.55-.39a.81.81,0,0,1,1.11.19.79.79,0,0,1-.19,1.11l-.58.4c-.54.37-1.1.72-1.66,1A.79.79,0,0,1,122.89,78.23Z"/><path class="cls-8" d="M76.23,51a.81.81,0,0,1-.14-.46c0-.43,0-.87.06-1.3a.79.79,0,1,1,1.58.09c0,.42,0,.83,0,1.24a.79.79,0,0,1-.81.78A.8.8,0,0,1,76.23,51Z"/></g><path class="cls-76" d="M84.47,46.75a.37.37,0,0,0,.14.41l3.66,2.64a19.6,19.6,0,0,0,.64,6.35l-3.07,3.32a.36.36,0,0,0,0,.42l2.56,4.78a.37.37,0,0,0,.39.19l4.46-.72a19.6,19.6,0,0,0,4.94,4l.18,4.52a.36.36,0,0,0,.26.34l5.19,1.56a.37.37,0,0,0,.41-.14l2.64-3.66a19.6,19.6,0,0,0,6.35-.64l3.32,3.07a.38.38,0,0,0,.43,0l4.77-2.56a.37.37,0,0,0,.19-.39l-.72-4.46a19.6,19.6,0,0,0,4-4.94l4.52-.18a.36.36,0,0,0,.34-.26l1.56-5.19a.37.37,0,0,0-.14-.41l-3.66-2.64a19.6,19.6,0,0,0-.64-6.35l3.07-3.32a.38.38,0,0,0,0-.43l-2.56-4.77a.37.37,0,0,0-.39-.19l-4.46.72a19.6,19.6,0,0,0-4.94-4l-.18-4.52a.36.36,0,0,0-.26-.34l-5.19-1.56a.38.38,0,0,0-.41.13l-2.64,3.67a19.6,19.6,0,0,0-6.35.64l-3.32-3.07a.35.35,0,0,0-.42-.05l-4.78,2.56a.37.37,0,0,0-.19.39l.72,4.46a19.42,19.42,0,0,0-4,4.94l-4.52.18a.36.36,0,0,0-.34.26Z"/><g class="cls-77"><path class="cls-8" d="M103.52,54.07a5.45,5.45,0,0,1,8.54-6.73,5.46,5.46,0,0,1-.34,7.7,5.45,5.45,0,0,1-7.7-.35A5.66,5.66,0,0,1,103.52,54.07Zm8-5.38a4.41,4.41,0,0,0-.39-.49,4.18,4.18,0,1,0,1.09,3A4.14,4.14,0,0,0,111.51,48.69Z"/></g><path class="cls-78" d="M97.06,58.56c-.25-.38-.49-.77-.71-1.18h0c-.07-.12-.14-.25-.2-.38a13.24,13.24,0,0,1-.8-2v0l0-.08s0-.11,0-.16a.32.32,0,0,1,.13-.35l.09,0a.31.31,0,0,1,.39.22,13,13,0,0,0,1,2.51,12.77,12.77,0,0,0,17.28,5.21c.39-.21.77-.44,1.13-.68A12.8,12.8,0,0,0,119.4,45a12.79,12.79,0,0,0-17.29-5.2,12.58,12.58,0,0,0-1.11.67,12.8,12.8,0,0,0-3.8,4,.24.24,0,0,1-.1.1.3.3,0,0,1-.34,0,.31.31,0,0,1-.11-.43,13.36,13.36,0,0,1,4-4.23c.37-.25.76-.48,1.16-.7A13.39,13.39,0,0,1,121,54.91a13.29,13.29,0,0,1-5.31,7.22,12.81,12.81,0,0,1-1.18.72,13.41,13.41,0,0,1-17.43-4.29Z"/><g class="cls-75"><path class="cls-79" d="M54.72,17.15a.5.5,0,0,1,0-.59c.27-.32.55-.64.83-.94a.48.48,0,0,1,.69,0,.49.49,0,0,1,0,.69c-.27.29-.54.59-.79.9a.48.48,0,0,1-.69.06A.47.47,0,0,1,54.72,17.15Z"/><path class="cls-79" d="M57.39,14.48a.5.5,0,0,1,.09-.66,21.41,21.41,0,0,1,1.72-1.29l.38-.25a.5.5,0,0,1,.68.14.5.5,0,0,1-.14.68l-.37.24a19.59,19.59,0,0,0-1.64,1.24.5.5,0,0,1-.69-.06Zm4.28-2.77,0-.06a.49.49,0,0,1,.23-.65,19.51,19.51,0,0,1,2.42-1,.49.49,0,0,1,.62.3.48.48,0,0,1-.31.62,21,21,0,0,0-2.3,1A.49.49,0,0,1,61.67,11.71Zm4.82-1.64a.51.51,0,0,1-.07-.17.48.48,0,0,1,.38-.58A20.44,20.44,0,0,1,69.39,9a.5.5,0,0,1,.53.45.49.49,0,0,1-.45.53,18.59,18.59,0,0,0-2.47.35A.5.5,0,0,1,66.49,10.07Zm5.08-.4a.44.44,0,0,1-.08-.3A.48.48,0,0,1,72,8.91a20.64,20.64,0,0,1,2.6.27.49.49,0,0,1,.4.57.5.5,0,0,1-.57.4A18.46,18.46,0,0,0,72,9.89.54.54,0,0,1,71.57,9.67Zm5,.85a.51.51,0,0,1-.07-.42.5.5,0,0,1,.61-.33,21.11,21.11,0,0,1,2.45.9.49.49,0,1,1-.39.9,21.1,21.1,0,0,0-2.34-.86A.46.46,0,0,1,76.6,10.52Zm4.66,2a.5.5,0,0,1,.66-.7,24.16,24.16,0,0,1,2.16,1.47.5.5,0,0,1-.61.78,19,19,0,0,0-2-1.4A.46.46,0,0,1,81.26,12.56Zm4,3.12a.51.51,0,0,1,.06-.62.5.5,0,0,1,.7,0,22.94,22.94,0,0,1,1.73,2,.5.5,0,0,1-.08.69.49.49,0,0,1-.69-.08,19.63,19.63,0,0,0-1.66-1.87ZM89.6,22a.2.2,0,0,1,0-.08,19.54,19.54,0,0,0-1-1.93c0-.09-.11-.18-.16-.28a.49.49,0,1,1,.84-.5c.06.1.12.19.17.29a20.36,20.36,0,0,1,1,2,.49.49,0,0,1-.85.47Z"/></g><g class="cls-75"><path class="cls-79" d="M53.68,42.18a.49.49,0,0,1,.12-.68.5.5,0,0,1,.69.12A20,20,0,0,0,56,43.55a.48.48,0,0,1,0,.69.49.49,0,0,1-.69,0,19.63,19.63,0,0,1-1.59-2ZM52.37,40l0,0a22.43,22.43,0,0,1-1.07-2.34.48.48,0,0,1,.28-.63.49.49,0,0,1,.64.28,20.3,20.3,0,0,0,1,2.23.48.48,0,0,1-.2.66A.49.49,0,0,1,52.37,40ZM57,45.92a.5.5,0,0,1,0-.6.49.49,0,0,1,.69,0,23.34,23.34,0,0,0,1.94,1.5.49.49,0,1,1-.55.81,19.37,19.37,0,0,1-2-1.58ZM50.58,35.35a.41.41,0,0,1-.07-.15A19.76,19.76,0,0,1,50,32.67a.5.5,0,0,1,.43-.55.49.49,0,0,1,.54.43A19.67,19.67,0,0,0,51.46,35a.49.49,0,0,1-.36.6A.49.49,0,0,1,50.58,35.35ZM61.15,48.74a.49.49,0,0,1,.63-.71A21.19,21.19,0,0,0,64,49a.48.48,0,0,1,.29.63.48.48,0,0,1-.63.29,22.37,22.37,0,0,1-2.35-1A.55.55,0,0,1,61.15,48.74Zm4.7,1.75a.45.45,0,0,1-.07-.39.48.48,0,0,1,.59-.36,19.59,19.59,0,0,0,2.41.42.49.49,0,0,1,.43.55.49.49,0,0,1-.54.43,21.61,21.61,0,0,1-2.53-.45A.47.47,0,0,1,65.85,50.49Zm5,.57a.44.44,0,0,1-.09-.27.49.49,0,0,1,.49-.49,20,20,0,0,0,2.45-.17.51.51,0,0,1,.55.42.49.49,0,0,1-.43.55,21.87,21.87,0,0,1-2.56.18A.5.5,0,0,1,70.83,51.06Z"/><path class="cls-79" d="M50,30.35a.42.42,0,0,1-.09-.27c0-.42,0-.84,0-1.25a.49.49,0,0,1,.52-.46.48.48,0,0,1,.46.51q0,.6,0,1.2a.51.51,0,0,1-.5.49A.46.46,0,0,1,50,30.35Z"/></g><path class="cls-80" d="M55.45,27.15a.25.25,0,0,0,.09.27L58,29.19a13,13,0,0,0,.42,4.24l-2.05,2.22a.26.26,0,0,0,0,.29l1.72,3.2a.24.24,0,0,0,.26.12l3-.48a13.16,13.16,0,0,0,3.31,2.7l.12,3a.24.24,0,0,0,.17.23l3.48,1.05a.24.24,0,0,0,.27-.1l1.77-2.45a13.09,13.09,0,0,0,4.25-.43l2.22,2.05a.23.23,0,0,0,.28,0l3.2-1.72a.26.26,0,0,0,.13-.25l-.49-3a13.08,13.08,0,0,0,2.7-3.3l3-.12a.26.26,0,0,0,.23-.18l1-3.47a.26.26,0,0,0-.1-.28l-2.45-1.76A13.34,13.34,0,0,0,84,26.57l2-2.22a.26.26,0,0,0,0-.29L84.4,20.87a.24.24,0,0,0-.26-.13l-3,.48a13.3,13.3,0,0,0-3.3-2.7l-.12-3a.26.26,0,0,0-.18-.23l-3.47-1a.24.24,0,0,0-.27.09L72,16.77a13.35,13.35,0,0,0-4.25.43l-2.22-2a.26.26,0,0,0-.29,0l-3.19,1.72a.25.25,0,0,0-.13.26l.49,3a13,13,0,0,0-2.7,3.31l-3,.12a.23.23,0,0,0-.22.17Z"/><path class="cls-81" d="M68.14,32.07a3.73,3.73,0,0,1,.58-4.81,3.71,3.71,0,1,1-.24,5.24A3.57,3.57,0,0,1,68.14,32.07Zm5.35-3.6c-.08-.1-.16-.21-.25-.31A2.73,2.73,0,0,0,69.38,28a2.73,2.73,0,0,0-.17,3.85h0a2.69,2.69,0,0,0,1.89.89,2.73,2.73,0,0,0,2.39-4.26Z"/><path class="cls-81" d="M63.64,35.2q-.26-.39-.48-.81a9.12,9.12,0,0,1-.72-1.74l0-.08a.49.49,0,0,1,.2-.54.61.61,0,0,1,.14-.07.5.5,0,0,1,.61.34A8.19,8.19,0,0,0,64,33.93h0l0,.08a8.18,8.18,0,0,0,2.76,3,8.29,8.29,0,0,0,2,.94h0l.06,0a8.21,8.21,0,0,0,6.29-.63c.25-.14.49-.29.73-.44a8.26,8.26,0,0,0-8.55-14.12c-.25.13-.49.28-.72.43a8.29,8.29,0,0,0-2.46,2.61.54.54,0,0,1-.15.15.48.48,0,0,1-.53,0,.5.5,0,0,1-.17-.68,9.35,9.35,0,0,1,2.76-2.91c.26-.18.53-.34.8-.49a9.25,9.25,0,0,1,9.57,15.8,8.45,8.45,0,0,1-.82.49A9.26,9.26,0,0,1,63.64,35.2Z"/><path class="cls-82" d="M111.52,162.7c0,.08-2.85,2.15-2.85,2.15s.62,4.42,3.14,6.17c2.76,1.92,6.66-1.58,6.66-1.58s3.11.74,4.76-5.73c.38-1.48-1.81-1.61-4.45-1.33C115.38,162.73,111.52,162.7,111.52,162.7Z"/><path class="cls-83" d="M106.28,177.8a11.94,11.94,0,0,1,3.6-1.67c.48-.13,3.08.63,4.7.59,2.21-.05,4.46-1.06,6.28-.6a13.15,13.15,0,0,1,4.15,1.65c2.56,1.82,4.06,5.22,5,8.58a11.66,11.66,0,0,1-3.92,2.57l-.4,16.36L116,210.22l-11-5.54.4-16s-3.51-1.63-3.77-2.22S103.19,179.93,106.28,177.8Z"/><path class="cls-84" d="M101.76,186.4s-4.7,13,6,18.38c2.22-.3,1.37-4,1.37-4s-4.65-1-3.26-11.89A29.92,29.92,0,0,0,101.76,186.4Z"/><path class="cls-85" d="M129.76,186.4s3.24,13.6-6,18.38c-2.22-.3-1.37-4-1.37-4s3.75-1.85,3.26-11.89A30.55,30.55,0,0,1,129.76,186.4Z"/><rect class="cls-86" x="104.83" y="191.37" width="21.21" height="14.32" rx="4.05"/><path class="cls-87" d="M135.34,209.94c-2.43-.56-8-.26-8-.26l-.22.62-.38,3.07a64.3,64.3,0,0,0,8,1,2.45,2.45,0,0,0,.74-.11,2.5,2.5,0,0,0,.23-.23A2.89,2.89,0,0,0,135.34,209.94Z"/><path class="cls-88" d="M135.58,210l-.24-.06a2.89,2.89,0,0,1,.3,4.05,2.5,2.5,0,0,1-.23.23C137.39,213.6,137.62,210.57,135.58,210Z"/><path class="cls-89" d="M125.69,209.51l1,0a1.85,1.85,0,0,1,1.34.69,2.26,2.26,0,0,1,.49,1.54A1.78,1.78,0,0,1,128,213a1.42,1.42,0,0,1-1.11.42l-1.45-.1Z"/><path class="cls-90" d="M93.76,209.64c2.44-.48,8,0,8,0l.22.63.3,3.08a62.84,62.84,0,0,1-8,.71,2.37,2.37,0,0,1-.73-.13,2.5,2.5,0,0,1-.23-.23A2.89,2.89,0,0,1,93.76,209.64Z"/><path class="cls-91" d="M93.51,209.7l.25-.06a2.89,2.89,0,0,0-.41,4.05,2.5,2.5,0,0,0,.23.23C91.62,213.24,91.46,210.21,93.51,209.7Z"/><path class="cls-92" d="M103.41,209.51h-1a1.82,1.82,0,0,0-1.35.65,2.29,2.29,0,0,0-.53,1.52,1.78,1.78,0,0,0,.49,1.19,1.45,1.45,0,0,0,1.1.46l1.45-.06Z"/><path class="cls-93" d="M136,200.31c-1.1-2.53-3.79-2.94-6.08-1.76,0,0-14.55,7.49-27.35,10.75a14.07,14.07,0,0,1,.6,3.65c0,.27,0,.54,0,.81,9.82-.5,20.46-3.78,29.62-6.65A5.06,5.06,0,0,0,136,200.31Z"/><path class="cls-94" d="M125.76,213.14a8.41,8.41,0,0,1,.83-3.95,1.09,1.09,0,0,1,0-.17c-.73-.22-1.67-.53-2.91-1a140.42,140.42,0,0,1-22.64-9.86c-2.57-1.41-5.49-.47-6.31,2.58a4.76,4.76,0,0,0,3.33,5.84c7.32,2.44,3.51,1.76,5.9,2.53a99.52,99.52,0,0,0,21.77,4.29C125.77,213.35,125.77,213.25,125.76,213.14Z"/><path class="cls-95" d="M109.88,176.13a5.59,5.59,0,0,0,5.72,4.15c4.83-.09,5.26-4.16,5.26-4.16l-3.16-.68-.26-3.51-4.75.35-.09,3.34Z"/><path class="cls-96" d="M113.36,162s-5.44,10.54,1,13.1c4.56,1.8,7.41-7,6.56-9.39-1.32-3.68-2.19-3.24-2.19-3.24Z"/><path class="cls-97" d="M122.24,161c2.69.74.39,6.57-3.66,5.19s-5.64-1.36-6.27-.25-.76,5.06-2.13,3.11c-1.5-2.14-2.34-6.43-.5-7.81,1.65-1.24,2-3.16,4-3.09,2.62.09,4.64-1.07,5.82-.24C120.86,158.87,120.26,160.46,122.24,161Z"/><path class="cls-98" d="M112.06,166.85s-1.16-1.25-1.34.26.41,3.44,1.11,2.38A3.62,3.62,0,0,0,112.06,166.85Z"/><path class="cls-99" d="M116.69,195.25a1.3,1.3,0,0,1-1.06,1.56,1.4,1.4,0,0,1-1.58-1.17,1.33,1.33,0,0,1,1-1.63A1.51,1.51,0,0,1,116.69,195.25Z"/></g></g></svg>