<svg width="85" height="86" viewBox="0 0 85 86" fill="none" xmlns="http://www.w3.org/2000/svg">
<g id="White Default">
<rect x="0.21106" y="0.382812" width="84.797" height="84.797" rx="30.5968" fill="white"/>
<g id="Artboard">
<path id="Path" fill-rule="evenodd" clip-rule="evenodd" d="M19.6433 40.685C32.941 34.8914 41.8083 31.0719 46.245 29.2265C58.9128 23.9575 61.5451 23.0423 63.2607 23.012C63.6381 23.0054 64.4818 23.0989 65.0283 23.5424C65.4898 23.9168 65.6168 24.4227 65.6775 24.7777C65.7383 25.1327 65.8139 25.9415 65.7538 26.5734C65.0673 33.7862 62.097 51.2899 60.5858 59.3684C59.9464 62.7867 58.6874 63.9328 57.4684 64.045C54.8195 64.2887 52.808 62.2944 50.2424 60.6126C46.2276 57.9809 43.9596 56.3426 40.0626 53.7746C35.5589 50.8067 38.4785 49.1755 41.0451 46.5098C41.7168 45.8121 53.3881 35.1961 53.614 34.2331C53.6423 34.1126 53.6685 33.6637 53.4018 33.4266C53.1351 33.1895 52.7414 33.2706 52.4573 33.3351C52.0547 33.4265 45.6411 37.6656 33.2166 46.0525C31.3961 47.3026 29.7472 47.9116 28.2698 47.8797C26.6411 47.8445 23.5082 46.9588 21.1792 46.2017C18.3225 45.2732 16.0521 44.7822 16.2498 43.2052C16.3528 42.3838 17.4839 41.5437 19.6433 40.685Z" fill="url(#paint0_linear_2126_244)"/>
</g>
</g>
<defs>
<linearGradient id="paint0_linear_2126_244" x1="64.9547" y1="23.2854" x2="37.9506" y2="52.6615" gradientUnits="userSpaceOnUse">
<stop stop-color="#2AABEE"/>
<stop offset="1" stop-color="#229ED9"/>
</linearGradient>
</defs>
</svg>
