<svg xmlns="http://www.w3.org/2000/svg" xmlns:xlink="http://www.w3.org/1999/xlink" width="400" height="400" viewBox="0 0 400 400">
  <defs>
    <style>
      .cls-1 {
        isolation: isolate;
      }

      .cls-2, .cls-3 {
        fill: #25b5df;
        mix-blend-mode: multiply;
      }

      .cls-10, .cls-2 {
        opacity: 0.3;
      }

      .cls-2 {
        filter: url(#filter);
      }

      .cls-18, .cls-19, .cls-4 {
        fill: #fff;
      }

      .cls-4 {
        mix-blend-mode: soft-light;
      }

      .cls-5 {
        fill: url(#Безымянный_градиент_4);
      }

      .cls-6 {
        fill: url(#_24);
      }

      .cls-7 {
        fill: url(#_24-2);
      }

      .cls-8 {
        fill: url(#Безымянный_градиент_27);
      }

      .cls-9 {
        fill: url(#linear-gradient);
      }

      .cls-11 {
        fill: url(#linear-gradient-2);
      }

      .cls-12 {
        fill: url(#linear-gradient-3);
      }

      .cls-13 {
        fill: url(#linear-gradient-4);
      }

      .cls-14 {
        fill: url(#linear-gradient-5);
      }

      .cls-15 {
        fill: url(#linear-gradient-6);
      }

      .cls-16 {
        fill: url(#linear-gradient-7);
      }

      .cls-17, .cls-19 {
        opacity: 0.5;
      }

      .cls-20 {
        fill: url(#linear-gradient-8);
      }

      .cls-21 {
        fill: url(#linear-gradient-9);
      }

      .cls-22 {
        fill: url(#linear-gradient-10);
      }

      .cls-23 {
        fill: url(#linear-gradient-11);
      }

      .cls-24 {
        fill: url(#linear-gradient-12);
      }

      .cls-25 {
        fill: url(#linear-gradient-13);
      }

      .cls-26 {
        fill: url(#linear-gradient-14);
      }

      .cls-27 {
        fill: url(#linear-gradient-15);
      }

      .cls-28 {
        fill: url(#linear-gradient-16);
      }

      .cls-29 {
        fill: url(#linear-gradient-17);
      }

      .cls-30 {
        fill: url(#linear-gradient-18);
      }

      .cls-31 {
        fill: url(#linear-gradient-19);
      }

      .cls-32 {
        fill: url(#linear-gradient-20);
      }

      .cls-33 {
        fill: url(#linear-gradient-21);
      }

      .cls-34 {
        fill: url(#linear-gradient-22);
      }

      .cls-35 {
        fill: url(#linear-gradient-23);
      }

      .cls-36 {
        fill: url(#linear-gradient-24);
      }

      .cls-37 {
        fill: url(#linear-gradient-25);
      }

      .cls-38 {
        fill: url(#linear-gradient-26);
      }

      .cls-39 {
        fill: url(#linear-gradient-27);
      }

      .cls-40 {
        fill: url(#linear-gradient-28);
      }

      .cls-41 {
        fill: url(#linear-gradient-29);
      }

      .cls-42 {
        fill: url(#linear-gradient-30);
      }

      .cls-43 {
        fill: url(#linear-gradient-31);
      }

      .cls-44 {
        fill: url(#linear-gradient-32);
      }

      .cls-45 {
        fill: url(#linear-gradient-33);
      }

      .cls-46 {
        opacity: 0.58;
        fill: url(#linear-gradient-34);
      }

      .cls-47 {
        fill: url(#linear-gradient-35);
      }

      .cls-48 {
        fill: url(#linear-gradient-36);
      }

      .cls-49 {
        fill: url(#linear-gradient-37);
      }

      .cls-50 {
        fill: url(#linear-gradient-38);
      }

      .cls-51 {
        fill: url(#linear-gradient-39);
      }

      .cls-52 {
        fill: url(#Безымянный_градиент_5);
      }

      .cls-53 {
        fill: url(#Безымянный_градиент_5-2);
      }

      .cls-54 {
        fill: url(#linear-gradient-40);
      }

      .cls-55 {
        fill: url(#linear-gradient-41);
      }

      .cls-56 {
        fill: url(#linear-gradient-42);
      }

      .cls-57 {
        fill: url(#linear-gradient-43);
      }

      .cls-58 {
        fill: url(#linear-gradient-44);
      }

      .cls-59 {
        fill: url(#linear-gradient-45);
      }

      .cls-60 {
        stroke-miterlimit: 33.89;
        fill: url(#linear-gradient-46);
        stroke: url(#Безымянный_градиент_96);
      }

      .cls-61 {
        fill: url(#linear-gradient-47);
      }

      .cls-62 {
        fill: url(#linear-gradient-48);
      }

      .cls-63 {
        fill: url(#linear-gradient-49);
      }

      .cls-64 {
        fill: url(#linear-gradient-50);
      }

      .cls-65 {
        fill: url(#linear-gradient-51);
      }

      .cls-66 {
        fill: url(#linear-gradient-52);
      }

      .cls-67 {
        fill: url(#linear-gradient-53);
      }

      .cls-68 {
        fill: url(#linear-gradient-54);
      }

      .cls-69 {
        fill: url(#linear-gradient-55);
      }

      .cls-70 {
        fill: url(#linear-gradient-56);
      }

      .cls-71 {
        fill: url(#linear-gradient-57);
      }

      .cls-72 {
        fill: url(#linear-gradient-58);
      }
    </style>
    <filter id="filter" x="28.86" y="247.08" width="362.16" height="136.08" filterUnits="userSpaceOnUse">
      <feOffset dx="10" dy="10" input="SourceAlpha"/>
      <feGaussianBlur stdDeviation="7" result="blur"/>
      <feFlood/>
      <feComposite operator="in" in2="blur"/>
      <feComposite in="SourceGraphic"/>
    </filter>
    <linearGradient id="Безымянный_градиент_4" data-name="Безымянный градиент 4" x1="101.77" y1="82.67" x2="153.71" y2="322.03" gradientUnits="userSpaceOnUse">
      <stop offset="0" stop-color="#3cc"/>
      <stop offset="0.41" stop-color="#f2bfff"/>
      <stop offset="0.96" stop-color="#f2bfff"/>
    </linearGradient>
    <linearGradient id="_24" data-name="  24" x1="236.89" y1="181.06" x2="510.13" y2="182.19" gradientUnits="userSpaceOnUse">
      <stop offset="0" stop-color="#53d8ff"/>
      <stop offset="0.75" stop-color="#3840f7"/>
    </linearGradient>
    <linearGradient id="_24-2" x1="175.19" y1="181.24" x2="332.13" y2="181.24" xlink:href="#_24"/>
    <linearGradient id="Безымянный_градиент_27" data-name="Безымянный градиент 27" x1="57.32" y1="140.12" x2="159.73" y2="167.79" gradientUnits="userSpaceOnUse">
      <stop offset="0" stop-color="#53d8ff"/>
      <stop offset="1" stop-color="#4070fa"/>
    </linearGradient>
    <linearGradient id="linear-gradient" x1="69.43" y1="101.07" x2="95.4" y2="122.53" gradientUnits="userSpaceOnUse">
      <stop offset="0" stop-color="#53d8ff"/>
      <stop offset="1" stop-color="#3840f7"/>
    </linearGradient>
    <linearGradient id="linear-gradient-2" x1="265.43" y1="68.88" x2="305.63" y2="68.88" gradientUnits="userSpaceOnUse">
      <stop offset="0" stop-color="#ffc444"/>
      <stop offset="1" stop-color="#f36f56"/>
    </linearGradient>
    <linearGradient id="linear-gradient-3" x1="308.16" y1="51.32" x2="310.94" y2="51.32" xlink:href="#linear-gradient-2"/>
    <linearGradient id="linear-gradient-4" x1="325.45" y1="68.87" x2="327.5" y2="68.87" xlink:href="#linear-gradient-2"/>
    <linearGradient id="linear-gradient-5" x1="287.67" y1="92.35" x2="329.33" y2="92.35" xlink:href="#linear-gradient-2"/>
    <linearGradient id="linear-gradient-6" x1="282.52" y1="108.07" x2="285.27" y2="108.07" xlink:href="#linear-gradient-2"/>
    <linearGradient id="linear-gradient-7" x1="273.25" y1="79.75" x2="321.47" y2="79.75" xlink:href="#linear-gradient-2"/>
    <linearGradient id="linear-gradient-8" x1="243.61" y1="114.39" x2="245.13" y2="114.39" xlink:href="#linear-gradient-2"/>
    <linearGradient id="linear-gradient-9" x1="241.88" y1="98.04" x2="263.53" y2="98.04" xlink:href="#linear-gradient-2"/>
    <linearGradient id="linear-gradient-10" x1="256.83" y1="118.81" x2="283.75" y2="118.81" xlink:href="#linear-gradient-2"/>
    <linearGradient id="linear-gradient-11" x1="253.32" y1="124.37" x2="255.42" y2="124.37" xlink:href="#linear-gradient-2"/>
    <linearGradient id="linear-gradient-12" x1="247.07" y1="105.34" x2="279.33" y2="105.34" xlink:href="#linear-gradient-2"/>
    <linearGradient id="linear-gradient-13" x1="176.04" y1="192.89" x2="178.86" y2="191.92" gradientTransform="translate(3.68 -5.02) rotate(0.04)" gradientUnits="userSpaceOnUse">
      <stop offset="0" stop-color="#febbba"/>
      <stop offset="1" stop-color="#ff928e"/>
    </linearGradient>
    <linearGradient id="linear-gradient-14" x1="195.95" y1="198.17" x2="237.22" y2="153.18" gradientTransform="translate(3.68 -5.02) rotate(0.04)" xlink:href="#linear-gradient"/>
    <linearGradient id="linear-gradient-15" x1="269.43" y1="213.51" x2="246.53" y2="184.89" xlink:href="#linear-gradient"/>
    <linearGradient id="linear-gradient-16" x1="-1050.68" y1="161.77" x2="-1054.9" y2="149.1" gradientTransform="translate(1290.1)" xlink:href="#linear-gradient-13"/>
    <linearGradient id="linear-gradient-17" x1="227.62" y1="140.11" x2="242.6" y2="146.62" gradientTransform="matrix(1, 0, 0, 1, 0, 0)" xlink:href="#linear-gradient-13"/>
    <linearGradient id="linear-gradient-18" x1="15334.34" y1="9580.46" x2="15352.45" y2="9580.46" gradientTransform="matrix(-0.69, -0.73, -0.73, 0.69, 17724.17, 4747.63)" gradientUnits="userSpaceOnUse">
      <stop offset="0" stop-color="#09005d"/>
      <stop offset="1" stop-color="#1a0f91"/>
    </linearGradient>
    <linearGradient id="linear-gradient-19" x1="226.67" y1="142.32" x2="241.7" y2="148.85" gradientTransform="matrix(1, 0, 0, 1, 0, 0)" xlink:href="#linear-gradient-13"/>
    <linearGradient id="linear-gradient-20" x1="12278.61" y1="303.1" x2="12297.29" y2="303.1" gradientTransform="matrix(-1, 0, 0, 1, 12534.76, 0)" gradientUnits="userSpaceOnUse">
      <stop offset="0" stop-color="#4f52ff"/>
      <stop offset="1" stop-color="#4042e2"/>
    </linearGradient>
    <linearGradient id="linear-gradient-21" x1="301.28" y1="285.56" x2="233.58" y2="304.85" gradientTransform="matrix(1, 0, 0, 1, 0, 0)" xlink:href="#linear-gradient-18"/>
    <linearGradient id="linear-gradient-22" x1="12280.33" y1="294.2" x2="12285.6" y2="294.2" gradientTransform="matrix(-1, 0, 0, 1, 12534.76, 0)" xlink:href="#linear-gradient-13"/>
    <linearGradient id="linear-gradient-23" x1="12241.35" y1="302.69" x2="12248.51" y2="302.69" xlink:href="#linear-gradient-20"/>
    <linearGradient id="linear-gradient-24" x1="263.4" y1="281.53" x2="305.8" y2="309.14" gradientTransform="matrix(1, 0, 0, 1, 0, 0)" xlink:href="#linear-gradient-18"/>
    <linearGradient id="linear-gradient-25" x1="12246.87" y1="289.76" x2="12253.16" y2="289.76" gradientTransform="matrix(-1, 0, 0, 1, 12534.76, 0)" xlink:href="#linear-gradient-13"/>
    <linearGradient id="linear-gradient-26" x1="9912.69" y1="298.87" x2="10009.56" y2="164.94" gradientTransform="matrix(-1, 0, 0, 1, 10201.76, 0)" xlink:href="#linear-gradient-18"/>
    <linearGradient id="linear-gradient-27" x1="262.87" y1="253.34" x2="258.7" y2="230.61" xlink:href="#linear-gradient-2"/>
    <linearGradient id="linear-gradient-28" x1="236.54" y1="233.07" x2="280.34" y2="233.07" xlink:href="#linear-gradient-2"/>
    <linearGradient id="linear-gradient-29" x1="-1560.76" y1="120.36" x2="-1561.02" y2="114.01" gradientTransform="translate(1780.84 -100.15) rotate(-7.3)" xlink:href="#linear-gradient-2"/>
    <linearGradient id="linear-gradient-30" x1="-1561.08" y1="110.81" x2="-1559.77" y2="129.07" gradientTransform="translate(1780.84 -100.15) rotate(-7.3)" xlink:href="#linear-gradient-2"/>
    <linearGradient id="linear-gradient-31" x1="-1543.23" y1="119.6" x2="-1543.49" y2="113.25" gradientTransform="translate(1780.84 -100.15) rotate(-7.3)" xlink:href="#linear-gradient-2"/>
    <linearGradient id="linear-gradient-32" x1="-1543.6" y1="109.5" x2="-1542.29" y2="127.76" gradientTransform="translate(1780.84 -100.15) rotate(-7.3)" xlink:href="#linear-gradient-2"/>
    <linearGradient id="linear-gradient-33" x1="-1550.78" y1="100.62" x2="-1552.55" y2="113.63" gradientTransform="translate(1780.84 -100.15) rotate(-7.3)" xlink:href="#linear-gradient-2"/>
    <linearGradient id="linear-gradient-34" x1="245.03" y1="207.02" x2="251.18" y2="207.02" xlink:href="#linear-gradient-2"/>
    <linearGradient id="linear-gradient-35" x1="257.7" y1="244.1" x2="257.5" y2="221.48" xlink:href="#linear-gradient-2"/>
    <linearGradient id="linear-gradient-36" x1="235.46" y1="221.36" x2="279.47" y2="221.36" xlink:href="#linear-gradient-2"/>
    <linearGradient id="linear-gradient-37" x1="257.29" y1="236.21" x2="259.45" y2="226.2" xlink:href="#linear-gradient-2"/>
    <linearGradient id="linear-gradient-38" x1="-1555.26" y1="134.18" x2="-1547.9" y2="134.18" gradientTransform="translate(1780.84 -100.15) rotate(-7.3)" xlink:href="#linear-gradient-2"/>
    <linearGradient id="linear-gradient-39" x1="263.22" y1="192.66" x2="248.83" y2="220.33" gradientTransform="matrix(1, 0, 0, 1, 0, 0)" xlink:href="#linear-gradient-13"/>
    <linearGradient id="Безымянный_градиент_5" data-name="Безымянный градиент 5" x1="223.88" y1="216.43" x2="265.42" y2="171.15" gradientUnits="userSpaceOnUse">
      <stop offset="0" stop-color="#53d8ff"/>
      <stop offset="1" stop-color="#527df7"/>
    </linearGradient>
    <linearGradient id="Безымянный_градиент_5-2" x1="254.18" y1="172.39" x2="263.83" y2="134.36" xlink:href="#Безымянный_градиент_5"/>
    <linearGradient id="linear-gradient-40" x1="-1160.53" y1="298.12" x2="-1148.27" y2="298.12" gradientTransform="translate(1290.1)" xlink:href="#linear-gradient-18"/>
    <linearGradient id="linear-gradient-41" x1="-1129.82" y1="283.71" x2="-1174.45" y2="318.75" gradientTransform="translate(1290.1)" xlink:href="#linear-gradient-20"/>
    <linearGradient id="linear-gradient-42" x1="-1157.11" y1="283.97" x2="-1159.48" y2="304.68" gradientTransform="translate(1290.1)" xlink:href="#linear-gradient-13"/>
    <linearGradient id="linear-gradient-43" x1="-1121.91" y1="293.79" x2="-1166.53" y2="328.83" gradientTransform="translate(1290.1)" xlink:href="#linear-gradient-20"/>
    <linearGradient id="linear-gradient-44" x1="-1141.86" y1="298.43" x2="-1124.21" y2="298.43" gradientTransform="translate(1290.1)" xlink:href="#linear-gradient-18"/>
    <linearGradient id="linear-gradient-45" x1="-726.85" y1="-73.98" x2="-729.22" y2="-53.26" gradientTransform="translate(881.79 314.27) rotate(-3.61)" xlink:href="#linear-gradient-13"/>
    <linearGradient id="linear-gradient-46" x1="153.18" y1="208.31" x2="113.58" y2="333.65" gradientUnits="userSpaceOnUse">
      <stop offset="0" stop-color="#311944"/>
      <stop offset="1" stop-color="#893976"/>
    </linearGradient>
    <linearGradient id="Безымянный_градиент_96" data-name="Безымянный градиент 96" x1="123.56" y1="250.26" x2="155.19" y2="250.26" gradientUnits="userSpaceOnUse">
      <stop offset="0" stop-color="#893976"/>
      <stop offset="1" stop-color="#311944"/>
    </linearGradient>
    <linearGradient id="linear-gradient-47" x1="116.59" y1="217.92" x2="161.47" y2="162.86" xlink:href="#linear-gradient-2"/>
    <linearGradient id="linear-gradient-48" x1="137.41" y1="157.23" x2="153.76" y2="147.5" gradientTransform="matrix(1, 0, 0, 1, 0, 0)" xlink:href="#linear-gradient-13"/>
    <linearGradient id="linear-gradient-49" x1="155.27" y1="150.64" x2="145.68" y2="136.55" gradientTransform="matrix(1, 0, 0, 1, 0, 0)" xlink:href="#linear-gradient-13"/>
    <linearGradient id="linear-gradient-50" x1="137.49" y1="126.05" x2="151.09" y2="141.98" gradientTransform="matrix(1, 0, 0, 1, 0, 0)" xlink:href="#linear-gradient-18"/>
    <linearGradient id="linear-gradient-51" x1="150.66" y1="153.82" x2="141.06" y2="139.71" gradientTransform="matrix(1, 0, 0, 1, 0, 0)" xlink:href="#linear-gradient-13"/>
    <linearGradient id="linear-gradient-52" x1="138.35" y1="193.97" x2="159.2" y2="165.44" xlink:href="#linear-gradient-2"/>
    <linearGradient id="linear-gradient-53" x1="192.67" y1="160.72" x2="158.35" y2="177.79" gradientTransform="matrix(1, 0, 0, 1, 0, 0)" xlink:href="#linear-gradient-13"/>
    <linearGradient id="linear-gradient-54" x1="192.1" y1="156.32" x2="180.38" y2="168.56" gradientTransform="matrix(1, 0, 0, 1, 0, 0)" xlink:href="#linear-gradient-13"/>
    <linearGradient id="linear-gradient-55" x1="192.76" y1="160.42" x2="158.54" y2="177.44" gradientTransform="matrix(1, 0, 0, 1, 0, 0)" xlink:href="#linear-gradient-13"/>
    <linearGradient id="linear-gradient-56" x1="207.07" y1="189.54" x2="107.76" y2="171.58" gradientTransform="matrix(1, 0, 0, 1, 0, 0)" xlink:href="#linear-gradient-13"/>
    <linearGradient id="linear-gradient-57" x1="158.94" y1="145.11" x2="114.32" y2="213.5" gradientUnits="userSpaceOnUse">
      <stop offset="0" stop-color="#e1473d"/>
      <stop offset="1" stop-color="#e9605a"/>
    </linearGradient>
    <linearGradient id="linear-gradient-58" x1="158.07" y1="144.98" x2="113.66" y2="213.05" xlink:href="#linear-gradient-57"/>
  </defs>
  <g class="cls-1">
    <g id="Illustration">
      <g>
        <g>
          <path class="cls-2" d="M351.05,318.16c-32.06,23.21-97.59-.8-157.41,29.86C157.8,366.4,7.37,316.18,46.42,284.51,75.23,261.14,155.69,260.7,212,261.14c12.13.1,76.11-9.14,116.14,4.09C352.89,273.39,372,303,351.05,318.16Z"/>
          <g>
            <path class="cls-3" d="M78.14,53.69c-.25-1,1.23-1.74,2.13-1,9.17,7.44,31.21,29.71,25.72,68.63-6.89,48.83,4.89,66.65,19.55,77.52,0,0-20.14-5.11-32.81-23.19C61.62,131.25,82.52,72.34,78.14,53.69Z"/>
            <path class="cls-4" d="M85.12,69c1.14,5.43,2.17,10.88,3,16.36s1.45,11,1.88,16.47.7,11,.72,16.52-.19,11-.44,16.54a149.8,149.8,0,0,0-.07,16.69,49.64,49.64,0,0,0,3.91,16.52c.59,1.32,1.2,2.64,1.9,3.91s1.41,2.53,2.17,3.78a59.44,59.44,0,0,0,5.2,7.15,65.52,65.52,0,0,0,13.7,12,1.37,1.37,0,0,0,1.73-.19,1,1,0,0,0-.2-1.48h0c-1.22-.87-2.44-1.74-3.6-2.65-.59-.45-1.16-.92-1.73-1.38s-1.13-1-1.67-1.44a59.61,59.61,0,0,1-15-20.51A47.65,47.65,0,0,1,94,159.45a53.73,53.73,0,0,1-1.25-8.07,148.26,148.26,0,0,1-.07-16.47c.16-5.53.28-11.09.13-16.64-.06-2.77-.18-5.55-.36-8.32-.08-1.38-.2-2.77-.3-4.15s-.26-2.77-.41-4.15q-.89-8.28-2.37-16.5c-1-5.47-2.21-10.92-3.64-16.32a.35.35,0,0,0-.4-.22A.3.3,0,0,0,85.12,69Z"/>
          </g>
          <g>
            <path class="cls-5" d="M101.9,170.58a2.31,2.31,0,0,1-3.78-.65,70.36,70.36,0,0,1,1.77-60.43c11.78-23.6,15.92-37.51,17.37-44a1.45,1.45,0,0,1,2.74-.27C126.22,79.38,142.65,127.34,101.9,170.58Z"/>
            <path class="cls-4" d="M99.85,169.71h-.12a.64.64,0,0,1-.63-.65c0-.4.79-40.46,15.68-74a.64.64,0,0,1,.85-.32.63.63,0,0,1,.32.84c-14.79,33.31-15.56,73.11-15.57,73.51A.63.63,0,0,1,99.85,169.71Z"/>
          </g>
          <g>
            <g>
              <path class="cls-6" d="M261.33,108.7c-3.57-6.26-6.31-14.68-.71-21,10.13-11.39,30.37-13.92,35.44,3.8,2.09,7.32.61,13-1.84,17.18a5.78,5.78,0,0,0,5,8.71h32.27v43.06a4.79,4.79,0,0,1-7.56,3.89c-21.65-15-32.94,2.7-33,10.68,0,8.85,3.82,29.73,17.74,29.1a34.42,34.42,0,0,0,15.55-4.66,4.79,4.79,0,0,1,7.23,4.11v40.13h-33.4a5,5,0,0,0-4.17,7.71c2.48,3.82,4.55,9.36,4.67,17.25.29,20.08-30.37,16.45-38,10.12-5.42-4.52-5.64-19-1.42-28a5.06,5.06,0,0,0-4.67-7.11H222V199.8a4.12,4.12,0,0,0-6.23-3.54c-5.6,3.33-14.24,7.5-22.88,7.87-14.55.63-16.45-15.82-17.08-28.47-.56-11.18,20.75-29.27,37.57-18.24,2.75,1.81,8.41,4.45,8.41,1.16V117.4h34.5A5.8,5.8,0,0,0,261.33,108.7Z"/>
              <path class="cls-7" d="M279.21,284.43a41.55,41.55,0,0,1-5.26-.34c-5.79-.73-11.05-2.57-13.74-4.8-5.85-4.88-5.76-19.88-1.59-28.74a4.16,4.16,0,0,0-.28-4.09,4.49,4.49,0,0,0-3.81-2.11H222a.63.63,0,0,1-.64-.64V199.8a3.49,3.49,0,0,0-5.27-3c-5.75,3.42-14.45,7.58-23.17,8-6.71.3-11.55-3-14.38-9.64-2.4-5.68-3-13-3.37-19.44-.31-6.11,5.36-13.92,13.48-18.57,8.63-4.94,17.77-5,25.08-.24,2.54,1.67,6,3.09,7.08,2.49.09-.05.34-.18.34-.79V117.4a.64.64,0,0,1,.64-.64h34.5a5.08,5.08,0,0,0,4.44-2.55,5.15,5.15,0,0,0,0-5.19c-5.09-9-5.31-16.47-.63-21.74,6.19-7,16-10.56,23.91-8.77,6.18,1.41,10.66,6,12.62,12.82,1.85,6.46,1.21,12.41-1.9,17.69a5,5,0,0,0,0,5.14,5.09,5.09,0,0,0,4.48,2.6h32.27a.64.64,0,0,1,.64.64v43.06a5.31,5.31,0,0,1-2.89,4.78,5.48,5.48,0,0,1-5.68-.36c-10.74-7.46-18.24-6.29-22.65-4-6.33,3.3-9.29,10.39-9.3,14.14,0,6.85,2.18,19.19,8.33,25.09a11.46,11.46,0,0,0,8.74,3.37,33.4,33.4,0,0,0,15.26-4.58,5.46,5.46,0,0,1,5.5,0,5.37,5.37,0,0,1,2.69,4.68v40.13a.64.64,0,0,1-.64.64h-33.4a4.34,4.34,0,0,0-3.63,6.72c3.06,4.73,4.67,10.65,4.77,17.59.09,6.2-2.74,10.85-8.18,13.44A27.75,27.75,0,0,1,279.21,284.43Zm-56.54-41.36h31.86a5.77,5.77,0,0,1,4.89,2.7,5.52,5.52,0,0,1,.36,5.32c-4.3,9.13-3.66,23.12,1.25,27.21s20.24,7.05,29.47,2.64c5-2.39,7.53-6.52,7.45-12.26-.1-6.7-1.63-12.39-4.57-16.91a5.62,5.62,0,0,1,4.71-8.7h32.76V203.58A4.09,4.09,0,0,0,328.8,200a4.19,4.19,0,0,0-4.22,0,34.74,34.74,0,0,1-15.84,4.75,12.69,12.69,0,0,1-9.68-3.72c-6.45-6.18-8.75-19-8.73-26,0-4.18,3.12-11.68,10-15.27,4.72-2.45,12.71-3.74,24,4.08a4.16,4.16,0,0,0,4.35.28,4.06,4.06,0,0,0,2.21-3.65V118H299.22a6.38,6.38,0,0,1-5.6-3.25,6.31,6.31,0,0,1,.05-6.42c2.92-5,3.52-10.58,1.77-16.69-2.34-8.18-7.64-11-11.67-11.92-7.45-1.7-16.78,1.75-22.67,8.37-3,3.37-5.28,9.61.79,20.26h0a6.43,6.43,0,0,1,0,6.46,6.35,6.35,0,0,1-5.55,3.19H222.46v40.54a2,2,0,0,1-1,1.92c-2.45,1.32-8.15-2.39-8.39-2.54-6.89-4.52-15.54-4.42-23.74.28-7.6,4.35-13.12,11.82-12.84,17.39.31,6.31,1,13.51,3.27,19,2.63,6.23,6.93,9.13,13.14,8.86,8.46-.37,17-4.43,22.58-7.78a4.76,4.76,0,0,1,7.2,4.09Z"/>
            </g>
            <g>
              <path class="cls-8" d="M99,197.66a32.18,32.18,0,0,1-14.45,5.59C72,204.5,67,190.74,66.37,178.86s10-23.13,19.38-21.88c4.42.59,9.25,3.4,13.13,6.2a4.72,4.72,0,0,0,7.5-3.82V116.69h43.17a4.93,4.93,0,0,0,4.48-7c-3.39-7.36-7.19-18.54-1.89-23.37,8.25-7.5,30.52-7.5,34.27,3.75,2.1,6.3-.75,13.88-3.67,19.34a4.92,4.92,0,0,0,4.34,7.25h36.85v39.52a5.26,5.26,0,0,1-8.21,4.39c-15.94-11.31-33.34.62-34.94,13.91-1.87,15.63,8.13,28.76,18.76,27.51,5.4-.64,11.6-3.69,16.4-6.54a5.27,5.27,0,0,1,8,4.52v43.65H181.49a6.62,6.62,0,0,1-6-9.45c2.51-5.21,12.79-11.61,12.17-16.55-1.25-10-23.52-12.48-35.52-10.62-9.16,1.42-4.6,15.75.6,27.23a6.62,6.62,0,0,1-6,9.39H106.38V201.54A4.74,4.74,0,0,0,99,197.66Z"/>
              <path class="cls-9" d="M223.93,244.27H181.49a7.25,7.25,0,0,1-6.17-3.42,7.13,7.13,0,0,1-.4-6.94c1.07-2.24,3.5-4.67,5.85-7,3.24-3.24,6.58-6.58,6.26-9.18a7.69,7.69,0,0,0-3.35-5.15c-4.51-3.41-18-7-31.44-4.91a4.88,4.88,0,0,0-3.84,2.51c-2.09,3.87-.39,12.1,4.92,23.81a7.26,7.26,0,0,1-6.59,10.3H106.38a.64.64,0,0,1-.64-.64V201.54A4,4,0,0,0,103.6,198a4.1,4.1,0,0,0-4.29.23,32.42,32.42,0,0,1-14.75,5.7,13.45,13.45,0,0,1-10.49-3.19c-2.26-1.94-7.61-8-8.34-21.8a23.29,23.29,0,0,1,7.56-17.8c3.86-3.57,8.44-5.3,12.54-4.75,3.82.5,8.33,2.63,13.42,6.32a4.09,4.09,0,0,0,6.49-3.31V116.69a.64.64,0,0,1,.64-.64h43.17a4.29,4.29,0,0,0,3.89-6.08c-3.8-8.26-7.18-19.15-1.73-24.11,5.23-4.76,16.06-6.73,24.66-4.48,5.52,1.44,9.3,4.46,10.65,8.5,2.19,6.57-.81,14.41-3.71,19.84a4.27,4.27,0,0,0,3.77,6.31h36.85a.64.64,0,0,1,.64.64v39.52a6,6,0,0,1-3.25,5.31,5.66,5.66,0,0,1-6-.4c-6.75-4.79-14.34-5.71-21.38-2.6-6.81,3-11.74,9.33-12.55,16.06-1,8.53,1.6,17.09,6.85,22.35,3.32,3.33,7.29,4.91,11.2,4.45,5.44-.64,11.78-3.86,16.14-6.45a5.92,5.92,0,0,1,9,5.07v43.65A.64.64,0,0,1,223.93,244.27Zm-63.58-38.46c8.4,0,18.53,1.52,24.1,5.72a9,9,0,0,1,3.85,6c.4,3.22-3.17,6.79-6.62,10.24-2.27,2.28-4.63,4.63-5.61,6.67a5.9,5.9,0,0,0,.33,5.71,6,6,0,0,0,5.09,2.81h41.8V200a4.64,4.64,0,0,0-7-4c-4.47,2.65-11,6-16.65,6.62-4.3.51-8.66-1.2-12.26-4.82-5.52-5.53-8.28-14.49-7.21-23.4.86-7.17,6.08-13.88,13.31-17.08,7.46-3.3,15.5-2.33,22.63,2.73a4.39,4.39,0,0,0,4.64.3,4.7,4.7,0,0,0,2.56-4.17V117.31H187.08a5.56,5.56,0,0,1-4.9-8.2c2.78-5.2,5.67-12.69,3.62-18.83-1.2-3.61-4.66-6.33-9.75-7.66-8.23-2.15-18.54-.31-23.48,4.18-2.2,2-4.87,7.62,2,22.64a5.56,5.56,0,0,1-5.06,7.89H107v42a5.36,5.36,0,0,1-8.52,4.34c-4.85-3.51-9.29-5.61-12.84-6.08-3.72-.5-7.92,1.11-11.5,4.42A22,22,0,0,0,67,178.83c.48,9.26,3.44,17.08,7.9,20.9a12.18,12.18,0,0,0,9.52,2.88,31.21,31.21,0,0,0,14.17-5.48h0a5.43,5.43,0,0,1,5.6-.3,5.24,5.24,0,0,1,2.82,4.71V243h39.71a5.94,5.94,0,0,0,5-2.72,6,6,0,0,0,.42-5.76c-5.56-12.26-7.21-20.66-4.89-24.95a6.16,6.16,0,0,1,4.77-3.17A55.68,55.68,0,0,1,160.35,205.81Z"/>
            </g>
          </g>
          <g>
            <g>
              <g class="cls-10">
                <path class="cls-11" d="M267.68,89.7a.8.8,0,0,1-.91-.56c-.26-.86-.48-1.75-.67-2.64a.8.8,0,0,1,.62-1h0a.79.79,0,0,1,.93.62c.17.85.39,1.69.63,2.51a.8.8,0,0,1-.54,1Zm-1.23-6.86h-.09a.8.8,0,0,1-.86-.74q-.09-1.36-.06-2.73a.79.79,0,0,1,.81-.78.81.81,0,0,1,.79.81c0,.86,0,1.73.06,2.59A.8.8,0,0,1,266.45,82.84Zm.31-7a.82.82,0,0,1-.27,0,.8.8,0,0,1-.67-.92c.15-.89.33-1.79.55-2.67a.8.8,0,1,1,1.55.38c-.21.84-.38,1.69-.52,2.54A.8.8,0,0,1,266.76,75.88Zm1.86-6.71a.84.84,0,0,1-.44,0,.8.8,0,0,1-.45-1c.34-.84.72-1.68,1.13-2.48a.79.79,0,0,1,1.07-.36.8.8,0,0,1,.36,1.08c-.39.77-.75,1.56-1.07,2.36A.82.82,0,0,1,268.62,69.17ZM271.93,63a.77.77,0,0,1-.6-.13.8.8,0,0,1-.2-1.11c.51-.74,1.07-1.47,1.65-2.17a.79.79,0,0,1,1.12-.11.81.81,0,0,1,.11,1.13c-.55.66-1.08,1.36-1.57,2.06A.76.76,0,0,1,271.93,63Zm4.59-5.24a.82.82,0,0,1-.74-.25.79.79,0,0,1,.05-1.13c.67-.61,1.37-1.2,2.09-1.75a.8.8,0,1,1,1,1.26c-.68.53-1.35,1.09-2,1.67A.91.91,0,0,1,276.52,57.79ZM305,50.53a.78.78,0,0,1-.34,0c-.84-.21-1.69-.38-2.54-.51a.8.8,0,1,1,.25-1.58c.89.14,1.79.32,2.67.53a.8.8,0,0,1,0,1.57Zm-22.83,3.16a.82.82,0,0,1-.85-.39.8.8,0,0,1,.3-1.09c.79-.45,1.61-.87,2.43-1.25a.8.8,0,0,1,.67,1.45c-.78.36-1.56.76-2.31,1.19A1.17,1.17,0,0,1,282.15,53.69Zm15.92-4.06-.16,0c-.86,0-1.74,0-2.6.07a.8.8,0,0,1-.11-1.6c.91-.06,1.83-.09,2.73-.07a.8.8,0,0,1,.14,1.58ZM288.55,51a.8.8,0,0,1-.91-.56.79.79,0,0,1,.53-1c.87-.26,1.76-.49,2.65-.67h0a.8.8,0,0,1,.93.63.79.79,0,0,1-.62.94c-.84.18-1.68.39-2.51.64Z"/>
                <path class="cls-12" d="M310.29,52.36a.8.8,0,0,1-.48-.06c-.37-.17-.76-.33-1.15-.49a.8.8,0,0,1-.44-1,.79.79,0,0,1,1-.44c.41.16.81.34,1.21.51a.8.8,0,0,1-.18,1.52Z"/>
              </g>
              <g class="cls-10">
                <path class="cls-13" d="M326.85,70.26a.81.81,0,0,1-.9-.52c-.14-.39-.29-.78-.44-1.17a.79.79,0,0,1,.44-1,.8.8,0,0,1,1,.44c.16.41.32.82.47,1.23a.8.8,0,0,1-.49,1Z"/>
                <path class="cls-14" d="M303.28,111.39l-1.09.19A.8.8,0,0,1,302,110c.85-.12,1.69-.29,2.5-.48a.81.81,0,0,1,1,.59.8.8,0,0,1-.6,1C304.32,111.18,303.8,111.29,303.28,111.39Zm-5.3.53-.13,0c-.89,0-1.8,0-2.69-.07a.8.8,0,0,1,.11-1.6c.85.06,1.7.08,2.55.07a.8.8,0,0,1,.16,1.58Zm10.86-2.11a.8.8,0,0,1-.43-1.54c.78-.3,1.57-.65,2.33-1a.8.8,0,0,1,.7,1.44c-.8.39-1.63.75-2.45,1.08Zm-17.68,1.47a1.16,1.16,0,0,1-.32,0c-.87-.18-1.74-.4-2.6-.66a.8.8,0,0,1,.46-1.53c.81.24,1.64.45,2.47.63a.8.8,0,0,1,.62.94A.81.81,0,0,1,291.16,111.28Zm23.75-4.65a.8.8,0,0,1-.59-1.45c.7-.47,1.39-1,2.05-1.51a.8.8,0,1,1,1,1.25c-.69.56-1.42,1.09-2.16,1.59A.79.79,0,0,1,314.91,106.63Zm5.23-4.43a.78.78,0,0,1-.69-.21.79.79,0,0,1,0-1.13c.59-.61,1.15-1.26,1.68-1.92a.8.8,0,0,1,1.12-.13.81.81,0,0,1,.13,1.13c-.56.69-1.15,1.37-1.76,2A.8.8,0,0,1,320.14,102.2Zm4.14-5.47a.76.76,0,0,1-.56-.1.79.79,0,0,1-.27-1.09c.43-.73.84-1.49,1.21-2.25a.8.8,0,0,1,1.44.71c-.39.8-.82,1.59-1.28,2.36A.79.79,0,0,1,324.28,96.73Zm2.85-6.24a.78.78,0,0,1-.4,0,.8.8,0,0,1-.51-1c.27-.81.5-1.63.7-2.45a.8.8,0,1,1,1.55.36c-.2.87-.45,1.74-.73,2.59A.77.77,0,0,1,327.13,90.49Zm1.41-6.71a.87.87,0,0,1-.23,0,.8.8,0,0,1-.72-.87c.08-.84.13-1.7.14-2.55a.8.8,0,1,1,1.6,0c0,.89-.06,1.79-.14,2.68A.81.81,0,0,1,328.54,83.78Zm-.1-6.85h-.05a.79.79,0,0,1-.89-.69c-.08-.62-.18-1.24-.29-1.86,0-.22-.09-.44-.13-.66a.8.8,0,1,1,1.56-.32c.05.23.1.46.14.69.12.64.22,1.3.3,2A.8.8,0,0,1,328.44,76.93Z"/>
                <path class="cls-15" d="M284.62,109.13a.8.8,0,0,1-.48-.06c-.39-.18-.79-.37-1.18-.57a.8.8,0,0,1-.35-1.07.79.79,0,0,1,1.07-.35c.37.18.75.37,1.13.54a.79.79,0,0,1,.39,1.06A.81.81,0,0,1,284.62,109.13Z"/>
              </g>
              <g>
                <path class="cls-16" d="M284,99.81a.36.36,0,0,0,.43,0l3.91-2.33a20,20,0,0,0,6.11,2l1.84,4.16a.37.37,0,0,0,.38.22l5.43-.45a.37.37,0,0,0,.33-.28l1.12-4.41a20,20,0,0,0,5.71-2.95l4.24,1.64a.37.37,0,0,0,.42-.1l3.52-4.17a.36.36,0,0,0,0-.43l-2.33-3.91a20.1,20.1,0,0,0,1.95-6.12l4.16-1.84a.35.35,0,0,0,.22-.37L321,75a.39.39,0,0,0-.28-.33l-4.41-1.12a19.78,19.78,0,0,0-2.95-5.7L315,63.62a.38.38,0,0,0-.1-.42l-4.17-3.52a.36.36,0,0,0-.43,0L306.4,62A20.1,20.1,0,0,0,300.28,60l-1.84-4.16a.38.38,0,0,0-.37-.22l-5.44.46a.36.36,0,0,0-.33.28l-1.12,4.41a19.76,19.76,0,0,0-5.7,2.94l-4.25-1.64a.38.38,0,0,0-.42.11l-3.52,4.17a.36.36,0,0,0,0,.43l2.32,3.91a19.92,19.92,0,0,0-1.95,6.12l-4.16,1.83a.4.4,0,0,0-.22.38l.46,5.43a.35.35,0,0,0,.28.33l4.41,1.12a19.94,19.94,0,0,0,2.94,5.71l-1.64,4.24a.37.37,0,0,0,.11.42Z"/>
                <g class="cls-17">
                  <path class="cls-18" d="M298.36,85.14a5.49,5.49,0,0,1-2.79-10.58,5.49,5.49,0,0,1,7,3.4,5.5,5.5,0,0,1-3.4,7A7.44,7.44,0,0,1,298.36,85.14Zm-1.77-9.53a4.44,4.44,0,0,0-.6.16,4.2,4.2,0,1,0,5.34,2.61A4.15,4.15,0,0,0,299.2,76,4.22,4.22,0,0,0,296.59,75.61Z"/>
                </g>
                <path class="cls-19" d="M299.93,92.91a12.38,12.38,0,0,1-1.38.18h0a3.11,3.11,0,0,1-.43,0,12.94,12.94,0,0,1-2.16-.06h-.12l-.16,0a.31.31,0,0,1-.27-.26.17.17,0,0,1,0-.1.31.31,0,0,1,.36-.27,13.83,13.83,0,0,0,2.73.06,12.85,12.85,0,0,0,11.73-13.88c0-.45-.1-.88-.18-1.31a12.85,12.85,0,0,0-25.43,3.46c0,.43.1.87.18,1.29A12.73,12.73,0,0,0,287,87.15a.29.29,0,0,1,.05.13.33.33,0,0,1-.12.32.32.32,0,0,1-.45-.08,13.29,13.29,0,0,1-2.3-5.38,12.36,12.36,0,0,1-.19-1.36,13.49,13.49,0,0,1,22.15-11.43,13.34,13.34,0,0,1,4.55,7.8c.08.45.15.91.19,1.37a13.5,13.5,0,0,1-10.94,14.39Z"/>
              </g>
            </g>
            <g>
              <g class="cls-10">
                <path class="cls-20" d="M244.72,115.43a.49.49,0,0,1-.53-.26c-.19-.37-.37-.76-.54-1.14a.5.5,0,1,1,.91-.39c.16.36.33.73.51,1.09a.48.48,0,0,1-.21.66A.37.37,0,0,1,244.72,115.43Z"/>
                <path class="cls-21" d="M243.32,111.9a.48.48,0,0,1-.56-.34,19.8,19.8,0,0,1-.51-2.12c0-.15-.06-.3-.08-.45a.49.49,0,0,1,.41-.56.48.48,0,0,1,.56.4c0,.15.05.29.08.43.13.68.29,1.36.48,2a.49.49,0,0,1-.33.61Zm-.84-5.06h-.07a.49.49,0,0,1-.51-.47,21,21,0,0,1,0-2.63.49.49,0,0,1,1,.08,21,21,0,0,0,0,2.51A.5.5,0,0,1,242.48,106.84Zm.42-5.11h-.19a.49.49,0,0,1-.38-.59,20.13,20.13,0,0,1,.69-2.53.5.5,0,1,1,.94.32,20.16,20.16,0,0,0-.67,2.42A.49.49,0,0,1,242.9,101.73Zm1.66-4.85a.56.56,0,0,1-.31,0,.5.5,0,0,1-.22-.67,22.24,22.24,0,0,1,1.29-2.28.49.49,0,1,1,.83.53,22.42,22.42,0,0,0-1.24,2.19A.5.5,0,0,1,244.56,96.88Zm2.8-4.3a.52.52,0,0,1-.41-.11.49.49,0,0,1-.06-.7,20.32,20.32,0,0,1,1.81-1.9.49.49,0,0,1,.7,0,.5.5,0,0,1,0,.7,21.26,21.26,0,0,0-1.73,1.82A.49.49,0,0,1,247.36,92.58Zm3.75-3.5a.48.48,0,0,1-.49-.19.5.5,0,0,1,.11-.69A22.45,22.45,0,0,1,253,86.79a.5.5,0,0,1,.48.87A19.41,19.41,0,0,0,251.31,89,.5.5,0,0,1,251.11,89.08Zm4.49-2.46a.5.5,0,0,1-.27-1,23.57,23.57,0,0,1,2.5-.82.5.5,0,0,1,.25,1,19.47,19.47,0,0,0-2.38.78Zm7.53-1.47H263c-.72,0-1.45.06-2.17.14l-.33,0a.48.48,0,0,1-.55-.42.49.49,0,0,1,.42-.56l.35,0a19.25,19.25,0,0,1,2.28-.14.48.48,0,0,1,.49.49A.49.49,0,0,1,263.13,85.15Z"/>
              </g>
              <g class="cls-10">
                <path class="cls-22" d="M267.42,126.42a.49.49,0,0,1-.57-.39.5.5,0,0,1,.39-.58,19.87,19.87,0,0,0,2.38-.63.51.51,0,0,1,.63.32.5.5,0,0,1-.32.62,20.87,20.87,0,0,1-2.5.66Zm-2.5.35h-.05a22.39,22.39,0,0,1-2.59,0,.5.5,0,0,1,0-1,20.36,20.36,0,0,0,2.47,0,.5.5,0,0,1,.13,1Zm7.29-1.93a.49.49,0,0,1-.3-.93,19.71,19.71,0,0,0,2.16-1.19.49.49,0,1,1,.53.83,20.79,20.79,0,0,1-2.27,1.25A.42.42,0,0,1,272.21,124.84Zm-12.33,1.71a.49.49,0,0,1-.17,0,20.13,20.13,0,0,1-2.53-.58.49.49,0,0,1,.28-.94,22.11,22.11,0,0,0,2.41.55.49.49,0,0,1,0,1Zm16.6-4.4A.51.51,0,0,1,276,122a.49.49,0,0,1,.07-.69,19.26,19.26,0,0,0,1.82-1.68.5.5,0,1,1,.71.69,21,21,0,0,1-1.9,1.75A.51.51,0,0,1,276.48,122.15Zm3.49-3.64a.55.55,0,0,1-.39-.09.49.49,0,0,1-.09-.69,21.55,21.55,0,0,0,1.36-2.06.49.49,0,1,1,.85.49,23.63,23.63,0,0,1-1.42,2.16A.51.51,0,0,1,280,118.51Zm2.52-4.37a.54.54,0,0,1-.28,0,.5.5,0,0,1-.26-.65,21.52,21.52,0,0,0,.83-2.33.48.48,0,0,1,.61-.33.49.49,0,0,1,.34.61,22.19,22.19,0,0,1-.87,2.44A.52.52,0,0,1,282.49,114.14Z"/>
                <path class="cls-23" d="M255,125.11a.48.48,0,0,1-.29,0q-.58-.26-1.14-.54a.49.49,0,0,1-.22-.66.5.5,0,0,1,.66-.22l1.09.52a.49.49,0,0,1,.26.65A.49.49,0,0,1,255,125.11Z"/>
              </g>
              <g>
                <path class="cls-24" d="M254.25,118.77a.28.28,0,0,0,.29,0l2.61-1.56a13.12,13.12,0,0,0,4.1,1.31l1.23,2.78a.24.24,0,0,0,.25.15l3.63-.31a.25.25,0,0,0,.23-.18l.74-3a13.09,13.09,0,0,0,3.82-2l2.84,1.1a.25.25,0,0,0,.28-.07l2.36-2.79a.24.24,0,0,0,0-.29l-1.56-2.61a13.12,13.12,0,0,0,1.31-4.1l2.78-1.23a.24.24,0,0,0,.15-.24l-.3-3.64a.27.27,0,0,0-.19-.23l-2.95-.74a13.19,13.19,0,0,0-2-3.82l1.1-2.84a.24.24,0,0,0-.08-.28l-2.78-2.36a.24.24,0,0,0-.29,0l-2.62,1.56a13.14,13.14,0,0,0-4.09-1.31l-1.23-2.78a.26.26,0,0,0-.25-.15l-3.64.3a.25.25,0,0,0-.22.19l-.75,3a13.19,13.19,0,0,0-3.82,2l-2.84-1.1a.25.25,0,0,0-.28.08l-2.36,2.79a.26.26,0,0,0,0,.28l1.56,2.62a13.14,13.14,0,0,0-1.31,4.09l-2.78,1.23a.26.26,0,0,0-.15.25l.31,3.64a.24.24,0,0,0,.18.22l2.95.75a13.46,13.46,0,0,0,2,3.82l-1.1,2.84a.25.25,0,0,0,.07.28Z"/>
                <g class="cls-17">
                  <path class="cls-18" d="M263.88,109a3.73,3.73,0,0,1-2.32-.31,3.68,3.68,0,0,1-1.89-2.15,3.74,3.74,0,1,1,6.89.43,3.69,3.69,0,0,1-2.14,1.89A3.58,3.58,0,0,1,263.88,109Zm-1.18-6.37a2.79,2.79,0,0,0-.39.1,2.75,2.75,0,0,0,1.79,5.2h0a2.75,2.75,0,0,0-1.4-5.3Z"/>
                </g>
                <path class="cls-19" d="M265,114.42c-.3.06-.62.1-.93.13a10,10,0,0,1-1.9,0h-.08a.51.51,0,0,1-.43-.4.43.43,0,0,1,0-.16.48.48,0,0,1,.55-.42,8.73,8.73,0,0,0,1.77,0h.1a8.34,8.34,0,0,0,3.84-1.37,8.11,8.11,0,0,0,1.67-1.49h0l0,0a8.29,8.29,0,0,0,1.94-6.06c0-.29-.07-.57-.12-.85A8.32,8.32,0,0,0,255,106a8,8,0,0,0,.11.84,8.25,8.25,0,0,0,1.42,3.32.5.5,0,0,1,.08.2.48.48,0,0,1-.19.49.5.5,0,0,1-.69-.11A9.26,9.26,0,0,1,254.1,107c-.06-.31-.1-.62-.13-.93a9.31,9.31,0,0,1,18.42-2.51c.06.31.1.63.13,1A9.31,9.31,0,0,1,265,114.42Z"/>
              </g>
            </g>
          </g>
        </g>
        <g>
          <g>
            <g>
              <path class="cls-25" d="M187.76,183s-1.35-3.61-2.93-3.28a10.72,10.72,0,0,0-3.3,1.55L179,184.72s7.12,2.85,9.62,1.22a54.15,54.15,0,0,0,16.47-.24,37.24,37.24,0,0,1-2.59-7.91A38,38,0,0,1,187.76,183Z"/>
              <path class="cls-26" d="M226.32,156.82s-10.43,13.29-23.83,21a37.24,37.24,0,0,0,2.59,7.91,42.78,42.78,0,0,0,21.81-10Z"/>
            </g>
            <path class="cls-27" d="M239.3,215.75c-2-9.81-4.08-15.49-10.9-34.08-2.14-5.85-4.09-11.77-3.15-17.94l1.06-6.92a50.53,50.53,0,0,1,27.95-.2s20,8.83,6.43,52.43C254.55,216,247.37,218,239.3,215.75Z"/>
            <path class="cls-28" d="M228.56,148l3.44,8.37a1.68,1.68,0,0,0,1.24,1c2,.34,6.78.88,9.93-1.22a.82.82,0,0,0,.21-1.14L237,145.74Z"/>
            <g>
              <path class="cls-29" d="M232.12,135.16c-.15.14-6.09,12-6.09,12l6.74,3.3,7.28-10.37S234.53,132.85,232.12,135.16Z"/>
              <path class="cls-30" d="M237,141.31,233.62,147a1.3,1.3,0,0,1-.18.23c-.4.38-1.77,1.48-2.83,0a9.58,9.58,0,0,0-2.66-2.91,1.07,1.07,0,0,0-1.45.48,42.4,42.4,0,0,0-2.3,5.54,1.1,1.1,0,0,0,.63,1.33,29.74,29.74,0,0,0,6.45,1.91,1.09,1.09,0,0,0,1-.44c1-1.43,3.93-5.43,4.92-6.43s2.62-.58,3.39-.36a1,1,0,0,0,.86-.11,2.43,2.43,0,0,0,.89-3.66,1.1,1.1,0,0,1,.33-1.48,2.42,2.42,0,0,0,.91-3.42,3.32,3.32,0,0,0-3.63-1.8,1.11,1.11,0,0,1-1.17-.66.69.69,0,0,0-.55-.44,1.07,1.07,0,0,1-.85-1.25,2.79,2.79,0,0,0-1.54-3.19c-2.91-1.63-5.45,1-6.1,3.25s2.6,3.8,4.65,4.06c1.5.2,2.32,1.86,2.66,2.73A1.12,1.12,0,0,1,237,141.31Z"/>
              <path class="cls-31" d="M235.81,148.38s1.44-3.45,3.1-3.31,3,1.81.91,3.69C237.26,151.1,235.81,148.38,235.81,148.38Z"/>
            </g>
            <g>
              <path class="cls-32" d="M238,302.18c3.2.28,8.76.74,13.14.93a12.56,12.56,0,0,0,5-.49,2.53,2.53,0,0,1,0,.28.91.91,0,0,1-.86.87,151.84,151.84,0,0,1-17.2,0,.65.65,0,0,1-.52-1A5.78,5.78,0,0,1,238,302.18Z"/>
              <path class="cls-33" d="M251.13,303.11c-4.38-.19-9.94-.65-13.14-.93,3.15-3.91,13.14-6.55,13.14-6.55H254a12.15,12.15,0,0,1,2.2,7A12.56,12.56,0,0,1,251.13,303.11Z"/>
              <path class="cls-34" d="M254.43,291l-.27,5.3a1.22,1.22,0,0,1-1,1.14,4.62,4.62,0,0,1-2.12-.18,1.43,1.43,0,0,1-.94-1.1l-.92-5.16Z"/>
            </g>
            <g>
              <g>
                <path class="cls-35" d="M291.07,303.08a2.54,2.54,0,0,0,2.28-1.71v0a1.83,1.83,0,0,1-1.22,2.08,7.85,7.85,0,0,1-3.36.54,3.37,3.37,0,0,1-2.53-1.18h0C287.29,303.34,288.76,303.4,291.07,303.08Z"/>
                <path class="cls-36" d="M284.53,290.93h2.33c3.54-.08,5.77,7.5,6.49,10.44a2.54,2.54,0,0,1-2.28,1.71c-2.31.32-3.78.26-4.82-.26-1.92-2.56-2.87-6.3-3.33-8.48A3,3,0,0,1,284.53,290.93Z"/>
              </g>
              <path class="cls-37" d="M286.56,286l1.29,5.21a1.41,1.41,0,0,1-.73,1.6,4.89,4.89,0,0,1-2.67.66,1.16,1.16,0,0,1-.95-.79l-1.9-5.48Z"/>
            </g>
            <path class="cls-38" d="M288.1,287.52c-1.61,1.44-6.84,1.63-6.84,1.63-18.83-45.82-26.69-58.43-26.69-58.43,2.72,17.29.59,61.69.59,61.69-3.11,1.39-7.11,0-7.11,0-.26-28.32-4.19-58.74-9.26-78.21,12.73-.29,19.65-3.11,21.86-4.88C271.26,226.66,288.1,287.52,288.1,287.52Z"/>
            <g>
              <path class="cls-39" d="M235.58,227l2.34,14.77a4.82,4.82,0,0,0,5.33,4l35.06-4.34a3.48,3.48,0,0,0,3.05-3.41,66.27,66.27,0,0,0-1.65-16.79Z"/>
              <path class="cls-40" d="M244.23,244.83a.1.1,0,0,1-.1-.09.12.12,0,0,1,.09-.11l.79-.1a.11.11,0,0,1,.12.09.1.1,0,0,1-.09.11l-.8.1Zm-1.85,0h0a4.17,4.17,0,0,1-.78-.25.09.09,0,0,1-.05-.13.1.1,0,0,1,.13-.06,4,4,0,0,0,.74.25.1.1,0,0,1,.08.12A.11.11,0,0,1,242.38,244.79Zm4.5-.28a.11.11,0,0,1-.1-.09.1.1,0,0,1,.09-.12l.79-.09a.1.1,0,1,1,0,.2l-.79.1Zm2.64-.33a.11.11,0,0,1-.1-.09.1.1,0,0,1,.09-.11l.8-.1a.1.1,0,0,1,.11.09.12.12,0,0,1-.09.11l-.79.1Zm2.65-.33a.11.11,0,0,1-.1-.09.1.1,0,0,1,.09-.11l.79-.1a.1.1,0,0,1,.11.09.09.09,0,0,1-.08.11l-.8.1Zm2.65-.32a.1.1,0,0,1-.1-.09.1.1,0,0,1,.08-.12l.8-.09a.1.1,0,0,1,.11.08.1.1,0,0,1-.09.12l-.79.09Zm-14.73-.05a.09.09,0,0,1-.07,0,4,4,0,0,1-.51-.64.1.1,0,0,1,0-.14.09.09,0,0,1,.13,0,4.85,4.85,0,0,0,.49.61.11.11,0,0,1,0,.15A.09.09,0,0,1,240.09,243.48Zm17.37-.28a.11.11,0,0,1-.1-.09c0-.06,0-.11.09-.11l.79-.1a.09.09,0,0,1,.11.09.1.1,0,0,1-.08.11l-.8.1Zm2.65-.33a.1.1,0,0,1,0-.2l.79-.1a.1.1,0,0,1,.11.09.09.09,0,0,1-.09.11l-.79.1Zm2.64-.33a.1.1,0,0,1-.1-.09.12.12,0,0,1,.09-.11l.8-.1a.12.12,0,0,1,.11.09.1.1,0,0,1-.09.11l-.79.1Zm2.65-.32a.11.11,0,0,1-.1-.09.1.1,0,0,1,.09-.12l.79-.09a.09.09,0,0,1,.11.08.1.1,0,0,1-.08.12l-.8.1Zm2.65-.33a.1.1,0,0,1-.1-.09.09.09,0,0,1,.08-.11l.8-.1a.1.1,0,1,1,0,.2l-.79.1Zm2.64-.33a.1.1,0,0,1,0-.2l.79-.1a.1.1,0,0,1,.11.09.09.09,0,0,1-.08.11l-.8.1Zm2.65-.32a.1.1,0,0,1-.1-.09.1.1,0,0,1,.09-.12l.79-.09a.1.1,0,0,1,.11.08.1.1,0,0,1-.09.12l-.79.09Zm-34.44-.14a.1.1,0,0,1-.1-.08l-.13-.8a.1.1,0,0,1,.09-.12.1.1,0,0,1,.11.09l.13.79a.1.1,0,0,1-.08.12Zm37.08-.19a.11.11,0,0,1-.1-.09.1.1,0,0,1,.09-.11l.79-.1a.1.1,0,0,1,.12.09.12.12,0,0,1-.09.11l-.79.1Zm2.58-.58a.08.08,0,0,1-.08-.06.1.1,0,0,1,0-.13,2.89,2.89,0,0,0,.62-.47.11.11,0,0,1,.15,0,.11.11,0,0,1,0,.14,3.19,3.19,0,0,1-.66.5Zm-40.08-1.89a.1.1,0,0,1-.1-.09l-.13-.8a.11.11,0,0,1,.08-.12.1.1,0,0,1,.12.09l.12.8a.09.09,0,0,1-.08.11Zm41.65-.21h0a.11.11,0,0,1-.07-.13,2.74,2.74,0,0,0,.09-.7v-.08a.12.12,0,0,1,.1-.1h0a.11.11,0,0,1,.09.11v.07a3.14,3.14,0,0,1-.09.75A.11.11,0,0,1,280.13,238.23Zm-42.08-2.46a.11.11,0,0,1-.1-.09l-.12-.8a.09.09,0,0,1,.08-.11.1.1,0,0,1,.11.08l.13.8a.1.1,0,0,1-.08.12Zm42.19-.23a.1.1,0,0,1-.1-.1c0-.27,0-.54,0-.81a.1.1,0,1,1,.2,0c0,.28,0,.55,0,.81a.11.11,0,0,1-.1.11Zm-42.61-2.44a.1.1,0,0,1-.1-.08l-.13-.81a.1.1,0,0,1,.2,0l.13.8a.1.1,0,0,1-.09.12Zm42.54-.27a.1.1,0,0,1-.1-.09c0-.27,0-.54,0-.81a.1.1,0,0,1,.1-.11.09.09,0,0,1,.1.1c0,.27,0,.54,0,.81a.1.1,0,0,1-.09.1Zm-43-2.4a.1.1,0,0,1-.1-.08l-.13-.8a.1.1,0,1,1,.2,0l.12.8a.09.09,0,0,1-.08.11Zm42.8-.29a.1.1,0,0,1-.1-.1c0-.26,0-.53-.07-.8a.1.1,0,0,1,.09-.11.09.09,0,0,1,.11.09c0,.27,0,.54.07.81a.12.12,0,0,1-.09.11Zm-43.23-2.37a.11.11,0,0,1-.1-.09l-.14-.9.41-.06a.1.1,0,0,1,.11.09.09.09,0,0,1-.08.11l-.21,0,.11.7a.1.1,0,0,1-.08.11Zm43-.32a.11.11,0,0,1-.1-.09c0-.27-.07-.53-.1-.8a.1.1,0,0,1,.08-.12.09.09,0,0,1,.11.09c0,.27.08.54.11.8a.11.11,0,0,1-.09.12Zm-40.92-.77a.09.09,0,0,1-.1-.08.1.1,0,0,1,.08-.12l.8-.1a.09.09,0,0,1,.11.09.1.1,0,0,1-.09.11l-.79.1Zm2.64-.34a.11.11,0,0,1-.1-.09.1.1,0,0,1,.09-.11l.79-.1a.09.09,0,0,1,.11.08.1.1,0,0,1-.08.12l-.8.1Zm2.64-.34a.11.11,0,0,1-.1-.09.1.1,0,0,1,.09-.11l.79-.11a.11.11,0,0,1,0,.21l-.79.1Zm2.65-.34a.1.1,0,0,1-.1-.09.1.1,0,0,1,.08-.12l.8-.1a.1.1,0,0,1,0,.2l-.79.11Zm2.64-.35a.1.1,0,0,1-.1-.09.11.11,0,0,1,.09-.11l.79-.1a.09.09,0,0,1,.11.09.1.1,0,0,1-.08.11l-.8.1ZM252,225a.1.1,0,0,1,0-.2l.8-.1a.09.09,0,0,1,.11.08.11.11,0,0,1-.09.12l-.79.1Zm27.3-.19a.1.1,0,0,1-.09-.09l-.15-.79a.1.1,0,0,1,.08-.12.11.11,0,0,1,.12.08c.05.26.1.53.14.8a.09.09,0,0,1-.08.11Zm-24.66-.15a.11.11,0,0,1-.1-.09.09.09,0,0,1,.09-.11l.79-.11a.09.09,0,0,1,.11.09.09.09,0,0,1-.08.11l-.8.11Zm2.64-.35a.1.1,0,0,1-.1-.08.12.12,0,0,1,.09-.12l.79-.1a.1.1,0,0,1,.12.09.12.12,0,0,1-.09.11l-.79.1Zm2.65-.34a.1.1,0,0,1,0-.2l.8-.1a.09.09,0,0,1,.11.08.1.1,0,0,1-.09.12l-.79.1Zm2.64-.34a.11.11,0,0,1-.1-.09.09.09,0,0,1,.09-.11l.79-.11a.1.1,0,0,1,.11.09.09.09,0,0,1-.08.11l-.8.11Zm2.65-.34a.1.1,0,0,1-.1-.09.1.1,0,0,1,.08-.12l.8-.1a.09.09,0,0,1,.11.09.11.11,0,0,1-.09.11l-.79.1Zm2.64-.35a.11.11,0,0,1-.1-.09.1.1,0,0,1,.09-.11l.79-.1a.09.09,0,0,1,.11.09.1.1,0,0,1-.09.11l-.79.1Zm2.64-.34a.11.11,0,0,1-.1-.09s0-.11.09-.11l.79-.11a.11.11,0,0,1,.12.09.12.12,0,0,1-.09.12l-.79.1Zm2.65-.34a.1.1,0,0,1-.1-.09.1.1,0,0,1,.08-.12l.8-.1a.1.1,0,0,1,0,.2l-.79.11Zm5.61-.1a.11.11,0,0,1-.1-.08l-.12-.52h-.09a.09.09,0,0,1-.11-.09.1.1,0,0,1,.08-.11l.26,0,0,.09.15.62a.11.11,0,0,1-.08.12Zm-3-.25a.1.1,0,0,1-.1-.09.1.1,0,0,1,.09-.11l.79-.1a.09.09,0,0,1,.11.09.1.1,0,0,1-.08.11l-.8.1Z"/>
              <path class="cls-41" d="M244.49,214.91l0-1.16a.87.87,0,0,1,.59-.6c1.07-.32,3.74-1,5.17-.16l.36,1.3Z"/>
              <path class="cls-42" d="M247.76,213.36a1.51,1.51,0,0,1-.76.1.69.69,0,0,1-.6-.6l-.45-3.58,1.79-.24.46,3.58A.69.69,0,0,1,247.76,213.36Z"/>
              <path class="cls-43" d="M261.9,212.65l0-1.16a.9.9,0,0,1,.6-.6c1.07-.32,3.73-1,5.16-.16L268,212Z"/>
              <path class="cls-44" d="M265.17,211.1a1.48,1.48,0,0,1-.75.1.68.68,0,0,1-.61-.6l-.5-4,1.8-.23.5,4A.69.69,0,0,1,265.17,211.1Z"/>
              <path class="cls-45" d="M245.88,210.18,265.13,207a.94.94,0,0,0,.79-.89,8,8,0,0,0-.25-2.49,2.25,2.25,0,0,0-2.41-1.63c-3.61.38-12.8,1.57-17.6,4.26a1.79,1.79,0,0,0-.91,1.38,4.44,4.44,0,0,0,.2,2A.85.85,0,0,0,245.88,210.18Z"/>
              <path class="cls-46" d="M245.4,209.39a.28.28,0,0,1-.26-.21,4.69,4.69,0,0,1-.07-1.56,1.84,1.84,0,0,1,1.06-1.42,21.51,21.51,0,0,1,4.75-1.55.27.27,0,0,1,.3.23.28.28,0,0,1-.22.31,21.11,21.11,0,0,0-4.62,1.51,1.26,1.26,0,0,0-.74,1,4.27,4.27,0,0,0,.06,1.37.27.27,0,0,1-.2.32Z"/>
              <path class="cls-47" d="M235.46,215.62c6.24-.89,33.22-4.68,41.2-4.74a1.63,1.63,0,0,1,1.53,1.08A54.19,54.19,0,0,1,281,223.75a1.43,1.43,0,0,1-1,1.5L262.52,231l-6.36.83-19.58-1.37a1.52,1.52,0,0,1-1.38-1.25,64.53,64.53,0,0,1-1.17-12A1.7,1.7,0,0,1,235.46,215.62Z"/>
              <path class="cls-48" d="M256.11,230.35h0l-.8,0a.1.1,0,0,1-.09-.11c0-.06.05-.09.1-.1l.8.06a.09.09,0,0,1,.09.11A.09.09,0,0,1,256.11,230.35Zm.73-.09a.11.11,0,0,1-.1-.09c0-.06,0-.11.09-.11l.79-.11a.09.09,0,0,1,.11.09.09.09,0,0,1-.08.11l-.79.11Zm-3.39-.09h0l-.8-.06a.09.09,0,0,1-.09-.11.1.1,0,0,1,.1-.09l.8.05a.1.1,0,0,1,.09.11A.09.09,0,0,1,253.45,230.17ZM250.8,230h0l-.8-.06a.09.09,0,0,1-.09-.1c0-.06.06-.09.1-.1l.8.06a.1.1,0,0,1,0,.2Zm8.69-.07a.09.09,0,0,1-.1-.08.1.1,0,0,1,.08-.12l.8-.1a.09.09,0,0,1,.11.09.1.1,0,0,1-.09.11l-.79.1Zm-11.35-.12h0l-.8,0a.11.11,0,0,1-.09-.11.1.1,0,0,1,.11-.09l.79.05a.11.11,0,0,1,.1.11A.11.11,0,0,1,248.14,229.79Zm-2.66-.18h0l-.8-.06a.1.1,0,0,1,0-.2l.79.06a.1.1,0,0,1,.1.1A.11.11,0,0,1,245.48,229.61Zm16.65,0a.11.11,0,0,1-.1-.09.1.1,0,0,1,.09-.11h.05l.69-.23a.12.12,0,0,1,.13.07.1.1,0,0,1-.07.13l-.78.24Zm-19.31-.15h0l-.8,0a.12.12,0,0,1-.09-.11c0-.06.05-.09.11-.1l.79.06a.1.1,0,0,1,.1.11A.11.11,0,0,1,242.82,229.42Zm-2.66-.18h0l-.8-.06a.1.1,0,0,1-.09-.11.11.11,0,0,1,.11-.09l.8.05a.11.11,0,0,1,0,.21Zm-2.66-.19h0l-.85-.06v-.08a.11.11,0,0,1,.07-.13.11.11,0,0,1,.08,0l.73,0a.1.1,0,0,1,.09.1A.1.1,0,0,1,237.5,229.05Zm27.17-.3a.12.12,0,0,1-.1-.07.11.11,0,0,1,.07-.13l.76-.25a.09.09,0,0,1,.12.06.1.1,0,0,1-.06.13l-.76.25Zm2.53-.84a.1.1,0,0,1-.09-.07.1.1,0,0,1,.06-.13l.76-.25a.11.11,0,0,1,.13.07.1.1,0,0,1-.07.13l-.76.25Zm-30.79-.8a.11.11,0,0,1-.1-.09c0-.26-.08-.52-.12-.8a.1.1,0,0,1,.08-.12c.06,0,.11,0,.11.09.05.27.09.54.13.8a.1.1,0,0,1-.09.11Zm33.33,0a.12.12,0,0,1-.1-.07.11.11,0,0,1,.07-.13l.76-.25a.09.09,0,0,1,.12.06.1.1,0,0,1-.06.13l-.76.25Zm2.53-.84a.1.1,0,0,1-.09-.07.1.1,0,0,1,.06-.13l.76-.25a.1.1,0,1,1,.06.2l-.76.25Zm2.54-.83a.12.12,0,0,1-.1-.07.1.1,0,0,1,.07-.13l.76-.25a.09.09,0,0,1,.12.06.1.1,0,0,1-.06.13l-.76.25Zm2.53-.84a.1.1,0,0,1-.09-.07.1.1,0,0,1,.06-.13l.76-.25a.1.1,0,0,1,.13.07.09.09,0,0,1-.07.12l-.76.26ZM236,224.43a.1.1,0,0,1-.09-.09c0-.26-.07-.53-.1-.8a.1.1,0,0,1,.08-.12.1.1,0,0,1,.11.09c0,.27.07.54.1.8a.1.1,0,0,1-.08.12Zm43.35-1a.09.09,0,0,1-.1-.09c0-.26-.07-.53-.11-.8a.1.1,0,0,1,.08-.11.1.1,0,0,1,.12.08c0,.27.07.54.11.81,0,.05,0,.11-.09.11Zm-43.64-1.66a.11.11,0,0,1-.1-.09c0-.27,0-.54-.07-.81a.11.11,0,0,1,.1-.11c.06,0,.1,0,.1.09,0,.27.05.54.07.81a.1.1,0,0,1-.09.11Zm43.22-1a.1.1,0,0,1-.1-.08c-.05-.26-.11-.53-.16-.79a.1.1,0,0,1,.08-.12.11.11,0,0,1,.12.08l.15.79a.1.1,0,0,1-.07.12ZM235.57,219a.1.1,0,0,1-.1-.1c0-.21,0-.43,0-.64v-.17a.11.11,0,0,1,.1-.1h0a.1.1,0,0,1,.1.1v.17c0,.21,0,.42,0,.64a.09.09,0,0,1-.1.1Zm42.8-.94a.1.1,0,0,1-.1-.08c-.07-.27-.13-.53-.2-.78a.11.11,0,0,1,.07-.13.1.1,0,0,1,.12.07c.07.26.14.52.2.79a.09.09,0,0,1-.07.12Zm-41.81-.94a.09.09,0,0,1-.1-.08.1.1,0,0,1,.08-.12l.79-.11a.1.1,0,0,1,.12.09.11.11,0,0,1-.09.11l-.79.11Zm2.64-.37a.11.11,0,0,1-.1-.09.1.1,0,0,1,.08-.11l.8-.11a.1.1,0,0,1,.11.08.1.1,0,0,1-.09.12l-.79.11Zm2.64-.37a.1.1,0,0,1-.1-.08.1.1,0,0,1,.09-.12l.79-.11a.1.1,0,0,1,.11.09.09.09,0,0,1-.08.11l-.8.11Zm2.64-.36a.1.1,0,0,1-.1-.09.11.11,0,0,1,.09-.11l.79-.11a.1.1,0,0,1,.11.09.09.09,0,0,1-.08.11l-.79.11Zm2.65-.35a.1.1,0,0,1-.1-.09.1.1,0,0,1,.08-.12l.8-.1a.1.1,0,0,1,.11.09.11.11,0,0,1-.09.11l-.79.11Zm30.53-.22a.12.12,0,0,1-.1-.07c-.07-.27-.15-.53-.23-.78a.09.09,0,0,1,.07-.12.09.09,0,0,1,.12.06q.12.38.24.78a.12.12,0,0,1-.07.13Zm-27.89-.13a.11.11,0,0,1-.1-.09.1.1,0,0,1,.09-.12l.79-.1a.1.1,0,0,1,0,.2l-.8.11Zm2.64-.35a.1.1,0,0,1-.1-.09.12.12,0,0,1,.09-.11l.79-.1a.1.1,0,0,1,.12.09.12.12,0,0,1-.09.11l-.79.1Zm2.65-.33a.11.11,0,0,1-.1-.09.1.1,0,0,1,.09-.12l.79-.1a.11.11,0,0,1,.11.09.1.1,0,0,1-.09.12l-.79.09Zm2.64-.33a.11.11,0,0,1-.1-.09.1.1,0,0,1,.09-.11l.8-.1a.1.1,0,0,1,.11.09.12.12,0,0,1-.09.11l-.79.1Zm2.65-.32a.11.11,0,0,1-.1-.09c0-.06,0-.11.09-.11l.79-.1a.1.1,0,0,1,.11.09.09.09,0,0,1-.08.11l-.8.1Zm2.65-.31a.11.11,0,0,1-.1-.09.09.09,0,0,1,.09-.11l.79-.09c.06,0,.11,0,.11.09a.1.1,0,0,1-.09.11l-.79.09Zm2.65-.29a.1.1,0,0,1-.1-.09.1.1,0,0,1,.09-.12l.79-.08c.06,0,.11,0,.11.09a.09.09,0,0,1-.09.11l-.79.09Zm2.65-.28a.11.11,0,0,1-.1-.09.12.12,0,0,1,.09-.11l.8-.08c.05,0,.1,0,.11.09a.1.1,0,0,1-.09.11l-.8.08Zm8.54-.23a.12.12,0,0,1-.1-.07l-.1-.29h-.36a.1.1,0,0,1-.1-.1.1.1,0,0,1,.09-.11h.4a.15.15,0,0,1,.15.1l.11.32a.1.1,0,0,1-.06.13Zm-5.88,0a.09.09,0,0,1-.1-.09.1.1,0,0,1,.09-.11l.79-.07a.1.1,0,0,1,.11.1.1.1,0,0,1-.09.11l-.8.06Zm2.65-.2a.12.12,0,0,1-.1-.1.11.11,0,0,1,.1-.11l.8-.05a.09.09,0,0,1,.1.1.1.1,0,0,1-.09.1l-.8.05Z"/>
              <path class="cls-49" d="M262.27,233.8l-5.58.72a1.46,1.46,0,0,1-1.59-1.1l-1.33-5.35a1.47,1.47,0,0,1,1.22-1.82l6.7-.87a1.46,1.46,0,0,1,1.64,1.4l.21,5.5A1.48,1.48,0,0,1,262.27,233.8Z"/>
              <path class="cls-50" d="M261.45,232.89l-4.24.55a1.1,1.1,0,0,1-1.21-.84l-1-4.08a1.13,1.13,0,0,1,.94-1.38l5.1-.66a1.11,1.11,0,0,1,1.24,1.07l.16,4.18A1.13,1.13,0,0,1,261.45,232.89Z"/>
            </g>
            <path class="cls-51" d="M258.14,189.54a44.9,44.9,0,0,1,1.15,12.86,1.52,1.52,0,0,1-1.4,1.37l-3,.2a5.57,5.57,0,0,1-3.17-1.24.5.5,0,0,0-.73.63,6,6,0,0,0,1.81,2c.42.32,1.81.9,1.72,1.53a1.17,1.17,0,0,1-.28.54,6.44,6.44,0,0,1-3.11,1.81.8.8,0,0,0-.4.2c0,.76,2.27,1.61,2.87,1.81a6.52,6.52,0,0,0,2.77.32,8.2,8.2,0,0,0,5.72-3.82,41.88,41.88,0,0,0,5.7-16.39C264.71,188.19,260,189,258.14,189.54Z"/>
            <g>
              <path class="cls-52" d="M267.82,191.84c2.47-19-12-33.58-12-33.58l-8.58,10.15c6.52,8.23,9.62,15.78,11,21.71C260.19,189.56,264.71,188.69,267.82,191.84Z"/>
              <path class="cls-53" d="M258.11,190a.53.53,0,0,1-.52-.41,55.73,55.73,0,0,0-10.93-21.5.54.54,0,0,1,.08-.75.53.53,0,0,1,.75.08,56.74,56.74,0,0,1,11.13,21.92.53.53,0,0,1-.39.65Z"/>
            </g>
          </g>
          <g>
            <g>
              <path class="cls-54" d="M141.84,302.54a1.41,1.41,0,0,0,0-.28c-1.38-5.55-8.24-9-8.24-9l-2.71.21c-1.56,4.89-1.36,7.89-1.11,9.23a.45.45,0,0,0,0,.11A64,64,0,0,0,141.84,302.54Z"/>
              <path class="cls-55" d="M129.78,302.81a1.18,1.18,0,0,0,.86.88c3.18.68,8.25.13,10.38-.15a1,1,0,0,0,.82-1A64,64,0,0,1,129.78,302.81Z"/>
              <path class="cls-56" d="M129.77,289.37l1.15,5.61a.9.9,0,0,0,.77.76,7.7,7.7,0,0,0,1.78,0,1.15,1.15,0,0,0,.9-1.36l-.8-5Z"/>
              <path class="cls-57" d="M153.6,302.74a16.27,16.27,0,0,1-5.36-.78c0,.3,0,.61,0,.93a.6.6,0,0,0,.57.61l16.47-.11a.76.76,0,0,0,.6-1.11A122.63,122.63,0,0,1,153.6,302.74Z"/>
              <path class="cls-58" d="M165.89,302.28l-.06-.12c-1.46-2.06-5.16-6.17-12.48-7.94l-3.51-.12a17.25,17.25,0,0,0-1.6,7.86,16.27,16.27,0,0,0,5.36.78A122.63,122.63,0,0,0,165.89,302.28Z"/>
              <path class="cls-59" d="M149,288.87c.05.27.79,4.26,1.07,5.81a.77.77,0,0,0,.68.66,8.09,8.09,0,0,0,2.41-.2,1,1,0,0,0,.72-1.1l-.39-6.32Z"/>
              <path class="cls-60" d="M146.37,215.14s4.83,33.64,8.31,73.68a1.52,1.52,0,0,1-1.24,1.55,18.92,18.92,0,0,1-3.93.46,1.45,1.45,0,0,1-1.38-1.23c-1.19-7.06-9.66-45-11.89-53.28,0,0-2.55,35.41-1.73,53.79a.87.87,0,0,1-.76.9,14.16,14.16,0,0,1-3.15,0,1.16,1.16,0,0,1-1-1c-.84-6-5.71-41.53-5.51-67.14,0-1.45,1.68-13.32,1.68-13.32Z"/>
            </g>
            <path class="cls-61" d="M125,217.08a1.4,1.4,0,0,1-.9-1.17c-.64-6.31-3.75-45.48,15.89-61.59,0,0,1.12-3,10.38,4.35s4.3,15,2.08,25.65c-2.68,12.84-7.39,23.34-5.3,31.24a1.09,1.09,0,0,1-.67,1.31A30.23,30.23,0,0,1,125,217.08Z"/>
            <path class="cls-62" d="M147.65,142.58c0,.56-7.84,11.85-7.84,11.85s1.4,2.81,8.12,5.09l5.8-12.09Z"/>
            <g>
              <path class="cls-63" d="M153.83,136.12s2.79,6.49,3,9.9.92,5.62-3,6.31a8.24,8.24,0,0,1-8.94-4.67s-2.78-5.24-2.16-7.38S153.83,136.12,153.83,136.12Z"/>
              <path class="cls-64" d="M146.22,145.21l.22-.09a.55.55,0,0,0,.26-.75c-.55-1.07-1.62-3.53-.24-4.11,1.78-.74,8.83-2.19,10.35-4.73a4.75,4.75,0,0,0-1.78-6.48.27.27,0,0,0-.35.12l-.16.31a.27.27,0,0,1-.49,0h0a.26.26,0,0,0-.47-.07c-.47.76-1.73,2-5.11,2.62-4.8.9-8,2.86-8,6.23a.27.27,0,0,1-.41.22c-.35-.22-.92-.33-1.68.32-1.31,1.12-.77,4,2.11,6.43a.27.27,0,0,1,0,.43c-.52.35-1.3,1.17.72,2.27a6.76,6.76,0,0,0,4.26.94.28.28,0,0,0,.21-.33l-.64-3a.27.27,0,0,1,.26-.33Z"/>
              <path class="cls-65" d="M146.34,145.84s-1.07-4.15-2.9-3,.95,4.65,2.42,4.81Z"/>
            </g>
            <g>
              <path class="cls-66" d="M153.35,162.08l.54,14.72a40.87,40.87,0,0,0,4.39,1.26,44.62,44.62,0,0,1,4.36-8.92A21.6,21.6,0,0,1,153.35,162.08Z"/>
              <path class="cls-67" d="M182.15,161.83c-7.91,8.66-14.32,9.17-19.51,7.31a44.62,44.62,0,0,0-4.36,8.92c21.13,4.72,26.11-15,26.11-15Z"/>
              <path class="cls-68" d="M183.75,160.91a2.88,2.88,0,0,1,2.6-.68c1.69.31,3.19.91,4.24,0s1.42.31,1.42.31L188.86,163Z"/>
              <path class="cls-69" d="M181.87,162.61s.63-2.65,2.51-2.29,6.15,2.72,7.25,2.29,2.51-1.48,3.23-1.11l-1.27,1.6s3.27-1.91,3.84-.73l-5.45,3.1S184,164.66,181.87,162.61Z"/>
            </g>
            <path class="cls-70" d="M144.57,181.34s14.88,12.63,30.94,7.12a3.77,3.77,0,0,1,3,.23l4.62,2.47a4.08,4.08,0,0,0,5.46-1.55,8.92,8.92,0,0,0,1.3-3.52l-9-3.71.66-1.12s-4.41-.38-5.56,2.82c0,0-8.41,3.55-22.58-12.25C153.39,171.83,147,177.37,144.57,181.34Z"/>
            <path class="cls-71" d="M143.77,181.21a.24.24,0,0,1-.14-.05,28.84,28.84,0,0,1-9.24-11.28.26.26,0,0,1,.13-.34.27.27,0,0,1,.34.14,28.41,28.41,0,0,0,9,11.06.26.26,0,0,1,.07.36A.26.26,0,0,1,143.77,181.21Z"/>
            <path class="cls-72" d="M153.1,171.61a.26.26,0,0,1-.22-.12s-1.93-3-5.57-9.66a7.42,7.42,0,0,0-4.38-3.83,8.47,8.47,0,0,0-5.83.79.26.26,0,0,1-.25-.45,8.81,8.81,0,0,1,6.21-.84,7.9,7.9,0,0,1,4.69,4.08c3.64,6.6,5.54,9.61,5.56,9.64a.26.26,0,0,1-.07.35A.25.25,0,0,1,153.1,171.61Z"/>
          </g>
        </g>
      </g>
    </g>
  </g>
</svg>
